<svg width="71" height="70" viewBox="0 0 71 70" fill="none" xmlns="http://www.w3.org/2000/svg">
<g clip-path="url(#clip0_481_3832)">
<g filter="url(#filter0_d_481_3832)">
<path d="M42.3926 42.6562C42.3926 37.2197 46.7998 32.8125 52.2363 32.8125C57.6728 32.8125 62.0801 37.2197 62.0801 42.6562C62.0801 48.0928 57.6728 52.5 52.2363 52.5C46.7998 52.5 42.3926 48.0928 42.3926 42.6562Z" fill="url(#paint0_linear_481_3832)"/>
</g>
<g filter="url(#filter1_d_481_3832)">
<path d="M18.3301 35C18.3301 33.7919 19.3095 32.8125 20.5176 32.8125H35.8301C37.0382 32.8125 38.0176 33.7919 38.0176 35V50.3125C38.0176 51.5206 37.0382 52.5 35.8301 52.5H20.5176C19.3095 52.5 18.3301 51.5206 18.3301 50.3125V35Z" fill="url(#paint1_linear_481_3832)"/>
</g>
<g filter="url(#filter2_d_481_3832)">
<path d="M32.0958 8.75H24.2519C23.9618 8.75 23.6836 8.86523 23.4785 9.07036L18.6504 13.8984C18.4453 14.1035 18.3301 14.3817 18.3301 14.6718V22.5157C18.3301 22.8058 18.4453 23.084 18.6504 23.2891L23.4785 28.1171C23.6836 28.3223 23.9618 28.4375 24.2519 28.4375H32.0958C32.3859 28.4375 32.6641 28.3223 32.8692 28.1171L37.6972 23.2891C37.9024 23.084 38.0176 22.8058 38.0176 22.5157V14.6718C38.0176 14.3817 37.9024 14.1035 37.6972 13.8984L32.8692 9.07036C32.6641 8.86523 32.3859 8.75 32.0958 8.75Z" fill="url(#paint2_linear_481_3832)"/>
</g>
<g filter="url(#filter3_d_481_3832)">
<path d="M51.7468 9.72811C51.9484 9.32501 52.5236 9.32501 52.7251 9.72811L61.6838 27.6459C61.8659 28.0095 61.6012 28.4373 61.1949 28.4373H43.2771C42.8705 28.4373 42.6061 28.0095 42.7879 27.6459L51.7468 9.72811Z" fill="url(#paint3_linear_481_3832)"/>
</g>
<g filter="url(#filter4_dd_481_3832)">
<path d="M33.6426 51.4062C33.6426 45.9697 38.0498 41.5625 43.4863 41.5625C48.9229 41.5625 53.3301 45.9697 53.3301 51.4062C53.3301 56.8427 48.9229 61.25 43.4863 61.25C38.0498 61.25 33.6426 56.8427 33.6426 51.4062Z" fill="white" fill-opacity="0.4"/>
</g>
<g filter="url(#filter5_dd_481_3832)">
<path d="M9.58008 43.75C9.58008 42.5419 10.5595 41.5625 11.7676 41.5625H27.0801C28.2882 41.5625 29.2676 42.5419 29.2676 43.75V59.0625C29.2676 60.2705 28.2882 61.25 27.0801 61.25H11.7676C10.5595 61.25 9.58008 60.2705 9.58008 59.0625V43.75Z" fill="white" fill-opacity="0.4"/>
</g>
<g filter="url(#filter6_dd_481_3832)">
<path d="M23.3458 17.5H15.5019C15.2118 17.5 14.9336 17.6152 14.7285 17.8204L9.90044 22.6484C9.6953 22.8535 9.58008 23.1317 9.58008 23.4218V31.2657C9.58008 31.5558 9.6953 31.834 9.90044 32.0391L14.7285 36.8671C14.9336 37.0723 15.2118 37.1875 15.5019 37.1875H23.3458C23.6359 37.1875 23.9141 37.0723 24.1192 36.8671L28.9472 32.0391C29.1524 31.834 29.2676 31.5558 29.2676 31.2657V23.4218C29.2676 23.1317 29.1524 22.8535 28.9472 22.6484L24.1192 17.8204C23.9141 17.6152 23.6359 17.5 23.3458 17.5Z" fill="white" fill-opacity="0.4"/>
</g>
<g filter="url(#filter7_dd_481_3832)">
<path d="M42.9968 18.4781C43.1984 18.075 43.7736 18.075 43.9751 18.4781L52.934 36.3959C53.1158 36.7595 52.8514 37.1873 52.4448 37.1873H34.5271C34.1205 37.1873 33.8561 36.7595 34.0379 36.3959L42.9968 18.4781Z" fill="white" fill-opacity="0.4"/>
</g>
</g>
<defs>
<filter id="filter0_d_481_3832" x="34.3926" y="24.8125" width="35.6875" height="35.6875" filterUnits="userSpaceOnUse" color-interpolation-filters="sRGB">
<feFlood flood-opacity="0" result="BackgroundImageFix"/>
<feColorMatrix in="SourceAlpha" type="matrix" values="0 0 0 0 0 0 0 0 0 0 0 0 0 0 0 0 0 0 127 0" result="hardAlpha"/>
<feOffset/>
<feGaussianBlur stdDeviation="4"/>
<feComposite in2="hardAlpha" operator="out"/>
<feColorMatrix type="matrix" values="0 0 0 0 1 0 0 0 0 1 0 0 0 0 1 0 0 0 0.8 0"/>
<feBlend mode="normal" in2="BackgroundImageFix" result="effect1_dropShadow_481_3832"/>
<feBlend mode="normal" in="SourceGraphic" in2="effect1_dropShadow_481_3832" result="shape"/>
</filter>
<filter id="filter1_d_481_3832" x="10.3301" y="24.8125" width="35.6875" height="35.6875" filterUnits="userSpaceOnUse" color-interpolation-filters="sRGB">
<feFlood flood-opacity="0" result="BackgroundImageFix"/>
<feColorMatrix in="SourceAlpha" type="matrix" values="0 0 0 0 0 0 0 0 0 0 0 0 0 0 0 0 0 0 127 0" result="hardAlpha"/>
<feOffset/>
<feGaussianBlur stdDeviation="4"/>
<feComposite in2="hardAlpha" operator="out"/>
<feColorMatrix type="matrix" values="0 0 0 0 1 0 0 0 0 1 0 0 0 0 1 0 0 0 0.8 0"/>
<feBlend mode="normal" in2="BackgroundImageFix" result="effect1_dropShadow_481_3832"/>
<feBlend mode="normal" in="SourceGraphic" in2="effect1_dropShadow_481_3832" result="shape"/>
</filter>
<filter id="filter2_d_481_3832" x="10.3301" y="0.75" width="35.6875" height="35.6875" filterUnits="userSpaceOnUse" color-interpolation-filters="sRGB">
<feFlood flood-opacity="0" result="BackgroundImageFix"/>
<feColorMatrix in="SourceAlpha" type="matrix" values="0 0 0 0 0 0 0 0 0 0 0 0 0 0 0 0 0 0 127 0" result="hardAlpha"/>
<feOffset/>
<feGaussianBlur stdDeviation="4"/>
<feComposite in2="hardAlpha" operator="out"/>
<feColorMatrix type="matrix" values="0 0 0 0 1 0 0 0 0 1 0 0 0 0 1 0 0 0 0.8 0"/>
<feBlend mode="normal" in2="BackgroundImageFix" result="effect1_dropShadow_481_3832"/>
<feBlend mode="normal" in="SourceGraphic" in2="effect1_dropShadow_481_3832" result="shape"/>
</filter>
<filter id="filter3_d_481_3832" x="34.7295" y="1.42578" width="35.0127" height="35.0117" filterUnits="userSpaceOnUse" color-interpolation-filters="sRGB">
<feFlood flood-opacity="0" result="BackgroundImageFix"/>
<feColorMatrix in="SourceAlpha" type="matrix" values="0 0 0 0 0 0 0 0 0 0 0 0 0 0 0 0 0 0 127 0" result="hardAlpha"/>
<feOffset/>
<feGaussianBlur stdDeviation="4"/>
<feComposite in2="hardAlpha" operator="out"/>
<feColorMatrix type="matrix" values="0 0 0 0 1 0 0 0 0 1 0 0 0 0 1 0 0 0 0.8 0"/>
<feBlend mode="normal" in2="BackgroundImageFix" result="effect1_dropShadow_481_3832"/>
<feBlend mode="normal" in="SourceGraphic" in2="effect1_dropShadow_481_3832" result="shape"/>
</filter>
<filter id="filter4_dd_481_3832" x="25.6426" y="37.5625" width="35.6875" height="35.6875" filterUnits="userSpaceOnUse" color-interpolation-filters="sRGB">
<feFlood flood-opacity="0" result="BackgroundImageFix"/>
<feColorMatrix in="SourceAlpha" type="matrix" values="0 0 0 0 0 0 0 0 0 0 0 0 0 0 0 0 0 0 127 0" result="hardAlpha"/>
<feOffset/>
<feGaussianBlur stdDeviation="2"/>
<feComposite in2="hardAlpha" operator="out"/>
<feColorMatrix type="matrix" values="0 0 0 0 1 0 0 0 0 1 0 0 0 0 1 0 0 0 1 0"/>
<feBlend mode="normal" in2="BackgroundImageFix" result="effect1_dropShadow_481_3832"/>
<feColorMatrix in="SourceAlpha" type="matrix" values="0 0 0 0 0 0 0 0 0 0 0 0 0 0 0 0 0 0 127 0" result="hardAlpha"/>
<feOffset dy="4"/>
<feGaussianBlur stdDeviation="4"/>
<feComposite in2="hardAlpha" operator="out"/>
<feColorMatrix type="matrix" values="0 0 0 0 1 0 0 0 0 1 0 0 0 0 1 0 0 0 1 0"/>
<feBlend mode="normal" in2="effect1_dropShadow_481_3832" result="effect2_dropShadow_481_3832"/>
<feBlend mode="normal" in="SourceGraphic" in2="effect2_dropShadow_481_3832" result="shape"/>
</filter>
<filter id="filter5_dd_481_3832" x="1.58008" y="37.5625" width="35.6875" height="35.6875" filterUnits="userSpaceOnUse" color-interpolation-filters="sRGB">
<feFlood flood-opacity="0" result="BackgroundImageFix"/>
<feColorMatrix in="SourceAlpha" type="matrix" values="0 0 0 0 0 0 0 0 0 0 0 0 0 0 0 0 0 0 127 0" result="hardAlpha"/>
<feOffset/>
<feGaussianBlur stdDeviation="2"/>
<feComposite in2="hardAlpha" operator="out"/>
<feColorMatrix type="matrix" values="0 0 0 0 1 0 0 0 0 1 0 0 0 0 1 0 0 0 1 0"/>
<feBlend mode="normal" in2="BackgroundImageFix" result="effect1_dropShadow_481_3832"/>
<feColorMatrix in="SourceAlpha" type="matrix" values="0 0 0 0 0 0 0 0 0 0 0 0 0 0 0 0 0 0 127 0" result="hardAlpha"/>
<feOffset dy="4"/>
<feGaussianBlur stdDeviation="4"/>
<feComposite in2="hardAlpha" operator="out"/>
<feColorMatrix type="matrix" values="0 0 0 0 1 0 0 0 0 1 0 0 0 0 1 0 0 0 1 0"/>
<feBlend mode="normal" in2="effect1_dropShadow_481_3832" result="effect2_dropShadow_481_3832"/>
<feBlend mode="normal" in="SourceGraphic" in2="effect2_dropShadow_481_3832" result="shape"/>
</filter>
<filter id="filter6_dd_481_3832" x="1.58008" y="13.5" width="35.6875" height="35.6875" filterUnits="userSpaceOnUse" color-interpolation-filters="sRGB">
<feFlood flood-opacity="0" result="BackgroundImageFix"/>
<feColorMatrix in="SourceAlpha" type="matrix" values="0 0 0 0 0 0 0 0 0 0 0 0 0 0 0 0 0 0 127 0" result="hardAlpha"/>
<feOffset/>
<feGaussianBlur stdDeviation="2"/>
<feComposite in2="hardAlpha" operator="out"/>
<feColorMatrix type="matrix" values="0 0 0 0 1 0 0 0 0 1 0 0 0 0 1 0 0 0 1 0"/>
<feBlend mode="normal" in2="BackgroundImageFix" result="effect1_dropShadow_481_3832"/>
<feColorMatrix in="SourceAlpha" type="matrix" values="0 0 0 0 0 0 0 0 0 0 0 0 0 0 0 0 0 0 127 0" result="hardAlpha"/>
<feOffset dy="4"/>
<feGaussianBlur stdDeviation="4"/>
<feComposite in2="hardAlpha" operator="out"/>
<feColorMatrix type="matrix" values="0 0 0 0 1 0 0 0 0 1 0 0 0 0 1 0 0 0 1 0"/>
<feBlend mode="normal" in2="effect1_dropShadow_481_3832" result="effect2_dropShadow_481_3832"/>
<feBlend mode="normal" in="SourceGraphic" in2="effect2_dropShadow_481_3832" result="shape"/>
</filter>
<filter id="filter7_dd_481_3832" x="25.9795" y="14.1758" width="35.0127" height="35.0117" filterUnits="userSpaceOnUse" color-interpolation-filters="sRGB">
<feFlood flood-opacity="0" result="BackgroundImageFix"/>
<feColorMatrix in="SourceAlpha" type="matrix" values="0 0 0 0 0 0 0 0 0 0 0 0 0 0 0 0 0 0 127 0" result="hardAlpha"/>
<feOffset/>
<feGaussianBlur stdDeviation="2"/>
<feComposite in2="hardAlpha" operator="out"/>
<feColorMatrix type="matrix" values="0 0 0 0 1 0 0 0 0 1 0 0 0 0 1 0 0 0 1 0"/>
<feBlend mode="normal" in2="BackgroundImageFix" result="effect1_dropShadow_481_3832"/>
<feColorMatrix in="SourceAlpha" type="matrix" values="0 0 0 0 0 0 0 0 0 0 0 0 0 0 0 0 0 0 127 0" result="hardAlpha"/>
<feOffset dy="4"/>
<feGaussianBlur stdDeviation="4"/>
<feComposite in2="hardAlpha" operator="out"/>
<feColorMatrix type="matrix" values="0 0 0 0 1 0 0 0 0 1 0 0 0 0 1 0 0 0 1 0"/>
<feBlend mode="normal" in2="effect1_dropShadow_481_3832" result="effect2_dropShadow_481_3832"/>
<feBlend mode="normal" in="SourceGraphic" in2="effect2_dropShadow_481_3832" result="shape"/>
</filter>
<linearGradient id="paint0_linear_481_3832" x1="52.2363" y1="32.8125" x2="52.2363" y2="52.5" gradientUnits="userSpaceOnUse">
<stop stop-color="#6966FF"/>
<stop offset="1" stop-color="#9D68F3"/>
</linearGradient>
<linearGradient id="paint1_linear_481_3832" x1="28.1738" y1="32.8125" x2="28.1738" y2="52.5" gradientUnits="userSpaceOnUse">
<stop stop-color="#6966FF"/>
<stop offset="1" stop-color="#9D68F3"/>
</linearGradient>
<linearGradient id="paint2_linear_481_3832" x1="28.1738" y1="8.75" x2="28.1738" y2="28.4375" gradientUnits="userSpaceOnUse">
<stop stop-color="#6966FF"/>
<stop offset="1" stop-color="#9D68F3"/>
</linearGradient>
<linearGradient id="paint3_linear_481_3832" x1="52.236" y1="9.42579" x2="52.236" y2="28.4373" gradientUnits="userSpaceOnUse">
<stop stop-color="#6966FF"/>
<stop offset="1" stop-color="#9D68F3"/>
</linearGradient>
<clipPath id="clip0_481_3832">
<rect width="70" height="70" fill="white" transform="translate(0.830078)"/>
</clipPath>
</defs>
</svg>
