<svg width="71" height="70" viewBox="0 0 71 70" fill="none" xmlns="http://www.w3.org/2000/svg">
<g clip-path="url(#clip0_481_3849)">
<g filter="url(#filter0_d_481_3849)">
<g filter="url(#filter1_d_481_3849)">
<path d="M62.0801 30.625C62.0801 42.7062 52.2863 52.5 40.2051 52.5C28.1238 52.5 18.3301 42.7062 18.3301 30.625C18.3301 18.5438 28.1238 8.75 40.2051 8.75C52.2863 8.75 62.0801 18.5438 62.0801 30.625Z" fill="url(#paint0_linear_481_3849)"/>
</g>
<g filter="url(#filter2_dd_481_3849)">
<path fill-rule="evenodd" clip-rule="evenodd" d="M31.4551 61.25C43.5363 61.25 53.3301 51.4562 53.3301 39.375C53.3301 27.2938 43.5363 17.5 31.4551 17.5C19.3738 17.5 9.58008 27.2938 9.58008 39.375C9.58008 51.4562 19.3738 61.25 31.4551 61.25ZM34.8557 28.3506C34.748 28.5371 34.6639 28.7308 34.6024 28.9283C31.0046 28.2565 28.4239 30.8277 27.4565 32.5032L23.3089 39.6872L19.6212 37.5581C18.8365 37.105 17.8331 37.3739 17.38 38.1586C16.927 38.9432 17.1959 39.9466 17.9806 40.3997L37.6486 51.755C38.4333 52.2081 39.4367 51.9392 39.8898 51.1545C40.3428 50.3699 40.0739 49.3665 39.2892 48.9134L35.6014 46.7843L39.749 39.6003C40.7037 37.9468 41.6281 34.4966 39.3644 31.7345C39.5186 31.5733 39.6562 31.3912 39.7727 31.1894C40.5567 29.8316 40.0914 28.0954 38.7336 27.3115C37.3758 26.5276 35.6396 26.9928 34.8557 28.3506ZM25.178 50.8097C23.8202 50.0257 23.355 48.2895 24.1389 46.9317L29.0559 49.7705C28.272 51.1284 26.5358 51.5936 25.178 50.8097Z" fill="white" fill-opacity="0.4"/>
</g>
</g>
</g>
<defs>
<filter id="filter0_d_481_3849" x="5.58008" y="4.75" width="68.5" height="68.5" filterUnits="userSpaceOnUse" color-interpolation-filters="sRGB">
<feFlood flood-opacity="0" result="BackgroundImageFix"/>
<feColorMatrix in="SourceAlpha" type="matrix" values="0 0 0 0 0 0 0 0 0 0 0 0 0 0 0 0 0 0 127 0" result="hardAlpha"/>
<feOffset dx="4" dy="4"/>
<feGaussianBlur stdDeviation="4"/>
<feColorMatrix type="matrix" values="0 0 0 0 0.956863 0 0 0 0 0.364706 0 0 0 0 0.827451 0 0 0 0.2 0"/>
<feBlend mode="normal" in2="BackgroundImageFix" result="effect1_dropShadow_481_3849"/>
<feBlend mode="normal" in="SourceGraphic" in2="effect1_dropShadow_481_3849" result="shape"/>
</filter>
<filter id="filter1_d_481_3849" x="10.3301" y="0.75" width="59.75" height="59.75" filterUnits="userSpaceOnUse" color-interpolation-filters="sRGB">
<feFlood flood-opacity="0" result="BackgroundImageFix"/>
<feColorMatrix in="SourceAlpha" type="matrix" values="0 0 0 0 0 0 0 0 0 0 0 0 0 0 0 0 0 0 127 0" result="hardAlpha"/>
<feOffset/>
<feGaussianBlur stdDeviation="4"/>
<feComposite in2="hardAlpha" operator="out"/>
<feColorMatrix type="matrix" values="0 0 0 0 1 0 0 0 0 1 0 0 0 0 1 0 0 0 0.8 0"/>
<feBlend mode="normal" in2="BackgroundImageFix" result="effect1_dropShadow_481_3849"/>
<feBlend mode="normal" in="SourceGraphic" in2="effect1_dropShadow_481_3849" result="shape"/>
</filter>
<filter id="filter2_dd_481_3849" x="1.58008" y="13.5" width="59.75" height="59.75" filterUnits="userSpaceOnUse" color-interpolation-filters="sRGB">
<feFlood flood-opacity="0" result="BackgroundImageFix"/>
<feColorMatrix in="SourceAlpha" type="matrix" values="0 0 0 0 0 0 0 0 0 0 0 0 0 0 0 0 0 0 127 0" result="hardAlpha"/>
<feOffset/>
<feGaussianBlur stdDeviation="2"/>
<feComposite in2="hardAlpha" operator="out"/>
<feColorMatrix type="matrix" values="0 0 0 0 1 0 0 0 0 1 0 0 0 0 1 0 0 0 1 0"/>
<feBlend mode="normal" in2="BackgroundImageFix" result="effect1_dropShadow_481_3849"/>
<feColorMatrix in="SourceAlpha" type="matrix" values="0 0 0 0 0 0 0 0 0 0 0 0 0 0 0 0 0 0 127 0" result="hardAlpha"/>
<feOffset dy="4"/>
<feGaussianBlur stdDeviation="4"/>
<feComposite in2="hardAlpha" operator="out"/>
<feColorMatrix type="matrix" values="0 0 0 0 1 0 0 0 0 1 0 0 0 0 1 0 0 0 1 0"/>
<feBlend mode="normal" in2="effect1_dropShadow_481_3849" result="effect2_dropShadow_481_3849"/>
<feBlend mode="normal" in="SourceGraphic" in2="effect2_dropShadow_481_3849" result="shape"/>
</filter>
<linearGradient id="paint0_linear_481_3849" x1="40.2051" y1="8.75" x2="40.2051" y2="52.5" gradientUnits="userSpaceOnUse">
<stop stop-color="#FC954B"/>
<stop offset="1" stop-color="#F45DD3"/>
</linearGradient>
<clipPath id="clip0_481_3849">
<rect width="70" height="70" fill="white" transform="translate(0.830078)"/>
</clipPath>
</defs>
</svg>
