<svg width="743" height="200" viewBox="0 0 743 200" fill="none" xmlns="http://www.w3.org/2000/svg">
<g filter="url(#filter0_d_414_15181)">
<path d="M707.547 64.7956C707.547 30.0973 679.418 1.96883 644.72 1.96883V1.96883V92.9023H707.547V64.7956Z" fill="#E9E9EB" stroke="#E9E9EB" stroke-width="2.5762"/>
<rect width="62.8268" height="6.19532" transform="matrix(-1 0 0 1 707.547 92.9023)" fill="#E9E9EB" stroke="#E9E9EB" stroke-width="2.5762"/>
<path fill-rule="evenodd" clip-rule="evenodd" d="M706.406 139.182C707.155 135.305 707.547 131.3 707.547 127.204V99.0977H644.72V190.031C659.934 190.031 673.885 184.623 684.755 175.625C695.6 182.85 712.99 189.718 734 185.898C728.213 183.418 705.893 168.538 706.72 138.778C706.62 138.916 706.515 139.05 706.406 139.182Z" fill="#E9E9EB"/>
<path d="M706.406 139.182L707.399 140.002L705.142 138.938L706.406 139.182ZM707.547 99.0977V97.8096H708.835V99.0977H707.547ZM644.72 99.0977H643.432V97.8096H644.72V99.0977ZM644.72 190.031V191.319H643.432V190.031H644.72ZM684.755 175.625L683.934 174.633L684.672 174.022L685.47 174.553L684.755 175.625ZM734 185.898L734.507 184.714L738.441 186.4L734.23 187.165L734 185.898ZM706.72 138.778L705.678 138.02L708.123 134.659L708.008 138.814L706.72 138.778ZM708.835 127.204C708.835 131.383 708.435 135.469 707.671 139.426L705.142 138.938C705.875 135.14 706.259 131.218 706.259 127.204H708.835ZM708.835 99.0977V127.204H706.259V99.0977H708.835ZM644.72 97.8096H707.547V100.386H644.72V97.8096ZM643.432 190.031V99.0977H646.008V190.031H643.432ZM685.577 176.618C674.484 185.8 660.245 191.319 644.72 191.319V188.743C659.623 188.743 673.286 183.447 683.934 174.633L685.577 176.618ZM734.23 187.165C712.81 191.06 695.086 184.055 684.041 176.697L685.47 174.553C696.115 181.645 713.17 188.376 733.77 184.631L734.23 187.165ZM708.008 138.814C707.604 153.338 712.842 164.208 718.886 171.763C724.955 179.35 731.811 183.558 734.507 184.714L733.493 187.082C730.402 185.757 723.205 181.286 716.874 173.372C710.518 165.427 705.009 153.978 705.432 138.742L708.008 138.814ZM705.413 138.361C705.505 138.25 705.594 138.136 705.678 138.02L707.762 139.535C707.646 139.695 707.525 139.851 707.399 140.002L705.413 138.361Z" fill="#E9E9EB"/>
<rect width="575.893" height="188.062" transform="matrix(-1 0 0 1 644.72 1.96883)" fill="#E9E9EB"/>
<rect width="575.893" height="188.062" transform="matrix(-1 0 0 1 644.72 1.96883)" stroke="#E9E9EB" stroke-width="2.5762"/>
<path d="M6 64.7956C6 30.0973 34.1285 1.96883 68.8268 1.96883V1.96883V92.9023H6V64.7956Z" fill="#E9E9EB" stroke="#E9E9EB" stroke-width="2.5762"/>
<rect x="6" y="92.9023" width="62.8268" height="6.19532" fill="#E9E9EB" stroke="#E9E9EB" stroke-width="2.5762"/>
<path d="M6 127.204C6 161.903 34.1285 190.031 68.8268 190.031V190.031V99.0976H6V127.204Z" fill="#E9E9EB" stroke="#E9E9EB" stroke-width="2.5762"/>
</g>
<defs>
<filter id="filter0_d_414_15181" x="0.711914" y="0.680737" width="741.729" height="198.639" filterUnits="userSpaceOnUse" color-interpolation-filters="sRGB">
<feFlood flood-opacity="0" result="BackgroundImageFix"/>
<feColorMatrix in="SourceAlpha" type="matrix" values="0 0 0 0 0 0 0 0 0 0 0 0 0 0 0 0 0 0 127 0" result="hardAlpha"/>
<feOffset dy="4"/>
<feGaussianBlur stdDeviation="2"/>
<feComposite in2="hardAlpha" operator="out"/>
<feColorMatrix type="matrix" values="0 0 0 0 0 0 0 0 0 0 0 0 0 0 0 0 0 0 0.25 0"/>
<feBlend mode="normal" in2="BackgroundImageFix" result="effect1_dropShadow_414_15181"/>
<feBlend mode="normal" in="SourceGraphic" in2="effect1_dropShadow_414_15181" result="shape"/>
</filter>
</defs>
</svg>
