<svg width="729" height="200" viewBox="0 0 729 200" fill="none" xmlns="http://www.w3.org/2000/svg">
<g filter="url(#filter0_d_414_15166)">
<path d="M35.4531 64.8268C35.4531 30.1285 63.5816 2 98.2799 2V2V92.9335H35.4531V64.8268Z" fill="#E9E9EB" stroke="#E9E9EB" stroke-width="2.5762"/>
<rect x="35.4531" y="92.9335" width="62.8268" height="6.19532" fill="#E9E9EB" stroke="#E9E9EB" stroke-width="2.5762"/>
<path fill-rule="evenodd" clip-rule="evenodd" d="M36.5936 139.213C35.8452 135.336 35.4533 131.331 35.4533 127.236V99.1288H98.28V190.062C83.0661 190.062 69.1152 184.655 58.2446 175.656C47.3996 182.881 30.0098 189.749 9 185.929C14.7867 183.449 37.1067 168.569 36.2801 138.809C36.3803 138.947 36.4849 139.081 36.5936 139.213Z" fill="#E9E9EB"/>
<path d="M36.5936 139.213L35.6006 140.033L37.8584 138.969L36.5936 139.213ZM35.4533 99.1288V97.8407H34.1652V99.1288H35.4533ZM98.28 99.1288H99.5681V97.8407H98.28V99.1288ZM98.28 190.062V191.35H99.5681V190.062H98.28ZM58.2446 175.656L59.066 174.664L58.3279 174.053L57.5305 174.584L58.2446 175.656ZM9 185.929L8.49259 184.745L4.55919 186.431L8.76958 187.196L9 185.929ZM36.2801 138.809L37.3218 138.051L34.877 134.69L34.9925 138.845L36.2801 138.809ZM34.1652 127.236C34.1652 131.414 34.565 135.5 35.3289 139.457L37.8584 138.969C37.1254 135.172 36.7414 131.249 36.7414 127.236H34.1652ZM34.1652 99.1288V127.236H36.7414V99.1288H34.1652ZM98.28 97.8407H35.4533V100.417H98.28V97.8407ZM99.5681 190.062V99.1288H96.9919V190.062H99.5681ZM57.4233 176.649C68.5163 185.831 82.7553 191.35 98.28 191.35V188.774C83.3769 188.774 69.7141 183.478 59.066 174.664L57.4233 176.649ZM8.76958 187.196C30.1897 191.091 47.9142 184.086 58.9588 176.728L57.5305 174.584C46.8851 181.676 29.83 188.407 9.23042 184.662L8.76958 187.196ZM34.9925 138.845C35.3959 153.369 30.1582 164.239 24.1142 171.794C18.0449 179.381 11.1886 183.59 8.49259 184.745L9.50741 187.113C12.5981 185.788 19.7952 181.317 26.1259 173.404C32.4819 165.459 37.9909 154.009 37.5677 138.773L34.9925 138.845ZM37.5867 138.393C37.4945 138.281 37.4062 138.167 37.3218 138.051L35.2383 139.567C35.3544 139.726 35.4753 139.882 35.6006 140.033L37.5867 138.393Z" fill="#E9E9EB"/>
<rect x="98.2803" y="2" width="562.041" height="188.062" fill="#E9E9EB"/>
<rect x="98.2803" y="2" width="562.041" height="188.062" stroke="#E9E9EB" stroke-width="2.5762"/>
<path d="M723.148 64.8268C723.148 30.1285 695.02 2 660.322 2V2V92.9335H723.148V64.8268Z" fill="#E9E9EB" stroke="#E9E9EB" stroke-width="2.5762"/>
<rect width="62.8268" height="6.19532" transform="matrix(-1 0 0 1 723.148 92.9335)" fill="#E9E9EB" stroke="#E9E9EB" stroke-width="2.5762"/>
<path d="M723.148 127.236C723.148 161.934 695.02 190.062 660.322 190.062V190.062V99.1288H723.148V127.236Z" fill="#E9E9EB" stroke="#E9E9EB" stroke-width="2.5762"/>
</g>
<defs>
<filter id="filter0_d_414_15166" x="0.55957" y="0.711899" width="727.877" height="198.639" filterUnits="userSpaceOnUse" color-interpolation-filters="sRGB">
<feFlood flood-opacity="0" result="BackgroundImageFix"/>
<feColorMatrix in="SourceAlpha" type="matrix" values="0 0 0 0 0 0 0 0 0 0 0 0 0 0 0 0 0 0 127 0" result="hardAlpha"/>
<feOffset dy="4"/>
<feGaussianBlur stdDeviation="2"/>
<feComposite in2="hardAlpha" operator="out"/>
<feColorMatrix type="matrix" values="0 0 0 0 0 0 0 0 0 0 0 0 0 0 0 0 0 0 0.25 0"/>
<feBlend mode="normal" in2="BackgroundImageFix" result="effect1_dropShadow_414_15166"/>
<feBlend mode="normal" in="SourceGraphic" in2="effect1_dropShadow_414_15166" result="shape"/>
</filter>
</defs>
</svg>
