<svg width="44" height="44" viewBox="0 0 44 44" fill="none" xmlns="http://www.w3.org/2000/svg">
<path d="M35.0038 28.4587C35.0038 29.4552 35.8116 30.263 36.8081 30.263C37.8046 30.263 38.6124 29.4552 38.6124 28.4587H35.0038ZM4.69191 28.4587C4.69191 29.4552 5.49971 30.263 6.49619 30.263C7.49267 30.263 8.30047 29.4552 8.30047 28.4587H4.69191ZM10.2852 9.69417H33.0191V6.08561H10.2852V9.69417ZM35.0038 11.554V28.4587H38.6124V11.554H35.0038ZM8.30047 28.4587V11.554H4.69191V28.4587H8.30047ZM33.0191 9.69417C34.1727 9.69417 35.0038 10.5834 35.0038 11.554H38.6124C38.6124 8.47735 36.0507 6.08561 33.0191 6.08561V9.69417ZM10.2852 6.08561C7.25359 6.08561 4.69191 8.47734 4.69191 11.554H8.30047C8.30047 10.5834 9.13157 9.69417 10.2852 9.69417V6.08561ZM6.49619 31.3455H36.8081V27.737H6.49619V31.3455ZM37.169 31.7064V33.8715H40.7775V31.7064H37.169ZM36.8081 34.2324H6.49619V37.8409H36.8081V34.2324ZM6.13534 33.8715V31.7064H2.52677V33.8715H6.13534ZM6.49619 34.2324C6.2969 34.2324 6.13534 34.0708 6.13534 33.8715H2.52677C2.52677 36.0638 4.30394 37.8409 6.49619 37.8409V34.2324ZM37.169 33.8715C37.169 34.0708 37.0074 34.2324 36.8081 34.2324V37.8409C39.0004 37.8409 40.7775 36.0638 40.7775 33.8715H37.169ZM36.8081 31.3455C37.0074 31.3455 37.169 31.5071 37.169 31.7064H40.7775C40.7775 29.5141 39.0004 27.737 36.8081 27.737V31.3455ZM6.49619 27.737C4.30394 27.737 2.52677 29.5141 2.52677 31.7064H6.13534C6.13534 31.5071 6.2969 31.3455 6.49619 31.3455V27.737Z" fill="white"/>
</svg>
