<svg width="180" height="46" viewBox="0 0 180 46" fill="none" xmlns="http://www.w3.org/2000/svg">
<g clip-path="url(#clip0_414_15196)">
<path d="M33.829 0.964844L34.1228 4.37999C34.1693 4.92597 34.5531 5.38631 35.0845 5.5388L38.4141 6.48382L34.962 6.77438C34.4101 6.82047 33.9448 7.20012 33.7922 7.72585L32.837 11.0198L32.5432 7.60463C32.4967 7.05866 32.1129 6.59834 31.5815 6.44581L28.252 5.50085L31.7041 5.21026C32.256 5.1642 32.7212 4.7845 32.8754 4.25883L33.8306 0.964879L33.829 0.964844Z" fill="#090909"/>
<path d="M16.9427 21.9463C16.9308 21.9466 16.9189 21.9449 16.9069 21.9432L16.8892 21.9476L16.8893 21.9535C16.8893 21.9535 16.8853 21.9496 16.8833 21.9497C16.8654 21.9482 16.8475 21.9447 16.8296 21.9432C16.5536 21.9226 16.3857 22.0249 16.0974 21.9909C15.5545 21.9986 14.9057 22.1325 14.2049 22.3266C13.8938 22.4069 13.5074 22.5715 13.1753 22.6818C12.283 22.9845 11.3773 23.2994 10.3863 23.6948C10.0469 23.8308 9.7318 23.8367 9.38839 23.9728C9.29616 24.0104 9.2291 24.0239 9.13492 24.0615C9.08192 24.0824 9.03074 24.0955 8.98157 24.1104C8.74604 24.2026 8.50857 24.2949 8.27098 24.3851L3.28711 44.9992L9.30498 44.6742L10.7479 39.0803L18.4493 38.3915L20.6519 44.0609L28.0931 43.659L19.223 21.9716C18.5085 22.0149 17.7512 22.0123 16.9427 21.9482L16.9427 21.9463ZM12.1443 33.5327L13.7303 24.6956L16.3103 33.0344L12.1443 33.5327Z" fill="#134388"/>
<path d="M27.1881 17.9519C27.1329 17.8082 27.0189 17.6914 26.8767 17.6322C26.5981 17.5137 26.2549 17.5811 25.8372 17.7602C24.3901 18.3788 22.1314 18.1118 20.2486 17.6608C18.3856 17.2132 16.9313 16.6181 16.9032 16.605L16.3899 16.2218C16.2767 16.0599 16.1589 15.8686 16.0626 15.671C15.8348 15.212 15.6789 14.7746 15.6747 14.763L15.6703 14.7493L15.6702 14.7435C15.6702 14.7435 14.961 12.8217 14.1442 10.7241C13.7367 9.67534 13.2986 8.58613 12.9085 7.67027C12.5163 6.75441 12.1765 6.02164 11.927 5.64547C11.6548 5.23457 11.1472 4.91584 10.5122 4.6611C9.87734 4.40635 9.11328 4.21759 8.32404 4.12947C7.46728 4.0352 6.58604 4.06901 5.81629 4.27849L5.81035 4.27864C5.23747 4.43417 4.73496 4.70561 4.33395 5.0706C4.32999 5.0707 4.32592 5.06688 4.32592 5.06688C4.29819 5.06757 4.27066 5.07611 4.24728 5.09238C4.23936 5.09257 4.22945 5.09282 4.20776 5.09729C4.19593 5.09955 4.18013 5.1019 4.16641 5.10813C4.15661 5.1123 4.14289 5.11852 4.14096 5.12053C4.137 5.12063 4.1216 5.13866 4.11967 5.14068C4.11972 5.14263 4.11586 5.14665 4.11591 5.14862C3.98094 5.29711 4.09047 5.54931 4.29284 5.55601C4.29284 5.55601 5.22146 5.59162 6.20775 5.78855C6.70186 5.88601 7.21269 6.01835 7.60598 6.20461C7.99922 6.38893 8.26298 6.62551 8.35234 6.86446C8.44386 7.11126 8.47245 7.68511 8.4331 8.39601C8.39387 9.10888 8.31086 9.9719 8.23122 10.8897C8.07322 12.6959 7.95169 14.6875 8.36022 16.1677C8.36051 16.1795 8.36092 16.1951 8.36316 16.2069C8.36345 16.2166 8.36763 16.2264 8.37186 16.236L8.37198 16.2419L8.3761 16.2477L8.37622 16.2516L8.37634 16.2555L8.37639 16.2595L8.37651 16.2634C8.59728 16.8344 8.56439 17.4098 8.49675 17.7881L8.41086 18.1511C8.33616 18.1745 7.65963 18.3855 6.59304 19.0006C5.48927 19.6361 4.01319 20.6732 2.49865 22.2996C0.951294 23.9601 0.724818 25.1817 1.06721 25.936C1.23943 26.3141 1.55087 26.5553 1.87222 26.6414C2.1117 26.7041 2.37071 26.6779 2.57145 26.5435C3.53301 26.5489 4.60433 26.273 5.70871 25.8944C6.49186 25.6669 7.29734 25.382 8.10422 25.0755C8.34175 24.9852 8.57728 24.893 8.81475 24.8008C8.86598 24.7877 8.91522 24.7748 8.96816 24.7518C9.06034 24.7142 9.12939 24.7007 9.22157 24.6631C9.56504 24.5271 9.87998 24.5192 10.2195 24.3852C11.2105 23.9898 12.1163 23.6749 13.0085 23.3722C13.3407 23.2618 13.727 23.0992 14.0382 23.017C14.7389 22.8229 15.3896 22.689 15.9306 22.6813C16.217 22.7173 16.3867 22.613 16.6628 22.6336C16.6807 22.6351 16.6986 22.6386 16.7165 22.6401C16.7185 22.64 16.7226 22.6438 16.7245 22.6438L16.7244 22.6379L16.7402 22.6336C16.752 22.6333 16.764 22.6369 16.7759 22.6366C17.5843 22.7007 18.3416 22.7033 19.0562 22.66C19.2006 22.6505 19.3471 22.6429 19.4876 22.6315C19.4975 22.6313 19.5074 22.6311 19.5172 22.6289C22.2609 22.4014 24.3377 21.5238 25.6006 20.5234C26.5566 19.7661 27.102 19.0033 27.2075 18.4005C27.2354 18.2508 27.2413 18.0957 27.1863 17.9559L27.1881 17.9519ZM4.35188 5.07407L4.35584 5.07397L4.35599 5.07985C4.35203 5.07995 4.35391 5.07598 4.3499 5.07412L4.35188 5.07407ZM2.77988 26.0892C2.85754 25.948 2.92962 25.8207 3.06065 25.5958C3.24682 25.2794 3.49266 24.8928 3.85309 24.4915C4.57005 23.6911 5.71371 22.8329 7.58881 22.3605L7.59475 22.3604C7.77986 22.3126 7.97098 22.2686 8.17222 22.2302C8.37934 22.1897 8.59451 22.1549 8.81969 22.1238L8.19945 24.6907C6.27945 25.4232 4.37085 26.0572 2.78186 26.0891L2.77988 26.0892ZM15.6085 16.6728C14.0718 16.6563 11.0132 16.8132 8.74757 18.1387C8.75686 18.1149 8.73616 17.9252 8.74881 17.8778L8.74828 17.8563L8.75186 17.8425C8.75575 17.8384 8.75957 17.8325 8.76139 17.8265C8.76498 17.8107 8.76039 17.7874 8.75775 17.7619C8.77481 17.6536 8.79151 17.5316 8.79804 17.4001C8.87169 17.1001 8.92116 16.7871 8.7361 16.2171L8.73598 16.2112L8.75463 16.1657C8.77769 16.1376 8.85145 16.077 8.96857 16.0054C9.09151 15.9297 9.26563 15.8391 9.46551 15.7478C9.86728 15.5691 10.3976 15.3754 11.0038 15.2073C11.0905 15.1836 11.1751 15.1599 11.2617 15.1381L11.2677 15.138C12.5538 14.8116 14.0997 14.6474 15.3406 14.9556C15.3642 15.0256 15.4963 15.3852 15.7199 15.8326C15.843 16.0766 15.9783 16.3281 16.1342 16.5302C16.1403 16.5398 16.1484 16.5455 16.1565 16.5531C16.2156 16.6144 16.2836 16.6382 16.3425 16.6936C16.1757 16.6841 15.9198 16.6747 15.6045 16.6709L15.6085 16.6728Z" fill="#090909"/>
<path d="M27.6006 38.0432L30.9387 38.3755C31.6811 38.4491 32.339 38.2414 32.9122 37.7542C33.4855 37.2652 33.8104 36.6363 33.8833 35.8695L36.2094 11.5376L29.9384 13.5847L27.6006 38.0432Z" fill="#134388"/>
<path d="M42.458 34.2749C42.458 35.4884 42.8484 36.5353 43.6311 37.4155C44.4139 38.2958 45.3413 38.7349 46.4134 38.7349H57.5009V12.1099L42.458 14.2488V34.2749ZM48.0701 18.4363L51.9344 17.9815V32.728L48.0701 33.0927V18.4383V18.4363Z" fill="#134388"/>
<path d="M67.164 25.4002L65.0022 25.6277V12.0651L58.8828 13.065V43.6051H65.0022V29.5407L67.164 29.3133V45.4264H73.2816V9.78906L67.164 10.7909V25.4002Z" fill="#134388"/>
<path d="M101.206 29.7231L108.705 28.8585V9.78906L101.206 10.7909V29.7231Z" fill="#134388"/>
<path d="M94.1673 30.225L98.125 25.218C96.2538 24.5514 94.2903 23.8986 92.235 23.2614C93.002 22.0479 93.7297 20.5697 94.4208 18.8229C95.1108 17.0781 96.0244 14.5374 97.1579 11.2007L94.0285 11.5653L77.9273 13.567V18.027L87.7267 17.0252C87.2967 18.7249 86.7438 20.256 86.0703 21.6225C84.1379 21.2578 82.6656 21.0755 81.6532 21.0755C79.4756 21.0755 77.8126 21.5166 76.6614 22.3949C75.512 23.2751 74.9355 24.473 74.9355 25.9904C74.9355 27.1745 75.4032 28.19 76.3385 29.0389C77.2738 29.8878 78.5085 30.3132 80.042 30.3132C81.0232 30.3132 82.1126 30.0858 83.3079 29.6309C85.1173 28.933 86.635 28.2195 87.8614 27.4921L94.1632 30.223L94.1673 30.225ZM82.345 26.0374C81.5161 26.4629 80.8408 26.6746 80.3214 26.6746C79.9526 26.6746 79.6697 26.5844 79.4714 26.4021C79.2714 26.2197 79.172 25.9924 79.172 25.7198C79.172 25.416 79.3403 25.167 79.6773 24.969C80.0144 24.7729 80.4126 24.6729 80.8744 24.6729C81.3955 24.6729 81.9326 24.8102 82.4855 25.0827L83.2208 25.4473C82.975 25.661 82.6838 25.8571 82.3467 26.0394L82.345 26.0374Z" fill="#134388"/>
<path d="M84.9209 39.9173L101.85 38.4626V45.4261H108.705V31.6343L84.9209 34.4103V39.9173Z" fill="#134388"/>
<path d="M133.898 45.8067H141.397V10.1714L133.898 11.1712V45.8067Z" fill="#134388"/>
<path d="M127.89 12.2001L112.387 14.2488V19.0735L122.232 17.9815C122.232 19.195 122.047 20.6516 121.679 22.3514L111.88 23.6707V28.5405L120.022 27.6309C118.151 31.8792 115.405 35.2316 111.786 37.69L115.421 40.6484C119.162 38.7369 122.091 36.4608 124.207 33.822C126.324 31.1832 127.896 28.1641 128.924 24.7647C129.95 21.3672 130.848 17.013 131.615 11.7021L127.935 12.1569L127.89 12.202V12.2001Z" fill="#134388"/>
<path d="M155.225 29.3367L157.111 29.1544L174.455 27.6526V21.1439L157.111 23.5102V16.9113L174.455 15.2723V10.085L150.671 12.7237V25.2844C150.671 26.4979 151.115 27.5075 152.004 28.3114C152.894 29.1151 153.966 29.4563 155.225 29.3347V29.3367Z" fill="#134388"/>
<path d="M143.678 35.7082V40.9877H179.976V33.5693L143.678 35.7082Z" fill="#134388"/>
</g>
<defs>
<clipPath id="clip0_414_15196">
<rect width="180" height="45.3913" fill="white" transform="translate(0 0.608887)"/>
</clipPath>
</defs>
</svg>
