<svg width="719" height="201" viewBox="0 0 719 201" fill="none" xmlns="http://www.w3.org/2000/svg">
<g filter="url(#filter0_d_414_15224)">
<path d="M134.932 0.287598L136.736 16.9975C137.022 19.6689 138.935 21.8835 141.529 22.5727L157.782 26.8392L141.072 28.6434C138.401 28.9299 136.186 30.8424 135.505 33.4364L131.238 49.6895L129.434 32.9796C129.147 30.3082 127.235 28.0936 124.641 27.4044L108.388 23.1379L125.098 21.3337C127.769 21.0472 129.984 19.1347 130.673 16.5407L134.939 0.287598H134.932Z" fill="white"/>
<path d="M347.77 109.312C345.973 109.312 344.417 109.699 343.093 110.481C341.776 111.263 341.118 112.247 341.118 113.447C341.118 114.523 341.505 115.422 342.287 116.142C343.062 116.862 344.177 117.218 345.609 117.218C347.646 117.218 350.286 116.382 353.515 114.701C354.831 113.981 355.97 113.207 356.93 112.363L354.057 110.923C351.897 109.846 349.798 109.304 347.762 109.304L347.77 109.312Z" fill="white"/>
<path d="M198.542 82.8918L183.435 84.6883V142.569L198.542 141.137V82.8918Z" fill="white"/>
<path d="M33.4254 91.9214C32.6355 92.053 31.8844 92.2079 31.1566 92.3705H31.1334C23.7618 94.0585 19.2088 97.3339 16.3283 100.423C14.8803 101.972 13.8814 103.474 13.1226 104.705C12.5883 105.58 12.294 106.068 11.9766 106.626C18.1866 106.665 25.7053 104.342 33.2782 101.639L35.9574 91.5652C35.0824 91.6658 34.2307 91.782 33.4176 91.9214H33.4254Z" fill="white"/>
<path d="M67.0063 94.3755C66.9598 94.3755 66.9133 94.3677 66.8669 94.36L66.7972 94.3755V94.3987C66.7972 94.3987 66.7817 94.3832 66.774 94.3832C66.7043 94.3755 66.6346 94.36 66.5649 94.3522C65.4886 94.2438 64.8227 94.631 63.6999 94.4684C61.5782 94.4451 59.0307 94.9097 56.2741 95.6066C55.0507 95.8931 53.5253 96.5048 52.2167 96.9075C48.7012 98.0148 45.1316 99.1685 41.2212 100.632C39.8817 101.135 38.6505 101.128 37.2954 101.631C36.9315 101.77 36.6682 101.817 36.2965 101.956C36.0875 102.034 35.8861 102.08 35.6926 102.134C34.7634 102.475 33.8264 102.816 32.8895 103.149L11.3633 184.05L34.9028 183.361L41.0973 161.416L71.2496 159.457L79.287 182.06L108.394 181.208L75.911 94.7007C73.1157 94.8013 70.1578 94.7162 67.0063 94.3832V94.3755ZM47.1061 139.65L54.1834 104.914L63.4289 138.094L47.1061 139.65Z" fill="white"/>
<path d="M107.427 79.617C107.225 79.044 106.792 78.5716 106.242 78.3238C105.166 77.8283 103.818 78.0606 102.169 78.7265C96.4544 81.0262 87.6581 79.7486 80.3484 77.7818C73.1162 75.8305 67.4946 73.3372 67.3862 73.283L65.4195 71.7189C64.9936 71.0684 64.5522 70.3018 64.196 69.512C63.352 67.6769 62.7867 65.9347 62.7713 65.8882L62.7558 65.834V65.8108C62.7558 65.8108 60.1773 58.1527 57.1961 49.79C55.7094 45.6086 54.1066 41.2647 52.6741 37.6099C51.2338 33.955 49.9794 31.0281 49.0425 29.5182C48.0204 27.8689 46.0691 26.5602 43.6145 25.4917C41.1599 24.4231 38.1942 23.6023 35.1201 23.1764C31.7828 22.7196 28.337 22.7661 25.3094 23.5172H25.2862C23.0329 24.0747 21.0429 25.0968 19.4401 26.4983C19.4246 26.4983 19.4091 26.4828 19.4091 26.4828C19.3007 26.4828 19.1923 26.5138 19.0994 26.5757C19.0684 26.5757 19.0297 26.5757 18.9445 26.5912C18.898 26.599 18.8361 26.6067 18.7819 26.6299C18.7432 26.6454 18.689 26.6687 18.6812 26.6764C18.6657 26.6764 18.6038 26.7461 18.596 26.7538C18.596 26.7616 18.5806 26.7771 18.5806 26.7848C18.0385 27.3578 18.4412 28.3644 19.231 28.4109C19.231 28.4109 22.8548 28.6432 26.6877 29.5182C28.6081 29.9518 30.5903 30.5248 32.108 31.2991C33.6257 32.0657 34.6323 33.0259 34.9575 33.9783C35.2905 34.9617 35.3447 37.2304 35.1201 40.0335C34.8956 42.8443 34.4852 46.2436 34.0825 49.8597C33.285 56.9757 32.6113 64.8274 34.0593 70.7122C34.0593 70.7587 34.0593 70.8206 34.0671 70.8671C34.0671 70.9058 34.0825 70.9445 34.098 70.9833V71.0065L34.1135 71.0297V71.0452V71.0607V71.0762V71.0917C34.9188 73.3682 34.733 75.6369 34.431 77.1236L34.0593 78.5484C33.7651 78.6336 31.1014 79.4002 26.8736 81.7231C22.4986 84.1235 16.6293 88.0726 10.5508 94.3446C4.34073 100.748 3.33411 105.549 4.59626 108.561C5.2312 110.071 6.42366 111.055 7.67032 111.426C8.59951 111.697 9.61388 111.62 10.4114 111.109C14.1669 111.225 18.3792 110.242 22.7309 108.855C25.8127 108.035 28.9875 106.989 32.17 105.859C33.1069 105.526 34.0361 105.185 34.973 104.844C35.1743 104.798 35.3679 104.752 35.577 104.666C35.9409 104.527 36.2119 104.481 36.5759 104.341C37.9309 103.838 39.1621 103.838 40.5017 103.342C44.412 101.879 47.9817 100.725 51.4971 99.6178C52.8057 99.2151 54.3311 98.6112 55.5546 98.3169C58.3111 97.62 60.8664 97.1554 62.9803 97.1787C64.0954 97.349 64.769 96.9541 65.8453 97.0625C65.915 97.0703 65.9847 97.0857 66.0544 97.0935C66.0621 97.0935 66.0776 97.109 66.0854 97.109V97.0857L66.1473 97.0702C66.1938 97.0702 66.2402 97.0857 66.2867 97.0857C69.4382 97.4187 72.3961 97.5039 75.1914 97.4032C75.7567 97.38 76.3297 97.3645 76.8795 97.3335C76.9182 97.3335 76.9569 97.3335 76.9956 97.3258C87.7355 96.6986 95.9356 93.4387 100.969 89.6135C104.778 86.7175 106.985 83.7596 107.458 81.3902C107.581 80.8017 107.62 80.19 107.419 79.6325L107.427 79.617ZM19.5097 26.5138H19.5252V26.537C19.5097 26.537 19.5175 26.5215 19.502 26.5138H19.5097ZM11.2709 109.336C11.5884 108.786 11.8827 108.29 12.4169 107.415C13.1758 106.184 14.1747 104.682 15.6226 103.133C18.5031 100.044 23.0562 96.7683 30.4277 95.088H30.451C31.1788 94.9176 31.9299 94.7628 32.7197 94.6311C33.5328 94.4917 34.3768 94.3756 35.2595 94.2749L32.5803 104.349C25.0075 107.051 17.4888 109.367 11.2787 109.336H11.2709ZM62.3222 73.4224C56.3211 73.2056 44.3578 73.523 35.3757 78.5329C35.4144 78.44 35.3524 77.6889 35.4066 77.5031V77.4179L35.4221 77.3637C35.4376 77.3482 35.4531 77.325 35.4608 77.3017C35.4763 77.2398 35.4608 77.1469 35.4531 77.0462C35.5305 76.6203 35.608 76.1403 35.6467 75.6215C35.9641 74.4445 36.1887 73.2133 35.5228 70.9445V70.9213L35.6002 70.7432C35.6931 70.6348 35.9874 70.4025 36.452 70.1315C36.9398 69.845 37.6289 69.5043 38.4188 69.1636C40.0061 68.4977 42.0968 67.7853 44.4817 67.1813C44.8224 67.0961 45.1554 67.011 45.4961 66.9335H45.5193C50.5757 65.772 56.6309 65.2765 61.4472 66.6161C61.5323 66.8948 62.0124 68.3273 62.841 70.116C63.2978 71.0917 63.8011 72.0983 64.3896 72.9113C64.4128 72.95 64.4438 72.9733 64.4748 73.0042C64.6993 73.252 64.9626 73.3527 65.1872 73.5772C64.5367 73.523 63.5378 73.4611 62.3067 73.4146L62.3222 73.4224Z" fill="white"/>
<path d="M111.221 164.375L125.739 165.459C128.968 165.699 131.802 164.762 134.241 162.656C136.68 160.542 138.028 157.863 138.268 154.626L145.941 51.9272L118.933 61.1417L111.221 164.375Z" fill="white"/>
<path d="M176.992 147.246C176.992 152.039 178.518 156.174 181.576 159.65C184.635 163.127 188.259 164.861 192.448 164.861H235.771V59.7004L176.992 68.1483V147.246ZM198.921 84.6879L214.02 82.8915V141.136L198.921 142.576V84.6956V84.6879Z" fill="white"/>
<path d="M273.527 112.193L265.079 113.091V59.5231L241.168 63.4722V184.096H265.079V128.546L273.527 127.648V191.29H297.43V50.5332L273.527 54.49V112.193Z" fill="white"/>
<path d="M406.549 129.267L435.849 125.852V50.5332L406.549 54.49V129.267Z" fill="white"/>
<path d="M379.044 131.25L394.507 111.473C387.197 108.841 379.524 106.262 371.494 103.746C374.491 98.9525 377.332 93.1141 380.035 86.2149C382.73 79.3234 386.299 69.2881 390.728 56.1091L378.502 57.5494L315.588 65.4552V83.0711L353.878 79.1143C352.198 85.8277 350.038 91.8752 347.405 97.2722C339.855 95.832 334.102 95.1119 330.145 95.1119C321.635 95.1119 315.139 96.8541 310.64 100.323C306.149 103.8 303.896 108.531 303.896 114.524C303.896 119.201 305.723 123.212 309.378 126.565C313.033 129.918 317.857 131.598 323.85 131.598C327.683 131.598 331.942 130.7 336.611 128.903C343.68 126.147 349.612 123.328 354.405 120.456L379.028 131.242L379.044 131.25ZM332.848 114.71C329.611 116.39 326.97 117.227 324.942 117.227C323.501 117.227 322.394 116.87 321.62 116.15C320.838 115.43 320.451 114.532 320.451 113.456C320.451 112.255 321.109 111.272 322.425 110.49C323.741 109.716 325.298 109.321 327.102 109.321C329.138 109.321 331.237 109.863 333.397 110.939L336.27 112.379C335.31 113.223 334.172 113.998 332.855 114.718L332.848 114.71Z" fill="white"/>
<path d="M342.914 169.532L409.065 163.786V191.29H435.848V136.816L342.914 147.781V169.532Z" fill="white"/>
<path d="M534.288 192.793H563.589V52.0439L534.288 55.993V192.793Z" fill="white"/>
<path d="M510.812 60.0578L450.237 68.1495V87.2057L488.705 82.8927C488.705 87.6858 487.985 93.439 486.545 100.152L448.255 105.364V124.598L480.072 121.005C472.762 137.785 462.03 151.026 447.891 160.736L462.092 172.42C476.711 164.87 488.155 155.881 496.425 145.458C504.695 135.036 510.836 123.111 514.854 109.684C518.865 96.2653 522.373 79.0675 525.37 58.0911L510.99 59.8875L510.812 60.0656V60.0578Z" fill="white"/>
<path d="M617.622 127.741L624.994 127.021L692.763 121.09V95.3823L624.994 104.728V78.6646L692.763 72.1913V51.7026L599.828 62.125V111.736C599.828 116.529 601.563 120.517 605.039 123.692C608.516 126.866 612.705 128.214 617.622 127.734V127.741Z" fill="white"/>
<path d="M572.503 152.907V173.76H714.336V144.459L572.503 152.907Z" fill="white"/>
</g>
<defs>
<filter id="filter0_d_414_15224" x="0.120117" y="0.287598" width="718.216" height="200.505" filterUnits="userSpaceOnUse" color-interpolation-filters="sRGB">
<feFlood flood-opacity="0" result="BackgroundImageFix"/>
<feColorMatrix in="SourceAlpha" type="matrix" values="0 0 0 0 0 0 0 0 0 0 0 0 0 0 0 0 0 0 127 0" result="hardAlpha"/>
<feOffset dy="4"/>
<feGaussianBlur stdDeviation="2"/>
<feComposite in2="hardAlpha" operator="out"/>
<feColorMatrix type="matrix" values="0 0 0 0 0 0 0 0 0 0 0 0 0 0 0 0 0 0 0.45 0"/>
<feBlend mode="normal" in2="BackgroundImageFix" result="effect1_dropShadow_414_15224"/>
<feBlend mode="normal" in="SourceGraphic" in2="effect1_dropShadow_414_15224" result="shape"/>
</filter>
</defs>
</svg>
