<svg width="307" height="57" viewBox="0 0 307 57" fill="none" xmlns="http://www.w3.org/2000/svg">
<path d="M7.96932 29.7557C1.53126 28.9503 0.776463 26.1554 0.732062 23.4982C0.676562 20.0425 4.37287 17.5642 8.89061 16.1186C17.4488 13.3857 26.1069 10.5013 35.2645 8.80099C47.9852 6.44668 61.1388 4.84959 74.248 3.44526C85.9475 2.1855 97.8135 1.31813 109.668 0.829373C121.823 0.333729 134.066 0.237327 146.243 0.457613C160.862 0.726087 175.492 1.33876 190.066 2.1373C199.646 2.66048 209.17 3.65176 218.66 4.62928C232.424 6.05426 246.255 7.34156 259.831 9.28284C272.562 11.1002 284.828 13.9983 295.184 19.1888C303.576 23.3881 307.994 29.0604 305.485 35.6208C304.098 39.2487 300.091 41.6167 295.007 42.8903C285.738 45.2033 276.303 47.4406 266.635 48.9413C244.89 52.3282 222.568 53.4916 200.29 54.7926C167.478 56.7064 134.599 56.4792 101.71 56.2795C79.8425 56.1487 58.053 55.1162 36.541 52.638C29.9919 51.8807 23.0654 51.3713 17.5376 48.5764C16.805 48.2047 15.8504 47.8674 15.5063 47.3786C15.0068 46.6627 14.5406 45.7402 14.8847 45.0725C15.0845 44.6938 17.0381 44.3497 18.0149 44.4873C21.9776 45.0449 25.8183 45.9605 29.8032 46.4355C36.985 47.296 44.2111 48.0395 51.4595 48.6315C60.7281 49.3887 70.0078 50.084 79.3208 50.5315C87.2351 50.9101 95.205 50.9996 103.142 51.0409C116.917 51.1166 130.703 51.1372 144.478 51.0202C157.332 50.9101 170.197 50.7449 183.029 50.3181C191.72 50.0289 200.367 49.2304 209.037 48.6934C215.452 48.2942 221.913 48.1083 228.284 47.5369C235.621 46.8829 242.836 45.5268 250.185 45.1895C256.745 44.8866 263.172 44.2602 269.299 43.0211C277.746 41.3138 286.127 39.3313 294.086 36.9012C298.315 35.607 301.467 31.2633 297.715 27.6905C292.543 22.7616 284.972 19.7189 276.525 18.0255C262.384 15.1962 247.965 12.6697 233.379 10.9556C208.038 7.968 182.363 6.13689 156.566 5.64813C139.361 5.31771 122.078 5.43474 104.895 6.08183C82.6619 6.92855 60.5838 8.94554 39.3937 13.4339C30.9687 15.2168 22.9877 17.8465 14.9291 20.2558C12.9199 20.8548 11.1883 21.9631 9.70093 23.037C7.95821 24.2968 6.34871 25.6804 7.86942 27.5804C8.31342 28.138 7.93602 28.9434 7.93602 29.7626L7.96932 29.7557Z" fill="#99C4FF"/>
</svg>
