<svg width="100" height="101" viewBox="0 0 100 101" fill="none" xmlns="http://www.w3.org/2000/svg">
<g clip-path="url(#clip0_418_2422)">
<g clip-path="url(#clip1_418_2422)">
<path fill-rule="evenodd" clip-rule="evenodd" d="M67.304 18.7189C69.217 22.0324 70.7166 24.6298 71.6831 26.8193C72.6694 29.0538 73.1798 31.0309 72.9628 33.0959C72.8314 34.3461 72.504 35.5677 71.9928 36.7161C71.1482 38.613 69.7176 40.07 67.7462 41.5119C65.8145 42.9249 63.2171 44.4245 59.9036 46.3375L59.7401 46.4319C56.4267 48.3449 53.8294 49.8445 51.6399 50.8109C49.4055 51.7972 47.4283 52.3077 45.3633 52.0906C44.1132 51.9592 42.8915 51.6319 41.7431 51.1206C39.8462 50.276 38.3892 48.8454 36.9473 46.8741C35.5343 44.9423 34.0347 42.3449 32.1217 39.0315L32.0273 38.868C30.1143 35.5545 28.6147 32.9572 27.6483 30.7677C26.662 28.5333 26.1516 26.5562 26.3686 24.4912C26.5 23.241 26.8274 22.0193 27.3386 20.871C28.1832 18.9741 29.6138 17.5171 31.5852 16.0751C33.5169 14.6621 36.1143 13.1626 39.4278 11.2495L39.5911 11.1553C42.9046 9.24219 45.5019 7.74259 47.6915 6.77612C49.9259 5.78985 51.903 5.2794 53.9681 5.49645C55.2182 5.62784 56.4399 5.95519 57.5883 6.46648C59.4852 7.31102 60.9422 8.74164 62.3841 10.713C63.7971 12.6448 65.2967 15.2421 67.2097 18.5556L67.304 18.7189ZM59.468 24.9384C60.2154 24.5069 60.4714 23.5513 60.04 22.8039C59.6085 22.0566 58.6529 21.8006 57.9055 22.232L39.8633 32.6487C39.116 33.0802 38.86 34.0358 39.2914 34.7831C39.7229 35.5304 40.6785 35.7865 41.4258 35.355L59.468 24.9384ZM56.4178 36.3219C57.1652 35.8904 57.4212 34.9348 56.9897 34.1875C56.5583 33.4402 55.6027 33.1841 54.8553 33.6156L44.03 39.8656C43.2827 40.2971 43.0266 41.2527 43.4581 42C43.8896 42.7473 44.8452 43.0034 45.5925 42.5719L56.4178 36.3219ZM44.4761 23.9715C45.2234 23.54 45.4794 22.5844 45.048 21.8371C44.6165 21.0897 43.6609 20.8337 42.9136 21.2652L35.6967 25.4318C34.9494 25.8633 34.6933 26.8189 35.1248 27.5662C35.5562 28.3136 36.5119 28.5696 37.2592 28.1382L44.4761 23.9715Z" fill="url(#paint0_linear_418_2422)"/>
</g>
<g filter="url(#filter0_b_418_2422)">
<path fill-rule="evenodd" clip-rule="evenodd" d="M83.2783 53.8879C83.2783 60.0097 83.2784 64.8084 82.8659 68.6155C82.445 72.5006 81.5706 75.6485 79.6178 78.3363C78.4356 79.9634 77.0047 81.3944 75.3775 82.5766C72.6898 84.5293 69.5419 85.4037 65.6567 85.8246C61.8497 86.2371 57.0509 86.2371 50.9292 86.2371L50.6272 86.2371C44.5055 86.2371 39.707 86.2371 35.8999 85.8246C32.0148 85.4037 28.8669 84.5293 26.1791 82.5766C24.552 81.3944 23.121 79.9634 21.9388 78.3363C19.9861 75.6485 19.1117 72.5006 18.6908 68.6155C18.2783 64.8084 18.2783 60.0096 18.2783 53.888L18.2783 53.5859C18.2783 47.4643 18.2783 42.6657 18.6908 38.8586C19.1117 34.9735 19.9861 31.8256 21.9388 29.1378C23.121 27.5107 24.552 26.0798 26.1791 24.8976C28.8668 22.9448 32.0148 22.0704 35.8999 21.6495C39.707 21.237 44.5057 21.237 50.6275 21.2371L50.9292 21.2371C57.0509 21.237 61.8496 21.237 65.6567 21.6495C69.5419 22.0704 72.6898 22.9448 75.3775 24.8976C77.0047 26.0798 78.4356 27.5107 79.6178 29.1378C81.5706 31.8256 82.445 34.9735 82.8659 38.8586C83.2784 42.6658 83.2783 47.4644 83.2783 53.5862L83.2783 53.8879Z" fill="#29ACD6" fill-opacity="0.35"/>
<path fill-rule="evenodd" clip-rule="evenodd" d="M83.2783 53.8879C83.2783 60.0097 83.2784 64.8084 82.8659 68.6155C82.445 72.5006 81.5706 75.6485 79.6178 78.3363C78.4356 79.9634 77.0047 81.3944 75.3775 82.5766C72.6898 84.5293 69.5419 85.4037 65.6567 85.8246C61.8497 86.2371 57.0509 86.2371 50.9292 86.2371L50.6272 86.2371C44.5055 86.2371 39.707 86.2371 35.8999 85.8246C32.0148 85.4037 28.8669 84.5293 26.1791 82.5766C24.552 81.3944 23.121 79.9634 21.9388 78.3363C19.9861 75.6485 19.1117 72.5006 18.6908 68.6155C18.2783 64.8084 18.2783 60.0096 18.2783 53.888L18.2783 53.5859C18.2783 47.4643 18.2783 42.6657 18.6908 38.8586C19.1117 34.9735 19.9861 31.8256 21.9388 29.1378C23.121 27.5107 24.552 26.0798 26.1791 24.8976C28.8668 22.9448 32.0148 22.0704 35.8999 21.6495C39.707 21.237 44.5057 21.237 50.6275 21.2371L50.9292 21.2371C57.0509 21.237 61.8496 21.237 65.6567 21.6495C69.5419 22.0704 72.6898 22.9448 75.3775 24.8976C77.0047 26.0798 78.4356 27.5107 79.6178 29.1378C81.5706 31.8256 82.445 34.9735 82.8659 38.8586C83.2784 42.6658 83.2783 47.4644 83.2783 53.5862L83.2783 53.8879Z" stroke="url(#paint1_linear_418_2422)" stroke-linecap="round"/>
</g>
<g filter="url(#filter1_d_418_2422)">
<path fill-rule="evenodd" clip-rule="evenodd" d="M67.4453 56.237C68.826 56.237 69.9453 55.1177 69.9453 53.737C69.9453 52.3563 68.826 51.237 67.4453 51.237L34.112 51.237C32.7313 51.237 31.612 52.3563 31.612 53.737C31.612 55.1177 32.7313 56.237 34.112 56.237L67.4453 56.237ZM54.112 69.5704C55.4927 69.5704 56.612 68.4511 56.612 67.0704C56.612 65.6896 55.4927 64.5704 54.112 64.5704L34.112 64.5704C32.7313 64.5704 31.612 65.6896 31.612 67.0704C31.612 68.4511 32.7313 69.5704 34.112 69.5704L54.112 69.5704ZM47.4453 42.9037C48.826 42.9037 49.9453 41.7844 49.9453 40.4037C49.9453 39.023 48.826 37.9037 47.4453 37.9037L34.112 37.9037C32.7313 37.9037 31.612 39.023 31.612 40.4037C31.612 41.7844 32.7313 42.9037 34.112 42.9037L47.4453 42.9037Z" fill="url(#paint2_linear_418_2422)"/>
</g>
</g>
<defs>
<filter id="filter0_b_418_2422" x="-6.22168" y="-3.26294" width="114" height="114" filterUnits="userSpaceOnUse" color-interpolation-filters="sRGB">
<feFlood flood-opacity="0" result="BackgroundImageFix"/>
<feGaussianBlur in="BackgroundImageFix" stdDeviation="12"/>
<feComposite in2="SourceAlpha" operator="in" result="effect1_backgroundBlur_418_2422"/>
<feBlend mode="normal" in="SourceGraphic" in2="effect1_backgroundBlur_418_2422" result="shape"/>
</filter>
<filter id="filter1_d_418_2422" x="28.6123" y="34.9037" width="54.333" height="47.6666" filterUnits="userSpaceOnUse" color-interpolation-filters="sRGB">
<feFlood flood-opacity="0" result="BackgroundImageFix"/>
<feColorMatrix in="SourceAlpha" type="matrix" values="0 0 0 0 0 0 0 0 0 0 0 0 0 0 0 0 0 0 127 0" result="hardAlpha"/>
<feOffset dx="5" dy="5"/>
<feGaussianBlur stdDeviation="4"/>
<feColorMatrix type="matrix" values="0 0 0 0 0.176471 0 0 0 0 0.556863 0 0 0 0 0.678431 0 0 0 0.5 0"/>
<feBlend mode="normal" in2="BackgroundImageFix" result="effect1_dropShadow_418_2422"/>
<feBlend mode="normal" in="SourceGraphic" in2="effect1_dropShadow_418_2422" result="shape"/>
</filter>
<linearGradient id="paint0_linear_418_2422" x1="21.9183" y1="21.3586" x2="77.0628" y2="37.4302" gradientUnits="userSpaceOnUse">
<stop stop-color="#207894"/>
<stop offset="1" stop-color="#2ECDFF"/>
</linearGradient>
<linearGradient id="paint1_linear_418_2422" x1="83.2783" y1="21.2371" x2="18.3113" y2="86.27" gradientUnits="userSpaceOnUse">
<stop stop-color="white" stop-opacity="0.25"/>
<stop offset="1" stop-color="white" stop-opacity="0"/>
</linearGradient>
<linearGradient id="paint2_linear_418_2422" x1="23.4453" y1="54.0037" x2="65.359" y2="105.764" gradientUnits="userSpaceOnUse">
<stop stop-color="white"/>
<stop offset="1" stop-color="white" stop-opacity="0.2"/>
</linearGradient>
<clipPath id="clip0_418_2422">
<rect width="100" height="100" fill="white" transform="translate(0 0.834229)"/>
</clipPath>
<clipPath id="clip1_418_2422">
<rect width="50" height="50" fill="white" transform="translate(58.8164 -5.35706) rotate(60)"/>
</clipPath>
</defs>
</svg>
