<svg width="111" height="12" viewBox="0 0 111 12" fill="none" xmlns="http://www.w3.org/2000/svg">
<path d="M98.8266 1.95952C87.5284 1.8551 76.2367 1.70592 64.9386 1.65265C48.5108 1.57593 32.0702 1.47364 15.687 2.04263C12.367 2.15771 9.04702 2.26426 5.73341 2.3836C3.13351 2.47524 1.51495 2.18329 0.960555 1.50562C0.495376 0.936632 1.48306 0.433704 3.20358 0.542387C9.1617 0.915317 14.9796 0.367645 20.8677 0.318631C31.9109 0.224865 42.9541 0.107651 54.0037 0.0714237C62.0711 0.0458513 70.1512 0.109784 78.2185 0.180108C84.8903 0.239777 91.5557 0.367634 98.2276 0.467793C98.6163 0.474186 99.0305 0.478456 99.381 0.529601C100.757 0.732049 102.848 0.847118 102.357 1.49495C102.121 1.80395 100.248 1.97657 99.1133 2.20886C99.0177 2.12575 98.9285 2.04263 98.8329 1.95952H98.8266Z" fill="#99C4FF"/>
<path d="M90.5357 5.52358C91.0051 5.87327 91.3218 6.10778 91.7234 6.40586C92.9942 5.78035 94.1783 5.11393 95.5792 6.4505C95.8737 6.73346 97.8615 6.31108 98.9709 6.22512C99.9233 6.4214 100.948 6.76032 102.008 6.82408C104.943 6.99917 107.895 7.05368 110.842 7.15726C110.838 7.3502 110.833 7.5469 110.828 7.73983C109.513 7.75801 108.202 7.81037 106.886 7.78682C93.8811 7.55699 80.8748 7.20973 67.8652 7.10846C54.1999 6.99929 40.5295 7.08683 26.8604 7.15926C19.4022 7.20007 11.9429 7.39229 4.48577 7.48993C3.78045 7.49922 2.97302 7.43676 2.39614 7.21581C1.87732 7.01963 1.2798 6.55184 1.30808 6.22722C1.33308 5.94034 2.15691 5.4695 2.66446 5.44947C8.15715 5.22979 13.6518 4.98747 19.153 4.94604C24.871 4.90466 30.588 5.08286 36.3084 5.15136C41.6137 5.21664 46.9243 5.28968 52.2279 5.30567C56.544 5.32104 60.8608 5.18876 65.1726 5.2532C66.8445 5.27788 68.4832 5.75196 70.1661 5.85654C70.9925 5.9083 72.433 6.58366 72.7163 5.33657C72.7266 5.28771 73.1614 5.20454 73.2835 5.25427C74.78 5.84072 76.4829 5.0941 77.8546 5.45278C79.3792 5.85469 80.701 5.7497 82.1804 5.56315C82.6676 5.50076 83.252 5.84312 83.7983 5.86231C84.4586 5.88552 85.1237 5.7158 85.793 5.70525C86.3599 5.69488 87.0976 5.66022 87.4596 5.85847C88.6446 6.49456 89.5469 6.36725 90.5237 5.52316L90.5357 5.52358Z" fill="#99C4FF"/>
</svg>
