<svg width="202" height="29" viewBox="0 0 202 29" fill="none" xmlns="http://www.w3.org/2000/svg">
<path d="M132.849 28.4671C122.312 26.8323 110.3 25.6279 98.663 22.9331C90.1249 20.9541 81.9163 17.3416 73.8136 13.8953C57.3845 6.91127 40.9482 6.61572 24.5159 13.2004C18.7135 15.5302 13.3879 18.9295 7.75214 21.6698C6.6674 22.1998 5.03096 22.3406 3.91964 21.9339C2.65548 21.4694 1.70049 20.2054 0.603993 19.2864C1.60938 18.2596 2.4501 16.9934 3.63889 16.2472C9.8407 12.3378 16.0055 8.33598 22.4563 4.85119C25.3353 3.29293 28.8844 2.88406 32.1174 1.93665C40.458 -0.509679 48.8782 0.699151 57.334 1.1855C67.3632 1.7593 76.1526 6.01386 84.9771 9.76723C98.7319 15.6239 113.174 17.4207 127.822 19.0465C138.765 20.2586 149.63 19.8577 160.315 18.0699C171.827 16.1416 183.139 13.0167 194.503 10.2966C196.992 9.70486 200.126 10.7643 200.871 12.9132C201.745 15.4004 200.073 18.5972 197.3 19.2655C190.315 20.9537 183.337 22.6926 176.285 24.0657C169.641 25.3583 162.932 26.4867 156.204 27.1616C148.934 27.8904 141.59 28.0119 132.839 28.4666L132.849 28.4671Z" fill="#99C4FF"/>
</svg>
