<svg width="100" height="100" viewBox="0 0 100 100" fill="none" xmlns="http://www.w3.org/2000/svg">
<circle cx="33.8594" cy="66.5" r="25" fill="url(#paint0_linear_418_2432)"/>
<g filter="url(#filter0_b_418_2432)">
<path d="M70.473 52.8293C74.1549 52.8293 77.2135 55.85 76.4019 59.4414C75.5953 63.0113 74.1379 66.4222 72.0837 69.4965C68.7873 74.4299 64.1019 78.2751 58.6202 80.5457C53.1384 82.8164 47.1064 83.4105 41.287 82.2529C35.4675 81.0953 30.122 78.2381 25.9265 74.0426C21.7309 69.847 18.8737 64.5015 17.7161 58.6821C16.5585 52.8626 17.1526 46.8306 19.4233 41.3488C21.6939 35.8671 25.5391 31.1817 30.4726 27.8853C33.5468 25.8311 36.9577 24.3737 40.5276 23.5671C44.119 22.7555 47.1397 25.8141 47.1397 29.496V36.1627C47.1397 45.3674 54.6016 52.8293 63.8063 52.8293H70.473Z" fill="#27C7A3" fill-opacity="0.35"/>
<path d="M57.1397 24.6102C57.1397 18.1038 62.609 12.6231 68.6202 15.113C72.2599 16.6206 75.5671 18.8304 78.3529 21.6161C81.1386 24.4019 83.3484 27.7091 84.856 31.3488C87.3459 37.36 81.8652 42.8293 75.3588 42.8293H72.1397C63.8554 42.8293 57.1397 36.1136 57.1397 27.8293V24.6102Z" fill="#27C7A3" fill-opacity="0.35"/>
<path d="M72.0837 69.4965L71.668 69.2187L72.0837 69.4965ZM30.4726 27.8853L30.1948 27.4695L30.4726 27.8853ZM40.5276 23.5671L40.4174 23.0794L40.5276 23.5671ZM76.4019 59.4414L75.9142 59.3312L76.4019 59.4414ZM68.6202 15.113L68.4288 15.5749L68.6202 15.113ZM84.856 31.3488L85.318 31.1575L84.856 31.3488ZM75.3588 42.8293L75.3588 43.3293H75.3588L75.3588 42.8293ZM72.1397 42.8293L72.1397 42.3293H72.1397L72.1397 42.8293ZM57.1397 27.8293L56.6397 27.8293V27.8293L57.1397 27.8293ZM57.1397 24.6102L57.6397 24.6102V24.6102L57.1397 24.6102ZM75.9142 59.3312C75.121 62.8416 73.688 66.1956 71.668 69.2187L72.4995 69.7742C74.5879 66.6487 76.0695 63.181 76.8897 59.5516L75.9142 59.3312ZM71.668 69.2187C68.4265 74.0699 63.8192 77.851 58.4288 80.0838L58.8115 81.0077C64.3847 78.6992 69.1481 74.7899 72.4995 69.7742L71.668 69.2187ZM58.4288 80.0838C53.0384 82.3166 47.1069 82.9008 41.3845 81.7625L41.1894 82.7433C47.1058 83.9201 53.2384 83.3161 58.8115 81.0077L58.4288 80.0838ZM41.3845 81.7625C35.6621 80.6242 30.4057 77.8146 26.28 73.689L25.5729 74.3961C29.8384 78.6616 35.273 81.5664 41.1894 82.7433L41.3845 81.7625ZM26.28 73.689C22.1544 69.5633 19.3448 64.3069 18.2065 58.5845L17.2257 58.7796C18.4026 64.696 21.3074 70.1306 25.5729 74.3961L26.28 73.689ZM18.2065 58.5845C17.0682 52.8621 17.6524 46.9306 19.8852 41.5402L18.9613 41.1575C16.6529 46.7306 16.0489 52.8632 17.2257 58.7796L18.2065 58.5845ZM19.8852 41.5402C22.118 36.1498 25.8991 31.5425 30.7503 28.301L30.1948 27.4695C25.1791 30.8209 21.2698 35.5844 18.9613 41.1575L19.8852 41.5402ZM30.7503 28.301C33.7734 26.2811 37.1274 24.848 40.6378 24.0548L40.4174 23.0794C36.788 23.8995 33.3203 25.3811 30.1948 27.4695L30.7503 28.301ZM46.6397 29.496V36.1627H47.6397V29.496H46.6397ZM63.8063 53.3293H70.473V52.3293H63.8063V53.3293ZM46.6397 36.1627C46.6397 45.6436 54.3254 53.3293 63.8063 53.3293V52.3293C54.8777 52.3293 47.6397 45.0913 47.6397 36.1627H46.6397ZM40.6378 24.0548C43.8393 23.3313 46.6397 26.0506 46.6397 29.496H47.6397C47.6397 25.5776 44.3986 22.1797 40.4174 23.0794L40.6378 24.0548ZM76.8897 59.5516C77.7893 55.5704 74.3914 52.3293 70.473 52.3293V53.3293C73.9184 53.3293 76.6377 56.1297 75.9142 59.3312L76.8897 59.5516ZM68.4288 15.5749C72.0079 17.0574 75.26 19.2304 77.9993 21.9697L78.7064 21.2626C75.8742 18.4304 72.5119 16.1838 68.8115 14.651L68.4288 15.5749ZM77.9993 21.9697C80.7386 24.709 82.9116 27.9611 84.3941 31.5402L85.318 31.1575C83.7852 27.4571 81.5386 24.0948 78.7064 21.2626L77.9993 21.9697ZM75.3588 42.3293H72.1397V43.3293H75.3588V42.3293ZM57.6397 27.8293V24.6102H56.6397V27.8293H57.6397ZM84.3941 31.5402C85.5579 34.3498 84.8667 37.0201 83.1063 39.0122C81.3347 41.017 78.4775 42.3293 75.3588 42.3293L75.3588 43.3293C78.7464 43.3293 81.8828 41.907 83.8557 39.6744C85.8399 37.429 86.6441 34.3591 85.318 31.1575L84.3941 31.5402ZM72.1397 42.3293C64.1315 42.3293 57.6397 35.8375 57.6397 27.8293L56.6397 27.8293C56.6397 36.3898 63.5792 43.3293 72.1397 43.3293L72.1397 42.3293ZM68.8115 14.651C65.6099 13.3249 62.54 14.1291 60.2946 16.1133C58.062 18.0862 56.6397 21.2226 56.6397 24.6102L57.6397 24.6102C57.6397 21.4915 58.952 18.6343 60.9568 16.8627C62.9489 15.1023 65.6193 14.4111 68.4288 15.5749L68.8115 14.651Z" fill="url(#paint1_linear_418_2432)"/>
</g>
<defs>
<filter id="filter0_b_418_2432" x="-7.36035" y="-10.0002" width="117.33" height="117.33" filterUnits="userSpaceOnUse" color-interpolation-filters="sRGB">
<feFlood flood-opacity="0" result="BackgroundImageFix"/>
<feGaussianBlur in="BackgroundImageFix" stdDeviation="12"/>
<feComposite in2="SourceAlpha" operator="in" result="effect1_backgroundBlur_418_2432"/>
<feBlend mode="normal" in="SourceGraphic" in2="effect1_backgroundBlur_418_2432" result="shape"/>
</filter>
<linearGradient id="paint0_linear_418_2432" x1="8.85938" y1="91.5" x2="59.9248" y2="42.6129" gradientUnits="userSpaceOnUse">
<stop stop-color="#209471"/>
<stop offset="1" stop-color="#2EFFD9"/>
</linearGradient>
<linearGradient id="paint1_linear_418_2432" x1="17.1396" y1="14.5" x2="85.5036" y2="82.7947" gradientUnits="userSpaceOnUse">
<stop stop-color="white" stop-opacity="0.25"/>
<stop offset="1" stop-color="white" stop-opacity="0"/>
</linearGradient>
</defs>
</svg>
