<svg width="100" height="100" viewBox="0 0 100 100" fill="none" xmlns="http://www.w3.org/2000/svg">
<circle cx="30" cy="37" r="25" fill="url(#paint0_linear_418_2423)"/>
<g filter="url(#filter0_b_418_2423)">
<g filter="url(#filter1_b_418_2423)">
<path fill-rule="evenodd" clip-rule="evenodd" d="M88.3337 50C88.3337 68.4095 73.4098 83.3333 55.0003 83.3333C36.5908 83.3333 21.667 68.4095 21.667 50C21.667 31.5905 36.5908 16.6666 55.0003 16.6666C73.4098 16.6666 88.3337 31.5905 88.3337 50Z" fill="#5925BA" fill-opacity="0.35"/>
<path d="M55.0003 83.8333C73.686 83.8333 88.8337 68.6856 88.8337 50C88.8337 31.3143 73.686 16.1666 55.0003 16.1666C36.3147 16.1666 21.167 31.3143 21.167 50C21.167 68.6856 36.3147 83.8333 55.0003 83.8333Z" stroke="url(#paint1_linear_418_2423)" stroke-linecap="round"/>
</g>
</g>
<g filter="url(#filter2_d_418_2423)">
<g filter="url(#filter3_d_418_2423)">
<path fill-rule="evenodd" clip-rule="evenodd" d="M37.1827 54.4473C38.4085 53.8118 39.9173 54.2902 40.5529 55.5159C41.4499 57.2459 43.316 59.4455 45.9059 61.2065C48.473 62.952 51.6032 64.1667 55.0002 64.1667C58.3972 64.1667 61.5273 62.952 64.0945 61.2065C66.6844 59.4455 68.5505 57.2459 69.4475 55.5159C70.083 54.2902 71.5919 53.8118 72.8177 54.4473C74.0434 55.0829 74.5218 56.5918 73.8862 57.8175C72.561 60.3732 70.0938 63.1736 66.9059 65.3412C63.6953 67.5243 59.6032 69.1667 55.0002 69.1667C50.3972 69.1667 46.3051 67.5243 43.0945 65.3412C39.9066 63.1736 37.4393 60.3732 36.1141 57.8175C35.4786 56.5918 35.957 55.0829 37.1827 54.4473ZM45.0002 40C46.8411 40 48.3335 38.5077 48.3335 36.6667C48.3335 34.8258 46.8411 33.3334 45.0002 33.3334C43.1592 33.3334 41.6669 34.8258 41.6669 36.6667C41.6669 38.5077 43.1592 40 45.0002 40ZM65.0002 40C66.8411 40 68.3335 38.5077 68.3335 36.6667C68.3335 34.8258 66.8411 33.3334 65.0002 33.3334C63.1592 33.3334 61.6669 34.8258 61.6669 36.6667C61.6669 38.5077 63.1592 40 65.0002 40Z" fill="url(#paint2_linear_418_2423)"/>
</g>
</g>
<defs>
<filter id="filter0_b_418_2423" x="-3.33301" y="-8.33337" width="116.667" height="116.667" filterUnits="userSpaceOnUse" color-interpolation-filters="sRGB">
<feFlood flood-opacity="0" result="BackgroundImageFix"/>
<feGaussianBlur in="BackgroundImageFix" stdDeviation="12"/>
<feComposite in2="SourceAlpha" operator="in" result="effect1_backgroundBlur_418_2423"/>
<feBlend mode="normal" in="SourceGraphic" in2="effect1_backgroundBlur_418_2423" result="shape"/>
</filter>
<filter id="filter1_b_418_2423" x="-3.33301" y="-8.33337" width="116.667" height="116.667" filterUnits="userSpaceOnUse" color-interpolation-filters="sRGB">
<feFlood flood-opacity="0" result="BackgroundImageFix"/>
<feGaussianBlur in="BackgroundImageFix" stdDeviation="12"/>
<feComposite in2="SourceAlpha" operator="in" result="effect1_backgroundBlur_418_2423"/>
<feBlend mode="normal" in="SourceGraphic" in2="effect1_backgroundBlur_418_2423" result="shape"/>
</filter>
<filter id="filter2_d_418_2423" x="32.5772" y="30.0775" width="51.3573" height="48.8567" filterUnits="userSpaceOnUse" color-interpolation-filters="sRGB">
<feFlood flood-opacity="0" result="BackgroundImageFix"/>
<feColorMatrix in="SourceAlpha" type="matrix" values="0 0 0 0 0 0 0 0 0 0 0 0 0 0 0 0 0 0 127 0" result="hardAlpha"/>
<feOffset dx="3.25583" dy="3.25583"/>
<feGaussianBlur stdDeviation="3.25583"/>
<feColorMatrix type="matrix" values="0 0 0 0 0.376471 0 0 0 0 0.156863 0 0 0 0 0.811765 0 0 0 0.5 0"/>
<feBlend mode="normal" in2="BackgroundImageFix" result="effect1_dropShadow_418_2423"/>
<feBlend mode="normal" in="SourceGraphic" in2="effect1_dropShadow_418_2423" result="shape"/>
</filter>
<filter id="filter3_d_418_2423" x="32.5772" y="30.0775" width="51.3573" height="48.8567" filterUnits="userSpaceOnUse" color-interpolation-filters="sRGB">
<feFlood flood-opacity="0" result="BackgroundImageFix"/>
<feColorMatrix in="SourceAlpha" type="matrix" values="0 0 0 0 0 0 0 0 0 0 0 0 0 0 0 0 0 0 127 0" result="hardAlpha"/>
<feOffset dx="3.25583" dy="3.25583"/>
<feGaussianBlur stdDeviation="3.25583"/>
<feColorMatrix type="matrix" values="0 0 0 0 0.376471 0 0 0 0 0.156863 0 0 0 0 0.811765 0 0 0 0.5 0"/>
<feBlend mode="normal" in2="BackgroundImageFix" result="effect1_dropShadow_418_2423"/>
<feBlend mode="normal" in="SourceGraphic" in2="effect1_dropShadow_418_2423" result="shape"/>
</filter>
<linearGradient id="paint0_linear_418_2423" x1="5" y1="62" x2="56.0654" y2="13.1129" gradientUnits="userSpaceOnUse">
<stop stop-color="#4C2094"/>
<stop offset="1" stop-color="#712EFF"/>
</linearGradient>
<linearGradient id="paint1_linear_418_2423" x1="21.667" y1="16.6666" x2="88.3674" y2="83.2995" gradientUnits="userSpaceOnUse">
<stop stop-color="white" stop-opacity="0.25"/>
<stop offset="1" stop-color="white" stop-opacity="0"/>
</linearGradient>
<linearGradient id="paint2_linear_418_2423" x1="55.323" y1="76.8008" x2="104.733" y2="24.9865" gradientUnits="userSpaceOnUse">
<stop stop-color="white"/>
<stop offset="1" stop-color="white" stop-opacity="0.2"/>
</linearGradient>
</defs>
</svg>
