<svg width="27" height="28" viewBox="0 0 27 28" fill="none" xmlns="http://www.w3.org/2000/svg">
<path d="M13.3206 10.287C11.9586 12.8435 8.87207 12.4975 7.13795 12.4975C4.43856 12.4351 2.62824 15.0958 3.46452 18.411C4.30079 21.7262 7.08878 22.7743 9.49764 23.0703C11.3536 23.2983 15.4113 22.5028 16.9345 21.7263C18.4577 20.9497 21.2354 18.6798 22.1015 17.6345C23.9532 15.3997 24.5207 13.1843 24.3415 11.2131C24.1623 9.24186 23.326 6.19532 19.7121 5.32918C16.0982 4.46304 15.023 7.09133 13.3206 10.287Z" fill="#134388" stroke="#134388" stroke-width="0.81"/>
<path d="M8.45574 24.0463C10.5909 24.5092 14.8863 24.7474 19.6653 21.1447C23.8613 17.9813 24.9136 14.5879 25.0574 12.2983C25.2078 9.90204 24.3923 7.52963 22.9291 6.10688C20.8364 4.07188 18.1129 3.71682 15.8216 5.18005C14.2994 6.15224 13.7428 7.42664 13.2518 8.55094C12.8279 9.52151 12.4619 10.3597 11.4906 10.9743C10.4353 11.6422 9.73378 11.6088 8.76281 11.5624C7.84375 11.5185 6.80197 11.4688 5.44093 12.0294C4.18755 12.5456 3.12344 13.7439 2.59413 15.2349C2.53727 15.3951 2.48718 15.5564 2.44369 15.7187C2.01886 17.3042 2.22902 18.982 3.05159 20.4954C3.96987 22.1844 5.99009 23.5119 8.45574 24.0463ZM4.79165 19.5492C4.15669 18.3814 4.03906 17.0844 4.46055 15.8973C4.79963 14.942 5.4643 14.1615 6.19516 13.8605C7.14836 13.4679 7.85277 13.5014 8.66852 13.5404C9.74529 13.5918 10.9657 13.65 12.5498 12.6475C14.0338 11.7083 14.5826 10.4518 15.0668 9.34326C15.4995 8.35249 15.8731 7.49678 16.8877 6.8489C18.3857 5.89222 20.1283 6.14544 21.5485 7.52655C22.3416 8.29783 23.2187 9.97757 23.0809 12.1739C23.0525 12.628 22.9784 13.1363 22.8314 13.6848C22.3715 15.4012 21.1975 17.5091 18.4732 19.563C14.3246 22.6905 10.6792 22.5016 8.87523 22.1106C6.9936 21.7027 5.4288 20.7213 4.79165 19.5492Z" fill="#134388"/>
<path d="M17.8853 18.4089C18.3218 18.0798 18.4091 17.4588 18.0798 17.0221C17.7507 16.5854 17.1297 16.4983 16.693 16.8275C13.9905 18.8649 10.909 19.6084 8.23871 18.8675C7.71168 18.7213 7.16607 19.03 7.01976 19.557C7.01899 19.5598 7.01821 19.5627 7.01745 19.5656C6.87698 20.0898 7.18513 20.6304 7.70921 20.7759C10.978 21.6829 14.687 20.8201 17.8853 18.4089Z" fill="white"/>
<path d="M19.9698 16.3756L19.9918 16.3572C20.4117 16.0067 20.4681 15.3825 20.1179 14.9625C19.7675 14.5425 19.1432 14.486 18.7232 14.8363L18.7012 14.8547C18.5384 14.9906 18.4302 15.1676 18.3792 15.3579C18.2986 15.6585 18.3606 15.9923 18.575 16.2494C18.9254 16.6695 19.5498 16.7259 19.9698 16.3756Z" fill="white"/>
</svg>
