<svg width="17" height="16" viewBox="0 0 17 16" fill="none" xmlns="http://www.w3.org/2000/svg">
<path d="M12.8057 2.5575C11.5447 1.54854 9.97757 0.999203 8.36257 1C6.45882 1 4.6807 1.73344 3.35132 3.06531C2.06664 4.35406 1.36257 6.05563 1.3682 7.85531C1.36824 9.17478 1.75561 10.4652 2.48226 11.5666L2.4882 11.575C2.49695 11.5878 2.50601 11.6006 2.51507 11.6131C2.52413 11.6256 2.53539 11.6419 2.53789 11.6459L2.54476 11.6584C2.58007 11.7209 2.60726 11.7972 2.5832 11.8741L2.00757 13.9572C1.98454 14.0347 1.97193 14.1148 1.97007 14.1956C1.96966 14.4082 2.05354 14.6122 2.20333 14.763C2.35312 14.9138 2.5566 14.999 2.76914 15C2.88145 14.9963 2.99213 14.972 3.0957 14.9284L5.20476 14.1672L5.23132 14.1569C5.28869 14.1328 5.35035 14.1206 5.41257 14.1209C5.46994 14.1211 5.52681 14.1317 5.58038 14.1522C5.63101 14.1719 6.0907 14.3478 6.5757 14.4834C6.97882 14.5959 7.81757 14.7647 8.47476 14.7647C10.3388 14.7647 12.0794 14.0428 13.3757 12.7316C14.6607 11.4303 15.3682 9.70063 15.3682 7.85906C15.3684 7.38635 15.3183 6.91495 15.2188 6.45281C14.8957 4.93344 14.0388 3.54969 12.8057 2.5575ZM5.3682 9C5.17042 9 4.97708 8.94135 4.81263 8.83147C4.64818 8.72159 4.52001 8.56541 4.44432 8.38268C4.36863 8.19996 4.34883 7.99889 4.38741 7.80491C4.426 7.61093 4.52124 7.43275 4.66109 7.29289C4.80094 7.15304 4.97913 7.0578 5.17311 7.01922C5.36709 6.98063 5.56815 7.00043 5.75088 7.07612C5.93361 7.15181 6.08979 7.27998 6.19967 7.44443C6.30955 7.60888 6.3682 7.80222 6.3682 8C6.3682 8.26522 6.26284 8.51957 6.0753 8.70711C5.88777 8.89464 5.63341 9 5.3682 9ZM8.3682 9C8.17042 9 7.97708 8.94135 7.81263 8.83147C7.64818 8.72159 7.52001 8.56541 7.44432 8.38268C7.36863 8.19996 7.34883 7.99889 7.38741 7.80491C7.426 7.61093 7.52124 7.43275 7.66109 7.29289C7.80094 7.15304 7.97913 7.0578 8.17311 7.01922C8.36709 6.98063 8.56816 7.00043 8.75088 7.07612C8.93361 7.15181 9.08979 7.27998 9.19967 7.44443C9.30955 7.60888 9.3682 7.80222 9.3682 8C9.3682 8.26522 9.26284 8.51957 9.0753 8.70711C8.88777 8.89464 8.63341 9 8.3682 9V9ZM11.3682 9C11.1704 9 10.9771 8.94135 10.8126 8.83147C10.6482 8.72159 10.52 8.56541 10.4443 8.38268C10.3686 8.19996 10.3488 7.99889 10.3874 7.80491C10.426 7.61093 10.5212 7.43275 10.6611 7.29289C10.8009 7.15304 10.9791 7.0578 11.1731 7.01922C11.3671 6.98063 11.5682 7.00043 11.7509 7.07612C11.9336 7.15181 12.0898 7.27998 12.1997 7.44443C12.3095 7.60888 12.3682 7.80222 12.3682 8C12.3682 8.26522 12.2628 8.51957 12.0753 8.70711C11.8878 8.89464 11.6334 9 11.3682 9Z" fill="#646464"/>
</svg>
