<svg width="23" height="23" viewBox="0 0 23 23" fill="none" xmlns="http://www.w3.org/2000/svg">
<path d="M17.9169 2.36523H4.56628C3.72796 2.36616 2.92423 2.6996 2.33145 3.29239C1.73866 3.88517 1.40523 4.68889 1.4043 5.52722V13.9592C1.40523 14.7975 1.73866 15.6012 2.33145 16.194C2.92423 16.7868 3.72796 17.1202 4.56628 17.1212H5.62028V19.9318C5.62024 20.0654 5.6583 20.1963 5.72998 20.309C5.80166 20.4218 5.904 20.5117 6.025 20.5684C6.146 20.625 6.28064 20.646 6.41314 20.6289C6.54563 20.6117 6.6705 20.5571 6.77309 20.4716L10.791 17.1212H17.9169C18.7552 17.1202 19.5589 16.7868 20.1517 16.194C20.7445 15.6012 21.0779 14.7975 21.0789 13.9592V5.52722C21.0779 4.68889 20.7445 3.88517 20.1517 3.29239C19.5589 2.6996 18.7552 2.36616 17.9169 2.36523V2.36523ZM7.02561 11.1485C6.74766 11.1485 6.47595 11.0661 6.24485 10.9117C6.01374 10.7573 5.83362 10.5378 5.72725 10.281C5.62089 10.0242 5.59306 9.74164 5.64728 9.46903C5.70151 9.19643 5.83535 8.94602 6.03189 8.74948C6.22843 8.55295 6.47883 8.4191 6.75144 8.36488C7.02405 8.31065 7.30661 8.33848 7.5634 8.44485C7.82019 8.55121 8.03967 8.73134 8.19409 8.96244C8.34851 9.19355 8.43093 9.46525 8.43093 9.7432C8.43093 10.1159 8.28287 10.4734 8.01932 10.7369C7.75577 11.0005 7.39832 11.1485 7.02561 11.1485ZM11.2416 11.1485C10.9636 11.1485 10.6919 11.0661 10.4608 10.9117C10.2297 10.7573 10.0496 10.5378 9.94323 10.281C9.83687 10.0242 9.80904 9.74164 9.86326 9.46903C9.91749 9.19643 10.0513 8.94602 10.2479 8.74948C10.4444 8.55295 10.6948 8.4191 10.9674 8.36488C11.24 8.31065 11.5226 8.33848 11.7794 8.44485C12.0362 8.55121 12.2557 8.73134 12.4101 8.96244C12.5645 9.19355 12.6469 9.46525 12.6469 9.7432C12.6469 10.1159 12.4989 10.4734 12.2353 10.7369C11.9718 11.0005 11.6143 11.1485 11.2416 11.1485V11.1485ZM15.4576 11.1485C15.1796 11.1485 14.9079 11.0661 14.6768 10.9117C14.4457 10.7573 14.2656 10.5378 14.1592 10.281C14.0528 10.0242 14.025 9.74164 14.0792 9.46903C14.1335 9.19643 14.2673 8.94602 14.4639 8.74948C14.6604 8.55295 14.9108 8.4191 15.1834 8.36488C15.456 8.31065 15.7386 8.33848 15.9954 8.44485C16.2522 8.55121 16.4716 8.73134 16.6261 8.96244C16.7805 9.19355 16.8629 9.46525 16.8629 9.7432C16.8629 10.1159 16.7148 10.4734 16.4513 10.7369C16.1877 11.0005 15.8303 11.1485 15.4576 11.1485Z" fill="#878787"/>
</svg>
