<svg width="1428" height="1528" viewBox="0 0 1428 1528" fill="none" xmlns="http://www.w3.org/2000/svg">
<path d="M1319.5 145.118L1199.95 63.1689L1004.6 348.152L1124.15 430.101L1319.5 145.118Z" fill="#4D5154"/>
<path d="M1305.4 24.3767L1317.65 32.7728C1334.11 44.0582 1338.31 66.5797 1327.03 83.0431L1295.67 128.787L1223.78 79.5073L1255.14 33.7629C1266.42 17.2995 1288.94 13.097 1305.41 24.3823L1305.4 24.3767Z" fill="#FBAE46"/>
<path d="M1285.22 66.0589C1167.26 -14.8011 1028.55 -41.571 922.579 109.969C911.989 125.119 913.179 146.759 927.499 158.439C1051.94 259.929 1182.58 344.929 1328.94 433.289C1344.46 442.659 1364.84 435.999 1375.41 421.279C1486.22 266.929 1403.48 147.129 1285.22 66.0689V66.0589Z" fill="#FBC346"/>
<path d="M1101.03 86.3154C1138.12 85.2795 1167.73 68.1761 1167.17 48.1139C1166.61 28.0517 1136.09 12.6278 1099 13.6638C1061.91 14.6997 1032.3 31.8032 1032.86 51.8654C1033.42 71.9276 1063.94 87.3514 1101.03 86.3154Z" fill="#FCD57E"/>
<path d="M1164.05 127.527C1181.75 127.032 1195.85 117.904 1195.55 107.139C1195.25 96.3737 1180.66 88.0475 1162.96 88.5418C1145.26 89.0362 1131.15 98.1641 1131.45 108.929C1131.76 119.695 1146.35 128.021 1164.05 127.527Z" fill="#FCD57E"/>
<path d="M1375.41 421.269C1462.09 300.529 1430.33 200.929 1355.78 124.479C1330.53 311.449 989.279 248.399 931.009 98.459C928.179 102.199 925.359 105.989 922.569 109.969C911.979 125.109 913.169 146.749 927.489 158.429C1051.93 259.919 1182.57 344.919 1328.93 433.279C1344.45 442.649 1364.83 435.989 1375.4 421.269H1375.41Z" fill="#FBAE46"/>
<path d="M303.49 430.103L423.039 348.154L227.688 63.1716L108.139 145.121L303.49 430.103Z" fill="#4D5154"/>
<path d="M203.865 79.4944L131.974 128.775L100.617 83.0302C89.3313 66.5669 93.5339 44.0454 109.997 32.76L122.246 24.3638C138.709 13.0784 161.231 17.2811 172.516 33.7444L203.873 79.4888L203.865 79.4944Z" fill="#FBAE46"/>
<path d="M142.448 66.0589C260.408 -14.8011 399.118 -41.571 505.088 109.969C515.678 125.119 514.488 146.759 500.168 158.439C375.728 259.929 245.088 344.929 98.728 433.289C83.208 442.659 62.828 435.999 52.258 421.279C-58.552 266.929 24.188 147.129 142.448 66.0689V66.0589Z" fill="#FBC346"/>
<path d="M373.75 45.5276C374.221 28.6342 349.282 14.2322 318.046 13.3597C286.81 12.4872 261.106 25.4746 260.634 42.3679C260.162 59.2613 285.101 73.6634 316.337 74.5359C347.573 75.4084 373.278 62.4209 373.75 45.5276Z" fill="#FCD57E"/>
<path d="M296.192 108.911C296.493 98.1459 282.389 89.018 264.689 88.5237C246.99 88.0293 232.398 96.3555 232.097 107.121C231.797 117.886 245.901 127.014 263.6 127.508C281.3 128.003 295.891 119.677 296.192 108.911Z" fill="#FCD57E"/>
<path d="M496.647 98.449C442.907 236.729 87.4673 343.849 12.6873 213.039C-10.3427 273.139 -4.1427 342.719 52.2473 421.259C62.8173 435.979 83.1973 442.639 98.7173 433.269C245.077 344.919 375.717 259.909 500.157 158.419C514.477 146.739 515.667 125.099 505.077 109.949C502.297 105.969 499.467 102.169 496.637 98.439L496.647 98.449Z" fill="#FBAE46"/>
<path d="M814.237 86.4289C802.587 78.2389 787.737 75.9389 774.047 73.4189C731.767 65.6589 687.177 66.2789 644.957 74.2689C627.507 77.5689 604.187 79.8989 593.587 96.1489C586.477 107.049 585.827 123.419 594.297 133.789C608.217 150.819 632.617 150.149 652.467 148.089C658.127 147.499 663.797 147.079 669.477 146.709C671.917 148.009 673.467 150.039 673.477 153.199V261.129H744.307V153.199C744.327 149.769 746.147 147.679 748.957 146.399C752.157 146.499 755.357 146.599 758.547 146.709C776.077 147.289 796.137 147.269 812.477 139.569C820.277 135.899 825.327 130.309 827.827 123.969C833.347 109.979 825.867 94.6089 814.227 86.4189L814.237 86.4289Z" fill="#4D5154"/>
<path d="M297.168 1527.17H266.448C231.888 1527.17 210.288 1489.76 227.568 1459.83L331.328 1280.11L472.988 1361.9L329.758 1513.15C321.278 1522.1 309.488 1527.18 297.158 1527.18L297.168 1527.17Z" fill="#4D5154"/>
<path d="M1120.64 1527.17H1151.36C1185.92 1527.17 1207.52 1489.76 1190.24 1459.83L1086.48 1280.11L944.818 1361.9L1088.05 1513.15C1096.53 1522.1 1108.32 1527.18 1120.65 1527.18L1120.64 1527.17Z" fill="#4D5154"/>
<path d="M708.908 1491.95C1065.55 1491.95 1354.67 1202.83 1354.67 846.189C1354.67 489.545 1065.55 200.429 708.908 200.429C352.265 200.429 63.1484 489.545 63.1484 846.189C63.1484 1202.83 352.265 1491.95 708.908 1491.95Z" fill="#FBC346"/>
<path d="M1217.47 448.208C1283.88 548.818 1322.58 669.338 1322.58 798.908C1322.58 1150.97 1037.18 1436.38 685.109 1436.38C410.039 1436.38 175.669 1262.16 86.3086 1018.05C161.559 1291.26 411.779 1491.95 708.899 1491.95C1065.54 1491.95 1354.66 1202.83 1354.66 846.188C1354.66 696.048 1303.41 557.878 1217.47 448.208Z" fill="#FBAE46"/>
<path d="M708.908 1351.68C988.082 1351.68 1214.4 1125.36 1214.4 846.189C1214.4 567.014 988.082 340.699 708.908 340.699C429.734 340.699 203.418 567.014 203.418 846.189C203.418 1125.36 429.734 1351.68 708.908 1351.68Z" fill="#F1F8FF"/>
<path d="M126.318 702.309C124.738 702.309 123.138 702.099 121.538 701.659C111.998 699.029 106.398 689.159 109.038 679.619C153.618 518.169 258.398 383.739 404.088 301.089C549.778 218.449 718.928 197.489 880.378 242.059C889.918 244.689 895.518 254.559 892.878 264.099C890.248 273.639 880.388 279.239 870.838 276.599C718.618 234.579 559.128 254.329 421.768 332.249C284.408 410.169 185.608 536.919 143.578 689.149C141.388 697.089 134.178 702.299 126.318 702.299V702.309Z" fill="#FCD57E"/>
</svg>
