<svg width="412" height="414" viewBox="0 0 412 414" fill="none" xmlns="http://www.w3.org/2000/svg">
<path d="M298.072 367.465C298.072 402.696 265.464 413.981 225.235 413.981C185.006 413.981 152.398 402.696 152.398 367.465C152.398 332.234 185.006 309.535 225.235 309.535C265.464 309.535 298.072 332.225 298.072 367.465Z" fill="url(#paint0_linear_398_2629)"/>
<path d="M56.8108 266.334C81.5768 276.893 107.727 275.475 115.826 256.492C123.924 237.51 108.18 219.518 83.4221 208.951C58.6561 198.392 34.2574 199.255 26.1586 218.237C18.0599 237.219 32.0533 255.766 56.8193 266.325L56.8108 266.334Z" fill="url(#paint1_linear_398_2629)"/>
<path d="M46.4223 196.059C46.1404 194.427 45.8157 192.761 44.9871 191.326C44.1584 189.891 42.7146 188.703 41.0659 188.601C39.3914 188.498 37.7939 189.515 36.8286 190.882C35.8632 192.249 35.419 193.923 35.1285 195.572C34.4792 199.186 34.4365 202.902 34.9833 206.524C35.1114 207.395 35.2908 208.275 35.7351 209.027C36.8542 210.941 39.3744 211.522 41.587 211.411C44.3891 211.274 47.7892 210.061 47.7208 206.891C47.6439 203.286 47.0288 199.604 46.4308 196.05L46.4223 196.059Z" fill="#333333"/>
<path d="M10.8498 220.534C8.94468 219.611 7.06522 218.543 5.74961 217.1C4.43399 215.656 3.7591 213.759 4.49379 212.23C5.21994 210.718 7.18483 209.838 9.23514 209.625C11.2854 209.411 13.4383 209.753 15.5313 210.129C20.0762 210.957 24.7919 211.829 29.2171 213.17C33.1127 214.349 33.3605 218.014 32.5147 220.696C31.8483 222.815 30.2252 224.942 27.4915 225.25C26.4065 225.369 25.2703 225.181 24.1597 224.968C19.5379 224.062 15.0187 222.559 10.8498 220.534Z" fill="#333333"/>
<path d="M9.87535 239.423C7.66272 239.047 5.43301 238.526 3.67316 237.483C1.91331 236.45 0.691662 234.801 1.02484 233.135C1.34947 231.486 3.11786 230.111 5.15963 229.35C7.2014 228.59 9.50799 228.342 11.7633 228.146C16.6585 227.719 21.7501 227.292 26.6708 227.403C31.0021 227.497 32.2836 230.956 32.1639 233.767C32.07 235.988 31.0021 238.474 28.2769 239.499C27.2005 239.909 25.9788 240.038 24.7828 240.123C19.7852 240.49 14.7278 240.251 9.87535 239.423Z" fill="#333333"/>
<path d="M22.8775 259.9C21.0065 260.712 19.0502 261.421 17.1451 261.455C15.2401 261.497 13.3948 260.763 12.6857 259.225C11.9852 257.704 12.5234 255.68 13.6083 254.014C14.7018 252.348 16.2738 250.981 17.8457 249.674C21.2543 246.838 24.8082 243.908 28.5329 241.498C31.8134 239.38 34.7436 241.567 36.2557 243.933C37.4518 245.804 38.0754 248.384 36.6316 250.614C36.0592 251.494 35.222 252.22 34.3848 252.903C30.8651 255.74 26.961 258.114 22.8775 259.9Z" fill="#333333"/>
<path d="M163.947 227.65L152.782 260.831L109.588 246.223C109.588 246.223 105.659 246.077 103.386 252.784C101.114 259.481 104.471 261.327 104.471 261.327L147.699 275.944L155.234 278.498C159.402 279.916 163.939 277.669 165.34 273.492L184.989 215.092C176.659 212.264 167.228 217.894 163.939 227.659L163.947 227.65Z" fill="#333333"/>
<path d="M238.45 323.563C238.45 323.563 237.118 331.098 222.971 331.098C208.823 331.098 206.568 323.563 206.568 323.563V287.981H238.45V323.563Z" fill="#333333"/>
<path d="M289.025 258.738C289.025 293.97 260.466 305.255 225.227 305.255C189.987 305.255 161.428 293.97 161.428 258.738C161.428 223.507 189.987 200.809 225.227 200.809C260.466 200.809 289.025 223.499 289.025 258.738Z" fill="url(#paint2_radial_398_2629)"/>
<path d="M238.45 210.428C238.45 210.428 237.118 217.963 222.971 217.963C208.823 217.963 206.568 210.428 206.568 210.428V174.847H238.45V210.428Z" fill="#333333"/>
<path d="M141.36 162.161C156.741 162.161 169.21 146.796 169.21 127.843C169.21 108.891 156.741 93.5264 141.36 93.5264C125.979 93.5264 113.51 108.891 113.51 127.843C113.51 146.796 125.979 162.161 141.36 162.161Z" fill="url(#paint3_linear_398_2629)"/>
<path d="M308.828 133.02C308.828 176.624 268.197 202.287 220.562 202.287C172.926 202.287 136.345 176.624 136.345 133.02C136.345 89.4172 174.959 54.0664 222.586 54.0664C270.213 54.0664 308.828 89.4172 308.828 133.02Z" fill="url(#paint4_linear_398_2629)"/>
<path d="M275.169 136.232C275.169 164.381 243.491 182.406 208.158 180.365C172.012 178.272 144.06 164.381 144.06 136.232C144.06 108.083 168.253 93.7646 204.458 93.7646C240.664 93.7646 275.169 108.083 275.169 136.232Z" fill="#284228"/>
<g filter="url(#filter0_d_398_2629)">
<path d="M175.421 140.153C175.421 146.124 173.097 150.959 170.236 150.959C167.374 150.959 165.05 146.116 165.05 140.153C165.05 134.19 167.374 129.346 170.236 129.346C173.097 129.346 175.421 134.19 175.421 140.153Z" fill="#4BF94B"/>
</g>
<g filter="url(#filter1_d_398_2629)">
<path d="M227.02 144.809C227.02 150.174 224.696 154.531 221.834 154.531C218.972 154.531 216.649 150.182 216.649 144.809C216.649 139.435 218.972 135.087 221.834 135.087C224.696 135.087 227.02 139.435 227.02 144.809Z" fill="#4BF94B"/>
</g>
<g filter="url(#filter2_d_398_2629)">
<path d="M179.026 153.925L211.925 156.061C211.925 156.061 206.534 165.68 195.488 164.68C184.442 163.681 179.017 153.925 179.017 153.925H179.026Z" fill="#4BF94B"/>
</g>
<path d="M305.829 170.395C321.21 170.395 333.679 155.031 333.679 136.078C333.679 117.125 321.21 101.761 305.829 101.761C290.448 101.761 277.979 117.125 277.979 136.078C277.979 155.031 290.448 170.395 305.829 170.395Z" fill="url(#paint5_linear_398_2629)"/>
<g style="mix-blend-mode:screen">
<path d="M315.492 159.58C323.56 159.58 330.1 149.057 330.1 136.078C330.1 123.098 323.56 112.576 315.492 112.576C307.424 112.576 300.883 123.098 300.883 136.078C300.883 149.057 307.424 159.58 315.492 159.58Z" fill="#3ED63E"/>
</g>
<path d="M335.884 252.785C333.611 246.087 329.681 246.224 329.681 246.224L286.463 260.841L275.323 227.916C273.426 222.303 268.497 218.895 264.328 220.304C260.159 221.714 258.322 227.404 260.219 233.016L273.921 273.501C275.331 277.67 279.859 279.909 284.028 278.49L291.58 275.928L334.807 261.311C334.807 261.311 338.165 259.474 335.892 252.768L335.884 252.785Z" fill="#333333"/>
<path d="M367.647 257.44C347.255 275.021 321.908 281.599 308.427 265.965C294.946 250.332 304.489 228.411 324.881 210.838C345.273 193.265 368.783 186.678 382.264 202.312C395.745 217.945 388.03 239.858 367.647 257.44Z" fill="url(#paint6_linear_398_2629)"/>
<path d="M356.217 187.327C355.986 185.687 355.79 183.995 356.148 182.381C356.507 180.758 357.515 179.194 359.061 178.596C360.625 177.99 362.453 178.477 363.794 179.485C365.136 180.493 366.058 181.954 366.836 183.432C368.544 186.678 369.723 190.198 370.295 193.82C370.432 194.683 370.535 195.58 370.347 196.434C369.86 198.595 367.639 199.911 365.494 200.483C362.786 201.201 359.173 201.081 358.276 198.04C357.259 194.58 356.721 190.881 356.217 187.319V187.327Z" fill="#333333"/>
<path d="M397.539 199.86C399.077 198.399 400.547 196.818 401.358 195.041C402.178 193.264 402.238 191.257 401.076 190.027C399.923 188.805 397.787 188.566 395.771 188.984C393.755 189.403 391.807 190.377 389.928 191.376C385.844 193.538 381.615 195.81 377.805 198.424C374.456 200.731 375.328 204.302 376.942 206.591C378.224 208.402 380.411 209.94 383.11 209.402C384.178 209.188 385.212 208.667 386.194 208.121C390.321 205.857 394.173 203.055 397.531 199.86H397.539Z" fill="#333333"/>
<path d="M404.203 217.561C406.202 216.527 408.167 215.357 409.525 213.836C410.883 212.316 411.55 210.377 410.73 208.89C409.918 207.421 407.817 206.643 405.638 206.541C403.46 206.438 401.187 206.9 398.983 207.404C394.19 208.489 389.21 209.625 384.554 211.214C380.453 212.615 380.283 216.305 381.248 218.945C382.008 221.03 383.785 223.08 386.69 223.225C387.843 223.285 389.048 223.037 390.209 222.755C395.088 221.585 399.829 219.825 404.203 217.57V217.561Z" fill="#333333"/>
<path d="M398.026 241.019C400.05 241.224 402.135 241.301 403.954 240.763C405.783 240.225 407.32 238.969 407.525 237.286C407.73 235.629 406.603 233.86 405.065 232.604C403.519 231.349 401.605 230.528 399.709 229.76C395.599 228.094 391.328 226.377 387.048 225.206C383.28 224.181 381.145 227.154 380.427 229.871C379.855 232.015 380.043 234.663 382.101 236.346C382.913 237.013 383.93 237.448 384.938 237.841C389.149 239.482 393.592 240.558 398.026 241.011V241.019Z" fill="#333333"/>
<path d="M229.481 11.2743C229.481 5.08918 224.466 0.0830078 218.289 0.0830078C212.113 0.0830078 207.098 5.09773 207.098 11.2743C207.098 17.0066 211.404 21.7223 216.957 22.3801V66.2141C216.957 66.2141 217.145 66.889 218.332 66.889C219.52 66.889 219.631 66.2141 219.631 66.2141V22.3801C225.184 21.7138 229.489 16.9981 229.489 11.2743H229.481Z" fill="url(#paint7_linear_398_2629)"/>
<path d="M234.338 265.931C237.005 251.564 226.296 237.528 210.417 234.579C194.538 231.63 179.503 240.886 176.835 255.253C174.168 269.619 184.877 283.656 200.756 286.605C216.635 289.553 231.67 280.297 234.338 265.931Z" fill="#284228"/>
<mask id="mask0_398_2629" style="mask-type:luminance" maskUnits="userSpaceOnUse" x="176" y="234" width="59" height="54">
<path d="M234.338 265.928C237.006 251.562 226.297 237.525 210.418 234.576C194.539 231.627 179.504 240.883 176.836 255.25C174.168 269.616 184.878 283.653 200.757 286.602C216.635 289.55 231.67 280.294 234.338 265.928Z" fill="white"/>
</mask>
<g mask="url(#mask0_398_2629)">
<g filter="url(#filter3_d_398_2629)">
<path d="M236.624 266.69L225.86 265.869L224.28 256.575L220.717 266.245L203.52 265.152L201.888 256.464L197.104 265.98L194.012 255.43L187.716 264.844L187.459 264.819C187.348 264.81 176.601 263.845 172.056 263.307L172.159 262.461C176.302 262.956 185.631 263.802 187.28 263.947L194.311 253.439L197.309 263.657L202.256 253.815L204.229 264.34L220.128 265.348L224.579 253.269L226.586 265.058L236.684 265.827L236.616 266.681L236.624 266.69Z" fill="#4BF94B"/>
</g>
</g>
<defs>
<filter id="filter0_d_398_2629" x="152.48" y="116.776" width="35.5109" height="46.7531" filterUnits="userSpaceOnUse" color-interpolation-filters="sRGB">
<feFlood flood-opacity="0" result="BackgroundImageFix"/>
<feColorMatrix in="SourceAlpha" type="matrix" values="0 0 0 0 0 0 0 0 0 0 0 0 0 0 0 0 0 0 127 0" result="hardAlpha"/>
<feOffset/>
<feGaussianBlur stdDeviation="6.28495"/>
<feColorMatrix type="matrix" values="0 0 0 0 0.623529 0 0 0 0 1 0 0 0 0 0.623529 0 0 0 0.4 0"/>
<feBlend mode="normal" in2="BackgroundImageFix" result="effect1_dropShadow_398_2629"/>
<feBlend mode="normal" in="SourceGraphic" in2="effect1_dropShadow_398_2629" result="shape"/>
</filter>
<filter id="filter1_d_398_2629" x="204.079" y="122.517" width="35.511" height="44.5832" filterUnits="userSpaceOnUse" color-interpolation-filters="sRGB">
<feFlood flood-opacity="0" result="BackgroundImageFix"/>
<feColorMatrix in="SourceAlpha" type="matrix" values="0 0 0 0 0 0 0 0 0 0 0 0 0 0 0 0 0 0 127 0" result="hardAlpha"/>
<feOffset/>
<feGaussianBlur stdDeviation="6.28495"/>
<feColorMatrix type="matrix" values="0 0 0 0 0.623529 0 0 0 0 1 0 0 0 0 0.623529 0 0 0 0.4 0"/>
<feBlend mode="normal" in2="BackgroundImageFix" result="effect1_dropShadow_398_2629"/>
<feBlend mode="normal" in="SourceGraphic" in2="effect1_dropShadow_398_2629" result="shape"/>
</filter>
<filter id="filter2_d_398_2629" x="166.448" y="141.355" width="58.0473" height="35.9679" filterUnits="userSpaceOnUse" color-interpolation-filters="sRGB">
<feFlood flood-opacity="0" result="BackgroundImageFix"/>
<feColorMatrix in="SourceAlpha" type="matrix" values="0 0 0 0 0 0 0 0 0 0 0 0 0 0 0 0 0 0 127 0" result="hardAlpha"/>
<feOffset/>
<feGaussianBlur stdDeviation="6.28495"/>
<feColorMatrix type="matrix" values="0 0 0 0 0.623529 0 0 0 0 1 0 0 0 0 0.623529 0 0 0 0.4 0"/>
<feBlend mode="normal" in2="BackgroundImageFix" result="effect1_dropShadow_398_2629"/>
<feBlend mode="normal" in="SourceGraphic" in2="effect1_dropShadow_398_2629" result="shape"/>
</filter>
<filter id="filter3_d_398_2629" x="159.486" y="240.699" width="89.7674" height="38.5607" filterUnits="userSpaceOnUse" color-interpolation-filters="sRGB">
<feFlood flood-opacity="0" result="BackgroundImageFix"/>
<feColorMatrix in="SourceAlpha" type="matrix" values="0 0 0 0 0 0 0 0 0 0 0 0 0 0 0 0 0 0 127 0" result="hardAlpha"/>
<feOffset/>
<feGaussianBlur stdDeviation="6.28495"/>
<feColorMatrix type="matrix" values="0 0 0 0 0.623529 0 0 0 0 1 0 0 0 0 0.623529 0 0 0 0.4 0"/>
<feBlend mode="normal" in2="BackgroundImageFix" result="effect1_dropShadow_398_2629"/>
<feBlend mode="normal" in="SourceGraphic" in2="effect1_dropShadow_398_2629" result="shape"/>
</filter>
<linearGradient id="paint0_linear_398_2629" x1="195.984" y1="320.94" x2="223.672" y2="363.962" gradientUnits="userSpaceOnUse">
<stop stop-color="#F0F4FF"/>
<stop offset="1" stop-color="#B7BCCA"/>
</linearGradient>
<linearGradient id="paint1_linear_398_2629" x1="57.6053" y1="214.265" x2="109.751" y2="307.212" gradientUnits="userSpaceOnUse">
<stop stop-color="#F0F4FF"/>
<stop offset="1" stop-color="#B7BCCA"/>
</linearGradient>
<radialGradient id="paint2_radial_398_2629" cx="0" cy="0" r="1" gradientUnits="userSpaceOnUse" gradientTransform="translate(188.449 251.28) scale(97.2018 97.2018)">
<stop stop-color="#F0F4FF"/>
<stop offset="1" stop-color="#B7BCCA"/>
</radialGradient>
<linearGradient id="paint3_linear_398_2629" x1="139.541" y1="102.855" x2="144.812" y2="175.086" gradientUnits="userSpaceOnUse">
<stop stop-color="#3ED63E"/>
<stop offset="1" stop-color="#328932"/>
</linearGradient>
<linearGradient id="paint4_linear_398_2629" x1="216.248" y1="76.9445" x2="230.258" y2="201.014" gradientUnits="userSpaceOnUse">
<stop stop-color="#F0F4FF"/>
<stop offset="1" stop-color="#B7BCCA"/>
</linearGradient>
<linearGradient id="paint5_linear_398_2629" x1="304.744" y1="119.24" x2="308.597" y2="179.339" gradientUnits="userSpaceOnUse">
<stop stop-color="#3ED63E"/>
<stop offset="1" stop-color="#328932"/>
</linearGradient>
<linearGradient id="paint6_linear_398_2629" x1="327.546" y1="218.902" x2="372.046" y2="256.97" gradientUnits="userSpaceOnUse">
<stop stop-color="#F0F4FF"/>
<stop offset="1" stop-color="#B7BCCA"/>
</linearGradient>
<linearGradient id="paint7_linear_398_2629" x1="215.65" y1="2.21875" x2="237.11" y2="104.179" gradientUnits="userSpaceOnUse">
<stop stop-color="#3ED63E"/>
<stop offset="1" stop-color="#328932"/>
</linearGradient>
</defs>
</svg>
