<svg width="619" height="200" viewBox="0 0 619 200" fill="none" xmlns="http://www.w3.org/2000/svg">
<g filter="url(#filter0_d_638_12)">
<ellipse cx="308.284" cy="91.137" rx="306.506" ry="88.9691" fill="#FBFBFB"/>
<path d="M342.258 193.133L316.664 171.124L348.521 159.963L342.258 193.133Z" fill="#FBFBFB"/>
</g>
<path d="M156.558 64.6482C156.47 65.0589 156.22 65.3523 155.81 65.5283C155.399 65.7043 154.93 65.7923 154.402 65.7923C153.962 65.7923 153.507 65.7336 153.037 65.6163C152.568 65.499 152.143 65.3229 151.761 65.0883C151.409 64.8536 151.131 64.5749 150.925 64.2522C150.72 63.9295 150.661 63.5628 150.749 63.1521C151.248 60.688 151.82 58.2825 152.465 55.9357C153.14 53.5889 153.859 51.2568 154.622 48.9393C155.414 46.6218 156.235 44.2897 157.086 41.9429C157.966 39.5961 158.861 37.2053 159.77 34.7705C159.917 34.3304 160.239 34.0078 160.738 33.8024C161.266 33.5677 161.823 33.4504 162.41 33.4504C162.997 33.4504 163.569 33.5677 164.126 33.8024C164.684 34.0078 165.08 34.3598 165.314 34.8585C166.488 37.2933 167.573 39.6694 168.57 41.9869C169.597 44.3044 170.551 46.6072 171.431 48.8953C172.311 51.1834 173.132 53.4716 173.895 55.7597C174.657 58.0478 175.376 60.3947 176.051 62.8001C176.168 63.2402 176.08 63.6508 175.787 64.0322C175.493 64.3842 175.083 64.6922 174.555 64.9563C174.027 65.2203 173.44 65.4256 172.795 65.5723C172.149 65.7483 171.548 65.8363 170.991 65.8363C170.463 65.8363 170.008 65.763 169.626 65.6163C169.274 65.4696 169.054 65.2349 168.966 64.9123L167.69 60.116C166.077 60.0573 164.449 60.0133 162.806 59.984C161.193 59.9546 159.55 59.9253 157.878 59.896C157.643 60.688 157.408 61.4947 157.174 62.3161C156.968 63.1081 156.763 63.8855 156.558 64.6482ZM166.106 54.3076C165.197 51.1101 164.17 47.8979 163.026 44.6711C162.469 46.2258 161.897 47.7952 161.31 49.3793C160.753 50.9634 160.195 52.5769 159.638 54.2196L166.106 54.3076ZM180.57 34.8145C180.57 34.5211 180.658 34.2571 180.834 34.0224C181.01 33.7877 181.244 33.5971 181.538 33.4504C181.86 33.2744 182.212 33.1424 182.594 33.0544C183.005 32.9664 183.415 32.9224 183.826 32.9224C184.53 32.9224 185.161 33.069 185.718 33.3624C186.305 33.6264 186.642 34.0518 186.73 34.6385C187.141 37.8653 187.419 41.0335 187.566 44.143C187.742 47.2232 187.83 50.3621 187.83 53.5596C187.83 56.9331 187.742 60.3947 187.566 63.9442C187.537 64.4722 187.185 64.8683 186.51 65.1323C185.835 65.3669 185.073 65.4843 184.222 65.4843C183.723 65.4843 183.225 65.4403 182.726 65.3523C182.227 65.2936 181.772 65.1909 181.362 65.0443C180.98 64.8683 180.672 64.6776 180.438 64.4722C180.203 64.2375 180.1 63.9735 180.13 63.6802C180.364 60.4827 180.526 57.3731 180.614 54.3516C180.702 51.3301 180.746 48.2793 180.746 45.1991C180.746 43.4977 180.731 41.7962 180.702 40.0948C180.672 38.364 180.628 36.6039 180.57 34.8145ZM193.673 42.7349C193.174 42.7643 192.793 42.4856 192.529 41.8989C192.265 41.3122 192.133 40.6815 192.133 40.0068C192.133 39.4201 192.235 38.8774 192.441 38.3787C192.675 37.88 193.013 37.6013 193.453 37.5426C194.773 37.4253 196.152 37.352 197.589 37.3226C199.027 37.264 200.479 37.2346 201.945 37.2346C203.148 37.2346 204.321 37.2493 205.466 37.2786C206.639 37.308 207.783 37.352 208.898 37.4106C209.572 37.4693 210.101 37.6306 210.482 37.8947C210.863 38.1587 211.142 38.5254 211.318 38.9947C211.494 39.4641 211.597 40.0214 211.626 40.6668C211.655 41.2829 211.67 41.9722 211.67 42.7349C211.67 44.231 211.641 45.7711 211.582 47.3552C211.523 48.9393 211.406 50.5234 211.23 52.1075C211.083 53.6623 210.878 55.2023 210.614 56.7278C210.379 58.2239 210.086 59.6466 209.734 60.996C209.646 61.3774 209.338 61.6561 208.81 61.8321C208.311 62.0081 207.724 62.0961 207.05 62.0961C206.522 62.0961 205.979 62.0374 205.422 61.9201C204.894 61.8027 204.41 61.6414 203.969 61.436C203.559 61.2307 203.236 60.9814 203.001 60.688C202.767 60.3653 202.693 59.9986 202.781 59.5879C203.075 58.5319 203.353 57.3585 203.617 56.0677C203.881 54.777 204.131 53.4569 204.365 52.1075C204.6 50.7287 204.791 49.3793 204.938 48.0593C205.114 46.7098 205.246 45.4631 205.334 44.319C205.392 43.8203 205.378 43.4537 205.29 43.219C205.202 42.9843 204.923 42.8523 204.454 42.8229C203.573 42.7643 202.649 42.7203 201.681 42.6909C200.713 42.6616 199.716 42.6469 198.689 42.6469C197.838 42.6469 196.973 42.6616 196.093 42.6909C195.242 42.6909 194.436 42.7056 193.673 42.7349ZM215.806 64.2082C216.041 62.2134 216.202 59.94 216.29 57.3878C216.378 54.8357 216.422 52.1955 216.422 49.4673C216.422 47.3259 216.393 45.2138 216.334 43.131C216.305 41.0188 216.261 39.0241 216.202 37.1466C216.173 36.5599 216.481 36.1052 217.126 35.7825C217.801 35.4305 218.52 35.2545 219.282 35.2545C219.928 35.2545 220.514 35.3865 221.042 35.6505C221.571 35.9145 221.893 36.3399 222.011 36.9266C222.245 38.3053 222.436 39.7574 222.583 41.2829C222.729 42.7789 222.861 44.3484 222.979 45.9911C223.653 45.9618 224.313 45.9618 224.959 45.9911C225.633 45.9911 226.293 46.0058 226.939 46.0351C227.467 46.0645 227.863 46.3578 228.127 46.9152C228.391 47.4432 228.523 48.0446 228.523 48.7193C228.523 49.1007 228.479 49.482 228.391 49.8634C228.303 50.2447 228.171 50.5967 227.995 50.9194C227.819 51.2128 227.599 51.4621 227.335 51.6675C227.071 51.8435 226.763 51.9315 226.411 51.9315C225.853 51.9315 225.311 51.9315 224.783 51.9315C224.284 51.9315 223.771 51.9462 223.243 51.9755C223.243 52.5622 223.243 53.1342 223.243 53.6916C223.272 54.249 223.287 54.8063 223.287 55.3637C223.287 57.0358 223.257 58.6492 223.199 60.204C223.14 61.7587 223.067 63.1962 222.979 64.5162C222.92 65.0443 222.568 65.4256 221.923 65.6603C221.277 65.895 220.544 66.0123 219.722 66.0123C219.224 66.0123 218.725 65.9683 218.226 65.8803C217.757 65.8216 217.332 65.7043 216.95 65.5283C216.598 65.3816 216.305 65.2056 216.07 65.0003C215.865 64.7656 215.777 64.5016 215.806 64.2082ZM263.28 49.8634C263.221 50.5381 262.869 51.1248 262.224 51.6235C261.608 52.1222 260.816 52.5475 259.848 52.8995C258.88 53.2222 257.779 53.4716 256.547 53.6476C255.345 53.7943 254.113 53.8676 252.851 53.8676C251.619 53.8676 250.416 53.7943 249.243 53.6476C248.07 53.4716 247.028 53.2222 246.119 52.8995C245.209 52.5769 244.476 52.1662 243.919 51.6675C243.361 51.1688 243.068 50.5821 243.039 49.9074C243.009 49.3207 242.995 48.7486 242.995 48.1913C242.995 47.6339 242.995 47.0765 242.995 46.5192C242.995 44.5831 243.039 42.6469 243.127 40.7108C243.244 38.7747 243.435 36.7506 243.699 34.6385C243.787 33.9931 244.08 33.5237 244.579 33.2304C245.077 32.9077 245.649 32.717 246.295 32.6583C246.999 32.5997 247.762 32.5557 248.583 32.5263C249.404 32.497 250.27 32.4823 251.179 32.4823C252.734 32.4823 254.303 32.5263 255.887 32.6143C257.471 32.7024 258.909 32.849 260.2 33.0544C261.138 33.1717 261.784 33.4504 262.136 33.8904C262.488 34.3011 262.737 34.8878 262.884 35.6505C262.972 36.1786 263.045 36.8239 263.104 37.5866C263.162 38.32 263.221 39.1267 263.28 40.0068C263.338 40.8868 263.382 41.8109 263.412 42.7789C263.441 43.7177 263.456 44.6417 263.456 45.5511C263.456 46.4018 263.441 47.1939 263.412 47.9273C263.382 48.6606 263.338 49.306 263.28 49.8634ZM266.36 33.3184C266.331 33.025 266.404 32.761 266.58 32.5263C266.756 32.2917 266.976 32.101 267.24 31.9543C267.533 31.7783 267.871 31.6463 268.252 31.5583C268.633 31.4703 269.015 31.4263 269.396 31.4263C270.042 31.4263 270.628 31.5583 271.156 31.8223C271.714 32.0863 272.036 32.5117 272.124 33.0984C272.33 34.4185 272.491 35.7532 272.608 37.1026C272.755 38.4227 272.887 39.7721 273.004 41.1509C273.62 41.1215 274.222 41.1215 274.808 41.1509C275.425 41.1509 276.026 41.1655 276.613 41.1949C277.141 41.2242 277.537 41.5175 277.801 42.0749C278.065 42.6029 278.197 43.2043 278.197 43.879C278.197 44.2604 278.153 44.6417 278.065 45.0231C277.977 45.4044 277.845 45.7565 277.669 46.0791C277.493 46.3725 277.273 46.6218 277.009 46.8272C276.745 47.0032 276.437 47.0912 276.085 47.0912C275.586 47.0912 275.117 47.0912 274.676 47.0912C274.236 47.0912 273.796 47.1059 273.356 47.1352C273.386 47.7219 273.4 48.2939 273.4 48.8513C273.4 49.3793 273.4 49.922 273.4 50.4794C273.4 52.5329 273.356 54.5423 273.268 56.5078C273.239 57.0651 272.887 57.4905 272.212 57.7838C271.538 58.0478 270.775 58.1799 269.924 58.1799C269.484 58.1799 269.044 58.1359 268.604 58.0478C268.164 57.9598 267.768 57.8425 267.416 57.6958C267.093 57.5198 266.829 57.3145 266.624 57.0798C266.419 56.8158 266.331 56.5078 266.36 56.1557C266.477 54.2783 266.551 52.3862 266.58 50.4794C266.639 48.5433 266.668 46.5778 266.668 44.5831C266.668 42.7056 266.639 40.8282 266.58 38.9507C266.551 37.0733 266.477 35.1958 266.36 33.3184ZM258.616 64.6922C258.674 65.1909 258.924 65.543 259.364 65.7483C259.804 65.983 260.273 66.1297 260.772 66.1883C261.212 66.2177 261.652 66.2323 262.092 66.2323C262.561 66.2617 263.045 66.2763 263.544 66.2763C264.864 66.2763 266.169 66.2177 267.46 66.1003C268.78 66.0123 270.056 65.895 271.288 65.7483C271.494 65.719 271.684 65.7776 271.86 65.9243C272.066 66.1003 272.242 66.3057 272.388 66.5404C272.535 66.8044 272.638 67.0977 272.696 67.4204C272.784 67.7724 272.828 68.1098 272.828 68.4325C272.828 68.8432 272.755 69.2098 272.608 69.5325C272.462 69.8845 272.227 70.1192 271.904 70.2366C270.174 70.7646 268.384 71.1753 266.536 71.4686C264.688 71.762 262.84 71.9087 260.992 71.9087C260.2 71.9087 259.305 71.8647 258.308 71.7767C257.31 71.718 256.342 71.5566 255.403 71.2926C254.494 71.058 253.702 70.6913 253.027 70.1926C252.382 69.6939 252 69.0192 251.883 68.1684C251.824 67.5817 251.766 66.995 251.707 66.4083C251.678 65.851 251.663 65.2789 251.663 64.6922C251.663 63.5188 251.722 62.3454 251.839 61.172C251.956 59.9986 252.103 58.8546 252.279 57.7398C252.367 57.1531 252.675 56.7424 253.203 56.5078C253.761 56.2731 254.377 56.1557 255.051 56.1557C255.491 56.1557 255.931 56.1997 256.371 56.2877C256.841 56.3757 257.251 56.5078 257.603 56.6838C257.956 56.8304 258.234 57.0211 258.44 57.2558C258.674 57.4611 258.777 57.6812 258.748 57.9158C258.689 58.6786 258.645 59.4413 258.616 60.204C258.586 60.9374 258.572 61.6854 258.572 62.4481C258.572 62.8295 258.572 63.2108 258.572 63.5922C258.572 63.9442 258.586 64.3109 258.616 64.6922ZM249.639 47.0032C249.639 47.2672 249.742 47.5019 249.947 47.7072C250.182 47.8832 250.475 48.0299 250.827 48.1473C251.179 48.2353 251.575 48.3086 252.015 48.3673C252.455 48.4259 252.895 48.4553 253.335 48.4553C253.775 48.4553 254.215 48.4259 254.655 48.3673C255.095 48.3086 255.491 48.2206 255.843 48.1033C256.195 47.9859 256.474 47.8392 256.679 47.6632C256.914 47.4579 257.031 47.2085 257.031 46.9152V44.6271C257.031 43.6003 257.017 42.5736 256.987 41.5469C256.958 40.5201 256.885 39.5081 256.767 38.5107C256.709 38.1587 256.533 37.9387 256.239 37.8507C255.946 37.7333 255.623 37.66 255.271 37.6306C255.007 37.6013 254.729 37.5866 254.435 37.5866C254.171 37.5573 253.878 37.5426 253.555 37.5426C253.086 37.5426 252.617 37.5573 252.147 37.5866C251.678 37.616 251.238 37.66 250.827 37.7186C250.416 37.748 250.152 37.836 250.035 37.9827C249.918 38.1293 249.844 38.32 249.815 38.5547C249.727 39.4347 249.668 40.3295 249.639 41.2389C249.61 42.1189 249.595 43.0136 249.595 43.923C249.595 44.451 249.595 44.9791 249.595 45.5071C249.595 46.0058 249.61 46.5045 249.639 47.0032ZM280.556 51.6675C283.695 51.8435 286.907 51.9902 290.192 52.1075C293.507 52.1955 296.807 52.2395 300.093 52.2395C302.88 52.2395 305.549 52.1955 308.101 52.1075C308.629 52.0782 309.025 52.2982 309.289 52.7675C309.553 53.2076 309.685 53.7063 309.685 54.2636C309.685 54.821 309.539 55.3344 309.245 55.8037C308.981 56.2731 308.556 56.5371 307.969 56.5958C304.537 56.9184 300.973 57.1825 297.277 57.3878C293.58 57.5638 289.899 57.6518 286.232 57.6518C285.293 57.6518 284.355 57.6518 283.416 57.6518C282.477 57.6225 281.553 57.5932 280.644 57.5638C280.086 57.5638 279.676 57.2558 279.412 56.6398C279.177 56.0237 279.06 55.3344 279.06 54.5716C279.06 53.8089 279.177 53.1342 279.412 52.5475C279.676 51.9315 280.057 51.6381 280.556 51.6675ZM291.38 65.5723C291.38 66.071 291.615 66.423 292.084 66.6284C292.554 66.863 293.038 67.0097 293.536 67.0684C293.976 67.0977 294.431 67.1124 294.901 67.1124C295.37 67.1417 295.854 67.1564 296.353 67.1564C297.673 67.1564 299.007 67.0977 300.357 66.9804C301.736 66.8924 303.041 66.775 304.273 66.6284C304.478 66.599 304.684 66.6577 304.889 66.8044C305.094 66.9804 305.27 67.1857 305.417 67.4204C305.593 67.6844 305.725 67.9778 305.813 68.3005C305.901 68.6525 305.945 68.9898 305.945 69.3125C305.945 69.7232 305.857 70.0899 305.681 70.4126C305.534 70.7646 305.27 70.9993 304.889 71.1166C303.158 71.6447 301.325 72.0553 299.389 72.3487C297.482 72.642 295.605 72.7887 293.756 72.7887C292.964 72.7887 292.04 72.7594 290.984 72.7007C289.958 72.642 288.975 72.4807 288.036 72.2167C287.097 71.982 286.291 71.6153 285.616 71.1166C284.971 70.6179 284.648 69.9286 284.648 69.0485C284.648 66.291 284.78 63.5482 285.044 60.82C285.103 60.2333 285.396 59.8226 285.924 59.5879C286.481 59.3533 287.097 59.2359 287.772 59.2359C288.212 59.2359 288.652 59.2799 289.092 59.3679C289.562 59.4559 289.972 59.5879 290.324 59.7639C290.706 59.9106 290.999 60.1013 291.204 60.336C291.439 60.5413 291.542 60.7613 291.512 60.996C291.424 62.6681 291.38 64.1935 291.38 65.5723ZM288.124 42.3389C288.124 42.8376 288.315 43.1603 288.696 43.307C289.107 43.4243 289.562 43.4977 290.06 43.527C290.794 43.5563 291.527 43.5857 292.26 43.615C292.994 43.615 293.742 43.615 294.504 43.615C296.441 43.615 298.391 43.571 300.357 43.483C302.352 43.3656 304.346 43.2043 306.341 42.999C306.781 42.9696 307.133 43.2483 307.397 43.835C307.661 44.3924 307.793 44.9937 307.793 45.6391C307.793 46.1085 307.705 46.5338 307.529 46.9152C307.383 47.2672 307.133 47.4726 306.781 47.5312C304.141 48.0299 301.618 48.4259 299.213 48.7193C296.807 48.9833 294.416 49.1153 292.04 49.1153C289.165 49.1153 286.335 48.8806 283.548 48.4113C282.844 48.2939 282.345 48.0006 282.052 47.5312C281.758 47.0325 281.597 46.4752 281.568 45.8591C281.538 45.4484 281.524 45.0377 281.524 44.6271C281.524 44.187 281.524 43.7617 281.524 43.351C281.524 41.7669 281.568 40.1975 281.656 38.6427C281.773 37.0586 281.934 35.4598 282.14 33.8464C282.228 33.113 282.492 32.5703 282.932 32.2183C283.372 31.8663 283.944 31.6756 284.648 31.6463C286.173 31.5876 287.699 31.5436 289.224 31.5143C290.779 31.4849 292.348 31.4703 293.932 31.4703C295.927 31.4703 297.893 31.5143 299.829 31.6023C301.765 31.661 303.657 31.7636 305.505 31.9103C306.004 31.969 306.371 32.2477 306.605 32.7464C306.869 33.245 307.001 33.7877 307.001 34.3744C307.001 35.0198 306.869 35.6065 306.605 36.1346C306.341 36.6626 305.945 36.9119 305.417 36.8826C304.566 36.8533 303.716 36.8386 302.865 36.8386C302.014 36.8386 301.164 36.8386 300.313 36.8386C298.406 36.8386 296.529 36.8679 294.68 36.9266C292.832 36.9853 291.043 37.0879 289.312 37.2346C288.901 37.2933 288.623 37.44 288.476 37.6746C288.329 37.88 288.241 38.2027 288.212 38.6427C288.153 39.2587 288.124 39.8748 288.124 40.4908C288.124 41.1068 288.124 41.7229 288.124 42.3389ZM350.004 64.2082C350.238 62.2134 350.4 59.94 350.488 57.3878C350.576 54.8357 350.62 52.1955 350.62 49.4673C350.62 47.3259 350.59 45.2138 350.532 43.131C350.502 41.0188 350.458 39.0241 350.4 37.1466C350.37 36.5599 350.678 36.1052 351.324 35.7825C351.999 35.4305 352.717 35.2545 353.48 35.2545C354.125 35.2545 354.712 35.3865 355.24 35.6505C355.768 35.9145 356.091 36.3399 356.208 36.9266C356.648 39.6548 356.971 42.6616 357.176 45.9471C357.382 49.2327 357.484 52.4742 357.484 55.6717C357.484 57.2851 357.455 58.8399 357.396 60.336C357.367 61.8321 357.294 63.2255 357.176 64.5162C357.118 65.0443 356.766 65.4256 356.12 65.6603C355.475 65.895 354.741 66.0123 353.92 66.0123C353.421 66.0123 352.923 65.9683 352.424 65.8803C351.955 65.8216 351.529 65.7043 351.148 65.5283C350.796 65.3816 350.502 65.2056 350.268 65.0003C350.062 64.7656 349.974 64.5016 350.004 64.2082ZM336.011 42.5149C335.131 42.5149 334.383 42.7496 333.767 43.219C333.18 43.6883 332.696 44.2897 332.315 45.0231C331.933 45.7565 331.655 46.5925 331.479 47.5312C331.332 48.4699 331.259 49.394 331.259 50.3034C331.259 51.9755 331.713 53.2369 332.623 54.0876C333.532 54.9383 334.618 55.3637 335.879 55.3637C336.524 55.3637 337.14 55.2463 337.727 55.0117C338.314 54.777 338.842 54.4396 339.311 53.9996C339.781 53.5302 340.147 52.9582 340.411 52.2835C340.705 51.6088 340.851 50.8461 340.851 49.9954C340.851 48.9686 340.749 48.0006 340.543 47.0912C340.338 46.1818 340.03 45.3898 339.619 44.7151C339.208 44.0404 338.695 43.5123 338.079 43.131C337.492 42.7203 336.803 42.5149 336.011 42.5149ZM335.879 36.7066C337.551 36.7066 339.076 37.0733 340.455 37.8067C341.834 38.5107 343.007 39.4788 343.975 40.7108C344.973 41.9136 345.736 43.3216 346.264 44.9351C346.821 46.5485 347.1 48.2353 347.1 49.9954C347.1 51.6968 346.88 53.2369 346.44 54.6156C346 55.9651 345.325 57.1238 344.415 58.0919C343.506 59.0599 342.333 59.808 340.895 60.336C339.487 60.8347 337.815 61.084 335.879 61.084C332.095 61.084 329.308 60.1453 327.518 58.2679C325.729 56.3611 324.834 53.7356 324.834 50.3914C324.834 48.514 325.098 46.7538 325.626 45.1111C326.154 43.439 326.888 41.9869 327.826 40.7548C328.795 39.4934 329.953 38.5107 331.303 37.8067C332.681 37.0733 334.207 36.7066 335.879 36.7066ZM383.517 56.2877C383.458 57.0211 383.121 57.6665 382.505 58.2239C381.888 58.7519 381.096 59.2066 380.128 59.5879C379.16 59.94 378.06 60.204 376.828 60.38C375.625 60.556 374.408 60.644 373.176 60.644C371.944 60.644 370.741 60.5707 369.568 60.424C368.424 60.248 367.397 59.984 366.488 59.6319C365.608 59.2799 364.889 58.8399 364.331 58.3119C363.774 57.7545 363.481 57.0945 363.451 56.3317C363.422 55.6864 363.407 55.0703 363.407 54.4836C363.407 53.8676 363.407 53.2516 363.407 52.6355C363.407 50.5234 363.451 48.4259 363.539 46.3432C363.657 44.231 363.847 42.0162 364.111 39.6988C364.199 38.9947 364.493 38.4814 364.991 38.1587C365.49 37.8067 366.062 37.6013 366.708 37.5426C367.382 37.484 368.13 37.44 368.952 37.4106C369.773 37.3813 370.624 37.3666 371.504 37.3666C373.059 37.3666 374.613 37.4106 376.168 37.4986C377.752 37.5866 379.175 37.7333 380.436 37.9387C381.375 38.0853 382.021 38.3934 382.373 38.8627C382.725 39.3027 382.974 39.9334 383.121 40.7548C383.209 41.3415 383.282 42.0602 383.341 42.911C383.399 43.7323 383.458 44.6271 383.517 45.5951C383.575 46.5632 383.619 47.5752 383.649 48.6313C383.678 49.658 383.693 50.6554 383.693 51.6235C383.693 52.5622 383.678 53.4276 383.649 54.2196C383.619 55.0117 383.575 55.701 383.517 56.2877ZM387.389 64.2082C387.623 62.2134 387.785 59.94 387.873 57.3878C387.961 54.8357 388.005 52.1955 388.005 49.4673C388.005 47.3259 387.976 45.2138 387.917 43.131C387.888 41.0188 387.844 39.0241 387.785 37.1466C387.756 36.5599 388.064 36.1052 388.709 35.7825C389.384 35.4305 390.102 35.2545 390.865 35.2545C391.51 35.2545 392.097 35.3865 392.625 35.6505C393.153 35.9145 393.476 36.3399 393.593 36.9266C394.033 39.6548 394.356 42.6616 394.561 45.9471C394.767 49.2327 394.869 52.4742 394.869 55.6717C394.869 57.2851 394.84 58.8399 394.781 60.336C394.752 61.8321 394.679 63.2255 394.561 64.5162C394.503 65.0443 394.151 65.4256 393.505 65.6603C392.86 65.895 392.126 66.0123 391.305 66.0123C390.806 66.0123 390.308 65.9683 389.809 65.8803C389.34 65.8216 388.914 65.7043 388.533 65.5283C388.181 65.3816 387.888 65.2056 387.653 65.0003C387.447 64.7656 387.359 64.5016 387.389 64.2082ZM370.052 53.2516C370.081 53.8383 370.462 54.2636 371.196 54.5276C371.959 54.7917 372.78 54.9237 373.66 54.9237C374.1 54.9237 374.525 54.8943 374.936 54.8357C375.376 54.777 375.772 54.6743 376.124 54.5276C376.476 54.381 376.755 54.205 376.96 53.9996C377.166 53.7649 377.268 53.4862 377.268 53.1636V50.6114C377.268 49.4673 377.254 48.3233 377.224 47.1792C377.195 46.0351 377.122 44.9057 377.004 43.791C376.946 43.4097 376.77 43.1603 376.476 43.043C376.212 42.9256 375.919 42.8523 375.596 42.8229C375.332 42.7936 375.053 42.7789 374.76 42.7789C374.496 42.7496 374.203 42.7349 373.88 42.7349C373.411 42.7349 372.956 42.7496 372.516 42.7789C372.076 42.8083 371.651 42.8523 371.24 42.911C370.829 42.9696 370.565 43.0723 370.448 43.219C370.33 43.3656 370.257 43.571 370.228 43.835C370.14 44.8324 370.081 45.8445 370.052 46.8712C370.022 47.8686 370.008 48.866 370.008 49.8634C370.008 50.4501 370.008 51.0221 370.008 51.5795C370.008 52.1368 370.022 52.6942 370.052 53.2516ZM405.369 60.996C405.134 61.2307 404.782 61.348 404.313 61.348C403.843 61.3187 403.33 61.216 402.773 61.04C402.244 60.8347 401.716 60.5707 401.188 60.248C400.66 59.9253 400.22 59.5879 399.868 59.2359C399.516 58.8546 399.296 58.4879 399.208 58.1359C399.12 57.7545 399.238 57.4025 399.56 57.0798C401.848 54.9677 403.697 52.7089 405.105 50.3034C406.542 47.8979 407.481 45.2284 407.921 42.2949C406.835 42.3536 405.765 42.4123 404.709 42.4709C403.682 42.5003 402.67 42.5443 401.672 42.6029C401.262 42.6323 400.939 42.3683 400.704 41.8109C400.499 41.2535 400.396 40.6228 400.396 39.9188C400.396 39.2147 400.499 38.5694 400.704 37.9827C400.939 37.396 401.291 37.0879 401.76 37.0586C402.259 37.0586 402.758 37.0586 403.257 37.0586C403.755 37.0293 404.269 37.0146 404.797 37.0146C407.349 37.0146 409.974 37.0586 412.673 37.1466C415.401 37.2346 418.027 37.352 420.55 37.4986C421.048 37.5573 421.415 37.836 421.65 38.3347C421.914 38.8334 422.046 39.3761 422.046 39.9628C422.046 40.5495 421.928 41.0922 421.694 41.5909C421.459 42.0896 421.122 42.3243 420.682 42.2949C418.599 42.2069 416.399 42.1629 414.081 42.1629C413.964 43.9817 413.671 45.7858 413.201 47.5752C415.108 48.778 416.809 50.054 418.305 51.4035C419.802 52.7529 421.166 54.1903 422.398 55.7157C422.75 56.1851 422.852 56.7131 422.706 57.2998C422.559 57.8572 422.266 58.3852 421.826 58.8839C421.415 59.3533 420.916 59.7493 420.33 60.072C419.772 60.3947 419.244 60.556 418.745 60.556C418.217 60.556 417.821 60.3653 417.557 59.984C415.915 57.4025 413.817 55.0117 411.265 52.8115C410.532 54.2783 409.681 55.6864 408.713 57.0358C407.745 58.3852 406.63 59.7053 405.369 60.996ZM424.774 64.2082C425.009 62.2134 425.17 59.94 425.258 57.3878C425.346 54.8357 425.39 52.1955 425.39 49.4673C425.39 47.3259 425.361 45.2138 425.302 43.131C425.273 41.0188 425.229 39.0241 425.17 37.1466C425.141 36.5599 425.449 36.1052 426.094 35.7825C426.769 35.4305 427.487 35.2545 428.25 35.2545C428.895 35.2545 429.482 35.3865 430.01 35.6505C430.538 35.9145 430.861 36.3399 430.978 36.9266C431.418 39.6548 431.741 42.6616 431.946 45.9471C432.152 49.2327 432.254 52.4742 432.254 55.6717C432.254 57.2851 432.225 58.8399 432.166 60.336C432.137 61.8321 432.064 63.2255 431.946 64.5162C431.888 65.0443 431.536 65.4256 430.89 65.6603C430.245 65.895 429.511 66.0123 428.69 66.0123C428.191 66.0123 427.693 65.9683 427.194 65.8803C426.725 65.8216 426.299 65.7043 425.918 65.5283C425.566 65.3816 425.273 65.2056 425.038 65.0003C424.832 64.7656 424.744 64.5016 424.774 64.2082ZM448.254 34.9465C449.926 34.9465 451.437 35.2545 452.786 35.8705C454.165 36.4866 455.338 37.3226 456.306 38.3787C457.275 39.4054 458.023 40.6082 458.551 41.9869C459.079 43.3656 459.343 44.8177 459.343 46.3432C459.343 48.778 458.756 50.7874 457.583 52.3715C456.409 53.9556 454.532 54.997 451.95 55.4957L452.082 59.1919C453.314 59.1919 454.532 59.1772 455.734 59.1479C456.967 59.1186 458.169 59.0599 459.343 58.9719C459.753 58.9426 460.061 59.1772 460.267 59.6759C460.472 60.1746 460.575 60.7173 460.575 61.304C460.575 61.8907 460.457 62.4481 460.223 62.9761C460.017 63.5042 459.68 63.8269 459.211 63.9442C458.213 64.1789 457.113 64.3842 455.91 64.5602C454.737 64.7362 453.505 64.8829 452.214 65.0003C450.953 65.0883 449.662 65.1616 448.342 65.2203C447.022 65.2789 445.731 65.3083 444.47 65.3083C443.208 65.3083 442.02 65.2789 440.906 65.2203C439.791 65.1909 438.764 65.1176 437.825 65.0003C437.327 64.9416 436.96 64.5749 436.725 63.9002C436.491 63.1962 436.373 62.4334 436.373 61.6121C436.373 60.7907 436.491 60.072 436.725 59.4559C436.96 58.8106 437.297 58.5025 437.737 58.5319C438.881 58.6492 440.055 58.7519 441.258 58.8399C442.49 58.9279 443.722 59.0012 444.954 59.0599C444.954 58.4732 444.954 57.8865 444.954 57.2998C444.954 56.7131 444.939 56.1264 444.91 55.5397C442.299 55.0997 440.378 54.1169 439.145 52.5915C437.943 51.0368 437.341 49.0567 437.341 46.6512C437.341 45.0671 437.591 43.571 438.089 42.1629C438.617 40.7255 439.351 39.4788 440.29 38.4227C441.258 37.3373 442.416 36.4866 443.766 35.8705C445.115 35.2545 446.611 34.9465 448.254 34.9465ZM461.147 64.2082C461.381 62.2134 461.543 59.94 461.631 57.3878C461.719 54.8357 461.763 52.1955 461.763 49.4673C461.763 47.3259 461.733 45.2138 461.675 43.131C461.645 41.0188 461.601 39.0241 461.543 37.1466C461.543 36.8533 461.631 36.5892 461.807 36.3546C461.983 36.1199 462.203 35.9292 462.467 35.7825C462.76 35.6065 463.083 35.4745 463.435 35.3865C463.816 35.2985 464.198 35.2545 464.579 35.2545C465.224 35.2545 465.796 35.3865 466.295 35.6505C466.823 35.9145 467.146 36.3399 467.263 36.9266C467.498 38.364 467.689 39.8894 467.835 41.5029C468.011 43.087 468.158 44.7297 468.275 46.4312C468.833 46.4312 469.375 46.4312 469.903 46.4312C470.461 46.4312 471.003 46.4458 471.531 46.4752C472.059 46.5045 472.455 46.7978 472.719 47.3552C472.983 47.8832 473.115 48.4846 473.115 49.1593C473.115 49.5407 473.071 49.922 472.983 50.3034C472.895 50.6847 472.763 51.0368 472.587 51.3595C472.411 51.6528 472.191 51.9022 471.927 52.1075C471.663 52.2835 471.355 52.3715 471.003 52.3715H468.495C468.495 52.9289 468.495 53.4862 468.495 54.0436C468.525 54.5716 468.539 55.1143 468.539 55.6717C468.539 57.3145 468.51 58.8839 468.451 60.38C468.393 61.8467 468.319 63.2255 468.231 64.5162C468.173 65.0443 467.821 65.4256 467.175 65.6603C466.559 65.895 465.84 66.0123 465.019 66.0123C464.52 66.0123 464.036 65.9683 463.567 65.8803C463.098 65.8216 462.672 65.7043 462.291 65.5283C461.939 65.3816 461.645 65.2056 461.411 65.0003C461.205 64.7656 461.117 64.5016 461.147 64.2082ZM448.386 40.7108C447.565 40.7108 446.861 40.8868 446.274 41.2389C445.717 41.5615 445.247 42.0016 444.866 42.5589C444.514 43.1163 444.25 43.7323 444.074 44.407C443.927 45.0817 443.854 45.7565 443.854 46.4312C443.854 47.5752 444.279 48.4699 445.13 49.1153C445.981 49.7607 447.022 50.0834 448.254 50.0834C448.87 50.0834 449.457 49.9954 450.014 49.8194C450.601 49.6434 451.114 49.394 451.554 49.0713C451.994 48.7486 452.346 48.3526 452.61 47.8832C452.874 47.4139 453.006 46.8712 453.006 46.2552C453.006 45.4924 452.904 44.7737 452.698 44.099C452.522 43.4243 452.229 42.8376 451.818 42.3389C451.437 41.8402 450.953 41.4442 450.366 41.1509C449.809 40.8575 449.149 40.7108 448.386 40.7108ZM70.6311 122.504C70.6898 123.531 70.4991 124.235 70.0591 124.616C69.6191 125.027 69.003 125.232 68.211 125.232C67.1549 125.232 66.1428 125.232 65.1748 125.232C64.2067 125.232 63.2533 125.232 62.3146 125.232C61.3759 125.262 60.4225 125.291 59.4544 125.32C58.5157 125.35 57.5183 125.379 56.4623 125.408C56.3449 125.408 56.2423 125.496 56.1543 125.672C56.0956 125.878 56.0662 126.083 56.0662 126.288C56.0662 126.523 56.0956 126.728 56.1543 126.904C56.2129 127.11 56.3009 127.212 56.4183 127.212C57.181 127.242 57.929 127.256 58.6624 127.256C59.3958 127.286 60.1292 127.3 60.8625 127.3C62.5346 127.3 64.1774 127.271 65.7908 127.212C67.4043 127.154 69.0617 127.066 70.7631 126.948C70.9391 126.919 71.1005 126.963 71.2471 127.08C71.3938 127.198 71.5112 127.359 71.5992 127.564C71.6872 127.77 71.7605 127.99 71.8192 128.225C71.8779 128.489 71.9072 128.738 71.9072 128.973C71.9072 129.325 71.8485 129.633 71.7312 129.897C71.6138 130.19 71.4378 130.366 71.2031 130.425C69.2084 130.835 67.1696 131.143 65.0868 131.349C63.0333 131.554 60.9505 131.657 58.8384 131.657C57.577 131.657 56.3303 131.613 55.0982 131.525C53.8955 131.466 52.6927 131.349 51.49 131.173C50.9033 131.085 50.4339 130.777 50.0819 130.249C49.7299 129.75 49.5245 129.178 49.4659 128.533C49.4365 128.122 49.4072 127.696 49.3779 127.256C49.3779 126.816 49.3779 126.376 49.3779 125.936C49.3779 125.526 49.3779 125.1 49.3779 124.66C49.4072 124.25 49.4365 123.839 49.4659 123.428C49.5245 122.754 49.7592 122.255 50.1699 121.932C50.5806 121.58 51.138 121.389 51.842 121.36C53.0154 121.301 54.1155 121.272 55.1422 121.272C56.1689 121.272 57.1663 121.272 58.1344 121.272H63.8547C63.9427 121.272 64.0014 121.184 64.0307 121.008C64.0894 120.832 64.1187 120.641 64.1187 120.436C64.1187 120.231 64.0747 120.04 63.9867 119.864C63.928 119.688 63.8254 119.6 63.6787 119.6C62.3586 119.541 61.1119 119.497 59.9385 119.468C58.7651 119.409 57.621 119.38 56.5063 119.38C55.5676 119.38 54.6288 119.395 53.6901 119.424C52.7514 119.453 51.798 119.497 50.8299 119.556C50.4486 119.585 50.1552 119.365 49.9499 118.896C49.7739 118.427 49.6859 117.899 49.6859 117.312C49.6859 116.754 49.7592 116.27 49.9059 115.86C50.0819 115.42 50.3459 115.185 50.6979 115.156C53.5434 114.892 56.3449 114.76 59.1024 114.76C60.6279 114.76 62.1239 114.789 63.5907 114.848C65.0574 114.906 66.5389 114.98 68.035 115.068C68.7977 115.126 69.311 115.361 69.575 115.772C69.8684 116.182 70.0737 116.725 70.1911 117.4C70.3084 118.163 70.3964 118.94 70.4551 119.732C70.5138 120.495 70.5724 121.419 70.6311 122.504ZM49.4219 95.5306C48.8352 95.5599 48.3951 95.3106 48.1018 94.7825C47.8084 94.2252 47.6618 93.6385 47.6618 93.0224C47.6618 92.4651 47.7791 91.9664 48.0138 91.5263C48.2778 91.057 48.6591 90.8076 49.1578 90.7783C50.6833 90.7196 52.458 90.6756 54.4822 90.6463C56.5063 90.617 58.5451 90.6023 60.5985 90.6023C62.0946 90.6023 63.5174 90.6023 64.8668 90.6023C66.2162 90.6023 67.4336 90.6316 68.519 90.6903C69.2817 90.7196 69.8831 90.837 70.3231 91.0423C70.7631 91.2183 71.1005 91.4677 71.3352 91.7904C71.5992 92.113 71.7605 92.5091 71.8192 92.9784C71.9072 93.4185 71.9805 93.9025 72.0392 94.4305C72.1859 96.0439 72.2885 97.5987 72.3472 99.0948C72.4352 100.562 72.4792 102.072 72.4792 103.627V104.947C72.4792 105.182 72.3619 105.387 72.1272 105.563C71.9219 105.71 71.6432 105.857 71.2911 106.003C70.9391 106.121 70.5431 106.209 70.1031 106.267C69.6631 106.326 69.2084 106.355 68.739 106.355C67.8589 106.355 67.0669 106.238 66.3629 106.003C65.6588 105.739 65.3068 105.343 65.3068 104.815C65.3068 104.346 65.3068 103.891 65.3068 103.451C65.3361 103.011 65.3508 102.571 65.3508 102.131C65.3508 101.28 65.3361 100.43 65.3068 99.5788C65.2775 98.7281 65.2335 97.8334 65.1748 96.8947C65.1455 96.4253 65.0281 96.1026 64.8228 95.9266C64.6174 95.7213 64.2507 95.6186 63.7227 95.6186C60.8479 95.5306 58.061 95.4866 55.3622 95.4866C54.3942 95.4866 53.4114 95.4866 52.414 95.4866C51.446 95.4866 50.4486 95.5012 49.4219 95.5306ZM46.2977 106.751C49.5245 106.898 52.8394 107.03 56.2423 107.147C59.6745 107.235 63.0773 107.279 66.4509 107.279C67.7416 107.279 68.9883 107.279 70.1911 107.279C71.4232 107.279 72.6406 107.25 73.8433 107.191C74.3713 107.162 74.7674 107.367 75.0314 107.807C75.2954 108.218 75.4274 108.687 75.4274 109.215C75.4274 109.714 75.2807 110.183 74.9874 110.623C74.7234 111.063 74.298 111.313 73.7113 111.372C70.2791 111.694 66.7149 111.944 63.0187 112.12C59.3224 112.296 55.6556 112.384 52.018 112.384C51.0793 112.384 50.1406 112.384 49.2018 112.384C48.2631 112.354 47.3244 112.325 46.3857 112.296C45.8283 112.296 45.4176 112.002 45.1536 111.416C44.9189 110.829 44.8016 110.183 44.8016 109.479C44.8016 108.775 44.9189 108.145 45.1536 107.587C45.4176 107.001 45.799 106.722 46.2977 106.751ZM79.2996 110.667C82.4385 110.843 85.6507 110.99 88.9362 111.107C92.2511 111.196 95.5512 111.24 98.8368 111.24C101.624 111.24 104.293 111.196 106.845 111.107C107.373 111.078 107.769 111.298 108.033 111.768C108.297 112.208 108.429 112.706 108.429 113.264C108.429 113.821 108.283 114.334 107.989 114.804C107.725 115.273 107.3 115.537 106.713 115.596C103.281 115.918 99.7168 116.182 96.0206 116.388C92.3244 116.564 88.6428 116.652 84.976 116.652C84.0372 116.652 83.0985 116.652 82.1598 116.652C81.2211 116.622 80.297 116.593 79.3876 116.564C78.8303 116.564 78.4196 116.256 78.1556 115.64C77.9209 115.024 77.8035 114.334 77.8035 113.572C77.8035 112.809 77.9209 112.134 78.1556 111.548C78.4196 110.931 78.8009 110.638 79.2996 110.667ZM90.1243 124.572C90.1243 125.071 90.3589 125.423 90.8283 125.628C91.2977 125.863 91.7817 126.01 92.2804 126.068C92.7204 126.098 93.1751 126.112 93.6445 126.112C94.1138 126.142 94.5979 126.156 95.0966 126.156C96.4166 126.156 97.7514 126.098 99.1008 125.98C100.48 125.892 101.785 125.775 103.017 125.628C103.222 125.599 103.428 125.658 103.633 125.804C103.838 125.98 104.014 126.186 104.161 126.42C104.337 126.684 104.469 126.978 104.557 127.3C104.645 127.652 104.689 127.99 104.689 128.313C104.689 128.723 104.601 129.09 104.425 129.413C104.278 129.765 104.014 129.999 103.633 130.117C101.902 130.645 100.069 131.055 98.1327 131.349C96.226 131.642 94.3485 131.789 92.5004 131.789C91.7084 131.789 90.7843 131.759 89.7282 131.701C88.7015 131.642 87.7188 131.481 86.7801 131.217C85.8413 130.982 85.0346 130.615 84.3599 130.117C83.7145 129.618 83.3919 128.929 83.3919 128.048C83.3919 125.291 83.5239 122.548 83.7879 119.82C83.8466 119.233 84.1399 118.823 84.6679 118.588C85.2253 118.353 85.8413 118.236 86.516 118.236C86.9561 118.236 87.3961 118.28 87.8361 118.368C88.3055 118.456 88.7162 118.588 89.0682 118.764C89.4496 118.911 89.7429 119.101 89.9483 119.336C90.1829 119.541 90.2856 119.761 90.2563 119.996C90.1683 121.668 90.1243 123.194 90.1243 124.572ZM93.0284 95.3546C91.8844 95.3546 90.9163 95.5012 90.1243 95.7946C89.3322 96.0586 88.6868 96.4106 88.1881 96.8507C87.7188 97.2907 87.3668 97.7894 87.1321 98.3467C86.9267 98.9041 86.8241 99.4615 86.8241 100.019C86.8241 100.547 86.9707 101.002 87.2641 101.383C87.5868 101.764 88.0268 102.087 88.5842 102.351C89.1415 102.586 89.7869 102.776 90.5203 102.923C91.283 103.04 92.0897 103.099 92.9404 103.099C93.7618 103.099 94.5685 103.04 95.3606 102.923C96.1526 102.776 96.8567 102.571 97.4727 102.307C98.0887 102.014 98.5728 101.662 98.9248 101.251C99.3061 100.84 99.4968 100.356 99.4968 99.7988C99.4968 98.5374 98.9394 97.4814 97.8247 96.6306C96.7393 95.7799 95.1406 95.3546 93.0284 95.3546ZM92.9404 89.8982C94.8472 89.8982 96.578 90.1769 98.1327 90.7343C99.6875 91.2917 101.008 92.0397 102.093 92.9784C103.208 93.8878 104.058 94.9585 104.645 96.1906C105.261 97.3934 105.569 98.6694 105.569 100.019C105.569 102.659 104.542 104.742 102.489 106.267C100.465 107.763 97.282 108.511 92.9404 108.511C88.6575 108.511 85.504 107.793 83.4799 106.355C81.4557 104.918 80.4437 102.938 80.4437 100.415C80.4437 98.9774 80.737 97.6134 81.3237 96.3226C81.9104 95.0319 82.7465 93.9171 83.8319 92.9784C84.9173 92.0397 86.2227 91.2917 87.7481 90.7343C89.3029 90.1769 91.0336 89.8982 92.9404 89.8982Z" fill="black"/>
<path d="M143.907 114.1C145.404 114.1 146.753 114.364 147.956 114.892C149.188 115.39 150.244 116.08 151.124 116.96C152.004 117.811 152.679 118.823 153.148 119.996C153.617 121.14 153.852 122.343 153.852 123.604C153.852 126.068 153.045 128.004 151.432 129.413C149.848 130.821 147.354 131.525 143.951 131.525C140.578 131.525 138.099 130.85 136.515 129.501C134.96 128.151 134.183 126.288 134.183 123.912C134.183 122.563 134.403 121.287 134.843 120.084C135.312 118.881 135.972 117.84 136.823 116.96C137.674 116.08 138.7 115.39 139.903 114.892C141.106 114.364 142.441 114.1 143.907 114.1ZM128.859 112.604C128.624 112.868 128.257 113 127.759 113C127.289 112.97 126.776 112.868 126.218 112.692C125.661 112.516 125.104 112.266 124.546 111.944C123.989 111.621 123.52 111.269 123.138 110.887C122.786 110.506 122.552 110.125 122.434 109.743C122.346 109.362 122.464 109.01 122.786 108.687C125.338 106.341 127.289 103.832 128.639 101.163C130.017 98.4934 130.736 95.4572 130.795 92.0544C130.824 91.4383 131.191 90.969 131.895 90.6463C132.599 90.2943 133.362 90.1183 134.183 90.1183C134.916 90.1183 135.576 90.2649 136.163 90.5583C136.75 90.8223 137.058 91.2477 137.087 91.8344C137.116 92.0984 137.131 92.3624 137.131 92.6264C137.131 92.8904 137.131 93.1398 137.131 93.3744C137.131 95.5746 136.896 97.6134 136.427 99.4908C138.363 100.635 140.109 101.808 141.663 103.011C143.218 104.184 144.568 105.475 145.712 106.883C146.093 107.353 146.21 107.866 146.064 108.423C145.917 108.981 145.624 109.509 145.184 110.007C144.773 110.477 144.274 110.887 143.687 111.24C143.101 111.562 142.558 111.724 142.059 111.724C141.561 111.724 141.165 111.533 140.871 111.152C139.17 108.893 137.028 106.737 134.447 104.683C133.743 106.091 132.921 107.441 131.983 108.731C131.044 110.022 130.003 111.313 128.859 112.604ZM147.824 111.46C147.941 110.227 148.029 108.937 148.088 107.587C148.146 106.238 148.176 104.83 148.176 103.363C148.176 101.574 148.132 99.7548 148.044 97.9067C147.985 96.0293 147.912 94.1665 147.824 92.3184C147.794 92.025 147.868 91.761 148.044 91.5263C148.22 91.2917 148.44 91.101 148.704 90.9543C148.997 90.7783 149.334 90.6463 149.716 90.5583C150.097 90.4703 150.479 90.4263 150.86 90.4263C151.505 90.4263 152.092 90.5583 152.62 90.8223C153.177 91.0863 153.515 91.5117 153.632 92.0984C153.808 93.1544 153.969 94.2398 154.116 95.3546C154.263 96.4693 154.395 97.584 154.512 98.6988C155.099 98.6694 155.7 98.6694 156.316 98.6988C156.932 98.6988 157.519 98.7134 158.076 98.7428C158.604 98.7721 159 99.0655 159.264 99.6228C159.528 100.151 159.66 100.752 159.66 101.427C159.66 101.808 159.616 102.19 159.528 102.571C159.44 102.952 159.308 103.304 159.132 103.627C158.956 103.92 158.736 104.17 158.472 104.375C158.208 104.551 157.9 104.639 157.548 104.639C157.05 104.639 156.58 104.639 156.14 104.639C155.729 104.639 155.304 104.654 154.864 104.683C154.864 105.152 154.864 105.622 154.864 106.091C154.893 106.531 154.908 106.971 154.908 107.411C154.908 108.995 154.864 110.462 154.776 111.812C154.747 112.369 154.38 112.794 153.676 113.088C152.972 113.352 152.195 113.484 151.344 113.484C150.405 113.484 149.569 113.322 148.836 113C148.102 112.648 147.765 112.134 147.824 111.46ZM144.083 119.468C143.379 119.468 142.793 119.6 142.323 119.864C141.854 120.099 141.458 120.407 141.135 120.788C140.842 121.169 140.622 121.595 140.475 122.064C140.358 122.534 140.299 123.003 140.299 123.472C140.299 124.411 140.651 125.1 141.355 125.54C142.089 125.98 142.954 126.2 143.951 126.2C144.45 126.2 144.934 126.142 145.404 126.024C145.902 125.907 146.328 125.731 146.68 125.496C147.061 125.262 147.354 124.968 147.56 124.616C147.794 124.264 147.912 123.854 147.912 123.384C147.912 122.24 147.574 121.301 146.9 120.568C146.254 119.835 145.316 119.468 144.083 119.468ZM171.788 90.5143C173.108 90.5143 174.34 90.7196 175.484 91.1303C176.628 91.5117 177.655 92.0544 178.564 92.7584C179.474 93.4625 180.251 94.2985 180.896 95.2666C181.542 96.2346 182.041 97.276 182.393 98.3907C182.745 98.3907 183.097 98.3907 183.449 98.3907C183.83 98.3614 184.211 98.3467 184.593 98.3467C184.974 98.3467 185.341 98.3614 185.693 98.3907C186.074 98.3907 186.441 98.3907 186.793 98.3907L186.529 92.3184C186.499 92.025 186.573 91.761 186.749 91.5263C186.925 91.2917 187.145 91.101 187.409 90.9543C187.702 90.7783 188.04 90.6463 188.421 90.5583C188.802 90.4703 189.184 90.4263 189.565 90.4263C190.21 90.4263 190.797 90.5583 191.325 90.8223C191.882 91.0863 192.22 91.5117 192.337 92.0984C192.777 94.5332 193.1 96.9387 193.305 99.3148C193.511 101.691 193.613 104.023 193.613 106.311C193.613 107.807 193.569 109.259 193.481 110.667C193.452 111.225 193.085 111.65 192.381 111.944C191.677 112.208 190.9 112.34 190.049 112.34C189.11 112.34 188.274 112.178 187.541 111.856C186.807 111.504 186.47 110.99 186.529 110.315C186.617 109.318 186.69 108.321 186.749 107.323C186.807 106.297 186.837 105.24 186.837 104.155C186.221 104.155 185.561 104.155 184.857 104.155C184.182 104.155 183.507 104.17 182.833 104.199C182.481 106.575 181.41 108.438 179.62 109.787C177.86 111.137 175.249 111.812 171.788 111.812C168.004 111.812 165.217 110.99 163.427 109.347C161.638 107.705 160.743 105.402 160.743 102.439C160.743 100.826 161.007 99.3001 161.535 97.8627C162.063 96.396 162.797 95.1199 163.735 94.0345C164.704 92.9491 165.862 92.0984 167.212 91.4823C168.59 90.837 170.116 90.5143 171.788 90.5143ZM191.721 126.64C191.692 127.374 191.354 128.004 190.709 128.533C190.064 129.09 189.228 129.545 188.201 129.897C187.174 130.278 186.015 130.557 184.725 130.733C183.463 130.909 182.202 130.997 180.94 130.997C179.679 130.997 178.432 130.909 177.2 130.733C175.998 130.586 174.912 130.337 173.944 129.985C173.005 129.662 172.243 129.237 171.656 128.709C171.069 128.181 170.776 127.564 170.776 126.86C170.776 124.954 170.849 123.032 170.996 121.096C171.172 119.16 171.421 117.18 171.744 115.156C171.832 114.569 172.125 114.158 172.624 113.924C173.152 113.66 173.739 113.528 174.384 113.528C174.795 113.528 175.205 113.572 175.616 113.66C176.056 113.748 176.438 113.88 176.76 114.056C177.083 114.202 177.347 114.393 177.552 114.628C177.758 114.833 177.846 115.068 177.816 115.332L177.508 118.236H179.708C180.618 118.236 181.542 118.236 182.481 118.236C183.419 118.236 184.387 118.251 185.385 118.28C185.326 117.781 185.267 117.312 185.209 116.872C185.15 116.402 185.091 115.918 185.033 115.42C184.974 115.126 185.018 114.862 185.165 114.628C185.341 114.393 185.575 114.202 185.869 114.056C186.162 113.88 186.485 113.748 186.837 113.66C187.218 113.572 187.6 113.528 187.981 113.528C188.656 113.528 189.272 113.66 189.829 113.924C190.386 114.188 190.724 114.613 190.841 115.2C191.457 118.368 191.765 121.492 191.765 124.572C191.765 124.924 191.765 125.262 191.765 125.584C191.765 125.936 191.75 126.288 191.721 126.64ZM171.92 96.1026C171.04 96.1026 170.292 96.2933 169.676 96.6746C169.089 97.0267 168.605 97.496 168.224 98.0827C167.842 98.6694 167.564 99.3295 167.388 100.063C167.241 100.796 167.168 101.515 167.168 102.219C167.168 103.539 167.622 104.551 168.532 105.255C169.441 105.959 170.527 106.311 171.788 106.311C172.433 106.311 173.049 106.223 173.636 106.047C174.223 105.842 174.751 105.563 175.22 105.211C175.689 104.83 176.056 104.375 176.32 103.847C176.614 103.319 176.76 102.718 176.76 102.043C176.76 101.222 176.658 100.459 176.452 99.7548C176.247 99.0214 175.939 98.3907 175.528 97.8627C175.117 97.3053 174.604 96.88 173.988 96.5866C173.401 96.264 172.712 96.1026 171.92 96.1026ZM177.068 124.396C177.068 124.66 177.2 124.895 177.464 125.1C177.728 125.306 178.066 125.467 178.476 125.584C178.887 125.731 179.356 125.834 179.884 125.892C180.412 125.98 180.926 126.024 181.424 126.024C181.923 126.024 182.437 125.98 182.965 125.892C183.493 125.834 183.962 125.731 184.373 125.584C184.813 125.467 185.165 125.291 185.429 125.056C185.693 124.851 185.825 124.602 185.825 124.308C185.825 124.074 185.825 123.839 185.825 123.604C185.825 123.37 185.81 123.135 185.781 122.9C184.402 122.9 182.965 122.9 181.469 122.9C179.972 122.9 178.52 122.915 177.112 122.944C177.112 123.179 177.098 123.428 177.068 123.692C177.068 123.927 177.068 124.162 177.068 124.396ZM200.284 96.8067C199.874 96.8653 199.551 96.616 199.316 96.0586C199.111 95.4719 199.008 94.8265 199.008 94.1225C199.008 93.4185 199.111 92.7731 199.316 92.1864C199.551 91.5997 199.903 91.2917 200.372 91.2623C200.871 91.2623 201.37 91.2623 201.869 91.2623C202.397 91.233 202.91 91.2183 203.409 91.2183C205.902 91.2183 208.484 91.2623 211.153 91.3503C213.852 91.4383 216.463 91.5557 218.986 91.7024C219.484 91.7317 219.851 92.0104 220.086 92.5384C220.35 93.0371 220.482 93.5798 220.482 94.1665C220.482 94.7532 220.364 95.2959 220.13 95.7946C219.895 96.2933 219.558 96.528 219.118 96.4986C217.035 96.4106 214.849 96.3666 212.561 96.3666C212.385 98.1267 212.004 99.8428 211.417 101.515C213.353 102.542 215.099 103.627 216.653 104.771C218.208 105.915 219.602 107.177 220.834 108.555C221.215 108.995 221.347 109.494 221.23 110.051C221.112 110.609 220.848 111.137 220.438 111.636C220.027 112.105 219.528 112.501 218.942 112.824C218.384 113.146 217.841 113.308 217.313 113.308C216.756 113.308 216.345 113.132 216.081 112.78C215.143 111.577 214.087 110.447 212.913 109.391C211.769 108.335 210.522 107.338 209.173 106.399C208.498 107.573 207.706 108.702 206.797 109.787C205.917 110.843 204.949 111.885 203.893 112.912C203.658 113.146 203.291 113.264 202.793 113.264C202.323 113.234 201.81 113.117 201.252 112.912C200.724 112.706 200.196 112.457 199.668 112.164C199.14 111.841 198.7 111.489 198.348 111.107C197.996 110.726 197.776 110.359 197.688 110.007C197.6 109.626 197.732 109.289 198.084 108.995C200.196 107.235 201.957 105.343 203.365 103.319C204.773 101.295 205.77 99.0214 206.357 96.4986C205.33 96.5573 204.303 96.616 203.277 96.6746C202.25 96.704 201.252 96.748 200.284 96.8067ZM223.87 112.076C223.987 110.961 224.061 109.773 224.09 108.511C224.149 107.221 224.178 105.871 224.178 104.463C223.562 104.434 222.946 104.419 222.33 104.419C221.743 104.419 221.156 104.419 220.57 104.419H219.074C218.78 104.419 218.516 104.346 218.281 104.199C218.076 104.023 217.9 103.803 217.753 103.539C217.607 103.246 217.489 102.923 217.401 102.571C217.343 102.19 217.313 101.823 217.313 101.471C217.313 100.855 217.416 100.298 217.621 99.7988C217.827 99.3001 218.135 99.0361 218.546 99.0068C219.103 98.9774 219.69 98.9481 220.306 98.9188C220.951 98.8894 221.626 98.8748 222.33 98.8748C222.623 98.8748 222.916 98.8748 223.21 98.8748C223.503 98.8748 223.811 98.8894 224.134 98.9188L223.87 92.3184C223.84 92.025 223.914 91.761 224.09 91.5263C224.266 91.2917 224.486 91.101 224.75 90.9543C225.043 90.7783 225.381 90.6463 225.762 90.5583C226.143 90.4703 226.525 90.4263 226.906 90.4263C227.551 90.4263 228.138 90.5583 228.666 90.8223C229.223 91.0863 229.561 91.5117 229.678 92.0984C230.118 94.5332 230.441 97.1293 230.646 99.8868C230.852 102.615 230.954 105.255 230.954 107.807C230.954 109.479 230.91 111.019 230.822 112.428C230.793 112.985 230.426 113.41 229.722 113.704C229.018 113.968 228.241 114.1 227.39 114.1C226.451 114.1 225.615 113.938 224.882 113.616C224.149 113.264 223.811 112.75 223.87 112.076ZM209.129 120.788C208.601 120.788 208.19 120.509 207.897 119.952C207.633 119.395 207.501 118.779 207.501 118.104C207.501 117.517 207.604 116.989 207.809 116.52C208.044 116.021 208.396 115.757 208.865 115.728C210.302 115.64 211.989 115.581 213.925 115.552C215.891 115.522 217.856 115.508 219.822 115.508C221.142 115.508 222.403 115.508 223.606 115.508C224.809 115.508 225.879 115.537 226.818 115.596C227.493 115.625 228.021 115.772 228.402 116.036C228.783 116.3 229.062 116.666 229.238 117.136C229.414 117.576 229.517 118.119 229.546 118.764C229.575 119.38 229.59 120.055 229.59 120.788C229.59 122.46 229.575 124.03 229.546 125.496C229.517 126.963 229.414 128.489 229.238 130.073C229.179 130.513 228.827 130.85 228.182 131.085C227.566 131.319 226.877 131.437 226.114 131.437C225.645 131.437 225.19 131.393 224.75 131.305C224.31 131.217 223.914 131.085 223.562 130.909C223.21 130.733 222.931 130.513 222.726 130.249C222.55 130.014 222.491 129.721 222.55 129.369C222.755 128.283 222.902 127.168 222.99 126.024C223.078 124.91 223.136 123.692 223.166 122.372C223.166 121.873 223.136 121.507 223.078 121.272C223.019 121.037 222.74 120.905 222.242 120.876C219.631 120.788 217.079 120.744 214.585 120.744C213.676 120.744 212.767 120.744 211.857 120.744C210.977 120.744 210.068 120.759 209.129 120.788ZM236.789 118.192C239.459 118.427 242.202 118.603 245.018 118.72C247.863 118.837 250.724 118.896 253.598 118.896C257.324 118.896 260.903 118.808 264.335 118.632C264.863 118.603 265.259 118.837 265.523 119.336C265.787 119.805 265.919 120.333 265.919 120.92C265.919 121.507 265.772 122.079 265.479 122.636C265.215 123.164 264.79 123.487 264.203 123.604C262.912 123.839 261.504 124.044 259.979 124.22C258.453 124.396 256.869 124.543 255.226 124.66C253.613 124.778 251.956 124.866 250.254 124.924C248.582 124.983 246.954 125.012 245.37 125.012C243.756 125.012 242.231 124.983 240.794 124.924C239.356 124.866 238.051 124.778 236.877 124.66C236.32 124.602 235.909 124.22 235.645 123.516C235.411 122.812 235.293 122.049 235.293 121.228C235.293 120.407 235.411 119.688 235.645 119.072C235.909 118.427 236.291 118.133 236.789 118.192ZM250.606 96.2786C249.403 96.2786 248.391 96.5133 247.57 96.9827C246.778 97.452 246.133 98.0534 245.634 98.7868C245.135 99.5201 244.769 100.356 244.534 101.295C244.328 102.234 244.226 103.158 244.226 104.067C244.226 104.888 244.387 105.622 244.71 106.267C245.033 106.883 245.473 107.411 246.03 107.851C246.617 108.262 247.291 108.585 248.054 108.819C248.817 109.025 249.623 109.127 250.474 109.127C251.296 109.127 252.102 109.01 252.894 108.775C253.716 108.541 254.434 108.203 255.05 107.763C255.667 107.294 256.165 106.722 256.547 106.047C256.928 105.372 257.119 104.61 257.119 103.759C257.119 102.732 256.972 101.764 256.679 100.855C256.415 99.9455 256.004 99.1535 255.446 98.4788C254.918 97.804 254.244 97.276 253.422 96.8947C252.63 96.484 251.692 96.2786 250.606 96.2786ZM250.474 90.8223C252.498 90.8223 254.332 91.1743 255.975 91.8784C257.617 92.5824 259.025 93.5211 260.199 94.6945C261.402 95.8679 262.326 97.2467 262.971 98.8308C263.616 100.386 263.939 102.014 263.939 103.715C263.939 105.387 263.675 106.883 263.147 108.203C262.619 109.523 261.798 110.653 260.683 111.592C259.597 112.53 258.204 113.249 256.503 113.748C254.801 114.246 252.792 114.496 250.474 114.496C245.927 114.496 242.568 113.586 240.398 111.768C238.256 109.919 237.185 107.367 237.185 104.111C237.185 102.292 237.493 100.576 238.109 98.9628C238.755 97.3494 239.65 95.9413 240.794 94.7385C241.967 93.5358 243.36 92.5824 244.974 91.8784C246.617 91.1743 248.45 90.8223 250.474 90.8223ZM296.193 101.999C296.222 102.732 296.178 103.334 296.061 103.803C295.944 104.272 295.753 104.639 295.489 104.903C295.225 105.167 294.902 105.358 294.521 105.475C294.139 105.563 293.699 105.607 293.201 105.607C291.881 105.607 290.619 105.607 289.417 105.607C288.214 105.607 287.026 105.622 285.852 105.651C284.679 105.651 283.491 105.666 282.288 105.695C281.115 105.725 279.883 105.754 278.592 105.783C278.416 105.783 278.284 105.989 278.196 106.399C278.137 106.781 278.108 107.206 278.108 107.675C278.108 108.145 278.137 108.57 278.196 108.951C278.284 109.303 278.401 109.479 278.548 109.479C279.369 109.509 280.176 109.538 280.968 109.567C281.76 109.567 282.552 109.567 283.344 109.567C285.368 109.567 287.348 109.523 289.284 109.435C291.25 109.347 293.289 109.201 295.401 108.995C295.606 108.995 295.797 109.083 295.973 109.259C296.178 109.406 296.34 109.626 296.457 109.919C296.604 110.183 296.706 110.491 296.765 110.843C296.853 111.166 296.897 111.489 296.897 111.812C296.897 112.281 296.809 112.706 296.633 113.088C296.486 113.44 296.222 113.645 295.841 113.704C294.315 113.938 292.834 114.144 291.397 114.32C289.989 114.466 288.58 114.598 287.172 114.716L287.26 119.6C288.991 119.571 290.693 119.541 292.365 119.512C294.066 119.453 295.724 119.38 297.337 119.292C297.865 119.263 298.261 119.497 298.525 119.996C298.789 120.465 298.921 120.993 298.921 121.58C298.921 122.167 298.774 122.739 298.481 123.296C298.217 123.824 297.792 124.147 297.205 124.264C295.914 124.499 294.506 124.704 292.981 124.88C291.455 125.056 289.871 125.203 288.228 125.32C286.615 125.438 284.958 125.526 283.256 125.584C281.584 125.643 279.956 125.672 278.372 125.672C276.758 125.672 275.233 125.643 273.796 125.584C272.358 125.526 271.053 125.438 269.879 125.32C269.322 125.262 268.911 124.88 268.647 124.176C268.413 123.502 268.295 122.754 268.295 121.932C268.295 121.111 268.413 120.392 268.647 119.776C268.911 119.131 269.293 118.823 269.791 118.852C271.463 119.028 273.15 119.175 274.852 119.292C276.582 119.38 278.343 119.453 280.132 119.512C280.132 118.749 280.117 117.987 280.088 117.224C280.088 116.461 280.088 115.698 280.088 114.936C279.032 114.906 277.961 114.877 276.876 114.848C275.79 114.789 274.69 114.716 273.576 114.628C272.813 114.569 272.226 114.232 271.815 113.616C271.405 113 271.17 112.252 271.111 111.372C271.053 110.814 271.023 110.227 271.023 109.611C271.023 108.995 271.023 108.35 271.023 107.675C271.023 107.001 271.023 106.341 271.023 105.695C271.023 105.02 271.053 104.346 271.111 103.671C271.17 102.732 271.449 102.028 271.947 101.559C272.475 101.06 273.165 100.796 274.016 100.767C275.688 100.708 277.286 100.679 278.812 100.679C280.337 100.65 281.877 100.635 283.432 100.635C284.342 100.635 285.251 100.65 286.16 100.679C287.07 100.679 287.994 100.679 288.932 100.679C289.05 100.679 289.138 100.532 289.196 100.239C289.255 99.9455 289.284 99.5935 289.284 99.1828C289.284 98.7428 289.24 98.3321 289.152 97.9507C289.064 97.5694 288.932 97.364 288.756 97.3347C287.29 97.188 285.852 97.0853 284.444 97.0267C283.036 96.9387 281.628 96.8947 280.22 96.8947C277.668 96.8947 275.057 97.0267 272.387 97.2907C272.123 97.2907 271.889 97.2027 271.683 97.0267C271.507 96.8507 271.346 96.616 271.199 96.3226C271.053 96.0293 270.935 95.6919 270.847 95.3106C270.789 94.9292 270.759 94.5479 270.759 94.1665C270.759 93.5505 270.862 93.0078 271.067 92.5384C271.302 92.0397 271.669 91.761 272.167 91.7024C274.016 91.5557 275.82 91.453 277.58 91.3943C279.34 91.3063 281.115 91.2623 282.904 91.2623C284.547 91.2623 286.19 91.2917 287.832 91.3503C289.505 91.409 291.221 91.497 292.981 91.6143C293.919 91.673 294.565 91.9664 294.917 92.4944C295.269 93.0224 295.518 93.7705 295.665 94.7385C295.929 96.9093 296.105 99.3295 296.193 101.999ZM319.35 119.556C319.145 119.82 318.808 119.952 318.338 119.952C317.869 119.952 317.356 119.864 316.798 119.688C316.241 119.483 315.683 119.233 315.126 118.94C314.569 118.617 314.099 118.265 313.718 117.884C313.337 117.503 313.087 117.121 312.97 116.74C312.853 116.329 312.955 115.962 313.278 115.64C315.654 113.264 317.561 110.506 318.998 107.367C320.465 104.199 321.228 100.708 321.286 96.8947C321.316 96.2786 321.682 95.8093 322.386 95.4866C323.091 95.1346 323.853 94.9585 324.675 94.9585C325.408 94.9585 326.068 95.1052 326.655 95.3986C327.241 95.6626 327.549 96.0879 327.579 96.6746C327.579 96.9093 327.579 97.1587 327.579 97.4227C327.608 97.6867 327.623 97.9361 327.623 98.1707C327.623 100.87 327.315 103.407 326.699 105.783C328.547 107.015 330.292 108.365 331.935 109.831C333.578 111.298 335.001 112.78 336.203 114.276C336.555 114.745 336.658 115.273 336.511 115.86C336.365 116.417 336.071 116.945 335.631 117.444C335.221 117.913 334.722 118.309 334.135 118.632C333.578 118.955 333.05 119.116 332.551 119.116C332.023 119.116 331.627 118.925 331.363 118.544C330.512 117.253 329.515 115.977 328.371 114.716C327.227 113.454 326.024 112.252 324.763 111.107C324.059 112.633 323.237 114.1 322.298 115.508C321.389 116.887 320.406 118.236 319.35 119.556ZM337.919 123.208C338.154 121.213 338.315 118.94 338.403 116.388C338.491 113.836 338.535 111.196 338.535 108.467C338.535 106.326 338.506 104.214 338.447 102.131C338.418 100.019 338.374 98.0241 338.315 96.1466C338.286 95.5599 338.594 95.1052 339.239 94.7825C339.914 94.4305 340.633 94.2545 341.396 94.2545C342.041 94.2545 342.628 94.3865 343.156 94.6505C343.684 94.9145 344.006 95.3399 344.124 95.9266C344.329 97.2467 344.505 98.6254 344.652 100.063C344.798 101.5 344.93 102.996 345.048 104.551C345.664 104.551 346.265 104.551 346.852 104.551C347.439 104.551 348.025 104.566 348.612 104.595C349.14 104.624 349.536 104.918 349.8 105.475C350.064 106.003 350.196 106.605 350.196 107.279C350.196 107.661 350.152 108.042 350.064 108.423C349.976 108.805 349.844 109.157 349.668 109.479C349.492 109.773 349.272 110.022 349.008 110.227C348.744 110.403 348.436 110.491 348.084 110.491C347.585 110.491 347.116 110.491 346.676 110.491C346.236 110.491 345.796 110.506 345.356 110.535C345.385 111.181 345.4 111.826 345.4 112.472C345.4 113.088 345.4 113.704 345.4 114.32C345.4 116.021 345.37 117.649 345.312 119.204C345.253 120.759 345.18 122.196 345.092 123.516C345.033 124.044 344.681 124.426 344.036 124.66C343.39 124.895 342.657 125.012 341.836 125.012C341.337 125.012 340.838 124.968 340.34 124.88C339.87 124.822 339.445 124.704 339.063 124.528C338.711 124.382 338.418 124.206 338.183 124C337.978 123.766 337.89 123.502 337.919 123.208ZM366.152 89.7662C368.059 89.7662 369.789 90.0303 371.344 90.5583C372.899 91.057 374.219 91.7464 375.304 92.6264C376.419 93.4771 377.27 94.4745 377.857 95.6186C378.473 96.7333 378.781 97.9214 378.781 99.1828C378.781 101.852 377.637 103.862 375.348 105.211C375.407 105.974 375.451 106.722 375.48 107.455C375.539 108.189 375.612 108.937 375.7 109.699L380.057 109.567C380.585 109.538 380.981 109.758 381.245 110.227C381.509 110.667 381.641 111.166 381.641 111.724C381.641 112.281 381.494 112.794 381.201 113.264C380.937 113.733 380.511 113.997 379.925 114.056C376.492 114.378 372.928 114.642 369.232 114.848C365.536 115.024 361.854 115.112 358.187 115.112C357.249 115.112 356.31 115.112 355.371 115.112C354.433 115.082 353.508 115.053 352.599 115.024C352.042 115.024 351.631 114.716 351.367 114.1C351.132 113.484 351.015 112.794 351.015 112.032C351.015 111.269 351.132 110.594 351.367 110.007C351.631 109.391 352.012 109.098 352.511 109.127L357.175 109.391C357.205 108.717 357.219 108.071 357.219 107.455C357.249 106.839 357.293 106.165 357.351 105.431C354.887 104.17 353.655 102.204 353.655 99.5348C353.655 98.1854 353.949 96.924 354.535 95.7506C355.122 94.5479 355.958 93.5065 357.043 92.6264C358.129 91.7464 359.434 91.057 360.96 90.5583C362.514 90.0303 364.245 89.7662 366.152 89.7662ZM366.504 116.212C368 116.212 369.349 116.446 370.552 116.916C371.784 117.385 372.84 118.016 373.72 118.808C374.6 119.6 375.275 120.524 375.744 121.58C376.214 122.607 376.448 123.692 376.448 124.836C376.507 127.095 375.73 128.855 374.116 130.117C372.503 131.407 369.98 132.053 366.548 132.053C363.174 132.053 360.696 131.437 359.111 130.205C357.557 129.002 356.779 127.315 356.779 125.144C356.779 123.912 356.999 122.754 357.439 121.668C357.909 120.583 358.569 119.644 359.419 118.852C360.27 118.031 361.297 117.385 362.5 116.916C363.702 116.446 365.037 116.212 366.504 116.212ZM366.24 95.2226C365.096 95.2226 364.128 95.3399 363.336 95.5746C362.544 95.7799 361.898 96.0733 361.4 96.4546C360.93 96.8067 360.578 97.2173 360.344 97.6867C360.138 98.1561 360.036 98.6254 360.036 99.0948C360.036 99.5348 360.182 99.9162 360.476 100.239C360.798 100.532 361.238 100.796 361.796 101.031C362.353 101.236 362.998 101.398 363.732 101.515C364.494 101.603 365.301 101.647 366.152 101.647C366.973 101.647 367.78 101.588 368.572 101.471C369.364 101.354 370.068 101.192 370.684 100.987C371.3 100.752 371.784 100.474 372.136 100.151C372.518 99.7988 372.708 99.3881 372.708 98.9188C372.708 97.8627 372.151 96.9827 371.036 96.2786C369.951 95.5746 368.352 95.2226 366.24 95.2226ZM366.68 121.58C365.301 121.58 364.318 121.917 363.732 122.592C363.174 123.238 362.896 123.927 362.896 124.66C362.896 125.335 363.248 125.834 363.952 126.156C364.685 126.508 365.551 126.684 366.548 126.684C367.047 126.684 367.531 126.64 368 126.552C368.499 126.464 368.924 126.332 369.276 126.156C369.657 125.98 369.951 125.76 370.156 125.496C370.391 125.232 370.508 124.924 370.508 124.572C370.508 123.722 370.171 123.018 369.496 122.46C368.851 121.873 367.912 121.58 366.68 121.58ZM368.792 109.699L368.88 106.971C368.469 107.001 368.029 107.03 367.56 107.059C367.12 107.059 366.651 107.059 366.152 107.059C365.741 107.059 365.345 107.059 364.964 107.059C364.582 107.03 364.201 107.001 363.82 106.971L364.04 109.611L368.792 109.699ZM396.118 104.243C397.614 104.243 398.963 104.507 400.166 105.035C401.369 105.563 402.395 106.282 403.246 107.191C404.097 108.071 404.757 109.098 405.226 110.271C405.696 111.445 405.93 112.692 405.93 114.012C405.93 116.593 405.138 118.617 403.554 120.084C401.999 121.521 399.535 122.24 396.162 122.24C392.847 122.24 390.397 121.536 388.813 120.128C387.258 118.72 386.481 116.769 386.481 114.276C386.481 112.897 386.701 111.606 387.141 110.403C387.61 109.171 388.256 108.101 389.077 107.191C389.928 106.282 390.94 105.563 392.113 105.035C393.316 104.507 394.651 104.243 396.118 104.243ZM408.306 123.208C408.541 121.213 408.702 118.94 408.79 116.388C408.878 113.836 408.922 111.196 408.922 108.467C408.922 106.326 408.893 104.214 408.834 102.131C408.805 100.019 408.761 98.0241 408.702 96.1466C408.673 95.5599 408.981 95.1052 409.626 94.7825C410.301 94.4305 411.02 94.2545 411.783 94.2545C412.428 94.2545 413.015 94.3865 413.543 94.6505C414.071 94.9145 414.393 95.3399 414.511 95.9266C414.745 97.3053 414.936 98.7574 415.083 100.283C415.229 101.779 415.361 103.348 415.479 104.991C416.066 104.991 416.652 104.991 417.239 104.991C417.826 104.991 418.412 105.006 418.999 105.035C419.527 105.064 419.923 105.358 420.187 105.915C420.451 106.443 420.583 107.045 420.583 107.719C420.583 108.101 420.539 108.482 420.451 108.863C420.363 109.245 420.231 109.597 420.055 109.919C419.879 110.213 419.659 110.462 419.395 110.667C419.131 110.843 418.823 110.931 418.471 110.931C417.972 110.931 417.503 110.931 417.063 110.931C416.623 110.931 416.183 110.946 415.743 110.975C415.743 111.562 415.743 112.134 415.743 112.692C415.772 113.249 415.787 113.806 415.787 114.364C415.787 116.036 415.757 117.649 415.699 119.204C415.64 120.759 415.567 122.196 415.479 123.516C415.42 124.044 415.068 124.426 414.423 124.66C413.777 124.895 413.044 125.012 412.223 125.012C411.724 125.012 411.225 124.968 410.727 124.88C410.257 124.822 409.832 124.704 409.45 124.528C409.098 124.382 408.805 124.206 408.57 124C408.365 123.766 408.277 123.502 408.306 123.208ZM385.997 103.231C385.557 103.26 385.22 102.982 384.985 102.395C384.75 101.808 384.633 101.148 384.633 100.415C384.633 99.6815 384.75 99.0068 384.985 98.3907C385.22 97.7747 385.586 97.452 386.085 97.4227H392.729C392.729 96.748 392.715 96.0586 392.685 95.3546C392.685 94.6505 392.656 93.9905 392.597 93.3744C392.568 93.1691 392.641 92.9784 392.817 92.8024C392.993 92.6264 393.228 92.4797 393.522 92.3624C393.815 92.2157 394.152 92.113 394.534 92.0544C394.915 91.9957 395.296 91.9664 395.678 91.9664C396.294 91.9664 396.851 92.069 397.35 92.2744C397.878 92.4504 398.186 92.7437 398.274 93.1544C398.391 93.7998 398.494 94.5185 398.582 95.3106C398.67 96.0733 398.743 96.836 398.802 97.5987C400.005 97.6574 401.193 97.716 402.366 97.7747C403.539 97.804 404.698 97.848 405.842 97.9067C406.37 97.9361 406.766 98.2147 407.03 98.7428C407.294 99.2708 407.426 99.8428 407.426 100.459C407.426 101.075 407.294 101.647 407.03 102.175C406.796 102.674 406.444 102.908 405.974 102.879C403.862 102.791 401.647 102.747 399.33 102.747C397.071 102.747 394.798 102.791 392.509 102.879C390.251 102.967 388.08 103.084 385.997 103.231ZM396.25 109.611C395.604 109.611 395.062 109.743 394.622 110.007C394.182 110.242 393.83 110.565 393.566 110.975C393.301 111.386 393.111 111.856 392.993 112.384C392.876 112.882 392.817 113.381 392.817 113.88C392.817 114.818 393.14 115.522 393.786 115.992C394.431 116.461 395.208 116.696 396.118 116.696C397.086 116.696 397.936 116.432 398.67 115.904C399.403 115.376 399.77 114.613 399.77 113.616C399.77 113.088 399.697 112.589 399.55 112.12C399.403 111.65 399.183 111.225 398.89 110.843C398.596 110.462 398.23 110.169 397.79 109.963C397.35 109.729 396.836 109.611 396.25 109.611ZM447.407 92.3184C447.378 92.025 447.451 91.761 447.628 91.5263C447.804 91.2917 448.024 91.101 448.288 90.9543C448.581 90.7783 448.918 90.6463 449.3 90.5583C449.681 90.4703 450.062 90.4263 450.444 90.4263C451.089 90.4263 451.676 90.5583 452.204 90.8223C452.761 91.0863 453.084 91.5117 453.172 92.0984C453.612 95.0319 453.935 97.9801 454.14 100.943C454.345 103.906 454.448 106.869 454.448 109.831C454.448 111.738 454.404 113.63 454.316 115.508C454.287 116.065 453.935 116.49 453.26 116.784C452.585 117.048 451.822 117.18 450.972 117.18C450.532 117.18 450.092 117.136 449.652 117.048C449.212 116.96 448.816 116.843 448.464 116.696C448.141 116.52 447.877 116.314 447.672 116.08C447.466 115.816 447.378 115.508 447.407 115.156C447.466 114.129 447.51 113.088 447.54 112.032C447.598 110.975 447.642 109.919 447.672 108.863C446.909 108.863 446.117 108.863 445.295 108.863C444.503 108.863 443.741 108.878 443.007 108.907C442.919 109.582 442.553 110.169 441.907 110.667C441.291 111.166 440.499 111.577 439.531 111.9C438.563 112.222 437.463 112.472 436.231 112.648C435.028 112.794 433.811 112.868 432.579 112.868C431.347 112.868 430.144 112.794 428.97 112.648C427.797 112.472 426.756 112.222 425.846 111.9C424.937 111.577 424.203 111.166 423.646 110.667C423.089 110.169 422.795 109.582 422.766 108.907C422.737 108.321 422.722 107.749 422.722 107.191C422.722 106.634 422.722 106.077 422.722 105.519C422.722 103.583 422.766 101.647 422.854 99.7108C422.971 97.7747 423.162 95.7506 423.426 93.6385C423.514 92.9931 423.807 92.5237 424.306 92.2304C424.805 91.9077 425.377 91.717 426.022 91.6583C426.726 91.5997 427.489 91.5557 428.31 91.5263C429.132 91.497 429.997 91.4823 430.907 91.4823C432.461 91.4823 434.031 91.5263 435.615 91.6143C437.199 91.7024 438.636 91.849 439.927 92.0544C440.866 92.1717 441.511 92.4504 441.863 92.8904C442.215 93.3011 442.465 93.8878 442.611 94.6505C442.611 94.7972 442.626 94.8999 442.655 94.9585C443.007 94.9585 443.389 94.9585 443.799 94.9585C444.21 94.9292 444.621 94.9145 445.031 94.9145C445.442 94.9145 445.853 94.9292 446.263 94.9585C446.703 94.9585 447.129 94.9585 447.54 94.9585L447.407 92.3184ZM439.223 123.692C439.282 124.191 439.531 124.543 439.971 124.748C440.411 124.983 440.88 125.13 441.379 125.188C441.819 125.218 442.259 125.232 442.699 125.232C443.169 125.262 443.653 125.276 444.151 125.276C445.471 125.276 446.777 125.218 448.068 125.1C449.388 125.012 450.664 124.895 451.896 124.748C452.101 124.719 452.292 124.778 452.468 124.924C452.673 125.1 452.849 125.306 452.996 125.54C453.142 125.804 453.245 126.098 453.304 126.42C453.392 126.772 453.436 127.11 453.436 127.432C453.436 127.843 453.363 128.21 453.216 128.533C453.069 128.885 452.834 129.119 452.512 129.237C450.781 129.765 448.992 130.175 447.143 130.469C445.295 130.762 443.447 130.909 441.599 130.909C440.807 130.909 439.912 130.865 438.915 130.777C437.918 130.718 436.95 130.557 436.011 130.293C435.101 130.058 434.309 129.691 433.635 129.193C432.989 128.694 432.608 128.019 432.491 127.168C432.432 126.582 432.373 125.995 432.315 125.408C432.285 124.851 432.271 124.279 432.271 123.692C432.271 122.519 432.329 121.345 432.447 120.172C432.564 118.999 432.711 117.855 432.887 116.74C432.975 116.153 433.283 115.742 433.811 115.508C434.368 115.273 434.984 115.156 435.659 115.156C436.099 115.156 436.539 115.2 436.979 115.288C437.448 115.376 437.859 115.508 438.211 115.684C438.563 115.83 438.842 116.021 439.047 116.256C439.282 116.461 439.384 116.681 439.355 116.916C439.296 117.679 439.252 118.441 439.223 119.204C439.194 119.937 439.179 120.685 439.179 121.448C439.179 121.829 439.179 122.211 439.179 122.592C439.179 122.944 439.194 123.311 439.223 123.692ZM429.366 106.003C429.366 106.267 429.469 106.502 429.674 106.707C429.909 106.883 430.202 107.03 430.554 107.147C430.907 107.235 431.303 107.309 431.743 107.367C432.183 107.426 432.623 107.455 433.063 107.455C433.503 107.455 433.943 107.426 434.383 107.367C434.823 107.309 435.219 107.221 435.571 107.103C435.923 106.986 436.201 106.839 436.407 106.663C436.642 106.458 436.759 106.209 436.759 105.915V103.627C436.759 102.6 436.744 101.574 436.715 100.547C436.686 99.5201 436.612 98.5081 436.495 97.5107C436.436 97.1587 436.26 96.9387 435.967 96.8507C435.673 96.7333 435.351 96.66 434.999 96.6306C434.735 96.6013 434.456 96.5866 434.163 96.5866C433.899 96.5573 433.605 96.5426 433.283 96.5426C432.813 96.5426 432.344 96.5573 431.875 96.5866C431.405 96.616 430.965 96.66 430.554 96.7186C430.144 96.748 429.88 96.836 429.762 96.9827C429.645 97.1293 429.572 97.32 429.542 97.5547C429.454 98.4347 429.396 99.3295 429.366 100.239C429.337 101.119 429.322 102.014 429.322 102.923C429.322 103.451 429.322 103.979 429.322 104.507C429.322 105.006 429.337 105.505 429.366 106.003ZM447.672 100.283C446.938 100.283 446.175 100.283 445.383 100.283C444.591 100.283 443.814 100.298 443.051 100.327C443.081 100.855 443.095 101.398 443.095 101.955C443.125 102.483 443.139 103.011 443.139 103.539C443.491 103.539 443.858 103.539 444.239 103.539C444.621 103.51 445.017 103.495 445.427 103.495C445.838 103.495 446.219 103.51 446.571 103.539C446.953 103.539 447.334 103.539 447.716 103.539C447.716 102.982 447.716 102.439 447.716 101.911C447.716 101.383 447.701 100.84 447.672 100.283ZM482.384 91.0863C484.056 91.0863 485.582 91.4237 486.961 92.0984C488.339 92.7437 489.513 93.6238 490.481 94.7385C491.478 95.8239 492.241 97.1 492.769 98.5668C493.326 100.034 493.605 101.574 493.605 103.187C493.605 104.742 493.385 106.15 492.945 107.411C492.505 108.643 491.83 109.699 490.921 110.579C490.012 111.43 488.838 112.09 487.401 112.56C485.993 113.029 484.321 113.264 482.384 113.264C478.6 113.264 475.813 112.413 474.024 110.711C472.234 108.981 471.34 106.59 471.34 103.539C471.34 101.838 471.604 100.224 472.132 98.6988C472.66 97.1733 473.393 95.8533 474.332 94.7385C475.3 93.6238 476.459 92.7437 477.808 92.0984C479.187 91.4237 480.712 91.0863 482.384 91.0863ZM495.805 92.3184C495.776 92.025 495.849 91.761 496.025 91.5263C496.201 91.2917 496.421 91.101 496.685 90.9543C496.979 90.7783 497.316 90.6463 497.697 90.5583C498.079 90.4703 498.46 90.4263 498.841 90.4263C499.487 90.4263 500.073 90.5583 500.601 90.8223C501.159 91.0863 501.482 91.5117 501.57 92.0984C501.775 93.4185 501.936 94.7532 502.054 96.1026C502.2 97.4227 502.332 98.7721 502.45 100.151C503.066 100.122 503.667 100.122 504.254 100.151C504.87 100.151 505.471 100.166 506.058 100.195C506.586 100.224 506.982 100.518 507.246 101.075C507.51 101.603 507.642 102.204 507.642 102.879C507.642 103.26 507.598 103.642 507.51 104.023C507.422 104.404 507.29 104.756 507.114 105.079C506.938 105.372 506.718 105.622 506.454 105.827C506.19 106.003 505.882 106.091 505.53 106.091C505.031 106.091 504.562 106.091 504.122 106.091C503.682 106.091 503.242 106.106 502.802 106.135C502.831 106.722 502.846 107.294 502.846 107.851C502.846 108.379 502.846 108.922 502.846 109.479C502.846 111.533 502.802 113.542 502.714 115.508C502.684 116.065 502.332 116.49 501.658 116.784C500.983 117.048 500.22 117.18 499.369 117.18C498.929 117.18 498.489 117.136 498.049 117.048C497.609 116.96 497.213 116.843 496.861 116.696C496.539 116.52 496.275 116.314 496.069 116.08C495.864 115.816 495.776 115.508 495.805 115.156C495.923 113.278 495.996 111.386 496.025 109.479C496.084 107.543 496.113 105.578 496.113 103.583C496.113 101.706 496.084 99.8282 496.025 97.9507C495.996 96.0733 495.923 94.1958 495.805 92.3184ZM488.061 123.692C488.119 124.191 488.369 124.543 488.809 124.748C489.249 124.983 489.718 125.13 490.217 125.188C490.657 125.218 491.097 125.232 491.537 125.232C492.006 125.262 492.49 125.276 492.989 125.276C494.309 125.276 495.615 125.218 496.905 125.1C498.225 125.012 499.501 124.895 500.733 124.748C500.939 124.719 501.13 124.778 501.306 124.924C501.511 125.1 501.687 125.306 501.834 125.54C501.98 125.804 502.083 126.098 502.142 126.42C502.23 126.772 502.274 127.11 502.274 127.432C502.274 127.843 502.2 128.21 502.054 128.533C501.907 128.885 501.672 129.119 501.35 129.237C499.619 129.765 497.829 130.175 495.981 130.469C494.133 130.762 492.285 130.909 490.437 130.909C489.645 130.909 488.75 130.865 487.753 130.777C486.755 130.718 485.787 130.557 484.849 130.293C483.939 130.058 483.147 129.691 482.472 129.193C481.827 128.694 481.446 128.019 481.328 127.168C481.27 126.582 481.211 125.995 481.152 125.408C481.123 124.851 481.108 124.279 481.108 123.692C481.108 122.519 481.167 121.345 481.284 120.172C481.402 118.999 481.548 117.855 481.724 116.74C481.812 116.153 482.12 115.742 482.648 115.508C483.206 115.273 483.822 115.156 484.497 115.156C484.937 115.156 485.377 115.2 485.817 115.288C486.286 115.376 486.697 115.508 487.049 115.684C487.401 115.83 487.679 116.021 487.885 116.256C488.119 116.461 488.222 116.681 488.193 116.916C488.134 117.679 488.09 118.441 488.061 119.204C488.031 119.937 488.017 120.685 488.017 121.448C488.017 121.829 488.017 122.211 488.017 122.592C488.017 122.944 488.031 123.311 488.061 123.692ZM482.516 96.8507C481.636 96.8507 480.888 97.0413 480.272 97.4227C479.686 97.804 479.202 98.3027 478.82 98.9188C478.439 99.5348 478.16 100.239 477.984 101.031C477.837 101.794 477.764 102.556 477.764 103.319C477.764 104.727 478.219 105.798 479.128 106.531C480.038 107.235 481.123 107.587 482.384 107.587C483.03 107.587 483.646 107.485 484.233 107.279C484.819 107.074 485.347 106.781 485.817 106.399C486.286 106.018 486.653 105.549 486.917 104.991C487.21 104.434 487.357 103.803 487.357 103.099C487.357 102.248 487.254 101.442 487.049 100.679C486.843 99.9162 486.535 99.2561 486.125 98.6988C485.714 98.1121 485.201 97.6574 484.585 97.3347C483.998 97.012 483.308 96.8507 482.516 96.8507ZM527.954 121.8C528.189 119.805 528.335 117.561 528.394 115.068C528.482 112.574 528.526 109.993 528.526 107.323C528.526 105.387 528.511 103.495 528.482 101.647C528.453 99.7695 528.409 97.9654 528.35 96.2346C528.321 95.6479 528.599 95.2079 529.186 94.9145C529.773 94.5919 530.403 94.4305 531.078 94.4305C531.665 94.4305 532.208 94.5625 532.706 94.8265C533.205 95.0612 533.498 95.4572 533.586 96.0146C533.821 97.452 534.012 98.9628 534.158 100.547C534.305 102.131 534.422 103.759 534.51 105.431C534.892 105.402 535.258 105.402 535.61 105.431C535.992 105.431 536.373 105.431 536.754 105.431C536.725 103.818 536.696 102.234 536.666 100.679C536.637 99.1241 536.593 97.6427 536.534 96.2346C536.505 95.6479 536.784 95.2079 537.37 94.9145C537.987 94.5919 538.647 94.4305 539.351 94.4305C539.937 94.4305 540.48 94.5625 540.979 94.8265C541.507 95.0612 541.815 95.4572 541.903 96.0146C542.313 98.5374 542.607 101.324 542.783 104.375C542.988 107.426 543.091 110.433 543.091 113.396C543.091 115.068 543.061 116.681 543.003 118.236C542.973 119.761 542.9 121.184 542.783 122.504C542.724 123.003 542.387 123.37 541.771 123.604C541.155 123.839 540.465 123.956 539.703 123.956C538.793 123.956 537.957 123.81 537.194 123.516C536.432 123.223 536.08 122.798 536.138 122.24C536.344 120.715 536.49 119.013 536.578 117.136C536.666 115.258 536.725 113.293 536.754 111.24C536.402 111.21 536.065 111.196 535.742 111.196C535.42 111.196 535.082 111.196 534.73 111.196C534.73 111.606 534.73 112.032 534.73 112.472C534.76 112.882 534.774 113.293 534.774 113.704C534.774 115.229 534.745 116.71 534.686 118.148C534.628 119.556 534.554 120.876 534.466 122.108C534.408 122.607 534.085 122.974 533.498 123.208C532.912 123.414 532.237 123.516 531.474 123.516C531.034 123.516 530.594 123.487 530.154 123.428C529.714 123.34 529.318 123.223 528.966 123.076C528.643 122.93 528.379 122.754 528.174 122.548C527.998 122.313 527.925 122.064 527.954 121.8ZM516.073 107.367C516.103 107.837 516.293 108.159 516.645 108.335C516.997 108.511 517.379 108.614 517.789 108.643C518.112 108.673 518.42 108.687 518.713 108.687C519.007 108.687 519.3 108.687 519.593 108.687C520.591 108.687 521.544 108.658 522.454 108.599C523.363 108.511 524.375 108.394 525.49 108.247C525.842 108.218 526.135 108.482 526.37 109.039C526.605 109.567 526.722 110.139 526.722 110.755C526.722 111.166 526.649 111.548 526.502 111.9C526.384 112.222 526.194 112.428 525.93 112.516C525.167 112.75 524.419 112.956 523.686 113.132C522.982 113.308 522.263 113.469 521.53 113.616C521.53 114.32 521.53 115.024 521.53 115.728C521.559 116.432 521.588 117.121 521.618 117.796C523.143 117.796 524.639 117.752 526.106 117.664C526.487 117.635 526.766 117.869 526.942 118.368C527.147 118.837 527.25 119.365 527.25 119.952C527.25 120.539 527.147 121.096 526.942 121.624C526.737 122.152 526.428 122.46 526.018 122.548C524.287 122.93 522.424 123.223 520.429 123.428C518.464 123.634 516.425 123.736 514.313 123.736C512.964 123.736 511.585 123.692 510.177 123.604C509.737 123.546 509.414 123.179 509.209 122.504C509.003 121.829 508.901 121.096 508.901 120.304C508.901 119.512 508.989 118.808 509.165 118.192C509.37 117.547 509.678 117.239 510.089 117.268C510.852 117.356 511.629 117.429 512.421 117.488C513.213 117.517 514.005 117.561 514.797 117.62C514.797 117.004 514.797 116.388 514.797 115.772C514.797 115.126 514.782 114.496 514.753 113.88C513.961 113.792 513.14 113.616 512.289 113.352C511.702 113.176 511.218 112.838 510.837 112.34C510.456 111.812 510.236 111.225 510.177 110.579C510.118 109.729 510.074 108.863 510.045 107.983C510.016 107.103 510.001 106.194 510.001 105.255C510.001 103.906 510.03 102.556 510.089 101.207C510.177 99.8575 510.294 98.5374 510.441 97.2467C510.529 96.5426 510.793 95.9999 511.233 95.6186C511.702 95.2079 512.23 94.9732 512.817 94.9145C513.521 94.8559 514.225 94.8119 514.929 94.7825C515.663 94.7239 516.396 94.6945 517.129 94.6945C518.42 94.6945 519.696 94.7385 520.958 94.8265C522.248 94.9145 523.51 95.0319 524.742 95.1786C525.24 95.2372 525.607 95.5012 525.842 95.9706C526.076 96.4106 526.194 96.924 526.194 97.5107C526.194 98.0974 526.062 98.6548 525.798 99.1828C525.534 99.6815 525.152 99.9308 524.654 99.9308C524.184 99.9308 523.612 99.9308 522.938 99.9308C522.263 99.9308 521.574 99.9455 520.87 99.9748C520.165 100.004 519.461 100.034 518.757 100.063C518.083 100.092 517.511 100.136 517.041 100.195C516.689 100.254 516.44 100.43 516.293 100.723C516.147 100.987 516.044 101.324 515.985 101.735C515.956 102.028 515.941 102.351 515.941 102.703C515.941 103.026 515.941 103.363 515.941 103.715C515.941 104.36 515.941 105.006 515.941 105.651C515.971 106.297 516.015 106.869 516.073 107.367ZM561.973 90.8223C563.997 90.8223 565.831 91.1743 567.473 91.8784C569.116 92.5824 570.524 93.5211 571.698 94.6945C572.9 95.8679 573.824 97.2467 574.47 98.8308C575.115 100.386 575.438 102.014 575.438 103.715C575.438 105.563 575.101 107.206 574.426 108.643C573.78 110.081 572.768 111.269 571.39 112.208C571.448 113.322 571.507 114.466 571.566 115.64C571.624 116.784 571.698 117.913 571.786 119.028C572.46 118.999 573.135 118.984 573.81 118.984C574.484 118.955 575.159 118.911 575.834 118.852C576.362 118.823 576.758 119.057 577.022 119.556C577.286 120.025 577.418 120.553 577.418 121.14C577.418 121.727 577.271 122.299 576.978 122.856C576.714 123.384 576.289 123.707 575.702 123.824C574.411 124.059 573.003 124.264 571.478 124.44C569.952 124.616 568.368 124.763 566.725 124.88C565.112 124.998 563.455 125.086 561.753 125.144C560.081 125.203 558.453 125.232 556.869 125.232C555.255 125.232 553.73 125.203 552.293 125.144C550.855 125.086 549.55 124.998 548.376 124.88C547.819 124.822 547.408 124.44 547.144 123.736C546.91 123.032 546.792 122.269 546.792 121.448C546.792 120.627 546.91 119.908 547.144 119.292C547.408 118.647 547.79 118.353 548.288 118.412C548.992 118.471 549.696 118.529 550.4 118.588C551.134 118.647 551.882 118.705 552.645 118.764C552.674 117.708 552.703 116.666 552.733 115.64C552.762 114.613 552.806 113.542 552.865 112.428C551.427 111.548 550.371 110.403 549.696 108.995C549.022 107.587 548.684 105.959 548.684 104.111C548.684 102.292 548.992 100.576 549.608 98.9628C550.254 97.3494 551.148 95.9413 552.293 94.7385C553.466 93.5358 554.859 92.5824 556.473 91.8784C558.116 91.1743 559.949 90.8223 561.973 90.8223ZM562.105 96.2786C560.902 96.2786 559.89 96.5133 559.069 96.9827C558.277 97.452 557.631 98.0534 557.133 98.7868C556.634 99.5201 556.267 100.356 556.033 101.295C555.827 102.234 555.725 103.158 555.725 104.067C555.725 104.888 555.886 105.622 556.209 106.267C556.531 106.883 556.971 107.411 557.529 107.851C558.116 108.262 558.79 108.585 559.553 108.819C560.316 109.025 561.122 109.127 561.973 109.127C562.794 109.127 563.601 109.01 564.393 108.775C565.215 108.541 565.933 108.203 566.549 107.763C567.165 107.294 567.664 106.722 568.045 106.047C568.427 105.372 568.617 104.61 568.617 103.759C568.617 102.732 568.471 101.764 568.177 100.855C567.913 99.9455 567.503 99.1535 566.945 98.4788C566.417 97.804 565.743 97.276 564.921 96.8947C564.129 96.484 563.19 96.2786 562.105 96.2786ZM564.833 119.116C564.833 117.561 564.877 115.962 564.965 114.32C564.496 114.378 564.012 114.422 563.513 114.452C563.014 114.481 562.501 114.496 561.973 114.496C561.474 114.496 561.005 114.496 560.565 114.496C560.125 114.496 559.7 114.466 559.289 114.408C559.348 115.17 559.392 115.948 559.421 116.74C559.48 117.532 559.538 118.309 559.597 119.072C560.448 119.101 561.313 119.116 562.193 119.116C563.073 119.116 563.953 119.116 564.833 119.116Z" fill="#FF8256"/>
<defs>
<filter id="filter0_d_638_12" x="0.29883" y="0.688234" width="618.427" height="196.381" filterUnits="userSpaceOnUse" color-interpolation-filters="sRGB">
<feFlood flood-opacity="0" result="BackgroundImageFix"/>
<feColorMatrix in="SourceAlpha" type="matrix" values="0 0 0 0 0 0 0 0 0 0 0 0 0 0 0 0 0 0 127 0" result="hardAlpha"/>
<feOffset dx="1.22812" dy="1.22812"/>
<feGaussianBlur stdDeviation="1.35393"/>
<feComposite in2="hardAlpha" operator="out"/>
<feColorMatrix type="matrix" values="0 0 0 0 0 0 0 0 0 0 0 0 0 0 0 0 0 0 0.25 0"/>
<feBlend mode="normal" in2="BackgroundImageFix" result="effect1_dropShadow_638_12"/>
<feBlend mode="normal" in="SourceGraphic" in2="effect1_dropShadow_638_12" result="shape"/>
</filter>
</defs>
</svg>
