<svg width="154" height="42" viewBox="0 0 154 42" fill="none" xmlns="http://www.w3.org/2000/svg">
<path d="M28.5574 0.396973L28.9463 3.9987C29.0081 4.57451 29.4203 5.05185 29.9794 5.20039L33.4827 6.12002L29.881 6.5089C29.3052 6.57065 28.8278 6.9829 28.6809 7.54202L27.7613 11.0453L27.3724 7.44355C27.3107 6.86774 26.8984 6.3904 26.3393 6.24186L22.8361 5.32223L26.4378 4.93335C27.0136 4.8716 27.4909 4.45935 27.6395 3.90023L28.5591 0.396973H28.5574Z" fill="white"/>
<path d="M13.9168 20.677C13.9068 20.677 13.8968 20.6754 13.8868 20.6737L13.8717 20.677V20.6821C13.8717 20.6821 13.8684 20.6787 13.8667 20.6787C13.8517 20.677 13.8367 20.6737 13.8217 20.672C13.5897 20.6487 13.4461 20.7321 13.2041 20.6971C12.7468 20.6921 12.1977 20.7922 11.6036 20.9424C11.3398 21.0042 11.0111 21.136 10.729 21.2228C9.97126 21.4615 9.20184 21.7102 8.35899 22.0256C8.07025 22.1341 7.80488 22.1324 7.5128 22.2409C7.43436 22.271 7.37761 22.281 7.2975 22.311C7.25244 22.3277 7.20904 22.3377 7.16732 22.3494C6.96704 22.4228 6.76509 22.4963 6.56313 22.568L1.92328 40.0059L6.99708 39.8573L8.33229 35.1274L14.8314 34.7051L16.5639 39.577L22.8377 39.3934L15.8362 20.7471C15.2337 20.7688 14.5961 20.7505 13.9168 20.6787V20.677ZM9.62744 30.4358L11.1529 22.9486L13.1457 30.1003L9.62744 30.4358Z" fill="white"/>
<path d="M22.629 17.496C22.5856 17.3725 22.4921 17.2707 22.3736 17.2172C22.1416 17.1104 21.8512 17.1605 21.4957 17.304C20.264 17.7997 18.368 17.5243 16.7925 17.1004C15.2336 16.6798 14.0219 16.1424 13.9985 16.1307L13.5746 15.7936C13.4828 15.6534 13.3877 15.4882 13.3109 15.3179C13.129 14.9224 13.0071 14.5468 13.0038 14.5368L13.0005 14.5251V14.5201C13.0005 14.5201 12.4447 12.8695 11.8021 11.0669C11.4817 10.1657 11.1362 9.22935 10.8274 8.44158C10.517 7.65381 10.2466 7.02292 10.0446 6.69746C9.82433 6.34196 9.40374 6.0599 8.87466 5.82957C8.34559 5.59925 7.70635 5.42233 7.04376 5.33054C6.32441 5.23207 5.5817 5.24208 4.92912 5.40398H4.92411C4.43843 5.52414 4.00949 5.74445 3.664 6.04655C3.66067 6.04655 3.65733 6.04321 3.65733 6.04321C3.63396 6.04321 3.6106 6.04988 3.59057 6.06324C3.58389 6.06324 3.57555 6.06324 3.55719 6.06657C3.54717 6.06824 3.53382 6.06991 3.52214 6.07492C3.51379 6.07826 3.50211 6.08326 3.50044 6.08493C3.4971 6.08493 3.48375 6.09995 3.48208 6.10162C3.48208 6.10329 3.47874 6.10663 3.47874 6.1083C3.36191 6.23181 3.4487 6.44878 3.61894 6.45879C3.61894 6.45879 4.40004 6.50886 5.2262 6.69746C5.64012 6.79093 6.06738 6.91443 6.39451 7.08133C6.72164 7.24657 6.93861 7.45352 7.00871 7.65881C7.08047 7.87078 7.09216 8.3598 7.04376 8.96398C6.99535 9.56983 6.9069 10.3025 6.82011 11.082C6.6482 12.6158 6.503 14.3082 6.8151 15.5766C6.8151 15.5866 6.8151 15.6 6.81677 15.61C6.81677 15.6183 6.82011 15.6267 6.82345 15.635V15.64L6.82678 15.645V15.6484V15.6517V15.6551V15.6584C7.00036 16.1491 6.9603 16.6381 6.89521 16.9586L6.8151 17.2657C6.75168 17.284 6.17754 17.4492 5.26626 17.9499C4.32326 18.4673 3.05815 19.3185 1.74798 20.6704C0.409429 22.0507 0.192457 23.0855 0.464506 23.7347C0.601366 24.0602 0.858394 24.2722 1.1271 24.3523C1.32739 24.4107 1.54603 24.394 1.71794 24.2838C2.52741 24.3089 3.43535 24.0969 4.37333 23.7982C5.0376 23.6213 5.7219 23.3959 6.40786 23.1523C6.60981 23.0805 6.81009 23.0071 7.01204 22.9336C7.05544 22.9236 7.09716 22.9136 7.14223 22.8952C7.22067 22.8652 7.27909 22.8552 7.35753 22.8251C7.64961 22.7166 7.91498 22.7166 8.20372 22.6098C9.04657 22.2944 9.81599 22.0457 10.5737 21.807C10.8558 21.7202 11.1846 21.5901 11.4483 21.5266C12.0424 21.3764 12.5932 21.2763 13.0489 21.2813C13.2892 21.318 13.4344 21.2329 13.6664 21.2563C13.6814 21.2579 13.6964 21.2613 13.7115 21.2629C13.7131 21.2629 13.7165 21.2663 13.7181 21.2663V21.2613L13.7315 21.2579C13.7415 21.2579 13.7515 21.2613 13.7615 21.2613C14.4408 21.333 15.0784 21.3514 15.6809 21.3297C15.8027 21.3247 15.9262 21.3214 16.0447 21.3147C16.0531 21.3147 16.0614 21.3147 16.0698 21.313C18.3847 21.1778 20.1522 20.4752 21.237 19.6507C22.0582 19.0265 22.5339 18.3889 22.6357 17.8782C22.6624 17.7513 22.6707 17.6195 22.6273 17.4993L22.629 17.496ZM3.67903 6.04988H3.68236V6.05489C3.67903 6.05489 3.68069 6.05155 3.67736 6.04988H3.67903ZM1.9032 23.9016C1.97163 23.7831 2.03505 23.6763 2.15021 23.4877C2.31377 23.2224 2.52908 22.8986 2.84118 22.5648C3.46205 21.8988 4.44343 21.1928 6.03233 20.8307H6.03734C6.19423 20.7939 6.35612 20.7606 6.52636 20.7322C6.70161 20.7021 6.88353 20.6771 7.0738 20.6554L6.49632 22.8268C4.86402 23.4093 3.24341 23.9083 1.90486 23.9016H1.9032ZM12.907 16.1608C11.6135 16.114 9.03489 16.1825 7.09883 17.2623C7.10718 17.2423 7.09383 17.0804 7.10551 17.0403V17.022L7.10885 17.0103C7.11219 17.007 7.11552 17.0019 7.11719 16.9969C7.12053 16.9836 7.11719 16.9636 7.11552 16.9419C7.13221 16.8501 7.1489 16.7466 7.15725 16.6348C7.22568 16.3811 7.27408 16.1157 7.13054 15.6267V15.6217L7.14723 15.5833C7.16726 15.5599 7.23068 15.5098 7.33083 15.4514C7.43597 15.3897 7.58452 15.3162 7.75476 15.2428C8.0969 15.0993 8.54754 14.9457 9.06159 14.8155C9.13503 14.7972 9.2068 14.7788 9.28023 14.7621H9.28524C10.3751 14.5118 11.6803 14.405 12.7184 14.6937C12.7368 14.7538 12.8402 15.0626 13.0188 15.4481C13.1173 15.6584 13.2258 15.8754 13.3526 16.0506C13.3576 16.059 13.3643 16.064 13.371 16.0706C13.4194 16.124 13.4761 16.1457 13.5245 16.1941C13.3843 16.1825 13.169 16.1691 12.9037 16.1591L12.907 16.1608Z" fill="white"/>
<path d="M23.4469 35.7649L26.5763 35.9985C27.2723 36.0503 27.8831 35.8483 28.4089 35.3944C28.9346 34.9387 29.225 34.3612 29.2768 33.6636L30.9308 11.5275L25.1092 13.5136L23.4469 35.7649Z" fill="white"/>
<path d="M37.6235 32.0731C37.6235 33.1062 37.9523 33.9975 38.6115 34.7469C39.2708 35.4962 40.0519 35.8701 40.9548 35.8701H50.293V13.2032L37.6235 15.0241V32.0731ZM42.3501 18.5892L45.6047 18.2019V30.7563L42.3501 31.0667V18.5908V18.5892Z" fill="white"/>
<path d="M58.431 24.5175L56.6101 24.7111V13.1649L51.4562 14.0161V40.016H56.6101V28.0425L58.431 27.8489V41.5665H63.5833V11.2272L58.431 12.08V24.5175Z" fill="white"/>
<path d="M87.1031 28.1977L93.4187 27.4617V11.2272L87.1031 12.08V28.1977Z" fill="white"/>
<path d="M81.1747 28.6249L84.5077 24.3623C82.9322 23.7948 81.2782 23.239 79.5474 22.6966C80.1933 21.6635 80.8058 20.405 81.3883 18.918C81.9692 17.4325 82.7386 15.2695 83.6932 12.4288L81.0579 12.7393L67.4971 14.4433V18.2403L75.7504 17.3875C75.3882 18.8345 74.9226 20.138 74.3551 21.3013C72.7278 20.9909 71.4877 20.8357 70.6349 20.8357C68.8006 20.8357 67.4003 21.2112 66.4306 21.9589C65.4626 22.7083 64.9769 23.7281 64.9769 25.0199C64.9769 26.028 65.3708 26.8925 66.1586 27.6152C66.9464 28.3379 67.9862 28.7 69.278 28.7C70.1041 28.7 71.0221 28.5064 72.0285 28.1192C73.5523 27.5251 74.8308 26.9175 75.8639 26.2983L81.1714 28.6233L81.1747 28.6249ZM71.2174 25.0599C70.5197 25.4221 69.9506 25.6024 69.5133 25.6024C69.2029 25.6024 68.9642 25.5256 68.7973 25.3704C68.6287 25.2151 68.5453 25.0215 68.5453 24.7895C68.5453 24.5308 68.6871 24.3189 68.9709 24.1503C69.2546 23.9834 69.5901 23.8983 69.979 23.8983C70.4179 23.8983 70.8702 24.0151 71.3359 24.2471L71.9551 24.5575C71.7481 24.7395 71.5028 24.9064 71.219 25.0616L71.2174 25.0599Z" fill="white"/>
<path d="M73.3871 36.8765L87.6455 35.6381V41.5665H93.4186V29.825L73.3871 32.1883V36.8765Z" fill="white"/>
<path d="M114.637 41.8901H120.952V11.5525L114.637 12.4037V41.8901Z" fill="white"/>
<path d="M109.576 13.28L96.5196 15.0241V19.1316L104.811 18.2019C104.811 19.235 104.656 20.4751 104.346 21.9222L96.0924 23.0454V27.1912L102.95 26.4168C101.375 30.0336 99.0615 32.8876 96.0139 34.9805L99.0749 37.4991C102.226 35.8718 104.693 33.934 106.475 31.6876C108.258 29.4411 109.581 26.8708 110.448 23.9767C111.312 21.0843 112.068 17.3774 112.714 12.8561L109.615 13.2433L109.576 13.2817V13.28Z" fill="white"/>
<path d="M132.599 27.8688L134.188 27.7136L148.795 26.4351V20.894L134.188 22.9085V17.2906L148.795 15.8953V11.4791L128.763 13.7256V24.419C128.763 25.4521 129.137 26.3116 129.887 26.9959C130.636 27.6802 131.539 27.9706 132.599 27.8672V27.8688Z" fill="white"/>
<path d="M122.873 33.2932V37.7878H153.445V31.4723L122.873 33.2932Z" fill="white"/>
</svg>
