<svg width="111" height="111" viewBox="0 0 111 111" fill="none" xmlns="http://www.w3.org/2000/svg">
<circle cx="55.502" cy="55.4747" r="55.4429" fill="#04842C"/>
<path d="M42.4379 83.3414C51.0525 86.1959 60.3728 81.3202 63.2555 72.4511L32.0592 62.1141C29.1766 70.9831 33.8233 80.4869 42.4379 83.3414Z" fill="black"/>
<circle cx="63.5959" cy="53.8559" r="7.68917" fill="white"/>
<circle cx="40.9333" cy="47.3806" r="7.68917" fill="white"/>
<circle cx="59.1443" cy="53.4512" r="3.23754" fill="black"/>
<circle cx="36.4817" cy="46.9761" r="3.23754" fill="black"/>
<path fill-rule="evenodd" clip-rule="evenodd" d="M72.3193 108.379C94.6778 101.234 110.868 80.2864 110.868 55.5574C110.868 24.9371 86.045 0.114502 55.4247 0.114502C43.2163 0.114502 31.9294 4.06045 22.77 10.7465C28.0966 9.04429 33.7733 8.12541 39.6647 8.12541C70.2849 8.12541 95.1076 32.9481 95.1076 63.5683C95.1076 81.9802 86.1328 98.2958 72.3193 108.379Z" fill="#010201" fill-opacity="0.05"/>
<ellipse cx="43.4778" cy="74.849" rx="6.32138" ry="3.57443" transform="rotate(22.8693 43.4778 74.849)" fill="#FA1926"/>
</svg>
