<svg width="266" height="252" viewBox="0 0 266 252" fill="none" xmlns="http://www.w3.org/2000/svg">
<g clip-path="url(#clip0_563_2442)">
<path d="M134.26 0.253906H130.743V52.9508H134.26V0.253906Z" fill="#B7B8B8"/>
<path d="M208.513 45.8408H57.1851V49.6146H208.513V45.8408Z" fill="#B7B8B8"/>
<path d="M48.0527 73.3897C48.0527 68.9065 51.6906 65.2686 56.1739 65.2686C60.6571 65.2686 64.295 68.9065 64.295 73.3897C64.295 77.873 60.6571 81.5109 56.1739 81.5109C51.6906 81.5109 48.0527 77.873 48.0527 73.3897Z" fill="white"/>
<path d="M70.3179 73.3897H42.0146L49.9698 45.1619C50.4528 43.4411 52.0227 42.2637 53.8039 42.2637H58.5438C60.325 42.2637 61.8949 43.4562 62.3779 45.1619L70.333 73.3897H70.3179Z" fill="#B7B8B8"/>
<path d="M133.189 81.5109C137.674 81.5109 141.31 77.8749 141.31 73.3897C141.31 68.9045 137.674 65.2686 133.189 65.2686C128.704 65.2686 125.068 68.9045 125.068 73.3897C125.068 77.8749 128.704 81.5109 133.189 81.5109Z" fill="white"/>
<path d="M147.333 73.3897H119.03L126.985 45.1619C127.468 43.4411 129.038 42.2637 130.819 42.2637H135.559C137.34 42.2637 138.91 43.4562 139.393 45.1619L147.348 73.3897H147.333Z" fill="#B7B8B8"/>
<path d="M208.846 81.5109C213.331 81.5109 216.967 77.8749 216.967 73.3897C216.967 68.9045 213.331 65.2686 208.846 65.2686C204.361 65.2686 200.725 68.9045 200.725 73.3897C200.725 77.8749 204.361 81.5109 208.846 81.5109Z" fill="white"/>
<path d="M223.004 73.3897H194.701L202.656 45.1619C203.139 43.4411 204.709 42.2637 206.49 42.2637H211.23C213.012 42.2637 214.581 43.4562 215.064 45.1619L223.02 73.3897H223.004Z" fill="#B7B8B8"/>
</g>
<path d="M56.7537 73.8203L105.904 207.265H7.60355L56.7537 73.8203Z" fill="url(#paint0_linear_563_2442)"/>
<path d="M134.008 73.8203L183.158 207.265H84.8575L134.008 73.8203Z" fill="url(#paint1_linear_563_2442)"/>
<path d="M209.104 73.8203L258.254 207.265H159.954L209.104 73.8203Z" fill="url(#paint2_linear_563_2442)"/>
<defs>
<linearGradient id="paint0_linear_563_2442" x1="56.7537" y1="73.8203" x2="56.7537" y2="251.746" gradientUnits="userSpaceOnUse">
<stop stop-color="white"/>
<stop offset="0.0001" stop-color="white" stop-opacity="0.485"/>
<stop offset="0.515" stop-color="white" stop-opacity="0"/>
</linearGradient>
<linearGradient id="paint1_linear_563_2442" x1="134.008" y1="73.8203" x2="134.008" y2="251.746" gradientUnits="userSpaceOnUse">
<stop stop-color="white"/>
<stop offset="0.0001" stop-color="white" stop-opacity="0.485"/>
<stop offset="0.515" stop-color="white" stop-opacity="0"/>
</linearGradient>
<linearGradient id="paint2_linear_563_2442" x1="209.104" y1="73.8203" x2="209.104" y2="251.746" gradientUnits="userSpaceOnUse">
<stop stop-color="white"/>
<stop offset="0.0001" stop-color="white" stop-opacity="0.485"/>
<stop offset="0.515" stop-color="white" stop-opacity="0"/>
</linearGradient>
<clipPath id="clip0_563_2442">
<rect width="180.99" height="81.2568" fill="white" transform="translate(42.0146 0.253906)"/>
</clipPath>
</defs>
</svg>
