<svg width="24" height="24" viewBox="0 0 24 24" fill="none" xmlns="http://www.w3.org/2000/svg">
<path fill-rule="evenodd" clip-rule="evenodd" d="M9.52531 14.4747C9.91584 14.8652 10.549 14.8652 10.9395 14.4747L12.768 12.6463L12.768 13.0605C12.768 13.6128 13.2157 14.0605 13.768 14.0605C14.3202 14.0605 14.768 13.6128 14.768 13.0605L14.768 10.232C14.768 9.96683 14.6626 9.71248 14.4751 9.52494C14.2875 9.33741 14.0332 9.23205 13.768 9.23205L10.9395 9.23205C10.3872 9.23206 9.93953 9.67977 9.93953 10.2321C9.93954 10.7843 10.3873 11.2321 10.9395 11.2321L11.3537 11.2321L9.52532 13.0605C9.13479 13.451 9.13479 14.0842 9.52531 14.4747Z" fill="#134388"/>
</svg>
