<svg width="16" height="17" viewBox="0 0 16 17" fill="none" xmlns="http://www.w3.org/2000/svg">
<path d="M6.5018 11.1389H4.50108C3.70515 11.1389 2.94181 10.8227 2.379 10.2599C1.81618 9.69707 1.5 8.93374 1.5 8.1378C1.5 7.34186 1.81618 6.57853 2.379 6.01572C2.94181 5.4529 3.70515 5.13672 4.50108 5.13672H6.5018" stroke="black" stroke-width="1.00189" stroke-linecap="round" stroke-linejoin="round"/>
<path d="M9.50195 5.13672H11.5027C12.2986 5.13672 13.0619 5.4529 13.6248 6.01572C14.1876 6.57853 14.5038 7.34186 14.5038 8.1378C14.5038 8.93374 14.1876 9.69707 13.6248 10.2599C13.0619 10.8227 12.2986 11.1389 11.5027 11.1389H9.50195" stroke="black" stroke-width="1.00189" stroke-linecap="round" stroke-linejoin="round"/>
<path d="M5.10352 8.13672H10.9625" stroke="black" stroke-width="1.00189" stroke-linecap="round" stroke-linejoin="round"/>
</svg>
