<svg width="1184" height="413" viewBox="0 0 1184 413" fill="none" xmlns="http://www.w3.org/2000/svg">
<path d="M217.789 117.68L219.698 140.113C220 143.7 222.495 146.724 225.948 147.725L247.585 153.933L225.152 155.842C221.565 156.144 218.541 158.638 217.55 162.092L211.342 183.729L209.434 161.296C209.131 157.709 206.637 154.685 203.184 153.684L181.546 147.476L203.98 145.567C207.566 145.265 210.59 142.77 211.592 139.317L217.799 117.68L217.789 117.68Z" fill="#090909"/>
<path d="M108.05 255.502C107.973 255.504 107.895 255.493 107.818 255.482L107.703 255.511L107.704 255.549C107.704 255.549 107.677 255.524 107.664 255.524C107.548 255.515 107.432 255.492 107.315 255.482C105.521 255.347 104.431 256.018 102.557 255.795C99.0286 255.846 94.8127 256.725 90.2589 258C88.2369 258.528 85.7264 259.609 83.5677 260.333C77.7695 262.322 71.8832 264.39 65.4434 266.988C63.2374 267.881 61.1902 267.92 58.9584 268.814C58.3592 269.061 57.9234 269.149 57.3113 269.396C56.967 269.534 56.6342 269.62 56.3147 269.718C54.7841 270.323 53.2407 270.929 51.697 271.522L19.3091 406.933L58.4165 404.798L67.793 368.053L117.841 363.528L132.155 400.769L180.512 398.129L122.869 255.668C118.226 255.953 113.304 255.936 108.051 255.515L108.05 255.502ZM76.868 331.612L87.1743 273.562L103.941 328.338L76.868 331.612Z" fill="#134388"/>
<path d="M174.632 229.265C174.273 228.321 173.532 227.554 172.608 227.165C170.797 226.387 168.567 226.83 165.853 228.006C156.449 232.07 141.77 230.315 129.535 227.353C117.428 224.413 107.977 220.504 107.795 220.418L104.459 217.9C103.724 216.837 102.958 215.581 102.332 214.283C100.852 211.267 99.8387 208.394 99.811 208.318L99.783 208.228L99.782 208.19C99.782 208.19 95.1731 195.566 89.8651 181.787C87.2175 174.898 84.37 167.743 81.8347 161.727C79.2865 155.711 77.0779 150.897 75.4566 148.426C73.688 145.727 70.3887 143.634 66.2628 141.96C62.1369 140.287 57.1717 139.047 52.0429 138.468C46.475 137.849 40.7481 138.071 35.746 139.447L35.7074 139.448C31.9846 140.47 28.719 142.253 26.113 144.65C26.0873 144.651 26.0609 144.626 26.0609 144.626C25.8806 144.63 25.7017 144.686 25.5498 144.793C25.4983 144.795 25.434 144.796 25.293 144.825C25.2161 144.84 25.1134 144.856 25.0243 144.897C24.9606 144.924 24.8714 144.965 24.8589 144.978C24.8331 144.979 24.7331 145.097 24.7205 145.11C24.7208 145.123 24.6957 145.15 24.6961 145.163C23.819 146.138 24.5308 147.795 25.8458 147.839C25.8458 147.839 31.8806 148.073 38.2899 149.366C41.5008 150.006 44.8206 150.876 47.3764 152.099C49.9319 153.31 51.6459 154.864 52.2267 156.434C52.8216 158.055 53.0071 161.825 52.7516 166.494C52.4964 171.177 51.957 176.846 51.4396 182.875C50.4128 194.739 49.6229 207.822 52.2777 217.545C52.2796 217.622 52.2822 217.725 52.2971 217.802C52.2987 217.867 52.3261 217.93 52.3535 217.994L52.3544 218.033L52.3812 218.071L52.3818 218.096L52.3825 218.122L52.3831 218.148L52.3838 218.174C53.8183 221.925 53.6048 225.705 53.1652 228.189L52.6071 230.573C52.1215 230.727 47.7251 232.114 40.7937 236.154C33.6209 240.329 24.0286 247.141 14.1863 257.824C4.13073 268.732 2.65897 276.756 4.88404 281.711C6.00318 284.195 8.02709 285.78 10.1154 286.345C11.6717 286.757 13.3549 286.585 14.6594 285.702C20.9081 285.737 27.8701 283.925 35.0469 281.438C40.1362 279.944 45.3705 278.072 50.6141 276.059C52.1579 275.466 53.6884 274.86 55.2318 274.255C55.5646 274.169 55.8845 274.083 56.2285 273.933C56.8277 273.686 57.2763 273.597 57.8755 273.35C60.1073 272.457 62.1542 272.405 64.3606 271.525C70.8003 268.927 76.6867 266.859 82.4848 264.87C84.6436 264.146 87.1543 263.077 89.176 262.537C93.7298 261.262 97.9586 260.382 101.474 260.332C103.335 260.568 104.439 259.883 106.233 260.018C106.349 260.028 106.465 260.051 106.581 260.061C106.594 260.061 106.621 260.086 106.634 260.086L106.633 260.047L106.735 260.019C106.812 260.017 106.89 260.04 106.967 260.038C112.221 260.46 117.142 260.477 121.786 260.192C122.724 260.13 123.676 260.08 124.589 260.005C124.654 260.003 124.718 260.002 124.782 259.987C142.612 258.493 156.108 252.728 164.315 246.157C170.527 241.182 174.072 236.172 174.758 232.212C174.939 231.229 174.978 230.21 174.619 229.292L174.632 229.265ZM26.2295 144.673L26.2553 144.672L26.2563 144.711C26.2305 144.712 26.2427 144.686 26.2167 144.673L26.2295 144.673ZM16.0138 282.718C16.5186 281.79 16.9869 280.954 17.8384 279.477C19.0483 277.398 20.6459 274.859 22.9882 272.223C27.6473 266.965 35.0794 261.328 47.2647 258.225L47.3033 258.224C48.5063 257.91 49.7485 257.621 51.0561 257.369C52.402 257.103 53.8004 256.874 55.2638 256.67L51.233 273.531C38.756 278.343 26.3528 282.508 16.0267 282.718L16.0138 282.718ZM99.3811 220.863C89.3948 220.755 69.5181 221.785 54.795 230.492C54.8555 230.336 54.7209 229.09 54.8032 228.779L54.7997 228.637L54.8231 228.546C54.8482 228.52 54.873 228.481 54.8849 228.442C54.908 228.338 54.8784 228.184 54.8613 228.017C54.9721 227.306 55.0807 226.505 55.1232 225.64C55.6016 223.67 55.9231 221.614 54.7206 217.87L54.7196 217.831L54.8409 217.532C54.9908 217.348 55.4702 216.949 56.2313 216.479C57.0303 215.982 58.1617 215.387 59.4605 214.787C62.0717 213.613 65.5177 212.341 69.4574 211.236C70.0203 211.081 70.5703 210.925 71.1335 210.782L71.1721 210.781C79.5299 208.637 89.5764 207.559 97.6402 209.583C97.7935 210.043 98.6519 212.405 100.105 215.344C100.905 216.947 101.784 218.599 102.797 219.926C102.837 219.99 102.89 220.027 102.942 220.077C103.326 220.48 103.768 220.636 104.151 221C103.067 220.937 101.404 220.876 99.355 220.85L99.3811 220.863Z" fill="#090909"/>
<path d="M177.311 361.241L199.004 363.423C203.829 363.907 208.104 362.543 211.829 359.342C215.555 356.13 217.666 351.999 218.14 346.962L233.255 187.129L192.504 200.577L177.311 361.241Z" fill="#134388"/>
<path d="M273.862 336.488C273.862 344.46 276.399 351.336 281.486 357.119C286.573 362.901 292.6 365.786 299.567 365.786H371.619V190.89L273.862 204.94V336.488ZM310.333 232.447L335.445 229.46V326.327L310.333 328.723V232.46V232.447Z" fill="#134388"/>
<path d="M434.412 278.191L420.362 279.684V190.595L380.595 197.163V397.775H420.362V305.389L434.412 303.895V409.739H474.166V175.644L434.412 182.224V278.191Z" fill="#134388"/>
<path d="M655.642 306.587L704.372 300.907V175.644L655.642 182.224V306.587Z" fill="#134388"/>
<path d="M609.899 309.883L635.616 276.993C623.459 272.614 610.697 268.326 597.343 264.141C602.327 256.169 607.053 246.459 611.547 234.985C616.029 223.524 621.966 206.834 629.332 184.916L608.997 187.311L504.364 200.459V229.757L568.046 223.176C565.251 234.341 561.658 244.399 557.28 253.375C544.724 250.979 535.155 249.782 528.575 249.782C514.422 249.782 503.617 252.679 496.135 258.449C488.666 264.231 484.918 272.099 484.918 282.067C484.918 289.845 487.958 296.516 494.036 302.092C500.114 307.668 508.137 310.463 518.105 310.463C524.48 310.463 531.562 308.969 539.328 305.981C551.085 301.397 560.95 296.709 568.921 291.931L609.873 309.87L609.899 309.883ZM533.069 282.376C527.686 285.17 523.295 286.561 519.921 286.561C517.525 286.561 515.684 285.969 514.396 284.771C513.095 283.573 512.452 282.08 512.452 280.29C512.452 278.294 513.546 276.658 515.735 275.357C517.925 274.07 520.513 273.413 523.514 273.413C526.901 273.413 530.39 274.314 533.983 276.104L538.761 278.5C537.164 279.903 535.271 281.191 533.082 282.389L533.069 282.376Z" fill="#134388"/>
<path d="M549.811 373.551L659.827 363.995V409.738H704.372V319.142L549.811 337.377V373.551Z" fill="#134388"/>
<path d="M868.088 412.236H916.819V178.154L868.088 184.721V412.236Z" fill="#134388"/>
<path d="M829.044 191.483L728.3 204.94V236.633L792.277 229.46C792.277 237.431 791.08 246.999 788.684 258.165L725.003 266.832V298.82L777.918 292.845C765.761 320.751 747.913 342.773 724.397 358.922L748.016 378.355C772.329 365.799 791.363 350.847 805.116 333.514C818.87 316.18 829.082 296.348 835.766 274.017C842.437 251.7 848.27 223.098 853.254 188.212L829.34 191.199L829.044 191.496V191.483Z" fill="#134388"/>
<path d="M1006.68 304.049L1018.94 302.851L1131.65 292.987V250.232L1018.94 265.776V222.429L1131.65 211.663V177.588L977.089 194.921V277.43C977.089 285.402 979.974 292.034 985.756 297.314C991.538 302.594 998.505 304.835 1006.68 304.036V304.049Z" fill="#134388"/>
<path d="M931.642 345.903V380.583H1167.53V331.853L931.642 345.903Z" fill="#134388"/>
<path d="M883.273 129.169L813.052 133.085V123.473L843.935 120.536V117.955L835.391 118.667C833.018 118.904 830.941 118.311 829.161 116.887C827.44 115.403 826.58 113.534 826.58 111.28V99.1755L839.04 97.5735V107.987L872.593 103.715V115.641L855.772 117.065V119.468L883.273 116.887V129.169ZM826.58 145.634L859.332 143.943V141.273L826.58 142.964V135.132L872.593 132.373V150.44L836.904 151.953V154.267L872.593 153.199V165.481H835.391C832.958 165.481 830.882 164.62 829.161 162.9C827.44 161.179 826.58 159.102 826.58 156.67V145.634ZM934.19 165.481V97.7515L948.697 95.7935V165.481H934.19ZM913.809 128.19C913.928 125.816 913.987 124.214 913.987 123.384C913.987 119.112 913.572 116.086 912.741 114.306C911.91 112.466 910.813 111.725 909.448 112.081C907.787 112.555 906.363 114.365 905.176 117.51C903.989 120.595 903.218 125.134 902.862 131.127C902.743 133.5 902.684 135.102 902.684 135.933C902.684 139.789 903.04 142.667 903.752 144.566C904.464 146.405 905.384 147.325 906.511 147.325C908.35 147.325 909.923 145.752 911.228 142.608C912.593 139.463 913.453 134.657 913.809 128.19ZM889.512 131.216C889.512 121.07 891.411 113.564 895.208 108.699C899.005 103.833 903.93 101.401 909.982 101.401C915.085 101.401 919.208 103.566 922.353 107.898C925.498 112.229 927.1 118.963 927.159 128.101C927.159 138.247 925.26 145.752 921.463 150.618C917.666 155.483 912.741 157.916 906.689 157.916C901.586 157.916 897.463 155.75 894.318 151.419C891.173 147.087 889.571 140.353 889.512 131.216ZM1002.6 165.481V128.724L993.611 129.614V122.049L1002.6 121.07V97.7515L1017.11 95.7935V165.481H1002.6ZM957.566 104.694L988.716 100.511V110.657L970.026 112.704V121.782L988.716 120.091V130.237L970.026 132.017V141.451L995.391 139.76V152.576H966.377C963.944 152.576 961.867 151.715 960.147 149.995C958.426 148.274 957.566 146.197 957.566 143.765V104.694Z" fill="#0CB209"/>
<path d="M1039.33 120.981L1050.19 120.091L1058.91 145.545L1066.84 122.316C1067.19 121.188 1067.81 120.269 1068.7 119.557C1069.65 118.845 1070.72 118.429 1071.91 118.311L1080.19 117.688L1063.01 160.853H1054.91L1039.33 120.981ZM1114.27 134.42C1113.5 132.462 1112.28 130.86 1110.62 129.614C1109.02 128.368 1107 127.745 1104.57 127.745C1103.8 127.745 1103.21 127.774 1102.79 127.834C1099.88 128.19 1097.6 129.109 1095.94 130.593C1094.34 132.017 1093.12 133.886 1092.29 136.2L1114.27 134.42ZM1081.96 141.184C1081.96 134.894 1083.71 129.584 1087.22 125.253C1090.72 120.862 1095.43 118.192 1101.37 117.243C1102.61 117.065 1103.86 116.976 1105.1 116.976C1108.78 116.976 1112.02 117.836 1114.81 119.557C1117.65 121.218 1119.85 123.651 1121.39 126.855C1122.99 129.999 1123.79 133.708 1123.79 137.98C1123.79 139.344 1123.73 140.383 1123.62 141.095V141.807L1092.38 143.943C1092.91 145.96 1094.13 147.859 1096.03 149.639C1097.98 151.359 1099.88 152.19 1101.72 152.131H1102.26C1103.15 152.071 1104.1 151.775 1105.1 151.241C1106.17 150.707 1107.45 149.965 1108.93 149.016C1109.82 148.482 1110.77 148.215 1111.78 148.215C1112.91 148.215 1113.97 148.541 1114.98 149.194L1120.5 152.309L1120.06 152.932C1117.86 155.839 1115.13 158.094 1111.87 159.696C1108.6 161.298 1105.1 162.099 1101.37 162.099C1097.45 162.099 1094.01 161.238 1091.04 159.518C1088.13 157.797 1085.88 155.364 1084.28 152.22C1082.74 149.016 1081.96 145.337 1081.96 141.184ZM1130 120.981L1140.68 118.756V123.918C1141.99 121.96 1143.95 120.239 1146.56 118.756C1149.17 117.272 1151.81 116.293 1154.48 115.819V128.813H1154.39C1153.56 128.694 1152.97 128.635 1152.61 128.635C1150.3 128.635 1147.92 129.525 1145.49 131.305C1144.12 132.313 1143 133.411 1142.11 134.598C1141.28 135.784 1140.8 136.674 1140.68 137.268V155.246C1140.68 156.788 1140.12 158.094 1138.99 159.162C1137.92 160.289 1136.62 160.853 1135.08 160.853H1130V120.981ZM1175.72 151.775V161.921L1174.12 163.434H1164.6L1163.44 162.277V153.466L1164.6 152.131L1174.12 150.529L1175.72 151.775Z" fill="#FBD043"/>
<g clip-path="url(#clip0_530_5309)">
<path d="M735.217 102.631C735.217 102.631 746.977 123.827 768.739 138.585C773.663 141.919 780.345 141.393 782.627 137.354C784.153 134.649 785.795 129.443 779.639 124.865C764.456 113.581 746.849 90.9883 746.849 90.9883L735.217 102.618V102.631Z" fill="#CE993C"/>
<path d="M749.824 102.631C749.824 102.631 761.583 123.827 783.346 138.585C788.27 141.919 794.951 141.393 797.234 137.354C798.76 134.649 800.401 129.443 794.246 124.865C779.062 113.581 761.455 90.9883 761.455 90.9883L749.824 102.618V102.631Z" fill="#FFB93E"/>
<path d="M687.512 91.9629C687.512 91.9629 666.314 103.721 651.554 125.481C648.219 130.405 648.745 137.085 652.785 139.368C655.49 140.893 660.697 142.535 665.275 136.38C676.56 121.198 699.156 103.593 699.156 103.593L687.525 91.9629H687.512Z" fill="#CE993C"/>
<path d="M729.434 107.119H713.275V165.064H729.434V107.119Z" fill="#1C3847"/>
<path d="M746.682 160.32H694.104V167H746.682V160.32Z" fill="#1C3847"/>
<path d="M810.532 90.7576C812.417 94.5018 810.558 99.0409 806.582 100.374L803.748 101.336C799.76 102.683 795.502 100.221 794.682 96.0918L792.13 83.1923C790.411 75.4347 787.5 72.2548 783.397 72.2932C779.049 72.3317 776.407 74.9475 776.395 75.0116L770.932 67.8951C771.073 67.7669 776.818 64.0484 782.217 63.3688C787.385 62.7277 797.516 63.3688 802.902 75.6527L810.532 90.7576Z" fill="#FF4E17"/>
<path d="M636.255 19.644L632.664 15.746C630.625 13.5277 630.6 10.0528 632.934 8.15509C637.114 4.75713 644.385 0.192329 653.439 -8.23766e-06C670.405 -0.346215 676.573 8.56541 686.794 19.5799C694.052 27.4016 703.593 39.2111 709.48 45.5583C711.493 47.7253 711.339 51.1104 709.21 53.1492L700.708 61.3043L636.255 19.644Z" fill="#FF4E17"/>
<path d="M752.427 59.0091H712.916C709.697 59.0091 706.62 57.6627 704.439 55.2906L671.418 17.99L644.898 29.5815C644.898 29.5815 665.019 91.8347 666.66 94.9377C672.277 105.568 679.138 114.761 689.487 114.761H755.953C755.953 114.761 767.995 114.979 774.445 110.645C780.896 106.298 785.128 98.9383 785.128 90.5781V83.1923C785.128 69.8441 774.727 59.0091 752.439 59.0091H752.427Z" fill="#FFB93E"/>
<path d="M622.2 52.2002C626.291 56.7907 633.588 55.8803 640.205 52.79L684.742 34.2744L672.085 18.8874C659.159 4.6288 641.551 10.6425 633.1 21.375L623.162 35.531C619.956 39.0828 616.827 46.1608 622.213 52.1874L622.2 52.2002Z" fill="#FFB93E"/>
<path d="M644.732 27.0041C645.296 28.4018 644.616 29.979 643.231 30.5431C641.833 31.1073 640.256 30.4277 639.692 29.0429C639.127 27.6453 639.807 26.0681 641.205 25.5039C642.603 24.9397 644.18 25.6193 644.744 27.0041H644.732Z" fill="#231F20"/>
<path d="M664.929 12.1814C662.89 14.8356 655.362 19.3363 653.31 17.7591C651.246 16.1692 655.401 9.11679 657.44 6.46253C659.479 3.79546 662.839 2.92353 664.903 4.5007C666.955 6.09068 666.968 9.51428 664.929 12.1814Z" fill="#FFB93E"/>
<path d="M701.926 91.9629C701.926 91.9629 680.728 103.721 665.968 125.481C662.634 130.405 663.16 137.085 667.199 139.368C669.905 140.893 675.112 142.535 679.69 136.38C690.975 121.198 713.571 103.593 713.571 103.593L701.939 91.9629H701.926Z" fill="#FFB93E"/>
<path d="M738.487 125.212C738.487 126.519 737.423 127.584 736.115 127.584H705.953C704.645 127.584 703.581 126.519 703.581 125.212C703.581 123.904 704.645 122.839 705.953 122.839H736.115C737.423 122.839 738.487 123.904 738.487 125.212Z" fill="#486572"/>
<path d="M738.487 132.097C738.487 133.405 737.423 134.469 736.115 134.469H705.953C704.645 134.469 703.581 133.405 703.581 132.097C703.581 130.789 704.645 129.725 705.953 129.725H736.115C737.423 129.725 738.487 130.789 738.487 132.097Z" fill="#486572"/>
<path d="M738.487 138.996C738.487 140.304 737.423 141.368 736.115 141.368H705.953C704.645 141.368 703.581 140.304 703.581 138.996C703.581 137.688 704.645 136.624 705.953 136.624H736.115C737.423 136.624 738.487 137.688 738.487 138.996Z" fill="#486572"/>
<path d="M738.487 145.894C738.487 147.202 737.423 148.266 736.115 148.266H705.953C704.645 148.266 703.581 147.202 703.581 145.894C703.581 144.586 704.645 143.522 705.953 143.522H736.115C737.423 143.522 738.487 144.586 738.487 145.894Z" fill="#486572"/>
<path d="M738.487 152.78C738.487 154.088 737.423 155.152 736.115 155.152H705.953C704.645 155.152 703.581 154.088 703.581 152.78C703.581 151.472 704.645 150.408 705.953 150.408H736.115C737.423 150.408 738.487 151.472 738.487 152.78Z" fill="#486572"/>
<path d="M756.774 59.1629C755.377 59.0731 753.927 59.009 752.414 59.009H715.404C713.955 59.009 712.545 58.7269 711.211 58.2012V88.4751H745.489C751.722 88.4751 756.774 83.423 756.774 77.2041V59.1629Z" fill="#277FFF"/>
<path d="M712.57 86.3081C712.57 88.2699 710.98 89.8727 709.005 89.8727C707.03 89.8727 705.453 88.2827 705.453 86.3081V57.0472C705.453 55.0853 707.043 53.4954 709.005 53.4954C710.967 53.4954 712.57 55.0853 712.57 57.0472V86.3081Z" fill="#4F9EFC"/>
<path d="M736.333 111.44H725.368C722.804 111.44 720.726 109.363 720.726 106.799V95.8353C720.726 93.2708 722.804 91.1936 725.368 91.1936H736.333C738.898 91.1936 740.975 93.2708 740.975 95.8353V106.799C740.975 109.363 738.898 111.44 736.333 111.44ZM725.368 95.1686C724.996 95.1686 724.701 95.4635 724.701 95.8353V106.799C724.701 107.17 724.996 107.465 725.368 107.465H736.333C736.705 107.465 737 107.17 737 106.799V95.8353C737 95.4635 736.705 95.1686 736.333 95.1686H725.368Z" fill="white"/>
<path d="M732.729 88.488H729.139V95.1685H732.729V88.488Z" fill="#14A797"/>
</g>
<defs>
<clipPath id="clip0_530_5309">
<rect width="192" height="167" fill="white" transform="translate(619.276)"/>
</clipPath>
</defs>
</svg>
