<svg width="1168" height="424" viewBox="0 0 1168 424" fill="none" xmlns="http://www.w3.org/2000/svg">
<path d="M217.466 129.249L219.375 151.682C219.677 155.269 222.171 158.293 225.624 159.294L247.262 165.502L224.828 167.411C221.242 167.713 218.218 170.208 217.227 173.661L211.019 195.298L209.11 172.865C208.808 169.278 206.314 166.254 202.861 165.253L181.223 159.045L203.657 157.136C207.243 156.834 210.267 154.34 211.269 150.886L217.476 129.249L217.466 129.249Z" fill="#090909"/>
<path d="M107.727 267.071C107.65 267.073 107.572 267.062 107.495 267.051L107.379 267.08L107.38 267.118C107.38 267.118 107.354 267.093 107.341 267.094C107.225 267.084 107.108 267.061 106.992 267.051C105.198 266.916 104.107 267.588 102.234 267.364C98.7054 267.415 94.4894 268.295 89.9356 269.569C87.9136 270.097 85.4032 271.178 83.2444 271.902C77.4463 273.891 71.5599 275.96 65.1202 278.557C62.9142 279.45 60.8669 279.489 58.6352 280.383C58.0359 280.63 57.6002 280.718 56.9881 280.966C56.6438 281.103 56.311 281.189 55.9914 281.287C54.4609 281.893 52.9175 282.498 51.3738 283.091L18.9858 418.502L58.0933 416.367L67.4698 379.622L117.518 375.097L131.831 412.338L180.188 409.698L122.546 267.237C117.902 267.522 112.981 267.505 107.727 267.084L107.727 267.071ZM76.5447 343.181L86.851 285.131L103.617 339.907L76.5447 343.181Z" fill="#134388"/>
<path d="M174.308 240.835C173.95 239.89 173.209 239.123 172.284 238.734C170.474 237.956 168.244 238.399 165.53 239.575C156.125 243.639 141.447 241.885 129.211 238.922C117.105 235.982 107.654 232.073 107.471 231.987L104.136 229.469C103.4 228.406 102.634 227.15 102.009 225.852C100.529 222.836 99.5155 219.963 99.4878 219.887L99.4598 219.797L99.4588 219.759C99.4588 219.759 94.8498 207.135 89.5418 193.356C86.8942 186.467 84.0467 179.312 81.5114 173.296C78.9632 167.28 76.7546 162.466 75.1334 159.995C73.3647 157.296 70.0655 155.203 65.9396 153.529C61.8136 151.856 56.8484 150.616 51.7196 150.037C46.1518 149.418 40.4249 149.64 35.4228 151.016L35.3842 151.017C31.6613 152.039 28.3957 153.822 25.7898 156.219C25.764 156.22 25.7376 156.195 25.7376 156.195C25.5574 156.199 25.3785 156.255 25.2266 156.362C25.1751 156.364 25.1107 156.365 24.9698 156.395C24.8928 156.409 24.7902 156.425 24.701 156.466C24.6373 156.493 24.5482 156.534 24.5356 156.547C24.5099 156.548 24.4098 156.666 24.3973 156.68C24.3976 156.692 24.3725 156.719 24.3728 156.732C23.4958 157.707 24.2075 159.364 25.5226 159.408C25.5226 159.408 31.5573 159.642 37.9666 160.935C41.1776 161.576 44.4974 162.445 47.0532 163.668C49.6087 164.879 51.3227 166.433 51.9034 168.003C52.4983 169.624 52.6838 173.394 52.4283 178.063C52.1732 182.746 51.6338 188.415 51.1164 194.444C50.0895 206.309 49.2996 219.391 51.9544 229.114C51.9564 229.191 51.959 229.294 51.9738 229.371C51.9755 229.436 52.0028 229.499 52.0302 229.563L52.0312 229.602L52.0579 229.64L52.0586 229.665L52.0592 229.691L52.0599 229.717L52.0605 229.743C53.4951 233.494 53.2815 237.274 52.8419 239.758L52.2839 242.143C51.7983 242.297 47.4019 243.683 40.4705 247.723C33.2977 251.898 23.7053 258.71 13.8631 269.393C3.80749 280.301 2.33573 288.325 4.5608 293.28C5.67994 295.764 7.70385 297.349 9.79216 297.914C11.3484 298.326 13.0316 298.154 14.3362 297.271C20.5848 297.306 27.5469 295.494 34.7237 293.007C39.813 291.513 45.0473 289.641 50.2909 287.628C51.8346 287.035 53.3652 286.429 54.9086 285.824C55.2413 285.738 55.5612 285.653 55.9052 285.502C56.5045 285.255 56.9531 285.166 57.5523 284.919C59.7841 284.026 61.831 283.974 64.0373 283.094C70.4771 280.496 76.3634 278.428 82.1616 276.439C84.3203 275.715 86.8311 274.646 88.8528 274.106C93.4065 272.831 97.6354 271.951 101.151 271.901C103.012 272.137 104.115 271.452 105.909 271.587C106.026 271.597 106.142 271.62 106.258 271.63C106.271 271.63 106.298 271.655 106.31 271.655L106.309 271.616L106.412 271.588C106.489 271.586 106.567 271.609 106.644 271.608C111.898 272.029 116.819 272.046 121.462 271.761C122.401 271.699 123.353 271.649 124.266 271.574C124.33 271.573 124.395 271.571 124.459 271.556C142.288 270.062 155.785 264.297 163.992 257.726C170.204 252.751 173.749 247.741 174.434 243.781C174.616 242.798 174.654 241.779 174.296 240.861L174.308 240.835ZM25.9063 156.242L25.932 156.241L25.933 156.28C25.9073 156.281 25.9195 156.255 25.8934 156.242L25.9063 156.242ZM15.6906 294.287C16.1953 293.36 16.6637 292.523 17.5152 291.046C18.7251 288.967 20.3226 286.428 22.6649 283.792C27.3241 278.534 34.7562 272.897 46.9414 269.794L46.9801 269.793C48.183 269.479 49.4253 269.19 50.7329 268.938C52.0788 268.672 53.4771 268.443 54.9405 268.239L50.9097 285.1C38.4327 289.912 26.0296 294.077 15.7035 294.287L15.6906 294.287ZM99.0579 232.432C89.0715 232.324 69.1948 233.354 54.4718 242.061C54.5323 241.905 54.3977 240.659 54.48 240.348L54.4764 240.206L54.4999 240.116C54.525 240.089 54.5498 240.05 54.5617 240.011C54.5848 239.907 54.5551 239.753 54.538 239.586C54.6489 238.875 54.7574 238.074 54.8 237.209C55.2783 235.239 55.5999 233.183 54.3974 229.439L54.3964 229.4L54.5176 229.101C54.6676 228.917 55.147 228.518 55.908 228.048C56.707 227.551 57.8385 226.956 59.1373 226.356C61.7484 225.182 65.1944 223.91 69.1342 222.806C69.697 222.65 70.247 222.494 70.8102 222.351L70.8488 222.35C79.2066 220.206 89.2531 219.128 97.317 221.152C97.4703 221.612 98.3287 223.974 99.7814 226.913C100.582 228.516 101.461 230.168 102.474 231.495C102.514 231.559 102.566 231.596 102.619 231.646C103.003 232.049 103.445 232.205 103.828 232.569C102.744 232.506 101.081 232.445 99.0318 232.42L99.0579 232.432Z" fill="#090909"/>
<path d="M176.989 372.81L198.682 374.992C203.506 375.476 207.781 374.112 211.507 370.911C215.232 367.699 217.343 363.568 217.817 358.531L232.933 198.699L192.181 212.146L176.989 372.81Z" fill="#134388"/>
<path d="M273.539 348.057C273.539 356.029 276.076 362.906 281.163 368.688C286.25 374.47 292.276 377.355 299.243 377.355H371.296V202.459L273.539 216.509V348.057ZM310.009 244.016L335.121 241.029V337.897L310.009 340.292V244.029V244.016Z" fill="#134388"/>
<path d="M434.088 289.76L420.039 291.254V202.164L380.271 208.732V409.344H420.039V316.958L434.088 315.464V421.308H473.843V187.213L434.088 193.793V289.76Z" fill="#134388"/>
<path d="M655.318 318.156L704.048 312.476V187.213L655.318 193.793V318.156Z" fill="#134388"/>
<path d="M609.575 321.452L635.292 288.562C623.136 284.183 610.374 279.895 597.019 275.71C602.003 267.738 606.729 258.028 611.224 246.554C615.705 235.093 621.642 218.403 629.008 196.485L608.674 198.88L504.04 212.028V241.326L567.722 234.745C564.927 245.91 561.334 255.968 556.956 264.944C544.4 262.548 534.832 261.351 528.251 261.351C514.098 261.351 503.294 264.248 495.811 270.018C488.342 275.8 484.595 283.668 484.595 293.636C484.595 301.414 487.634 308.085 493.712 313.661C499.791 319.237 507.814 322.032 517.781 322.032C524.156 322.032 531.239 320.538 539.004 317.55C550.762 312.966 560.626 308.278 568.598 303.5L609.549 321.439L609.575 321.452ZM532.745 293.945C527.362 296.739 522.971 298.13 519.597 298.13C517.202 298.13 515.36 297.538 514.072 296.34C512.772 295.143 512.128 293.649 512.128 291.859C512.128 289.863 513.222 288.227 515.412 286.926C517.601 285.639 520.189 284.982 523.19 284.982C526.577 284.982 530.067 285.883 533.66 287.673L538.437 290.069C536.841 291.472 534.947 292.76 532.758 293.958L532.745 293.945Z" fill="#134388"/>
<path d="M549.487 385.12L659.504 375.565V421.307H704.048V330.711L549.487 348.946V385.12Z" fill="#134388"/>
<path d="M867.765 423.805H916.495V189.723L867.765 196.29V423.805Z" fill="#134388"/>
<path d="M828.72 203.052L727.976 216.509V248.202L791.954 241.029C791.954 249 790.756 258.569 788.361 269.734L724.68 278.401V310.389L777.595 304.414C765.438 332.321 747.589 354.342 724.074 370.491L747.692 389.924C772.006 377.368 791.04 362.416 804.793 345.083C818.547 327.749 828.759 307.917 835.443 285.587C842.114 263.269 847.947 234.667 852.931 199.781L829.017 202.768L828.72 203.065V203.052Z" fill="#134388"/>
<path d="M1006.36 315.618L1018.62 314.421L1131.33 304.556V261.801L1018.62 277.345V233.998L1131.33 223.232V189.157L976.766 206.49V288.999C976.766 296.971 979.65 303.603 985.432 308.883C991.215 314.163 998.182 316.404 1006.36 315.605V315.618Z" fill="#134388"/>
<path d="M931.318 357.472V392.152H1167.2V343.422L931.318 357.472Z" fill="#134388"/>
<path d="M861.324 133.976L791.103 137.892V128.28L821.986 125.343V122.762L813.442 123.474C811.069 123.711 808.992 123.118 807.212 121.694C805.492 120.21 804.631 118.341 804.631 116.087V103.983L817.091 102.381V112.794L850.644 108.522V120.448L833.823 121.872V124.275L861.324 121.694V133.976ZM804.631 150.441L837.383 148.75V146.08L804.631 147.771V139.939L850.644 137.18V155.247L814.955 156.76V159.074L850.644 158.006V170.288H813.442C811.01 170.288 808.933 169.427 807.212 167.707C805.492 165.986 804.631 163.909 804.631 161.477V150.441ZM912.241 170.288V102.559L926.748 100.601V170.288H912.241ZM891.86 132.997C891.979 130.623 892.038 129.021 892.038 128.191C892.038 123.919 891.623 120.893 890.792 119.113C889.962 117.273 888.864 116.532 887.499 116.888C885.838 117.362 884.414 119.172 883.227 122.317C882.041 125.402 881.269 129.941 880.913 135.934C880.795 138.307 880.735 139.909 880.735 140.74C880.735 144.596 881.091 147.474 881.803 149.373C882.515 151.212 883.435 152.132 884.562 152.132C886.402 152.132 887.974 150.559 889.279 147.415C890.644 144.27 891.504 139.464 891.86 132.997ZM867.563 136.023C867.563 125.877 869.462 118.371 873.259 113.506C877.057 108.64 881.981 106.208 888.033 106.208C893.136 106.208 897.26 108.373 900.404 112.705C903.549 117.036 905.151 123.77 905.21 132.908C905.21 143.054 903.312 150.559 899.514 155.425C895.717 160.29 890.792 162.723 884.74 162.723C879.638 162.723 875.514 160.557 872.369 156.226C869.225 151.894 867.623 145.16 867.563 136.023ZM980.651 170.288V133.531L971.662 134.421V126.856L980.651 125.877V102.559L995.158 100.601V170.288H980.651ZM935.617 109.501L966.767 105.318V115.464L948.077 117.511V126.589L966.767 124.898V135.044L948.077 136.824V146.258L973.442 144.567V157.383H944.428C941.995 157.383 939.919 156.522 938.198 154.802C936.477 153.081 935.617 151.004 935.617 148.572V109.501Z" fill="#0CB209"/>
<path d="M1017.39 125.788L1028.24 124.898L1036.97 150.352L1044.89 127.123C1045.24 125.995 1045.87 125.076 1046.76 124.364C1047.71 123.652 1048.77 123.236 1049.96 123.118L1058.24 122.495L1041.06 165.66H1032.96L1017.39 125.788ZM1092.32 139.227C1091.55 137.269 1090.33 135.667 1088.67 134.421C1087.07 133.175 1085.05 132.552 1082.62 132.552C1081.85 132.552 1081.26 132.581 1080.84 132.641C1077.93 132.997 1075.65 133.916 1073.99 135.4C1072.39 136.824 1071.17 138.693 1070.34 141.007L1092.32 139.227ZM1060.02 145.991C1060.02 139.701 1061.77 134.391 1065.27 130.06C1068.77 125.669 1073.48 122.999 1079.42 122.05C1080.66 121.872 1081.91 121.783 1083.16 121.783C1086.83 121.783 1090.07 122.643 1092.86 124.364C1095.7 126.025 1097.9 128.458 1099.44 131.662C1101.04 134.806 1101.85 138.515 1101.85 142.787C1101.85 144.151 1101.79 145.19 1101.67 145.902V146.614L1070.43 148.75C1070.96 150.767 1072.18 152.666 1074.08 154.446C1076.04 156.166 1077.93 156.997 1079.77 156.938H1080.31C1081.2 156.878 1082.15 156.582 1083.16 156.048C1084.22 155.514 1085.5 154.772 1086.98 153.823C1087.87 153.289 1088.82 153.022 1089.83 153.022C1090.96 153.022 1092.03 153.348 1093.03 154.001L1098.55 157.116L1098.11 157.739C1095.91 160.646 1093.18 162.901 1089.92 164.503C1086.66 166.105 1083.16 166.906 1079.42 166.906C1075.5 166.906 1072.06 166.045 1069.09 164.325C1066.19 162.604 1063.93 160.171 1062.33 157.027C1060.79 153.823 1060.02 150.144 1060.02 145.991ZM1108.05 125.788L1118.73 123.563V128.725C1120.04 126.767 1122 125.046 1124.61 123.563C1127.22 122.079 1129.86 121.1 1132.53 120.626V133.62H1132.44C1131.61 133.501 1131.02 133.442 1130.66 133.442C1128.35 133.442 1125.97 134.332 1123.54 136.112C1122.18 137.12 1121.05 138.218 1120.16 139.405C1119.33 140.591 1118.85 141.481 1118.73 142.075V160.053C1118.73 161.595 1118.17 162.901 1117.04 163.969C1115.98 165.096 1114.67 165.66 1113.13 165.66H1108.05V125.788ZM1153.78 156.582V166.728L1152.17 168.241H1142.65L1141.49 167.084V158.273L1142.65 156.938L1152.17 155.336L1153.78 156.582Z" fill="#FBD043"/>
<g clip-path="url(#clip0_530_5307)">
<path d="M606.079 100.365C606.362 101.773 605.446 103.141 604.047 103.409C602.647 103.691 601.274 102.779 600.991 101.384L594.854 70.9079C594.571 69.5001 595.487 68.1459 596.886 67.8643C598.3 67.5827 599.659 68.4945 599.942 69.8889L606.079 100.352V100.365Z" fill="#FF3324"/>
<path d="M582.526 103.02C583.777 109.255 579.726 115.315 573.467 116.576L547.572 121.751C541.314 122.998 535.23 118.962 533.965 112.728C532.713 106.493 529.12 101.961 535.378 100.701L568.918 93.9966C575.177 92.7497 581.274 96.7855 582.526 103.02Z" fill="#FFDE52"/>
<path d="M542.43 109.134C542.955 111.708 542.107 118.292 539.523 118.815L539.55 118.962C536.966 119.472 534.422 117.675 533.911 115.101L525.579 73.7637C525.054 71.1894 526.737 68.6955 529.308 68.1726C531.892 67.6631 534.409 69.3257 534.92 71.9L542.43 109.134Z" fill="#FF3324"/>
<path d="M567.074 145.162C581.462 142.279 590.789 128.335 587.895 113.988C587.895 113.921 587.869 113.867 587.855 113.8L582.175 114.94C583.602 126.015 576.899 136.312 565.742 138.552C554.584 140.777 544.745 133.792 541.771 123.025L535.741 124.232C535.741 124.232 535.768 124.352 535.782 124.419C538.675 138.753 552.673 148.044 567.074 145.162Z" fill="#073D4C"/>
<path d="M711.765 76.5984L533.343 112.277L536.071 125.817L714.493 90.1386L711.765 76.5984Z" fill="#064BF9"/>
<path d="M808.814 59.8195C809.097 61.2139 810.47 62.1256 811.869 61.8441C813.283 61.5625 814.184 60.1949 813.902 58.8005L807.764 28.324C807.482 26.9162 806.109 26.0178 804.709 26.2994C803.296 26.581 802.394 27.9486 802.677 29.343L808.814 59.8195Z" fill="#FF3324"/>
<path d="M831.56 53.2092C832.812 59.444 838.909 63.4798 845.167 62.2328L871.063 57.0573C877.321 55.8104 881.372 49.7365 880.121 43.5152C878.869 37.2805 880.417 31.7162 874.172 32.9631L840.631 39.6671C834.373 40.9141 830.322 46.9879 831.587 53.2226L831.56 53.2092Z" fill="#FFDE52"/>
<path d="M870.914 43.4214C871.439 45.9957 874.777 51.7478 877.348 51.2383L877.375 51.3857C879.959 50.8628 881.601 48.2214 881.076 45.6471L872.745 4.31016C872.233 1.73582 869.716 0.0732262 867.132 0.596139C864.548 1.10564 862.879 3.61295 863.404 6.18729L870.914 43.4214Z" fill="#FF3324"/>
<path d="M862.139 86.1395C847.751 89.0222 833.74 79.7304 830.846 65.3973C830.833 65.3302 830.833 65.2766 830.806 65.2095L836.499 64.0699C839.473 74.8365 849.648 81.7684 860.806 79.5293C871.964 77.3036 878.33 67.0598 876.89 55.9982L882.92 54.7915C882.92 54.7915 882.946 54.9122 882.96 54.9792C885.854 69.3124 876.526 83.2702 862.139 86.1529V86.1395Z" fill="#073D4C"/>
<path d="M880.522 42.8601L702.1 78.5383L704.828 92.0785L883.25 56.4003L880.522 42.8601Z" fill="#064BF9"/>
<path d="M759.661 146.502C759.661 146.368 759.661 146.248 759.661 146.114C759.661 116.334 735.435 92.2 705.542 92.2C675.649 92.2 651.423 116.334 651.423 146.114C651.423 146.248 651.423 146.382 651.423 146.502H759.648H759.661Z" fill="#FF3324"/>
<path d="M742.286 146.503C742.286 146.368 742.286 146.248 742.286 146.114C742.286 125.908 725.839 109.51 705.543 109.51C685.246 109.51 668.812 125.894 668.812 146.114C668.812 146.248 668.812 146.382 668.812 146.503H742.273H742.286Z" fill="#FCB332"/>
<path d="M713.981 93.7686C713.981 98.4078 710.212 102.162 705.555 102.162C700.898 102.162 697.13 98.4078 697.13 93.7686V80.1193C697.13 75.4801 700.898 71.7258 705.555 71.7258C710.212 71.7258 713.981 75.4801 713.981 80.1193V93.7686Z" fill="#FF3324"/>
</g>
<defs>
<clipPath id="clip0_530_5307">
<rect width="358" height="146" fill="white" transform="translate(525.485 0.502441)"/>
</clipPath>
</defs>
</svg>
