<svg width="1547" height="329" viewBox="0 0 1547 329" fill="none" xmlns="http://www.w3.org/2000/svg">
<path d="M217.423 1.64878L219.332 24.0823C219.634 27.6687 222.128 30.6927 225.582 31.6944L247.219 37.9018L224.785 39.8107C221.199 40.1133 218.175 42.6074 217.184 46.0607L210.976 67.6981L209.067 45.2646C208.765 41.6782 206.271 38.6542 202.818 37.6525L181.18 31.4451L203.614 29.5362C207.2 29.2336 210.224 26.7395 211.226 23.2864L217.433 1.64902L217.423 1.64878Z" fill="#090909"/>
<path d="M107.684 139.471C107.607 139.473 107.529 139.462 107.452 139.451L107.336 139.48L107.337 139.518C107.337 139.518 107.311 139.493 107.298 139.493C107.182 139.484 107.065 139.461 106.949 139.451C105.155 139.316 104.064 139.987 102.191 139.764C98.6624 139.815 94.4465 140.694 89.8927 141.969C87.8706 142.497 85.3602 143.578 83.2015 144.302C77.4033 146.291 71.517 148.359 65.0772 150.957C62.8712 151.85 60.8239 151.889 58.5922 152.783C57.993 153.03 57.5572 153.118 56.9451 153.365C56.6008 153.503 56.268 153.589 55.9485 153.687C54.4179 154.292 52.8745 154.898 51.3308 155.491L18.9429 290.902L58.0503 288.767L67.4268 252.022L117.475 247.497L131.788 284.738L180.145 282.098L122.503 139.637C117.859 139.922 112.938 139.905 107.684 139.484L107.684 139.471ZM76.5018 215.581L86.808 157.531L103.574 212.307L76.5018 215.581Z" fill="#134388"/>
<path d="M174.265 113.234C173.907 112.29 173.166 111.523 172.241 111.134C170.431 110.356 168.201 110.799 165.487 111.975C156.082 116.039 141.404 114.284 129.168 111.322C117.062 108.382 107.611 104.473 107.429 104.387L104.093 101.869C103.357 100.806 102.591 99.5498 101.966 98.2516C100.486 95.236 99.4725 92.3632 99.4448 92.2866L99.4168 92.1971L99.4158 92.1585C99.4158 92.1585 94.8069 79.5347 89.4988 65.7563C86.8513 58.8669 84.0038 51.7121 81.4684 45.6959C78.9203 39.68 76.7116 34.8664 75.0904 32.3954C73.3217 29.6962 70.0225 27.6026 65.8966 25.9292C61.7707 24.2558 56.8055 23.0159 51.6767 22.4371C46.1088 21.8178 40.3819 22.0399 35.3798 23.416L35.3412 23.417C31.6184 24.4386 28.3528 26.2216 25.7468 28.6192C25.7211 28.6198 25.6947 28.5947 25.6947 28.5947C25.5144 28.5993 25.3355 28.6553 25.1836 28.7622C25.1321 28.7635 25.0678 28.7652 24.9268 28.7945C24.8499 28.8093 24.7472 28.8248 24.6581 28.8657C24.5944 28.8931 24.5052 28.934 24.4927 28.9472C24.4669 28.9478 24.3669 29.0663 24.3543 29.0795C24.3546 29.0924 24.3295 29.1188 24.3299 29.1316C23.4528 30.1071 24.1645 31.7638 25.4796 31.8078C25.4796 31.8078 31.5143 32.0417 37.9237 33.3353C41.1346 33.9755 44.4544 34.8448 47.0102 36.0683C49.5657 37.2791 51.2797 38.8331 51.8604 40.4029C52.4554 42.0239 52.6409 45.7936 52.3854 50.4634C52.1302 55.146 51.5908 60.8149 51.0734 66.8439C50.0466 78.7085 49.2567 91.7909 51.9115 101.514C51.9134 101.591 51.916 101.694 51.9309 101.771C51.9325 101.836 51.9599 101.899 51.9872 101.963L51.9882 102.002L52.0149 102.04L52.0156 102.065L52.0162 102.091L52.0169 102.117L52.0175 102.143C53.4521 105.894 53.2385 109.674 52.799 112.158L52.2409 114.542C51.7553 114.696 47.3589 116.083 40.4275 120.123C33.2547 124.298 23.6624 131.11 13.8201 141.793C3.76452 152.701 2.29276 160.725 4.51783 165.68C5.63697 168.164 7.66088 169.749 9.74919 170.314C11.3054 170.726 12.9887 170.554 14.2932 169.671C20.5419 169.706 27.5039 167.894 34.6807 165.407C39.77 163.913 45.0043 162.041 50.2479 160.028C51.7917 159.435 53.3222 158.829 54.8656 158.224C55.1984 158.138 55.5183 158.052 55.8623 157.902C56.4615 157.655 56.9101 157.566 57.5093 157.319C59.7411 156.426 61.788 156.374 63.9944 155.494C70.4341 152.896 76.3204 150.828 82.1186 148.839C84.2774 148.115 86.7881 147.046 88.8098 146.506C93.3636 145.231 97.5924 144.351 101.108 144.301C102.969 144.537 104.072 143.852 105.866 143.987C105.983 143.997 106.099 144.02 106.215 144.03C106.228 144.03 106.255 144.055 106.267 144.055L106.266 144.016L106.369 143.988C106.446 143.986 106.524 144.009 106.601 144.007C111.855 144.429 116.776 144.446 121.419 144.161C122.358 144.099 123.31 144.049 124.223 143.974C124.287 143.972 124.352 143.971 124.416 143.956C142.245 142.462 155.742 136.697 163.949 130.126C170.161 125.151 173.706 120.141 174.391 116.181C174.573 115.198 174.611 114.179 174.253 113.261L174.265 113.234ZM25.8633 28.642L25.8891 28.6413L25.89 28.68C25.8643 28.6806 25.8765 28.6545 25.8505 28.6423L25.8633 28.642ZM15.6476 166.687C16.1523 165.759 16.6207 164.923 17.4722 163.446C18.6821 161.367 20.2797 158.828 22.622 156.192C27.2811 150.934 34.7132 145.297 46.8985 142.194L46.9371 142.193C48.1401 141.879 49.3823 141.59 50.6899 141.338C52.0358 141.072 53.4342 140.843 54.8976 140.639L50.8668 157.5C38.3898 162.312 25.9866 166.477 15.6605 166.687L15.6476 166.687ZM99.0149 104.832C89.0286 104.724 69.1518 105.754 54.4288 114.461C54.4893 114.305 54.3547 113.059 54.437 112.748L54.4334 112.606L54.4569 112.515C54.482 112.489 54.5068 112.45 54.5187 112.411C54.5418 112.307 54.5122 112.153 54.4951 111.986C54.6059 111.275 54.7145 110.474 54.757 109.609C55.2354 107.639 55.5569 105.583 54.3544 101.839L54.3534 101.8L54.4747 101.501C54.6246 101.317 55.104 100.918 55.8651 100.448C56.6641 99.9511 57.7955 99.3557 59.0943 98.7561C61.7055 97.5822 65.1515 96.3099 69.0912 95.2055C69.6541 95.0495 70.2041 94.8939 70.7673 94.7508L70.8059 94.7499C79.1637 92.6062 89.2101 91.5277 97.274 93.5524C97.4273 94.0123 98.2857 96.3737 99.7384 99.3128C100.539 100.916 101.418 102.568 102.431 103.895C102.471 103.958 102.523 103.996 102.576 104.046C102.96 104.449 103.402 104.605 103.785 104.969C102.701 104.906 101.038 104.845 98.9888 104.819L99.0149 104.832Z" fill="#090909"/>
<path d="M176.945 245.21L198.638 247.392C203.463 247.876 207.738 246.512 211.463 243.311C215.189 240.099 217.3 235.968 217.774 230.931L232.889 71.0985L192.137 84.5459L176.945 245.21Z" fill="#134388"/>
<path d="M273.496 220.457C273.496 228.429 276.033 235.305 281.12 241.088C286.207 246.87 292.233 249.754 299.2 249.754H371.253V74.8591L273.496 88.909V220.457ZM309.966 116.416L335.078 113.429V210.296L309.966 212.692V116.429V116.416Z" fill="#134388"/>
<path d="M434.045 162.16L419.996 163.653V74.5638L380.229 81.1316V281.744H419.996V189.358L434.045 187.864V293.708H473.8V59.6125L434.045 66.1932V162.16Z" fill="#134388"/>
<path d="M655.276 190.556L704.006 184.876V59.6125L655.276 66.1932V190.556Z" fill="#134388"/>
<path d="M609.533 193.852L635.25 160.962C623.093 156.583 610.331 152.295 596.977 148.11C601.96 140.138 606.687 130.428 611.181 118.954C615.663 107.493 621.599 90.8028 628.966 68.8845L608.631 71.2798L503.998 84.4282V113.726L567.679 107.145C564.885 118.31 561.292 128.368 556.913 137.344C544.357 134.948 534.789 133.751 528.208 133.751C514.056 133.751 503.251 136.648 495.769 142.418C488.3 148.2 484.552 156.068 484.552 166.036C484.552 173.814 487.591 180.485 493.67 186.061C499.748 191.637 507.771 194.432 517.739 194.432C524.113 194.432 531.196 192.938 538.962 189.95C550.719 185.366 560.584 180.678 568.555 175.9L609.507 193.839L609.533 193.852ZM532.703 166.345C527.32 169.139 522.929 170.53 519.555 170.53C517.159 170.53 515.318 169.938 514.03 168.74C512.729 167.542 512.085 166.049 512.085 164.259C512.085 162.263 513.18 160.627 515.369 159.326C517.558 158.039 520.147 157.382 523.147 157.382C526.534 157.382 530.024 158.283 533.617 160.073L538.395 162.469C536.798 163.872 534.905 165.16 532.716 166.358L532.703 166.345Z" fill="#134388"/>
<path d="M549.445 257.52L659.461 247.964V293.707H704.006V203.11L549.445 221.346V257.52Z" fill="#134388"/>
<path d="M867.722 296.205H916.452V62.1226L867.722 68.6903V296.205Z" fill="#134388"/>
<path d="M828.677 75.4517L727.933 88.9091V120.602L791.911 113.429C791.911 121.4 790.713 130.968 788.318 142.134L724.637 150.801V182.789L777.552 176.814C765.395 204.72 747.546 226.742 724.031 242.891L747.649 262.324C771.963 249.768 790.997 234.816 804.75 217.483C818.504 200.149 828.716 180.317 835.4 157.986C842.071 135.669 847.904 107.067 852.888 72.1807L828.974 75.1683L828.677 75.4645V75.4517Z" fill="#134388"/>
<path d="M1006.32 188.018L1018.58 186.82L1131.28 176.956V134.201L1018.58 149.745V106.397L1131.28 95.6314V61.5564L976.723 78.8901V161.399C976.723 169.371 979.607 176.003 985.389 181.283C991.172 186.563 998.139 188.803 1006.32 188.005V188.018Z" fill="#134388"/>
<path d="M931.276 229.872V264.552H1167.16V215.822L931.276 229.872Z" fill="#134388"/>
<path d="M1247 272.438L1176.78 276.354V266.742L1207.66 263.805V261.224L1199.12 261.936C1196.75 262.173 1194.67 261.58 1192.89 260.156C1191.17 258.672 1190.31 256.803 1190.31 254.549V242.445L1202.77 240.843V251.256L1236.32 246.984V258.91L1219.5 260.334V262.737L1247 260.156V272.438ZM1190.31 288.903L1223.06 287.212V284.542L1190.31 286.233V278.401L1236.32 275.642V293.709L1200.63 295.222V297.536L1236.32 296.468V308.75H1199.12C1196.69 308.75 1194.61 307.889 1192.89 306.169C1191.17 304.448 1190.31 302.371 1190.31 299.939V288.903ZM1297.92 308.75V241.021L1312.43 239.063V308.75H1297.92ZM1277.54 271.459C1277.66 269.085 1277.72 267.483 1277.72 266.653C1277.72 262.381 1277.3 259.355 1276.47 257.575C1275.64 255.735 1274.54 254.994 1273.18 255.35C1271.51 255.824 1270.09 257.634 1268.9 260.779C1267.72 263.864 1266.95 268.403 1266.59 274.396C1266.47 276.769 1266.41 278.371 1266.41 279.202C1266.41 283.058 1266.77 285.936 1267.48 287.835C1268.19 289.674 1269.11 290.594 1270.24 290.594C1272.08 290.594 1273.65 289.021 1274.96 285.877C1276.32 282.732 1277.18 277.926 1277.54 271.459ZM1253.24 274.485C1253.24 264.339 1255.14 256.833 1258.94 251.968C1262.73 247.102 1267.66 244.67 1273.71 244.67C1278.81 244.67 1282.94 246.835 1286.08 251.167C1289.23 255.498 1290.83 262.232 1290.89 271.37C1290.89 281.516 1288.99 289.021 1285.19 293.887C1281.39 298.752 1276.47 301.185 1270.42 301.185C1265.31 301.185 1261.19 299.019 1258.05 294.688C1254.9 290.356 1253.3 283.622 1253.24 274.485ZM1366.33 308.75V271.993L1357.34 272.883V265.318L1366.33 264.339V241.021L1380.83 239.063V308.75H1366.33ZM1321.29 247.963L1352.44 243.78V253.926L1333.75 255.973V265.051L1352.44 263.36V273.506L1333.75 275.286V284.72L1359.12 283.029V295.845H1330.1C1327.67 295.845 1325.6 294.984 1323.87 293.264C1322.15 291.543 1321.29 289.466 1321.29 287.034V247.963Z" fill="#0CB209"/>
<path d="M1403.06 264.25L1413.92 263.36L1422.64 288.814L1430.56 265.585C1430.92 264.457 1431.54 263.538 1432.43 262.826C1433.38 262.114 1434.45 261.698 1435.64 261.58L1443.91 260.957L1426.74 304.122H1418.64L1403.06 264.25ZM1478 277.689C1477.23 275.731 1476.01 274.129 1474.35 272.883C1472.75 271.637 1470.73 271.014 1468.3 271.014C1467.53 271.014 1466.93 271.043 1466.52 271.103C1463.61 271.459 1461.33 272.378 1459.67 273.862C1458.06 275.286 1456.85 277.155 1456.02 279.469L1478 277.689ZM1445.69 284.453C1445.69 278.163 1447.44 272.853 1450.94 268.522C1454.44 264.131 1459.16 261.461 1465.09 260.512C1466.34 260.334 1467.59 260.245 1468.83 260.245C1472.51 260.245 1475.74 261.105 1478.53 262.826C1481.38 264.487 1483.58 266.92 1485.12 270.124C1486.72 273.268 1487.52 276.977 1487.52 281.249C1487.52 282.613 1487.46 283.652 1487.34 284.364V285.076L1456.11 287.212C1456.64 289.229 1457.86 291.128 1459.75 292.908C1461.71 294.628 1463.61 295.459 1465.45 295.4H1465.98C1466.87 295.34 1467.82 295.044 1468.83 294.51C1469.9 293.976 1471.18 293.234 1472.66 292.285C1473.55 291.751 1474.5 291.484 1475.51 291.484C1476.63 291.484 1477.7 291.81 1478.71 292.463L1484.23 295.578L1483.78 296.201C1481.59 299.108 1478.86 301.363 1475.6 302.965C1472.33 304.567 1468.83 305.368 1465.09 305.368C1461.18 305.368 1457.74 304.507 1454.77 302.787C1451.86 301.066 1449.61 298.633 1448.01 295.489C1446.46 292.285 1445.69 288.606 1445.69 284.453ZM1493.73 264.25L1504.41 262.025V267.187C1505.72 265.229 1507.67 263.508 1510.29 262.025C1512.9 260.541 1515.54 259.562 1518.21 259.088V272.082H1518.12C1517.29 271.963 1516.69 271.904 1516.34 271.904C1514.02 271.904 1511.65 272.794 1509.22 274.574C1507.85 275.582 1506.73 276.68 1505.84 277.867C1505 279.053 1504.53 279.943 1504.41 280.537V298.515C1504.41 300.057 1503.85 301.363 1502.72 302.431C1501.65 303.558 1500.35 304.122 1498.8 304.122H1493.73V264.25ZM1539.45 295.044V305.19L1537.85 306.703H1528.33L1527.17 305.546V296.735L1528.33 295.4L1537.85 293.798L1539.45 295.044Z" fill="#FBD043"/>
<g clip-path="url(#clip0_530_5308)">
<path d="M1377.54 149.596C1377.54 149.596 1390.71 173.33 1415.08 189.856C1420.59 193.589 1428.07 193 1430.63 188.478C1432.34 185.448 1434.18 179.619 1427.28 174.493C1410.28 161.858 1390.57 136.559 1390.57 136.559L1377.54 149.581V149.596Z" fill="#CE993C"/>
<path d="M1393.9 149.596C1393.9 149.596 1407.07 173.33 1431.43 189.856C1436.95 193.589 1444.43 193 1446.99 188.478C1448.7 185.448 1450.53 179.619 1443.64 174.493C1426.64 161.858 1406.92 136.559 1406.92 136.559L1393.9 149.581V149.596Z" fill="#FFB93E"/>
<path d="M1324.12 137.65C1324.12 137.65 1300.38 150.816 1283.86 175.182C1280.12 180.695 1280.71 188.176 1285.23 190.732C1288.26 192.44 1294.09 194.278 1299.22 187.386C1311.86 170.386 1337.16 150.672 1337.16 150.672L1324.14 137.65H1324.12Z" fill="#CE993C"/>
<path d="M1371.06 154.621H1352.97V219.505H1371.06V154.621Z" fill="#1C3847"/>
<path d="M1390.38 214.193H1331.5V221.673H1390.38V214.193Z" fill="#1C3847"/>
<path d="M1461.88 136.3C1463.99 140.492 1461.91 145.575 1457.46 147.068L1454.28 148.145C1449.82 149.653 1445.05 146.896 1444.13 142.273L1441.27 127.829C1439.35 119.142 1436.09 115.581 1431.49 115.624C1426.62 115.667 1423.67 118.596 1423.65 118.668L1417.53 110.699C1417.69 110.556 1424.13 106.392 1430.17 105.631C1435.96 104.913 1447.3 105.631 1453.33 119.386L1461.88 136.3Z" fill="#FF4E17"/>
<path d="M1266.72 56.6699L1262.7 52.305C1260.42 49.8211 1260.39 45.93 1263 43.805C1267.69 40.0001 1275.83 34.8887 1285.97 34.6733C1304.96 34.2856 1311.87 44.2645 1323.32 56.5981C1331.45 65.3566 1342.13 78.5804 1348.72 85.6876C1350.97 88.1142 1350.8 91.9047 1348.42 94.1876L1338.9 103.319L1266.72 56.6699Z" fill="#FF4E17"/>
<path d="M1396.81 100.749H1352.57C1348.96 100.749 1345.52 99.2419 1343.08 96.5856L1306.1 54.8179L1276.4 67.7976C1276.4 67.7976 1298.93 137.506 1300.77 140.981C1307.06 152.884 1314.74 163.179 1326.33 163.179H1400.76C1400.76 163.179 1414.25 163.423 1421.47 158.57C1428.69 153.702 1433.43 145.461 1433.43 136.099V127.829C1433.43 112.882 1421.78 100.749 1396.83 100.749H1396.81Z" fill="#FFB93E"/>
<path d="M1250.98 93.1252C1255.57 98.2654 1263.74 97.246 1271.15 93.7857L1321.02 73.0526L1306.85 55.8229C1292.37 39.8567 1272.65 46.5906 1263.19 58.6083L1252.06 74.4597C1248.47 78.4369 1244.97 86.3626 1251 93.1109L1250.98 93.1252Z" fill="#FFB93E"/>
<path d="M1276.22 64.9115C1276.85 66.4765 1276.09 68.2426 1274.54 68.8743C1272.97 69.5061 1271.2 68.7451 1270.57 67.1944C1269.94 65.6294 1270.7 63.8633 1272.27 63.2316C1273.83 62.5998 1275.6 63.3608 1276.23 64.9115H1276.22Z" fill="#231F20"/>
<path d="M1298.83 48.3136C1296.55 51.2858 1288.12 56.3255 1285.82 54.5594C1283.51 52.779 1288.16 44.882 1290.45 41.9099C1292.73 38.9234 1296.49 37.9471 1298.8 39.7131C1301.1 41.4935 1301.12 45.3271 1298.83 48.3136Z" fill="#FFB93E"/>
<path d="M1340.26 137.65C1340.26 137.65 1316.52 150.816 1300 175.182C1296.26 180.695 1296.85 188.176 1301.37 190.732C1304.4 192.44 1310.24 194.278 1315.36 187.386C1328 170.386 1353.3 150.672 1353.3 150.672L1340.28 137.65H1340.26Z" fill="#FFB93E"/>
<path d="M1381.2 174.88C1381.2 176.345 1380.01 177.537 1378.55 177.537H1344.77C1343.31 177.537 1342.11 176.345 1342.11 174.88C1342.11 173.416 1343.31 172.224 1344.77 172.224H1378.55C1380.01 172.224 1381.2 173.416 1381.2 174.88Z" fill="#486572"/>
<path d="M1381.2 182.591C1381.2 184.055 1380.01 185.247 1378.55 185.247H1344.77C1343.31 185.247 1342.11 184.055 1342.11 182.591C1342.11 181.126 1343.31 179.934 1344.77 179.934H1378.55C1380.01 179.934 1381.2 181.126 1381.2 182.591Z" fill="#486572"/>
<path d="M1381.2 190.315C1381.2 191.78 1380.01 192.971 1378.55 192.971H1344.77C1343.31 192.971 1342.11 191.78 1342.11 190.315C1342.11 188.851 1343.31 187.659 1344.77 187.659H1378.55C1380.01 187.659 1381.2 188.851 1381.2 190.315Z" fill="#486572"/>
<path d="M1381.2 198.04C1381.2 199.504 1380.01 200.696 1378.55 200.696H1344.77C1343.31 200.696 1342.11 199.504 1342.11 198.04C1342.11 196.575 1343.31 195.384 1344.77 195.384H1378.55C1380.01 195.384 1381.2 196.575 1381.2 198.04Z" fill="#486572"/>
<path d="M1381.2 205.75C1381.2 207.215 1380.01 208.406 1378.55 208.406H1344.77C1343.31 208.406 1342.11 207.215 1342.11 205.75C1342.11 204.286 1343.31 203.094 1344.77 203.094H1378.55C1380.01 203.094 1381.2 204.286 1381.2 205.75Z" fill="#486572"/>
<path d="M1401.68 100.922C1400.12 100.821 1398.49 100.749 1396.8 100.749H1355.35C1353.73 100.749 1352.15 100.433 1350.66 99.8447V133.744H1389.04C1396.02 133.744 1401.68 128.087 1401.68 121.123V100.922Z" fill="#277FFF"/>
<path d="M1352.18 131.318C1352.18 133.515 1350.4 135.309 1348.19 135.309C1345.98 135.309 1344.21 133.529 1344.21 131.318V98.5526C1344.21 96.3558 1345.99 94.5754 1348.19 94.5754C1350.39 94.5754 1352.18 96.3558 1352.18 98.5526V131.318Z" fill="#4F9EFC"/>
<path d="M1378.79 159.46H1366.51C1363.64 159.46 1361.31 157.134 1361.31 154.262V141.986C1361.31 139.114 1363.64 136.788 1366.51 136.788H1378.79C1381.66 136.788 1383.99 139.114 1383.99 141.986V154.262C1383.99 157.134 1381.66 159.46 1378.79 159.46ZM1366.51 141.239C1366.1 141.239 1365.77 141.569 1365.77 141.986V154.262C1365.77 154.678 1366.1 155.009 1366.51 155.009H1378.79C1379.21 155.009 1379.54 154.678 1379.54 154.262V141.986C1379.54 141.569 1379.21 141.239 1378.79 141.239H1366.51Z" fill="white"/>
<path d="M1374.76 133.759H1370.73V141.239H1374.76V133.759Z" fill="#14A797"/>
</g>
<defs>
<clipPath id="clip0_530_5308">
<rect width="215" height="187" fill="white" transform="translate(1247.71 34.6733)"/>
</clipPath>
</defs>
</svg>
