<svg width="1540" height="337" viewBox="0 0 1540 337" fill="none" xmlns="http://www.w3.org/2000/svg">
<path d="M217.849 1.36411L219.757 23.7977C220.06 27.3841 222.554 30.408 226.007 31.4097L247.645 37.6172L225.211 39.526C221.625 39.8286 218.601 42.3228 217.609 45.7761L211.402 67.4134L209.493 44.9799C209.191 41.3935 206.696 38.3696 203.243 37.3679L181.606 31.1604L204.039 29.2515C207.626 28.949 210.65 26.4548 211.652 23.0017L217.859 1.36435L217.849 1.36411Z" fill="#090909"/>
<path d="M108.11 139.186C108.033 139.188 107.955 139.177 107.877 139.166L107.762 139.195L107.763 139.234C107.763 139.234 107.737 139.208 107.724 139.209C107.608 139.199 107.491 139.176 107.375 139.166C105.581 139.031 104.49 139.703 102.617 139.48C99.0882 139.53 94.8722 140.41 90.3185 141.684C88.2964 142.212 85.786 143.293 83.6273 144.018C77.8291 146.006 71.9428 148.075 65.503 150.672C63.297 151.565 61.2497 151.604 59.018 152.498C58.4188 152.745 57.983 152.833 57.3709 153.081C57.0266 153.218 56.6938 153.304 56.3742 153.402C54.8437 154.008 53.3003 154.614 51.7566 155.207L19.3686 290.617L58.4761 288.482L67.8526 251.737L117.901 247.212L132.214 284.453L180.571 281.813L122.928 139.353C118.285 139.637 113.364 139.62 108.11 139.199L108.11 139.186ZM76.9276 215.296L87.2338 157.247L104 212.022L76.9276 215.296Z" fill="#134388"/>
<path d="M174.691 112.95C174.332 112.006 173.592 111.239 172.667 110.85C170.857 110.071 168.627 110.514 165.912 111.69C156.508 115.754 141.83 114 129.594 111.037C117.488 108.097 108.037 104.188 107.854 104.102L104.519 101.585C103.783 100.521 103.017 99.2651 102.392 97.967C100.911 94.9514 99.8983 92.0785 99.8706 92.0019L99.8426 91.9124L99.8416 91.8738C99.8416 91.8738 95.2326 79.25 89.9246 65.4716C87.2771 58.5823 84.4295 51.4274 81.8942 45.4112C79.346 39.3953 77.1374 34.5817 75.5162 32.1107C73.7475 29.4116 70.4483 27.3179 66.3224 25.6445C62.1964 23.9712 57.2313 22.7312 52.1024 22.1524C46.5346 21.5331 40.8077 21.7553 35.8056 23.1313L35.767 23.1323C32.0442 24.1539 28.7786 25.9369 26.1726 28.3345C26.1468 28.3352 26.1204 28.3101 26.1204 28.3101C25.9402 28.3146 25.7613 28.3707 25.6094 28.4776C25.5579 28.4789 25.4935 28.4805 25.3526 28.5098C25.2757 28.5247 25.173 28.5401 25.0839 28.581C25.0201 28.6084 24.931 28.6493 24.9184 28.6625C24.8927 28.6632 24.7926 28.7816 24.7801 28.7948C24.7804 28.8077 24.7553 28.8341 24.7556 28.847C23.8786 29.8224 24.5903 31.4791 25.9054 31.5231C25.9054 31.5231 31.9401 31.757 38.3495 33.0506C41.5604 33.6908 44.8802 34.5601 47.436 35.7837C49.9915 36.9944 51.7055 38.5484 52.2862 40.1182C52.8811 41.7392 53.0666 45.509 52.8112 50.1787C52.556 54.8614 52.0166 60.5302 51.4992 66.5592C50.4724 78.4238 49.6824 91.5062 52.3373 101.229C52.3392 101.307 52.3418 101.41 52.3566 101.487C52.3583 101.551 52.3856 101.615 52.413 101.678L52.414 101.717L52.4407 101.755L52.4414 101.781L52.442 101.806L52.4427 101.832L52.4433 101.858C53.8779 105.609 53.6643 109.389 53.2248 111.873L52.6667 114.258C52.1811 114.412 47.7847 115.798 40.8533 119.838C33.6805 124.013 24.0881 130.825 14.2459 141.509C4.1903 152.416 2.71854 160.441 4.94361 165.395C6.06275 167.879 8.08666 169.464 10.175 170.029C11.7312 170.441 13.4144 170.27 14.719 169.386C20.9677 169.422 27.9297 167.61 35.1065 165.122C40.1958 163.628 45.4301 161.757 50.6737 159.743C52.2174 159.15 53.748 158.545 55.2914 157.939C55.6241 157.853 55.944 157.768 56.2881 157.617C56.8873 157.37 57.3359 157.282 57.9351 157.035C60.1669 156.141 62.2138 156.089 64.4201 155.209C70.8599 152.611 76.7462 150.543 82.5444 148.554C84.7031 147.83 87.2139 146.762 89.2356 146.221C93.7894 144.946 98.0182 144.067 101.534 144.016C103.395 144.253 104.498 143.568 106.292 143.703C106.408 143.713 106.525 143.735 106.641 143.745C106.654 143.745 106.68 143.77 106.693 143.77L106.692 143.731L106.795 143.703C106.872 143.701 106.95 143.725 107.027 143.723C112.281 144.144 117.202 144.161 121.845 143.876C122.784 143.814 123.736 143.764 124.649 143.689C124.713 143.688 124.777 143.686 124.842 143.672C142.671 142.177 156.168 136.413 164.375 129.841C170.587 124.866 174.132 119.856 174.817 115.897C174.998 114.913 175.037 113.894 174.679 112.976L174.691 112.95ZM26.2891 28.3573L26.3149 28.3567L26.3158 28.3953C26.2901 28.3959 26.3023 28.3699 26.2762 28.3576L26.2891 28.3573ZM16.0734 166.402C16.5781 165.475 17.0465 164.639 17.898 163.161C19.1079 161.082 20.7054 158.543 23.0477 155.907C27.7069 150.65 35.139 145.012 47.3243 141.909L47.3629 141.908C48.5659 141.594 49.8081 141.305 51.1157 141.053C52.4616 140.787 53.86 140.559 55.3233 140.354L51.2925 157.216C38.8155 162.027 26.4124 166.192 16.0863 166.402L16.0734 166.402ZM99.4407 104.547C89.4543 104.439 69.5776 105.47 54.8546 114.177C54.9151 114.021 54.7805 112.774 54.8628 112.463L54.8592 112.322L54.8827 112.231C54.9078 112.204 54.9326 112.165 54.9445 112.126C54.9676 112.022 54.938 111.869 54.9208 111.702C55.0317 110.99 55.1402 110.189 55.1828 109.325C55.6611 107.355 55.9827 105.298 54.7802 101.554L54.7792 101.516L54.9005 101.216C55.0504 101.032 55.5298 100.633 56.2909 100.163C57.0899 99.6665 58.2213 99.071 59.5201 98.4714C62.1313 97.2975 65.5772 96.0252 69.517 94.9208C70.0798 94.7648 70.6298 94.6092 71.193 94.4662L71.2317 94.4652C79.5894 92.3215 89.6359 91.243 97.6998 93.2677C97.8531 93.7276 98.7115 96.0891 100.164 99.0281C100.965 100.631 101.844 102.283 102.856 103.61C102.897 103.674 102.949 103.711 103.002 103.761C103.386 104.164 103.828 104.32 104.21 104.684C103.127 104.621 101.463 104.56 99.4146 104.535L99.4407 104.547Z" fill="#090909"/>
<path d="M177.371 244.925L199.064 247.107C203.889 247.591 208.164 246.227 211.889 243.026C215.615 239.814 217.726 235.683 218.2 230.646L233.316 70.8138L192.564 84.2612L177.371 244.925Z" fill="#134388"/>
<path d="M273.922 220.172C273.922 228.144 276.459 235.021 281.546 240.803C286.632 246.585 292.659 249.47 299.626 249.47H371.678V74.5745L273.922 88.6243V220.172ZM310.392 116.132L335.504 113.144V210.012L310.392 212.407V116.144V116.132Z" fill="#134388"/>
<path d="M434.471 161.875L420.421 163.369V74.2792L380.654 80.8469V281.46H420.421V189.073L434.471 187.579V293.423H474.225V59.3279L434.471 65.9085V161.875Z" fill="#134388"/>
<path d="M655.701 190.271L704.431 184.592V59.3279L655.701 65.9085V190.271Z" fill="#134388"/>
<path d="M609.958 193.567L635.675 160.677C623.518 156.299 610.756 152.01 597.402 147.825C602.386 139.854 607.112 130.144 611.606 118.669C616.088 107.208 622.025 90.5181 629.391 68.5999L609.057 70.9952L504.423 84.1435V113.441L568.105 106.86C565.31 118.025 561.717 128.083 557.339 137.059C544.783 134.664 535.214 133.466 528.634 133.466C514.481 133.466 503.676 136.364 496.194 142.133C488.725 147.915 484.978 155.784 484.978 165.751C484.978 173.529 488.017 180.2 494.095 185.776C500.174 191.352 508.196 194.147 518.164 194.147C524.539 194.147 531.621 192.653 539.387 189.665C551.144 185.081 561.009 180.393 568.98 175.616L609.932 193.555L609.958 193.567ZM533.128 166.06C527.745 168.855 523.354 170.246 519.98 170.246C517.585 170.246 515.743 169.653 514.455 168.455C513.155 167.258 512.511 165.764 512.511 163.974C512.511 161.978 513.605 160.342 515.794 159.042C517.984 157.754 520.572 157.097 523.573 157.097C526.96 157.097 530.45 157.999 534.043 159.789L538.82 162.184C537.223 163.588 535.33 164.875 533.141 166.073L533.128 166.06Z" fill="#134388"/>
<path d="M549.87 257.235L659.886 247.68V293.422H704.431V202.826L549.87 221.061V257.235Z" fill="#134388"/>
<path d="M868.147 295.92H916.878V61.8379L868.147 68.4057V295.92Z" fill="#134388"/>
<path d="M829.103 75.167L728.359 88.6244V120.317L792.337 113.144C792.337 121.116 791.139 130.684 788.744 141.849L725.062 150.516V182.505L777.978 176.529C765.821 204.436 747.972 226.457 724.457 242.606L748.075 262.039C772.389 249.483 791.422 234.532 805.176 217.198C818.93 199.864 829.142 180.032 835.826 157.702C842.496 135.384 848.33 106.782 853.314 71.896L829.399 74.8837L829.103 75.1799V75.167Z" fill="#134388"/>
<path d="M1006.74 187.733L1019 186.536L1131.71 176.671V133.916L1019 149.46V106.113L1131.71 95.347V61.272L977.148 78.6057V161.115C977.148 169.086 980.033 175.718 985.815 180.998C991.597 186.278 998.564 188.519 1006.74 187.721V187.733Z" fill="#134388"/>
<path d="M931.701 229.587V264.267H1167.59V215.537L931.701 229.587Z" fill="#134388"/>
<g clip-path="url(#clip0_530_5305)">
<path d="M1409.1 226.044H1401.09L1363.47 143.91H1371.47L1409.1 226.044Z" fill="#0083F9"/>
<path d="M1433.01 215.46H1399.22C1398.04 215.46 1397.09 214.507 1397.09 213.335C1397.09 212.163 1398.04 211.21 1399.22 211.21H1433.01V215.45V215.46Z" fill="#D8BA39"/>
<path d="M1425.12 198.732H1391.33C1390.16 198.732 1389.21 197.779 1389.21 196.607C1389.21 195.434 1390.16 194.482 1391.33 194.482H1425.12V198.721V198.732Z" fill="#D8BA39"/>
<path d="M1417.46 181.836H1383.67C1382.5 181.836 1381.55 180.884 1381.55 179.711C1381.55 178.539 1382.5 177.586 1383.67 177.586H1417.46V181.826V181.836Z" fill="#D8BA39"/>
<path d="M1410.66 165.286H1376.87C1375.69 165.286 1374.74 164.333 1374.74 163.161C1374.74 161.988 1375.69 161.036 1376.87 161.036H1410.66V165.276V165.286Z" fill="#D8BA39"/>
<path d="M1443.09 226.044H1435.09L1397.09 143.91H1405.09L1443.09 226.044Z" fill="#0083F9"/>
<path d="M1410.66 145.941H1401.18V226.043H1410.66V145.941Z" fill="#D34F4F"/>
<path d="M1346.15 145.941H1336.68V226.043H1346.15V145.941Z" fill="#D34F4F"/>
<path d="M1332.96 57.2854L1373.19 6.04346L1413.4 57.2854H1332.96Z" fill="#D8BA39"/>
<path d="M1373.16 57.2852V6.06421L1332.96 57.2852H1373.16Z" fill="#F3D541"/>
<path d="M1332.96 58.9395V139.953H1413.9V58.9395H1332.96ZM1397.09 139.911H1367.14V114.515C1367.14 106.235 1373.84 99.5247 1382.12 99.5247C1390.39 99.5247 1397.09 106.235 1397.09 114.515V139.911Z" fill="#FF5543"/>
<path d="M1373.44 76.1177C1360.37 76.1177 1349.78 86.722 1349.78 99.7968V139.911H1367.14V114.515C1367.14 106.235 1373.84 99.5246 1382.12 99.5246C1390.39 99.5246 1397.09 106.235 1397.09 114.515V99.7968C1397.09 86.722 1386.5 76.1177 1373.44 76.1177Z" fill="#C60000"/>
<path d="M1417.46 57.2854C1417.46 59.6931 1415.51 61.6507 1413.1 61.6507H1333.21C1330.8 61.6507 1328.85 59.6931 1328.85 57.2854C1328.85 54.8777 1330.81 52.9202 1333.21 52.9202H1413.1C1415.51 52.9202 1417.46 54.8777 1417.46 57.2854Z" fill="#FFE576"/>
<path d="M1417.46 144.308C1417.46 146.715 1415.51 148.673 1413.1 148.673H1333.21C1330.8 148.673 1328.85 146.715 1328.85 144.308C1328.85 141.9 1330.81 139.942 1333.21 139.942H1413.1C1415.51 139.942 1417.46 141.9 1417.46 144.308Z" fill="#FFE576"/>
<path d="M1311.04 226.043H1264.09L1350.14 139.911H1397.09L1311.04 226.043Z" fill="#009EED"/>
<path d="M1397.09 139.911L1314.3 222.777V226.044H1311.03V222.013C1311.02 218.182 1312.55 214.497 1315.25 211.786L1392.84 134.122C1394.4 132.562 1397.07 133.662 1397.08 135.881V139.911H1397.09Z" fill="#F3D541"/>
<path d="M1318.5 213.031C1315.91 215.627 1314.41 219.124 1314.3 222.777L1397.09 139.911V135.881C1397.09 135.504 1397 135.158 1396.86 134.844C1396.59 134.959 1396.33 135.137 1396.09 135.368L1318.5 213.031Z" fill="#D8BA39"/>
<path d="M1350.15 139.911L1267.35 222.777V226.044H1264.09V222.013C1264.09 218.182 1265.6 214.497 1268.3 211.786L1345.89 134.122C1347.45 132.562 1350.13 133.662 1350.13 135.881V139.911H1350.15Z" fill="#F3D541"/>
<path d="M1271.55 213.031C1268.96 215.627 1267.46 219.124 1267.35 222.777L1350.14 139.911V135.881C1350.14 135.504 1350.04 135.158 1349.91 134.844C1349.63 134.959 1349.36 135.137 1349.13 135.368L1271.55 213.031Z" fill="#D8BA39"/>
</g>
<path d="M1239.59 280.296L1169.37 284.212V274.6L1200.25 271.663V269.082L1191.71 269.794C1189.33 270.032 1187.26 269.438 1185.48 268.014C1183.76 266.531 1182.89 264.662 1182.89 262.407V250.303L1195.35 248.701V259.114L1228.91 254.842V266.768L1212.09 268.192V270.595L1239.59 268.014V280.296ZM1182.89 296.761L1215.65 295.07V292.4L1182.89 294.091V286.259L1228.91 283.5V301.567L1193.22 303.08V305.394L1228.91 304.326V316.608H1191.71C1189.27 316.608 1187.2 315.748 1185.48 314.027C1183.76 312.307 1182.89 310.23 1182.89 307.797V296.761ZM1290.5 316.608V248.879L1305.01 246.921V316.608H1290.5ZM1270.12 279.317C1270.24 276.944 1270.3 275.342 1270.3 274.511C1270.3 270.239 1269.89 267.213 1269.06 265.433C1268.23 263.594 1267.13 262.852 1265.76 263.208C1264.1 263.683 1262.68 265.493 1261.49 268.637C1260.3 271.723 1259.53 276.262 1259.18 282.254C1259.06 284.628 1259 286.23 1259 287.06C1259 290.917 1259.35 293.795 1260.07 295.693C1260.78 297.533 1261.7 298.452 1262.83 298.452C1264.67 298.452 1266.24 296.88 1267.54 293.735C1268.91 290.591 1269.77 285.785 1270.12 279.317ZM1245.83 282.343C1245.83 272.197 1247.73 264.692 1251.52 259.826C1255.32 254.961 1260.24 252.528 1266.3 252.528C1271.4 252.528 1275.52 254.694 1278.67 259.025C1281.81 263.357 1283.41 270.091 1283.47 279.228C1283.47 289.374 1281.58 296.88 1277.78 301.745C1273.98 306.611 1269.06 309.043 1263 309.043C1257.9 309.043 1253.78 306.878 1250.63 302.546C1247.49 298.215 1245.89 291.481 1245.83 282.343ZM1358.91 316.608V279.851L1349.93 280.741V273.176L1358.91 272.197V248.879L1373.42 246.921V316.608H1358.91ZM1313.88 255.821L1345.03 251.638V261.784L1326.34 263.831V272.909L1345.03 271.218V281.364L1326.34 283.144V292.578L1351.71 290.887V303.703H1322.69C1320.26 303.703 1318.18 302.843 1316.46 301.122C1314.74 299.402 1313.88 297.325 1313.88 294.892V255.821Z" fill="#0CB209"/>
<path d="M1395.65 272.108L1406.51 271.218L1415.23 296.672L1423.15 273.443C1423.51 272.316 1424.13 271.396 1425.02 270.684C1425.97 269.972 1427.04 269.557 1428.22 269.438L1436.5 268.815L1419.32 311.98H1411.22L1395.65 272.108ZM1470.59 285.547C1469.81 283.589 1468.6 281.987 1466.94 280.741C1465.34 279.495 1463.32 278.872 1460.89 278.872C1460.11 278.872 1459.52 278.902 1459.11 278.961C1456.2 279.317 1453.91 280.237 1452.25 281.72C1450.65 283.144 1449.43 285.013 1448.6 287.327L1470.59 285.547ZM1438.28 292.311C1438.28 286.022 1440.03 280.712 1443.53 276.38C1447.03 271.99 1451.75 269.32 1457.68 268.37C1458.93 268.192 1460.17 268.103 1461.42 268.103C1465.1 268.103 1468.33 268.964 1471.12 270.684C1473.97 272.346 1476.16 274.778 1477.71 277.982C1479.31 281.127 1480.11 284.835 1480.11 289.107C1480.11 290.472 1480.05 291.51 1479.93 292.222V292.934L1448.69 295.07C1449.23 297.088 1450.44 298.986 1452.34 300.766C1454.3 302.487 1456.2 303.318 1458.04 303.258H1458.57C1459.46 303.199 1460.41 302.902 1461.42 302.368C1462.49 301.834 1463.76 301.093 1465.25 300.143C1466.14 299.609 1467.09 299.342 1468.09 299.342C1469.22 299.342 1470.29 299.669 1471.3 300.321L1476.82 303.436L1476.37 304.059C1474.18 306.967 1471.45 309.221 1468.18 310.823C1464.92 312.425 1461.42 313.226 1457.68 313.226C1453.77 313.226 1450.32 312.366 1447.36 310.645C1444.45 308.925 1442.2 306.492 1440.59 303.347C1439.05 300.143 1438.28 296.465 1438.28 292.311ZM1486.32 272.108L1497 269.883V275.045C1498.3 273.087 1500.26 271.367 1502.87 269.883C1505.48 268.4 1508.12 267.421 1510.79 266.946V279.94H1510.7C1509.87 279.822 1509.28 279.762 1508.92 279.762C1506.61 279.762 1504.24 280.652 1501.8 282.432C1500.44 283.441 1499.31 284.539 1498.42 285.725C1497.59 286.912 1497.12 287.802 1497 288.395V306.373C1497 307.916 1496.43 309.221 1495.31 310.289C1494.24 311.417 1492.93 311.98 1491.39 311.98H1486.32V272.108ZM1532.04 302.902V313.048L1530.44 314.561H1520.91L1519.76 313.404V304.593L1520.91 303.258L1530.44 301.656L1532.04 302.902Z" fill="#FBD043"/>
<defs>
<clipPath id="clip0_530_5305">
<rect width="179" height="220" fill="white" transform="translate(1264.09 6.04346)"/>
</clipPath>
</defs>
</svg>
