<svg width="1619" height="312" viewBox="0 0 1619 312" fill="none" xmlns="http://www.w3.org/2000/svg">
<path d="M218.1 1.10264L220.008 23.5362C220.311 27.1226 222.805 30.1465 226.258 31.1482L247.896 37.3557L225.462 39.2645C221.876 39.5671 218.852 42.0613 217.86 45.5146L211.653 67.152L209.744 44.7184C209.442 41.132 206.947 38.1081 203.494 37.1064L181.857 30.8989L204.29 28.9901C207.877 28.6875 210.901 26.1933 211.903 22.7402L218.11 1.10287L218.1 1.10264Z" fill="#090909"/>
<path d="M108.361 138.925C108.284 138.927 108.206 138.916 108.128 138.905L108.013 138.934L108.014 138.972C108.014 138.972 107.988 138.947 107.975 138.947C107.859 138.937 107.742 138.915 107.626 138.905C105.832 138.77 104.741 139.441 102.868 139.218C99.3392 139.269 95.1232 140.148 90.5694 141.423C88.5474 141.951 86.037 143.032 83.8782 143.756C78.0801 145.745 72.1937 147.813 65.754 150.411C63.548 151.304 61.5007 151.343 59.2689 152.237C58.6697 152.484 58.234 152.572 57.6219 152.819C57.2776 152.957 56.9448 153.043 56.6252 153.141C55.0947 153.746 53.5513 154.352 52.0075 154.945L19.6196 290.356L58.7271 288.22L68.1035 251.476L118.152 246.951L132.465 284.192L180.822 281.552L123.179 139.091C118.536 139.376 113.615 139.359 108.361 138.938L108.361 138.925ZM77.1785 215.035L87.4848 156.985L104.251 211.761L77.1785 215.035Z" fill="#134388"/>
<path d="M174.942 112.688C174.583 111.744 173.843 110.977 172.918 110.588C171.108 109.81 168.878 110.252 166.163 111.429C156.759 115.493 142.081 113.738 129.845 110.776C117.739 107.836 108.288 103.926 108.105 103.841L104.77 101.323C104.034 100.26 103.268 99.0036 102.643 97.7055C101.162 94.6899 100.149 91.817 100.122 91.7404L100.094 91.651L100.093 91.6124C100.093 91.6124 95.4836 78.9885 90.1756 65.2101C87.528 58.3208 84.6805 51.1659 82.1452 45.1497C79.597 39.1338 77.3884 34.3203 75.7672 31.8493C73.9985 29.1501 70.6993 27.0565 66.5733 25.3831C62.4474 23.7097 57.4822 22.4697 52.3534 21.8909C46.7856 21.2717 41.0587 21.4938 36.0566 22.8698L36.018 22.8708C32.2951 23.8925 29.0295 25.6755 26.4236 28.073C26.3978 28.0737 26.3714 28.0486 26.3714 28.0486C26.1912 28.0531 26.0123 28.1092 25.8604 28.2161C25.8089 28.2174 25.7445 28.219 25.6035 28.2484C25.5266 28.2632 25.424 28.2787 25.3348 28.3196C25.2711 28.3469 25.182 28.3878 25.1694 28.401C25.1437 28.4017 25.0436 28.5201 25.0311 28.5333C25.0314 28.5462 25.0063 28.5726 25.0066 28.5855C24.1295 29.5609 24.8413 31.2176 26.1564 31.2617C26.1564 31.2617 32.1911 31.4955 38.6004 32.7891C41.8114 33.4293 45.1312 34.2986 47.687 35.5222C50.2425 36.7329 51.9565 38.2869 52.5372 39.8567C53.1321 41.4777 53.3176 45.2475 53.0621 49.9173C52.807 54.5999 52.2676 60.2688 51.7502 66.2978C50.7233 78.1623 49.9334 91.2447 52.5882 100.968C52.5902 101.045 52.5928 101.148 52.6076 101.225C52.6093 101.289 52.6366 101.353 52.664 101.417L52.665 101.456L52.6917 101.494L52.6923 101.519L52.693 101.545L52.6937 101.571L52.6943 101.597C54.1289 105.348 53.9153 109.127 53.4757 111.612L52.9177 113.996C52.4321 114.15 48.0357 115.537 41.1042 119.577C33.9315 123.751 24.3391 130.564 14.4969 141.247C4.44128 152.155 2.96952 160.179 5.19459 165.134C6.31373 167.618 8.33764 169.202 10.426 169.768C11.9822 170.18 13.6654 170.008 14.9699 169.125C21.2186 169.16 28.1806 167.348 35.3575 164.861C40.4467 163.367 45.6811 161.495 50.9247 159.482C52.4684 158.889 53.999 158.283 55.5424 157.677C55.8751 157.592 56.195 157.506 56.539 157.356C57.1382 157.109 57.5869 157.02 58.1861 156.773C60.4178 155.879 62.4648 155.828 64.6711 154.947C71.1109 152.35 76.9972 150.282 82.7954 148.293C84.9541 147.568 87.4649 146.5 89.4866 145.959C94.0403 144.685 98.2692 143.805 101.785 143.755C103.646 143.991 104.749 143.306 106.543 143.441C106.659 143.451 106.776 143.474 106.892 143.484C106.905 143.484 106.931 143.509 106.944 143.508L106.943 143.47L107.046 143.441C107.123 143.439 107.201 143.463 107.278 143.461C112.532 143.882 117.453 143.9 122.096 143.615C123.035 143.552 123.987 143.503 124.9 143.428C124.964 143.426 125.028 143.425 125.093 143.41C142.922 141.916 156.418 136.151 164.626 129.58C170.838 124.605 174.383 119.594 175.068 115.635C175.249 114.651 175.288 113.633 174.93 112.714L174.942 112.688ZM26.5401 28.0958L26.5658 28.0952L26.5668 28.1338C26.5411 28.1345 26.5533 28.1084 26.5272 28.0962L26.5401 28.0958ZM16.3244 166.141C16.8291 165.213 17.2975 164.377 18.149 162.9C19.3588 160.821 20.9564 158.281 23.2987 155.646C27.9579 150.388 35.39 144.751 47.5752 141.647L47.6139 141.646C48.8168 141.333 50.0591 141.044 51.3667 140.792C52.7126 140.526 54.1109 140.297 55.5743 140.093L51.5435 156.954C39.0665 161.765 26.6634 165.931 16.3373 166.14L16.3244 166.141ZM99.6917 104.286C89.7053 104.177 69.8286 105.208 55.1056 113.915C55.1661 113.759 55.0315 112.513 55.1138 112.202L55.1102 112.06L55.1337 111.969C55.1588 111.943 55.1835 111.904 55.1954 111.865C55.2186 111.761 55.1889 111.607 55.1718 111.44C55.2827 110.729 55.3912 109.927 55.4338 109.063C55.9121 107.093 56.2337 105.037 55.0312 101.293L55.0302 101.254L55.1514 100.955C55.3014 100.771 55.7808 100.372 56.5418 99.9018C57.3408 99.405 58.4723 98.8096 59.7711 98.2099C62.3822 97.036 65.8282 95.7637 69.768 94.6593C70.3308 94.5034 70.8808 94.3478 71.444 94.2047L71.4826 94.2037C79.8404 92.0601 89.8869 90.9816 97.9507 93.0063C98.1041 93.4661 98.9625 95.8276 100.415 98.7666C101.216 100.37 102.095 102.022 103.107 103.349C103.148 103.412 103.2 103.45 103.253 103.5C103.637 103.902 104.079 104.059 104.461 104.423C103.378 104.36 101.714 104.299 99.6656 104.273L99.6917 104.286Z" fill="#090909"/>
<path d="M177.622 244.663L199.315 246.846C204.14 247.33 208.415 245.965 212.14 242.765C215.866 239.552 217.977 235.422 218.451 230.384L233.567 70.5524L192.815 83.9998L177.622 244.663Z" fill="#134388"/>
<path d="M274.173 219.911C274.173 227.882 276.71 234.759 281.797 240.541C286.883 246.324 292.91 249.208 299.877 249.208H371.929V74.313L274.173 88.3628V219.911ZM310.643 115.87L335.755 112.882V209.75L310.643 212.146V115.883V115.87Z" fill="#134388"/>
<path d="M434.722 161.613L420.672 163.107V74.0177L380.905 80.5855V281.198H420.672V188.812L434.722 187.318V293.162H474.476V59.0664L434.722 65.647V161.613Z" fill="#134388"/>
<path d="M655.952 190.009L704.682 184.33V59.0664L655.952 65.647V190.009Z" fill="#134388"/>
<path d="M610.209 193.306L635.926 160.416C623.769 156.037 611.007 151.749 597.653 147.564C602.637 139.592 607.363 129.882 611.857 118.408C616.339 106.946 622.276 90.2566 629.642 68.3384L609.308 70.7337L504.674 83.8821V113.179L568.356 106.599C565.561 117.764 561.968 127.822 557.59 136.798C545.034 134.402 535.465 133.205 528.885 133.205C514.732 133.205 503.927 136.102 496.445 141.871C488.976 147.654 485.229 155.522 485.229 165.49C485.229 173.268 488.268 179.939 494.346 185.515C500.425 191.091 508.447 193.885 518.415 193.885C524.79 193.885 531.872 192.392 539.638 189.404C551.395 184.819 561.26 180.132 569.231 175.354L610.183 193.293L610.209 193.306ZM533.379 165.799C527.996 168.593 523.605 169.984 520.231 169.984C517.836 169.984 515.994 169.392 514.706 168.194C513.405 166.996 512.762 165.502 512.762 163.712C512.762 161.716 513.856 160.081 516.045 158.78C518.235 157.492 520.823 156.836 523.824 156.836C527.211 156.836 530.701 157.737 534.293 159.527L539.071 161.922C537.474 163.326 535.581 164.614 533.392 165.812L533.379 165.799Z" fill="#134388"/>
<path d="M550.121 256.974L660.137 247.418V293.161H704.682V202.564L550.121 220.8V256.974Z" fill="#134388"/>
<path d="M868.398 295.659H917.129V61.5764L868.398 68.1442V295.659Z" fill="#134388"/>
<path d="M829.354 74.9055L728.61 88.363V120.056L792.588 112.883C792.588 120.854 791.39 130.422 788.995 141.588L725.313 150.254V182.243L778.229 176.268C766.072 204.174 748.223 226.196 724.708 242.345L748.326 261.777C772.64 249.221 791.673 234.27 805.427 216.936C819.181 199.603 829.393 179.771 836.077 157.44C842.747 135.123 848.581 106.521 853.565 71.6345L829.65 74.6222L829.354 74.9184V74.9055Z" fill="#134388"/>
<path d="M1006.99 187.472L1019.25 186.274L1131.96 176.41V133.655L1019.25 149.199V105.852L1131.96 95.0855V61.0105L977.399 78.3442V160.853C977.399 168.825 980.284 175.457 986.066 180.737C991.848 186.017 998.815 188.257 1006.99 187.459V187.472Z" fill="#134388"/>
<path d="M931.952 229.325V264.006H1167.84V215.276L931.952 229.325Z" fill="#134388"/>
<path d="M1272.83 256.042L1202.61 259.958V250.346L1233.49 247.409V244.828L1224.95 245.54C1222.57 245.777 1220.5 245.184 1218.72 243.76C1216.99 242.276 1216.13 240.407 1216.13 238.153V226.049L1228.59 224.447V234.86L1262.15 230.588V242.514L1245.33 243.938V246.341L1272.83 243.76V256.042ZM1216.13 272.507L1248.89 270.816V268.146L1216.13 269.837V262.005L1262.15 259.246V277.313L1226.46 278.826V281.14L1262.15 280.072V292.354H1224.95C1222.51 292.354 1220.44 291.493 1218.72 289.773C1216.99 288.052 1216.13 285.975 1216.13 283.543V272.507ZM1323.74 292.354V224.625L1338.25 222.667V292.354H1323.74ZM1303.36 255.063C1303.48 252.689 1303.54 251.087 1303.54 250.257C1303.54 245.985 1303.13 242.959 1302.3 241.179C1301.46 239.339 1300.37 238.598 1299 238.954C1297.34 239.428 1295.92 241.238 1294.73 244.383C1293.54 247.468 1292.77 252.007 1292.42 258C1292.3 260.373 1292.24 261.975 1292.24 262.806C1292.24 266.662 1292.59 269.54 1293.31 271.439C1294.02 273.278 1294.94 274.198 1296.07 274.198C1297.9 274.198 1299.48 272.625 1300.78 269.481C1302.15 266.336 1303.01 261.53 1303.36 255.063ZM1279.07 258.089C1279.07 247.943 1280.96 240.437 1284.76 235.572C1288.56 230.706 1293.48 228.274 1299.54 228.274C1304.64 228.274 1308.76 230.439 1311.91 234.771C1315.05 239.102 1316.65 245.836 1316.71 254.974C1316.71 265.12 1314.81 272.625 1311.02 277.491C1307.22 282.356 1302.3 284.789 1296.24 284.789C1291.14 284.789 1287.02 282.623 1283.87 278.292C1280.73 273.96 1279.13 267.226 1279.07 258.089ZM1392.15 292.354V255.597L1383.16 256.487V248.922L1392.15 247.943V224.625L1406.66 222.667V292.354H1392.15ZM1347.12 231.567L1378.27 227.384V237.53L1359.58 239.577V248.655L1378.27 246.964V257.11L1359.58 258.89V268.324L1384.94 266.633V279.449H1355.93C1353.5 279.449 1351.42 278.588 1349.7 276.868C1347.98 275.147 1347.12 273.07 1347.12 270.638V231.567Z" fill="#0CB209"/>
<path d="M1428.89 247.854L1439.75 246.964L1448.47 272.418L1456.39 249.189C1456.75 248.061 1457.37 247.142 1458.26 246.43C1459.21 245.718 1460.28 245.302 1461.46 245.184L1469.74 244.561L1452.56 287.726H1444.46L1428.89 247.854ZM1503.83 261.293C1503.05 259.335 1501.84 257.733 1500.18 256.487C1498.57 255.241 1496.56 254.618 1494.12 254.618C1493.35 254.618 1492.76 254.647 1492.34 254.707C1489.44 255.063 1487.15 255.982 1485.49 257.466C1483.89 258.89 1482.67 260.759 1481.84 263.073L1503.83 261.293ZM1471.52 268.057C1471.52 261.767 1473.27 256.457 1476.77 252.126C1480.27 247.735 1484.99 245.065 1490.92 244.116C1492.17 243.938 1493.41 243.849 1494.66 243.849C1498.34 243.849 1501.57 244.709 1504.36 246.43C1507.21 248.091 1509.4 250.524 1510.95 253.728C1512.55 256.872 1513.35 260.581 1513.35 264.853C1513.35 266.217 1513.29 267.256 1513.17 267.968V268.68L1481.93 270.816C1482.47 272.833 1483.68 274.732 1485.58 276.512C1487.54 278.232 1489.44 279.063 1491.28 279.004H1491.81C1492.7 278.944 1493.65 278.648 1494.66 278.114C1495.73 277.58 1497 276.838 1498.49 275.889C1499.38 275.355 1500.32 275.088 1501.33 275.088C1502.46 275.088 1503.53 275.414 1504.54 276.067L1510.06 279.182L1509.61 279.805C1507.41 282.712 1504.69 284.967 1501.42 286.569C1498.16 288.171 1494.66 288.972 1490.92 288.972C1487 288.972 1483.56 288.111 1480.6 286.391C1477.69 284.67 1475.43 282.237 1473.83 279.093C1472.29 275.889 1471.52 272.21 1471.52 268.057ZM1519.56 247.854L1530.24 245.629V250.791C1531.54 248.833 1533.5 247.112 1536.11 245.629C1538.72 244.145 1541.36 243.166 1544.03 242.692V255.686H1543.94C1543.11 255.567 1542.52 255.508 1542.16 255.508C1539.85 255.508 1537.48 256.398 1535.04 258.178C1533.68 259.186 1532.55 260.284 1531.66 261.471C1530.83 262.657 1530.36 263.547 1530.24 264.141V282.119C1530.24 283.661 1529.67 284.967 1528.55 286.035C1527.48 287.162 1526.17 287.726 1524.63 287.726H1519.56V247.854ZM1565.28 278.648V288.794L1563.68 290.307H1554.15L1553 289.15V280.339L1554.15 279.004L1563.68 277.402L1565.28 278.648Z" fill="#FBD043"/>
<g clip-path="url(#clip0_530_5306)">
<path d="M1269.63 146.11C1269.99 147.865 1268.84 149.569 1267.08 149.904C1265.32 150.255 1263.59 149.118 1263.24 147.38L1255.52 109.389C1255.17 107.634 1256.32 105.946 1258.08 105.595C1259.85 105.244 1261.56 106.38 1261.92 108.118L1269.63 146.093V146.11Z" fill="#FF3324"/>
<path d="M1240.03 149.419C1241.6 157.191 1236.51 164.746 1228.64 166.317L1196.09 172.769C1188.22 174.323 1180.58 169.292 1178.99 161.52C1177.41 153.748 1172.89 148.099 1180.76 146.528L1222.92 138.171C1230.79 136.616 1238.45 141.647 1240.03 149.419Z" fill="#FFDE52"/>
<path d="M1189.63 157.041C1190.29 160.25 1189.22 168.457 1185.97 169.108L1186.01 169.292C1182.76 169.927 1179.56 167.688 1178.92 164.479L1168.44 112.949C1167.79 109.74 1169.9 106.631 1173.13 105.979C1176.38 105.344 1179.54 107.417 1180.19 110.626L1189.63 157.041Z" fill="#FF3324"/>
<path d="M1220.6 201.951C1238.69 198.358 1250.41 180.975 1246.77 163.091C1246.77 163.008 1246.74 162.941 1246.72 162.857L1239.58 164.278C1241.38 178.084 1232.95 190.92 1218.93 193.711C1204.9 196.486 1192.54 187.778 1188.8 174.356L1181.22 175.861C1181.22 175.861 1181.25 176.011 1181.27 176.095C1184.91 193.962 1202.5 205.545 1220.6 201.951Z" fill="#073D4C"/>
<path d="M1402.48 116.482L1178.2 160.958L1181.63 177.837L1405.91 133.361L1402.48 116.482Z" fill="#064BF9"/>
<path d="M1524.47 95.5662C1524.82 97.3044 1526.55 98.441 1528.31 98.09C1530.08 97.739 1531.22 96.0342 1530.86 94.2959L1523.15 56.3047C1522.79 54.5497 1521.07 53.4299 1519.31 53.7809C1517.53 54.1319 1516.4 55.8367 1516.75 57.575L1524.47 95.5662Z" fill="#FF3324"/>
<path d="M1553.06 87.3262C1554.63 95.0982 1562.29 100.129 1570.16 98.5748L1602.71 92.1231C1610.58 90.5687 1615.67 82.9972 1614.1 75.2419C1612.52 67.4698 1614.47 60.5334 1606.62 62.0879L1564.46 70.4449C1556.59 71.9993 1551.5 79.5708 1553.09 87.3429L1553.06 87.3262Z" fill="#FFDE52"/>
<path d="M1602.53 75.1248C1603.19 78.334 1607.38 85.5043 1610.61 84.8692L1610.65 85.053C1613.89 84.4012 1615.96 81.1085 1615.3 77.8994L1604.83 26.3698C1604.18 23.1607 1601.02 21.0881 1597.77 21.74C1594.52 22.3751 1592.43 25.5006 1593.09 28.7097L1602.53 75.1248Z" fill="#FF3324"/>
<path d="M1591.49 128.376C1573.41 131.969 1555.8 120.387 1552.16 102.519C1552.14 102.436 1552.14 102.369 1552.11 102.285L1559.27 100.865C1563 114.286 1575.79 122.927 1589.82 120.136C1603.84 117.361 1611.85 104.592 1610.04 90.8026L1617.62 89.2983C1617.62 89.2983 1617.65 89.4488 1617.67 89.5323C1621.3 107.4 1609.58 124.799 1591.49 128.393V128.376Z" fill="#073D4C"/>
<path d="M1614.6 74.4251L1390.33 118.901L1393.76 135.78L1618.03 91.304L1614.6 74.4251Z" fill="#064BF9"/>
<path d="M1462.68 203.623C1462.68 203.456 1462.68 203.306 1462.68 203.138C1462.68 166.016 1432.23 135.931 1394.65 135.931C1357.08 135.931 1326.63 166.016 1326.63 203.138C1326.63 203.306 1326.63 203.473 1326.63 203.623H1462.66H1462.68Z" fill="#FF3324"/>
<path d="M1440.84 203.623C1440.84 203.456 1440.84 203.305 1440.84 203.138C1440.84 177.95 1420.17 157.509 1394.65 157.509C1369.14 157.509 1348.49 177.933 1348.49 203.138C1348.49 203.305 1348.49 203.473 1348.49 203.623H1440.82H1440.84Z" fill="#FCB332"/>
<path d="M1405.26 137.886C1405.26 143.67 1400.52 148.349 1394.67 148.349C1388.82 148.349 1384.08 143.67 1384.08 137.886V120.871C1384.08 115.088 1388.82 110.408 1394.67 110.408C1400.52 110.408 1405.26 115.088 1405.26 120.871V137.886Z" fill="#FF3324"/>
</g>
<defs>
<clipPath id="clip0_530_5306">
<rect width="450" height="182" fill="white" transform="translate(1168.33 21.623)"/>
</clipPath>
</defs>
</svg>
