<svg width="1218" height="416" viewBox="0 0 1218 416" fill="none" xmlns="http://www.w3.org/2000/svg">
<g clip-path="url(#clip0_530_5304)">
<path d="M819.796 169H813.62L784.619 105.906H790.787L819.796 169Z" fill="#0083F9"/>
<path d="M838.228 160.87H812.178C811.275 160.87 810.541 160.138 810.541 159.238C810.541 158.337 811.275 157.605 812.178 157.605H838.228V160.862V160.87Z" fill="#D8BA39"/>
<path d="M832.148 148.02H806.098C805.195 148.02 804.461 147.288 804.461 146.387C804.461 145.487 805.195 144.755 806.098 144.755H832.148V148.012V148.02Z" fill="#D8BA39"/>
<path d="M826.247 135.041H800.196C799.293 135.041 798.56 134.309 798.56 133.408C798.56 132.508 799.293 131.776 800.196 131.776H826.247V135.033V135.041Z" fill="#D8BA39"/>
<path d="M820.998 122.327H794.947C794.044 122.327 793.311 121.595 793.311 120.695C793.311 119.794 794.044 119.062 794.947 119.062H820.998V122.319V122.327Z" fill="#D8BA39"/>
<path d="M846 169H839.833L810.541 105.906H816.709L846 169Z" fill="#0083F9"/>
<path d="M820.998 107.467H813.693V169H820.998V107.467Z" fill="#D34F4F"/>
<path d="M771.268 107.467H763.963V169H771.268V107.467Z" fill="#D34F4F"/>
<path d="M761.101 39.3631L792.109 0L823.11 39.3631H761.101Z" fill="#D8BA39"/>
<path d="M792.093 39.3631V0.0161133L761.101 39.3631H792.093Z" fill="#F3D541"/>
<path d="M761.101 40.6335V102.867H823.497V40.6335H761.101ZM810.541 102.834H787.449V83.3258C787.449 76.965 792.617 71.8104 798.995 71.8104C805.372 71.8104 810.541 76.965 810.541 83.3258V102.834Z" fill="#FF5543"/>
<path d="M792.303 53.8298C782.233 53.8298 774.065 61.9759 774.065 72.0197V102.835H787.449V83.326C787.449 76.9652 792.618 71.8106 798.995 71.8106C805.373 71.8106 810.541 76.9652 810.541 83.326V72.0197C810.541 61.9759 802.373 53.8298 792.303 53.8298Z" fill="#C60000"/>
<path d="M826.246 39.3631C826.246 41.2126 824.739 42.7164 822.884 42.7164H761.294C759.431 42.7164 757.932 41.2126 757.932 39.3631C757.932 37.5135 759.439 36.0098 761.294 36.0098H822.884C824.739 36.0098 826.246 37.5135 826.246 39.3631Z" fill="#FFE576"/>
<path d="M826.246 106.212C826.246 108.061 824.739 109.565 822.884 109.565H761.294C759.431 109.565 757.932 108.061 757.932 106.212C757.932 104.362 759.439 102.859 761.294 102.859H822.884C824.739 102.859 826.246 104.362 826.246 106.212Z" fill="#FFE576"/>
<path d="M744.201 169H708L774.339 102.835H810.541L744.201 169Z" fill="#009EED"/>
<path d="M810.541 102.835L746.709 166.491V169H744.193V165.904C744.185 162.961 745.362 160.13 747.443 158.048L807.259 98.3878C808.469 97.1896 810.525 98.0339 810.533 99.7387V102.835H810.541Z" fill="#F3D541"/>
<path d="M749.95 159.005C747.951 160.999 746.798 163.685 746.709 166.491L810.541 102.835V99.7387C810.541 99.4492 810.468 99.1839 810.363 98.9426C810.154 99.0311 809.952 99.1678 809.767 99.3447L749.95 159.005Z" fill="#D8BA39"/>
<path d="M774.347 102.835L710.516 166.491V169H708V165.904C708 162.961 709.169 160.13 711.249 158.048L771.066 98.3878C772.267 97.1896 774.331 98.0339 774.331 99.7387V102.835H774.347Z" fill="#F3D541"/>
<path d="M713.757 159.005C711.757 160.999 710.604 163.685 710.516 166.491L774.339 102.835V99.7387C774.339 99.4492 774.267 99.1839 774.162 98.9426C773.952 99.0311 773.743 99.1678 773.565 99.3447L713.757 159.005Z" fill="#D8BA39"/>
</g>
<path d="M217.849 121.021L219.757 143.454C220.06 147.041 222.554 150.064 226.007 151.066L247.645 157.274L225.211 159.183C221.625 159.485 218.601 161.979 217.609 165.433L211.402 187.07L209.493 164.636C209.191 161.05 206.696 158.026 203.243 157.024L181.606 150.817L204.039 148.908C207.626 148.605 210.65 146.111 211.652 142.658L217.859 121.021L217.849 121.021Z" fill="#090909"/>
<path d="M108.11 258.843C108.033 258.845 107.955 258.834 107.877 258.823L107.762 258.851L107.763 258.89C107.763 258.89 107.737 258.865 107.724 258.865C107.608 258.855 107.491 258.833 107.375 258.823C105.581 258.688 104.49 259.359 102.617 259.136C99.0882 259.187 94.8722 260.066 90.3185 261.341C88.2964 261.869 85.786 262.95 83.6273 263.674C77.8291 265.663 71.9428 267.731 65.503 270.329C63.297 271.222 61.2497 271.261 59.018 272.155C58.4188 272.402 57.983 272.49 57.3709 272.737C57.0266 272.875 56.6938 272.961 56.3742 273.059C54.8437 273.664 53.3003 274.27 51.7566 274.863L19.3686 410.274L58.4761 408.138L67.8526 371.394L117.901 366.869L132.214 404.11L180.571 401.47L122.928 259.009C118.285 259.294 113.364 259.277 108.11 258.856L108.11 258.843ZM76.9276 334.953L87.2338 276.903L104 331.679L76.9276 334.953Z" fill="#134388"/>
<path d="M174.691 232.606C174.332 231.662 173.592 230.895 172.667 230.506C170.857 229.727 168.627 230.17 165.912 231.347C156.508 235.411 141.83 233.656 129.594 230.694C117.488 227.753 108.037 223.844 107.854 223.759L104.519 221.241C103.783 220.178 103.017 218.922 102.392 217.623C100.911 214.608 99.8983 211.735 99.8706 211.658L99.8426 211.569L99.8416 211.53C99.8416 211.53 95.2326 198.907 89.9246 185.128C87.2771 178.239 84.4295 171.084 81.8942 165.068C79.346 159.052 77.1374 154.238 75.5162 151.767C73.7475 149.068 70.4483 146.974 66.3224 145.301C62.1964 143.628 57.2313 142.388 52.1024 141.809C46.5346 141.19 40.8077 141.412 35.8056 142.788L35.767 142.789C32.0442 143.81 28.7786 145.593 26.1726 147.991C26.1468 147.992 26.1204 147.967 26.1204 147.967C25.9402 147.971 25.7613 148.027 25.6094 148.134C25.5579 148.135 25.4935 148.137 25.3526 148.166C25.2757 148.181 25.173 148.197 25.0839 148.238C25.0201 148.265 24.931 148.306 24.9184 148.319C24.8927 148.32 24.7926 148.438 24.7801 148.451C24.7804 148.464 24.7553 148.491 24.7556 148.503C23.8786 149.479 24.5903 151.136 25.9054 151.18C25.9054 151.18 31.9401 151.413 38.3495 152.707C41.5604 153.347 44.8802 154.217 47.436 155.44C49.9915 156.651 51.7055 158.205 52.2862 159.775C52.8811 161.396 53.0666 165.165 52.8112 169.835C52.556 174.518 52.0166 180.187 51.4992 186.216C50.4724 198.08 49.6824 211.163 52.3373 220.886C52.3392 220.963 52.3418 221.066 52.3566 221.143C52.3583 221.207 52.3856 221.271 52.413 221.335L52.414 221.374L52.4407 221.411L52.4414 221.437L52.442 221.463L52.4427 221.489L52.4433 221.514C53.8779 225.266 53.6643 229.045 53.2248 231.53L52.6667 233.914C52.1811 234.068 47.7847 235.455 40.8533 239.495C33.6805 243.669 24.0881 250.482 14.2459 261.165C4.1903 272.073 2.71854 280.097 4.94361 285.052C6.06275 287.536 8.08666 289.12 10.175 289.686C11.7312 290.098 13.4144 289.926 14.719 289.043C20.9677 289.078 27.9297 287.266 35.1065 284.779C40.1958 283.285 45.4301 281.413 50.6737 279.4C52.2174 278.807 53.748 278.201 55.2914 277.595C55.6241 277.51 55.944 277.424 56.2881 277.274C56.8873 277.027 57.3359 276.938 57.9351 276.691C60.1669 275.797 62.2138 275.746 64.4201 274.865C70.8599 272.268 76.7462 270.2 82.5444 268.211C84.7031 267.486 87.2139 266.418 89.2356 265.877C93.7894 264.603 98.0182 263.723 101.534 263.673C103.395 263.909 104.498 263.224 106.292 263.359C106.408 263.369 106.525 263.392 106.641 263.402C106.654 263.402 106.68 263.427 106.693 263.426L106.692 263.388L106.795 263.359C106.872 263.357 106.95 263.381 107.027 263.379C112.281 263.8 117.202 263.818 121.845 263.533C122.784 263.47 123.736 263.42 124.649 263.346C124.713 263.344 124.777 263.343 124.842 263.328C142.671 261.834 156.168 256.069 164.375 249.498C170.587 244.523 174.132 239.512 174.817 235.553C174.998 234.569 175.037 233.551 174.679 232.632L174.691 232.606ZM26.2891 148.014L26.3149 148.013L26.3158 148.052C26.2901 148.052 26.3023 148.026 26.2762 148.014L26.2891 148.014ZM16.0734 286.059C16.5781 285.131 17.0465 284.295 17.898 282.818C19.1079 280.739 20.7054 278.199 23.0477 275.564C27.7069 270.306 35.139 264.669 47.3243 261.565L47.3629 261.564C48.5659 261.251 49.8081 260.962 51.1157 260.71C52.4616 260.444 53.86 260.215 55.3233 260.011L51.2925 276.872C38.8155 281.683 26.4124 285.849 16.0863 286.058L16.0734 286.059ZM99.4407 224.204C89.4543 224.095 69.5776 225.126 54.8546 233.833C54.9151 233.677 54.7805 232.431 54.8628 232.12L54.8592 231.978L54.8827 231.887C54.9078 231.861 54.9326 231.822 54.9445 231.783C54.9676 231.679 54.938 231.525 54.9208 231.358C55.0317 230.647 55.1402 229.845 55.1828 228.981C55.6611 227.011 55.9827 224.955 54.7802 221.211L54.7792 221.172L54.9005 220.873C55.0504 220.688 55.5298 220.29 56.2909 219.82C57.0899 219.323 58.2213 218.728 59.5201 218.128C62.1313 216.954 65.5772 215.682 69.517 214.577C70.0798 214.421 70.6298 214.266 71.193 214.123L71.2317 214.122C79.5894 211.978 89.6359 210.9 97.6998 212.924C97.8531 213.384 98.7115 215.746 100.164 218.685C100.965 220.287 101.844 221.94 102.856 223.267C102.897 223.33 102.949 223.368 103.002 223.418C103.386 223.82 103.828 223.977 104.21 224.341C103.127 224.278 101.463 224.217 99.4146 224.191L99.4407 224.204Z" fill="#090909"/>
<path d="M177.371 364.581L199.064 366.764C203.889 367.248 208.164 365.883 211.889 362.683C215.615 359.47 217.726 355.34 218.2 350.302L233.316 190.47L192.564 203.918L177.371 364.581Z" fill="#134388"/>
<path d="M273.922 339.829C273.922 347.8 276.459 354.677 281.546 360.459C286.632 366.242 292.659 369.126 299.626 369.126H371.678V194.231L273.922 208.281V339.829ZM310.392 235.788L335.504 232.8V329.668L310.392 332.064V235.801V235.788Z" fill="#134388"/>
<path d="M434.471 281.531L420.421 283.025V193.936L380.654 200.503V401.116H420.421V308.73L434.471 307.236V413.08H474.225V178.984L434.471 185.565V281.531Z" fill="#134388"/>
<path d="M655.701 309.927L704.431 304.248V178.984L655.701 185.565V309.927Z" fill="#134388"/>
<path d="M609.958 313.224L635.675 280.334C623.518 275.955 610.756 271.667 597.402 267.481C602.386 259.51 607.112 249.8 611.606 238.326C616.088 226.864 622.025 210.175 629.391 188.256L609.057 190.652L504.423 203.8V233.097L568.105 226.517C565.31 237.682 561.717 247.74 557.339 256.716C544.783 254.32 535.214 253.123 528.634 253.123C514.481 253.123 503.676 256.02 496.194 261.789C488.725 267.572 484.978 275.44 484.978 285.408C484.978 293.186 488.017 299.857 494.095 305.433C500.174 311.009 508.196 313.803 518.164 313.803C524.539 313.803 531.621 312.31 539.387 309.322C551.144 304.737 561.009 300.05 568.98 295.272L609.932 313.211L609.958 313.224ZM533.128 285.717C527.745 288.511 523.354 289.902 519.98 289.902C517.585 289.902 515.743 289.31 514.455 288.112C513.155 286.914 512.511 285.42 512.511 283.63C512.511 281.634 513.605 279.999 515.794 278.698C517.984 277.41 520.572 276.754 523.573 276.754C526.96 276.754 530.45 277.655 534.043 279.445L538.82 281.84C537.223 283.244 535.33 284.532 533.141 285.73L533.128 285.717Z" fill="#134388"/>
<path d="M549.87 376.892L659.886 367.336V413.079H704.431V322.482L549.87 340.718V376.892Z" fill="#134388"/>
<path d="M868.147 415.577H916.878V181.494L868.147 188.062V415.577Z" fill="#134388"/>
<path d="M829.103 194.823L728.359 208.281V239.974L792.337 232.801C792.337 240.772 791.139 250.34 788.744 261.505L725.062 270.172V302.161L777.978 296.186C765.821 324.092 747.972 346.114 724.457 362.263L748.075 381.695C772.389 369.139 791.422 354.188 805.176 336.854C818.93 319.521 829.142 299.689 835.826 277.358C842.496 255.041 848.33 226.439 853.314 191.552L829.399 194.54L829.103 194.836V194.823Z" fill="#134388"/>
<path d="M1006.74 307.39L1019 306.192L1131.71 296.328V253.573L1019 269.117V225.769L1131.71 215.004V180.928L977.148 198.262V280.771C977.148 288.743 980.033 295.375 985.815 300.655C991.597 305.935 998.564 308.175 1006.74 307.377V307.39Z" fill="#134388"/>
<path d="M931.701 349.243V383.924H1167.59V335.194L931.701 349.243Z" fill="#134388"/>
<path d="M918.001 132.123L847.78 136.039V126.427L878.663 123.49V120.909L870.119 121.621C867.746 121.858 865.669 121.265 863.889 119.841C862.168 118.358 861.308 116.489 861.308 114.234V102.13L873.768 100.528V110.941L907.321 106.669V118.595L890.5 120.019V122.422L918.001 119.841V132.123ZM861.308 148.588L894.06 146.897V144.227L861.308 145.918V138.086L907.321 135.327V153.394L871.632 154.907V157.221L907.321 156.153V168.435H870.119C867.686 168.435 865.61 167.575 863.889 165.854C862.168 164.133 861.308 162.057 861.308 159.624V148.588ZM968.918 168.435V100.706L983.425 98.7481V168.435H968.918ZM948.537 131.144C948.656 128.771 948.715 127.169 948.715 126.338C948.715 122.066 948.3 119.04 947.469 117.26C946.638 115.421 945.541 114.679 944.176 115.035C942.515 115.51 941.091 117.319 939.904 120.464C938.717 123.549 937.946 128.088 937.59 134.081C937.471 136.454 937.412 138.056 937.412 138.887C937.412 142.744 937.768 145.621 938.48 147.52C939.192 149.359 940.112 150.279 941.239 150.279C943.078 150.279 944.651 148.707 945.956 145.562C947.321 142.417 948.181 137.611 948.537 131.144ZM924.24 134.17C924.24 124.024 926.139 116.518 929.936 111.653C933.733 106.788 938.658 104.355 944.71 104.355C949.813 104.355 953.936 106.521 957.081 110.852C960.226 115.183 961.828 121.918 961.887 131.055C961.887 141.201 959.988 148.707 956.191 153.572C952.394 158.437 947.469 160.87 941.417 160.87C936.314 160.87 932.191 158.704 929.046 154.373C925.901 150.042 924.299 143.307 924.24 134.17ZM1037.33 168.435V131.678L1028.34 132.568V125.003L1037.33 124.024V100.706L1051.83 98.7481V168.435H1037.33ZM992.294 107.648L1023.44 103.465V113.611L1004.75 115.658V124.736L1023.44 123.045V133.191L1004.75 134.971V144.405L1030.12 142.714V155.53H1001.1C998.672 155.53 996.595 154.67 994.875 152.949C993.154 151.228 992.294 149.152 992.294 146.719V107.648Z" fill="#0CB209"/>
<path d="M1074.06 123.935L1084.92 123.045L1093.64 148.499L1101.56 125.27C1101.92 124.143 1102.54 123.223 1103.43 122.511C1104.38 121.799 1105.45 121.384 1106.64 121.265L1114.91 120.642L1097.74 163.807H1089.64L1074.06 123.935ZM1149 137.374C1148.23 135.416 1147.01 133.814 1145.35 132.568C1143.75 131.322 1141.73 130.699 1139.3 130.699C1138.53 130.699 1137.93 130.729 1137.52 130.788C1134.61 131.144 1132.33 132.064 1130.67 133.547C1129.06 134.971 1127.85 136.84 1127.02 139.154L1149 137.374ZM1116.69 144.138C1116.69 137.849 1118.44 132.538 1121.94 128.207C1125.44 123.816 1130.16 121.146 1136.09 120.197C1137.34 120.019 1138.59 119.93 1139.83 119.93C1143.51 119.93 1146.74 120.79 1149.53 122.511C1152.38 124.172 1154.58 126.605 1156.12 129.809C1157.72 132.954 1158.52 136.662 1158.52 140.934C1158.52 142.299 1158.46 143.337 1158.34 144.049V144.761L1127.11 146.897C1127.64 148.914 1128.86 150.813 1130.75 152.593C1132.71 154.314 1134.61 155.144 1136.45 155.085H1136.98C1137.87 155.026 1138.82 154.729 1139.83 154.195C1140.9 153.661 1142.18 152.919 1143.66 151.97C1144.55 151.436 1145.5 151.169 1146.51 151.169C1147.63 151.169 1148.7 151.495 1149.71 152.148L1155.23 155.263L1154.78 155.886C1152.59 158.793 1149.86 161.048 1146.6 162.65C1143.33 164.252 1139.83 165.053 1136.09 165.053C1132.18 165.053 1128.74 164.193 1125.77 162.472C1122.86 160.751 1120.61 158.319 1119.01 155.174C1117.46 151.97 1116.69 148.291 1116.69 144.138ZM1164.73 123.935L1175.41 121.71V126.872C1176.72 124.914 1178.67 123.193 1181.29 121.71C1183.9 120.227 1186.54 119.248 1189.21 118.773V131.767H1189.12C1188.29 131.648 1187.69 131.589 1187.34 131.589C1185.02 131.589 1182.65 132.479 1180.22 134.259C1178.85 135.268 1177.73 136.365 1176.84 137.552C1176 138.739 1175.53 139.629 1175.41 140.222V158.2C1175.41 159.743 1174.85 161.048 1173.72 162.116C1172.65 163.243 1171.35 163.807 1169.8 163.807H1164.73V123.935ZM1210.45 154.729V164.875L1208.85 166.388H1199.33L1198.17 165.231V156.42L1199.33 155.085L1208.85 153.483L1210.45 154.729Z" fill="#FBD043"/>
<defs>
<clipPath id="clip0_530_5304">
<rect width="138" height="169" fill="white" transform="translate(708)"/>
</clipPath>
</defs>
</svg>
