<svg width="306" height="78" viewBox="0 0 306 78" fill="none" xmlns="http://www.w3.org/2000/svg">
<path d="M57.5101 0.611851L58.0095 6.48041C58.0886 7.41861 58.7411 8.20966 59.6444 8.4717L65.3047 10.0956L59.4361 10.5949C58.4979 10.6741 57.7069 11.3265 57.4476 12.2299L55.8237 17.8902L55.3243 12.0216C55.2452 11.0834 54.5927 10.2924 53.6894 10.0303L48.0291 8.40648L53.8977 7.90714C54.8359 7.82798 55.6269 7.17551 55.889 6.2722L57.5128 0.611912L57.5101 0.611851Z" fill="#090909"/>
<path d="M28.8029 36.6659C28.7827 36.6664 28.7624 36.6635 28.7421 36.6607L28.712 36.6682L28.7122 36.6783C28.7122 36.6783 28.7053 36.6717 28.702 36.6718C28.6716 36.6692 28.6411 36.6632 28.6107 36.6606C28.1414 36.6253 27.856 36.801 27.3659 36.7426C26.4429 36.7559 25.34 36.986 24.1487 37.3194C23.6198 37.4574 22.963 37.7403 22.3983 37.9298C20.8815 38.45 19.3417 38.9911 17.6571 39.6706C17.08 39.9042 16.5444 39.9144 15.9606 40.1482C15.8038 40.2129 15.6898 40.236 15.5297 40.3007C15.4396 40.3366 15.3526 40.3591 15.269 40.3848C14.8686 40.5432 14.4649 40.7017 14.061 40.8568L5.58842 76.2799L15.8188 75.7213L18.2717 66.1089L31.3642 64.9252L35.1086 74.6674L47.7586 73.9768L32.6794 36.7094C31.4648 36.7839 30.1773 36.7794 28.803 36.6692L28.8029 36.6659ZM20.6457 56.576L23.3418 41.3904L27.7278 55.7196L20.6457 56.576Z" fill="#134388"/>
<path d="M46.2202 29.8024C46.1264 29.5554 45.9326 29.3547 45.6908 29.253C45.2172 29.0493 44.6338 29.1652 43.9237 29.4729C41.4636 30.536 37.6238 30.0771 34.423 29.3021C31.256 28.5329 28.7836 27.5103 28.7359 27.4879L27.8633 26.8293C27.6709 26.5511 27.4705 26.2225 27.3069 25.8829C26.9196 25.0941 26.6546 24.3425 26.6474 24.3225L26.64 24.2991L26.6398 24.289C26.6398 24.289 25.4341 20.9866 24.0455 17.3822C23.3529 15.58 22.608 13.7083 21.9448 12.1345C21.2782 10.5607 20.7004 9.30151 20.2763 8.6551C19.8136 7.94901 18.9506 7.40131 17.8712 6.96356C16.7919 6.5258 15.493 6.20144 14.1513 6.05002C12.6948 5.88803 11.1967 5.94613 9.88812 6.3061L9.87802 6.30636C8.90413 6.57362 8.04986 7.04005 7.36814 7.66725C7.36141 7.66742 7.3545 7.66085 7.3545 7.66085C7.30735 7.66204 7.26055 7.67671 7.22081 7.70467C7.20734 7.70501 7.1905 7.70544 7.15363 7.71311C7.13351 7.71699 7.10665 7.72104 7.08333 7.73174C7.06666 7.7389 7.04334 7.7496 7.04006 7.75305C7.03333 7.75322 7.00715 7.78421 7.00387 7.78767C7.00395 7.79103 6.99739 7.79794 6.99747 7.80131C6.76803 8.05648 6.95423 8.48986 7.29825 8.50138C7.29825 8.50138 8.87692 8.56256 10.5536 8.90096C11.3936 9.06844 12.262 9.29585 12.9306 9.61593C13.5991 9.93265 14.0475 10.3392 14.1994 10.7498C14.355 11.1739 14.4036 12.16 14.3367 13.3816C14.27 14.6066 14.1289 16.0896 13.9935 17.6667C13.7249 20.7705 13.5183 24.1928 14.2128 26.7364C14.2133 26.7566 14.214 26.7835 14.2178 26.8037C14.2183 26.8205 14.2254 26.8372 14.2326 26.8538L14.2328 26.8639L14.2398 26.8739L14.24 26.8806L14.2402 26.8873L14.2403 26.8941L14.2405 26.9008C14.6158 27.8821 14.5599 28.8709 14.4449 29.5208L14.2989 30.1446C14.1719 30.1848 13.0218 30.5475 11.2086 31.6044C9.33219 32.6965 6.82286 34.4786 4.24814 37.2734C1.61763 40.1268 1.23262 42.2259 1.81469 43.5221C2.10746 44.1718 2.63691 44.5864 3.18321 44.7343C3.59032 44.842 4.03064 44.7971 4.3719 44.5661C6.00654 44.5753 7.82779 44.1013 9.70523 43.4506C11.0366 43.0597 12.4059 42.5701 13.7776 42.0434C14.1814 41.8883 14.5818 41.7299 14.9855 41.5714C15.0726 41.549 15.1563 41.5267 15.2463 41.4873C15.403 41.4227 15.5204 41.3995 15.6771 41.3349C16.261 41.1011 16.7964 41.0876 17.3736 40.8573C19.0582 40.1778 20.5981 39.6367 22.1149 39.1165C22.6796 38.9269 23.3364 38.6475 23.8653 38.5061C25.0565 38.1726 26.1628 37.9425 27.0824 37.9293C27.5693 37.9911 27.8579 37.812 28.3272 37.8473C28.3576 37.8499 28.3881 37.8559 28.4185 37.8585C28.4219 37.8584 28.4288 37.8649 28.4321 37.8649L28.4319 37.8548L28.4587 37.8473C28.4789 37.8468 28.4992 37.8531 28.5194 37.8525C29.8938 37.9627 31.1812 37.9672 32.3959 37.8927C32.6415 37.8764 32.8905 37.8633 33.1293 37.8438C33.1461 37.8434 33.163 37.843 33.1797 37.8392C37.8439 37.4483 41.3745 35.9402 43.5215 34.2212C45.1466 32.9198 46.0738 31.609 46.2532 30.5733C46.3006 30.316 46.3107 30.0495 46.2171 29.8092L46.2202 29.8024ZM7.39862 7.67321L7.40536 7.67304L7.40561 7.68315C7.39888 7.68332 7.40208 7.6765 7.39526 7.6733L7.39862 7.67321ZM4.72622 43.7854C4.85825 43.5428 4.98078 43.324 5.20353 42.9376C5.52003 42.3938 5.93795 41.7295 6.55069 41.04C7.76952 39.6646 9.71374 38.1899 12.9014 37.378L12.9115 37.3778C13.2262 37.2957 13.5511 37.2201 13.8932 37.1541C14.2453 37.0846 14.6111 37.0248 14.9939 36.9713L13.9395 41.3822C10.6755 42.6409 7.43088 43.7305 4.72959 43.7853L4.72622 43.7854ZM26.5349 27.6043C23.9225 27.576 18.7228 27.8456 14.8713 30.1234C14.8871 30.0825 14.8519 29.7565 14.8734 29.6751L14.8725 29.6381L14.8786 29.6143C14.8852 29.6074 14.8917 29.5971 14.8948 29.5869C14.9009 29.5598 14.8931 29.5196 14.8886 29.4759C14.9176 29.2898 14.946 29.0802 14.9571 28.8541C15.0823 28.3387 15.1664 27.8008 14.8518 26.8213L14.8516 26.8112L14.8833 26.7329C14.9225 26.6847 15.0479 26.5805 15.247 26.4575C15.456 26.3275 15.752 26.1718 16.0918 26.0149C16.7748 25.7078 17.6763 25.375 18.7069 25.0861C18.8542 25.0453 18.9981 25.0046 19.1454 24.9671L19.1555 24.9669C21.3419 24.4061 23.97 24.124 26.0795 24.6536C26.1196 24.7739 26.3442 25.3917 26.7242 26.1605C26.9336 26.5798 27.1636 27.0121 27.4285 27.3593C27.439 27.3758 27.4527 27.3856 27.4665 27.3987C27.5669 27.504 27.6825 27.5449 27.7827 27.6401C27.4992 27.6237 27.0641 27.6077 26.5281 27.6011L26.5349 27.6043Z" fill="#090909"/>
<path d="M46.9212 64.3268L52.596 64.8978C53.8581 65.0243 54.9765 64.6674 55.951 63.8302C56.9256 62.9898 57.4779 61.9092 57.6019 60.5915L61.5561 18.7798L50.8955 22.2976L46.9212 64.3268Z" fill="#134388"/>
<path d="M72.1786 57.8517C72.1786 59.937 72.8422 61.7359 74.1729 63.2485C75.5036 64.7611 77.0802 65.5158 78.9028 65.5158H97.7515V19.7635L72.1786 23.439V57.8517ZM81.7191 30.6348L88.2884 29.8532V55.1936L81.7191 55.8202V30.6382V30.6348Z" fill="#134388"/>
<path d="M114.178 42.6011L110.503 42.9919V19.6862L100.1 21.4044V73.8841H110.503V49.7161L114.178 49.3253V77.0138H124.578V15.775L114.178 17.4965V42.6011Z" fill="#134388"/>
<path d="M172.051 50.0294L184.799 48.5437V15.775L172.051 17.4965V50.0294Z" fill="#134388"/>
<path d="M160.085 50.8918L166.813 42.2878C163.632 41.1424 160.294 40.0205 156.8 38.9257C158.104 36.8404 159.341 34.3002 160.516 31.2986C161.689 28.3003 163.242 23.9343 165.169 18.2006L159.849 18.8272L132.477 22.2668V29.9309L149.136 28.2094C148.405 31.1302 147.465 33.7612 146.32 36.1093C143.035 35.4827 140.532 35.1694 138.811 35.1694C135.109 35.1694 132.282 35.9274 130.325 37.4366C128.371 38.9492 127.391 41.0076 127.391 43.6151C127.391 45.6499 128.186 47.3949 129.776 48.8536C131.366 50.3123 133.465 51.0434 136.072 51.0434C137.74 51.0434 139.592 50.6526 141.624 49.871C144.7 48.6717 147.28 47.4455 149.365 46.1956L160.078 50.8884L160.085 50.8918ZM139.987 43.6959C138.578 44.427 137.43 44.7908 136.547 44.7908C135.92 44.7908 135.439 44.6359 135.102 44.3225C134.762 44.0092 134.593 43.6185 134.593 43.1502C134.593 42.628 134.879 42.2002 135.452 41.8599C136.025 41.523 136.702 41.3512 137.487 41.3512C138.373 41.3512 139.286 41.587 140.226 42.0553L141.476 42.6819C141.058 43.0491 140.563 43.386 139.99 43.6993L139.987 43.6959Z" fill="#134388"/>
<path d="M144.366 67.5472L173.146 65.0475V77.0136H184.799V53.3138L144.366 58.0841V67.5472Z" fill="#134388"/>
<path d="M227.627 77.6672H240.375V16.4318L227.627 18.1499V77.6672Z" fill="#134388"/>
<path d="M217.413 19.9186L191.058 23.439V31.7297L207.795 29.8533C207.795 31.9386 207.481 34.4416 206.855 37.3624L190.196 39.6296V47.9978L204.038 46.4347C200.858 53.735 196.189 59.4957 190.037 63.7202L196.216 68.8038C202.576 65.5192 207.555 61.6079 211.153 57.0735C214.751 52.539 217.423 47.351 219.171 41.5094C220.916 35.6712 222.442 28.1891 223.746 19.0629L217.49 19.8444L217.413 19.9219V19.9186Z" fill="#134388"/>
<path d="M263.883 49.3656L267.09 49.0523L296.574 46.4717V35.2872L267.09 39.3534V28.0139L296.574 25.1975V16.2836L256.141 20.818V42.4022C256.141 44.4875 256.896 46.2224 258.408 47.6037C259.921 48.9849 261.743 49.5711 263.883 49.3622V49.3656Z" fill="#134388"/>
<path d="M244.252 60.3144V69.3867H305.959V56.639L244.252 60.3144Z" fill="#134388"/>
</svg>
