<svg width="25" height="26" viewBox="0 0 25 26" fill="none" xmlns="http://www.w3.org/2000/svg">
<path d="M11.8959 9.25872C10.6439 11.6088 7.80656 11.2907 6.21244 11.2907C3.73101 11.2334 2.06685 13.6793 2.8356 16.7268C3.60436 19.7744 6.16725 20.7379 8.38162 21.0099C10.0877 21.2195 13.8178 20.4882 15.2181 19.7744C16.6183 19.0605 19.1717 16.9739 19.9679 16.013C21.67 13.9586 22.1918 11.9221 22.027 10.11C21.8623 8.29796 21.0935 5.4974 17.7714 4.70119C14.4493 3.90498 13.4609 6.32107 11.8959 9.25872Z" fill="black" stroke="black" stroke-width="0.81"/>
<path d="M7.42288 21.9081C9.38565 22.3335 13.3342 22.5526 17.7274 19.2407C21.5847 16.3327 22.5519 13.2133 22.6841 11.1086C22.8224 8.90579 22.0727 6.72493 20.7277 5.41704C18.8039 3.54635 16.3003 3.21996 14.1941 4.56505C12.7947 5.45874 12.2831 6.63025 11.8318 7.66377C11.4421 8.55598 11.1055 9.32652 10.2127 9.89152C9.24258 10.5055 8.59773 10.4747 7.70516 10.4321C6.86031 10.3918 5.90263 10.346 4.65148 10.8614C3.4993 11.3359 2.52111 12.4375 2.03453 13.8081C1.98226 13.9554 1.93622 14.1037 1.89624 14.2529C1.5057 15.7103 1.6989 17.2526 2.45505 18.6439C3.29919 20.1965 5.1563 21.4168 7.42288 21.9081ZM4.05462 17.7741C3.47093 16.7005 3.3628 15.5082 3.75026 14.417C4.06196 13.5388 4.67297 12.8213 5.34482 12.5446C6.22106 12.1837 6.86859 12.2145 7.61849 12.2504C8.60832 12.2976 9.73023 12.3511 11.1864 11.4296C12.5506 10.5662 13.0551 9.41119 13.5001 8.39213C13.898 7.48135 14.2414 6.69473 15.174 6.09916C16.5512 5.21971 18.153 5.45249 19.4586 6.72209C20.1876 7.4311 20.9939 8.97522 20.8673 10.9942C20.8411 11.4117 20.773 11.8789 20.6379 12.3832C20.2151 13.961 19.1359 15.8987 16.6315 17.7867C12.8179 20.6617 9.46678 20.4881 7.8085 20.1287C6.0788 19.7537 4.64034 18.8515 4.05462 17.7741Z" fill="black"/>
<path d="M16.0923 16.7243C16.4936 16.4217 16.5738 15.851 16.2711 15.4495C15.9686 15.048 15.3977 14.968 14.9963 15.2706C12.5119 17.1435 9.6793 17.827 7.22458 17.1459C6.7401 17.0115 6.23854 17.2952 6.10404 17.7797C6.10334 17.7823 6.10262 17.785 6.10192 17.7876C5.97279 18.2695 6.25606 18.7664 6.73782 18.9002C9.74268 19.734 13.1522 18.9408 16.0923 16.7243Z" fill="white"/>
<path d="M18.0085 14.8565L18.0287 14.8396C18.4147 14.5174 18.4666 13.9436 18.1447 13.5575C17.8225 13.1714 17.2486 13.1195 16.8626 13.4415L16.8424 13.4584C16.6927 13.5833 16.5932 13.7461 16.5463 13.921C16.4723 14.1973 16.5292 14.5041 16.7264 14.7405C17.0484 15.1267 17.6224 15.1786 18.0085 14.8565Z" fill="white"/>
</svg>
