<svg width="535" height="535" viewBox="0 0 535 535" fill="none" xmlns="http://www.w3.org/2000/svg">
<g clip-path="url(#clip0_557_3258)">
<g style="mix-blend-mode:multiply">
<path d="M349.409 535C331.841 535 315.047 526.646 304.454 512.643C295.928 501.361 292.294 487.875 293.207 474.767C286.507 471.58 280.444 467.068 275.432 461.487C272.607 466.396 269.007 469.41 264.718 473.389C254.005 483.327 240.036 487.306 225.413 487.306C208.705 487.306 196.218 483.276 188.243 476.489C179.303 468.876 175.066 471.718 169.761 467.102C158.514 457.302 159.358 444.194 154.931 439.147C150.505 434.118 112.215 390.145 112.215 390.145H87.602C48.5204 390.145 17.4824 356.919 17.4824 317.837V238.417C17.4824 199.335 48.5204 167.539 87.602 167.539H112.784L181.887 86.7753C192.824 73.9777 208.688 66.6574 225.395 66.6574C245.668 66.6574 263.547 77.1814 273.795 93.0448C278.532 87.9637 284.147 83.8299 290.33 80.8157C289.349 67.8631 292.794 54.5144 301.061 43.2498C311.637 28.8331 328.62 20.2383 346.499 20.2383C358.573 20.2383 370.096 24.0104 379.827 31.1584C417.841 59.0616 449.396 95.9041 471.046 137.69C493.455 180.94 505.305 229.701 505.305 278.687C505.305 327.672 494.127 374.367 472.063 417.72C451.049 459.007 420.373 495.625 383.341 523.615C373.627 530.969 361.552 535.017 349.375 535.017L349.409 535Z" fill="#B3B3B3"/>
</g>
<path d="M361.553 514.762C343.984 514.762 327.19 506.408 316.597 492.405C308.072 481.123 304.437 467.636 305.35 454.529C298.65 451.342 292.587 446.829 287.575 441.249C284.75 446.158 281.15 449.172 276.861 453.151C266.148 463.089 252.179 467.068 237.556 467.068C220.848 467.068 203.624 461.212 194.048 449.723C184.471 438.235 188.26 429.467 178.253 419.46C168.246 409.453 166.248 416.618 156.413 406.766C146.578 396.931 124.376 369.906 124.376 369.906H99.7624C60.6808 369.906 29.6428 336.681 29.6428 297.599V218.179C29.6428 179.097 60.6808 147.301 99.7624 147.301H124.944L194.048 66.537C204.985 53.7394 220.848 46.4191 237.556 46.4191C257.829 46.4191 275.707 56.9431 285.956 72.8066C290.692 67.7254 296.307 63.5916 302.491 60.5774C301.509 47.6248 304.954 34.2761 313.222 23.0115C323.797 8.59486 340.78 0 358.659 0C370.733 0 382.256 3.77209 391.988 10.9201C430.001 38.8233 461.556 75.6658 483.207 117.452C505.615 160.702 517.466 209.463 517.466 258.449C517.466 307.434 506.287 354.129 484.223 397.482C463.21 438.769 432.533 475.387 395.501 503.376C385.787 510.731 373.713 514.779 361.535 514.779L361.553 514.762Z" fill="#E6E6E6"/>
<path d="M70.137 218.196V297.634C70.137 313.428 83.968 325.416 99.7798 325.416H122.757V191.843H99.7798C83.9852 191.843 70.137 202.401 70.137 218.196ZM225.154 94.0267L142.995 189.586V326.897L225.154 422.457C234.318 433.171 252.283 426.694 252.283 412.588V103.896C252.283 89.7896 234.318 83.3133 225.154 94.0267ZM268.473 203.366V313.101C284.664 300.338 295.222 280.513 295.222 258.225C295.222 235.937 284.664 216.112 268.473 203.349V203.366ZM359.951 258.242C359.951 214.027 338.593 172.052 302.835 145.958C296.549 141.376 287.747 142.737 283.148 149.023C278.567 155.31 279.945 164.112 286.214 168.711C314.737 189.535 331.755 223.001 331.755 258.242C331.755 293.483 315.788 325.33 287.937 346.499C281.736 351.201 280.53 360.037 285.25 366.237C288.023 369.889 292.225 371.801 296.48 371.801C299.442 371.801 302.439 370.871 304.988 368.924C339.902 342.382 359.934 302.043 359.934 258.242H359.951ZM415.998 258.328C415.998 195.977 385.925 136.725 335.544 99.8313C329.275 95.2324 320.456 96.5931 315.857 102.88C311.258 109.15 312.619 117.968 318.906 122.567C362.069 154.174 387.837 204.933 387.837 258.345C387.837 311.757 363.516 360.364 321.093 392.487C314.892 397.189 313.669 406.025 318.372 412.226C321.145 415.878 325.347 417.807 329.619 417.807C332.582 417.807 335.561 416.877 338.111 414.947C387.613 377.45 416.015 320.37 416.015 258.345L415.998 258.328ZM445.71 136.898C427.039 100.848 399.808 69.0689 366.995 44.9895C360.726 40.3907 351.907 41.7341 347.308 48.021C342.709 54.2906 344.053 63.1093 350.34 67.7082C410.9 112.147 447.053 183.455 447.053 258.449C447.053 333.443 412.795 402.012 353.044 447.174C346.843 451.859 345.603 460.695 350.305 466.913C353.078 470.581 357.281 472.511 361.553 472.511C364.515 472.511 367.495 471.58 370.044 469.669C401.995 445.52 428.469 413.931 446.588 378.329C465.604 340.987 475.232 300.665 475.232 258.466C475.232 216.267 465.018 174.188 445.71 136.915V136.898Z" fill="#B3B3B3"/>
<path d="M68.7417 218.523V297.961C68.7417 313.755 81.5565 326.57 97.351 326.57H122.274V189.931H97.351C81.5565 189.931 68.7417 202.745 68.7417 218.54V218.523ZM141.996 327.224C141.996 327.224 155.035 342.537 162.751 351.476C170.45 360.415 172.982 352.596 179.39 360.949C185.573 369.045 191.429 385.373 197.785 392.418C204.141 399.463 223.759 422.767 223.759 422.767C232.922 433.48 250.474 427.004 250.474 412.897V104.223C250.474 90.1165 232.922 83.6402 223.759 94.3537L142.013 189.913V327.224H141.996ZM267.371 203.693V313.428C284.268 300.665 294.12 280.84 294.12 258.552C294.12 236.264 284.285 216.439 267.371 203.675V203.693Z" fill="#8CC63F"/>
<path d="M296.48 371.801C292.225 371.801 288.023 369.889 285.249 366.237C280.547 360.037 281.753 351.201 287.936 346.498C315.788 325.33 331.755 293.172 331.755 258.242C331.755 223.311 314.72 189.517 286.214 168.711C279.927 164.129 278.549 155.31 283.148 149.023C287.73 142.736 296.548 141.359 302.835 145.957C338.593 172.052 359.951 214.045 359.951 258.242C359.951 302.439 339.919 342.382 305.006 368.924C302.456 370.853 299.459 371.801 296.497 371.801H296.48Z" fill="#8CC63F"/>
<g style="mix-blend-mode:multiply">
<path d="M162.476 411.468C168.47 415.068 171.329 411.658 179.424 419.753V151.263L162.476 411.468Z" fill="#E6E6E6"/>
</g>
<g style="mix-blend-mode:screen">
<path d="M179.424 151.263V419.753C191.567 429.76 185.074 438.803 194.633 450.291C195.908 451.807 197.613 453.237 199.129 454.58L179.424 151.263Z" fill="#333333"/>
</g>
</g>
<defs>
<clipPath id="clip0_557_3258">
<rect width="499.966" height="535" fill="white" transform="translate(17.5171)"/>
</clipPath>
</defs>
</svg>
