<svg width="535" height="535" viewBox="0 0 535 535" fill="none" xmlns="http://www.w3.org/2000/svg">
<g clip-path="url(#clip0_557_3270)">
<g style="mix-blend-mode:multiply">
<path d="M208.183 491.698C191.994 491.698 176.506 484.313 165.701 471.685L95.8917 388.299H68.7221C30.1865 388.299 0 357.551 0 317.928V237.033C0 197.2 30.1865 165.715 68.7221 165.715H96.7512L170.542 93.4675C181.61 80.5405 191.976 63.8599 208.183 63.8599C238.843 63.8599 263.803 89.3807 263.803 120.637V159.646C264.452 158.927 265.136 158.208 265.82 157.524C276.905 146.439 291.674 140.317 307.355 140.317C323.036 140.317 337.805 146.421 348.89 157.524L385.233 193.867L421.594 157.524C432.679 146.439 447.43 140.317 463.129 140.317C478.827 140.317 493.561 146.421 504.664 157.524C515.749 168.609 521.87 183.361 521.87 199.059C521.87 214.757 515.749 229.509 504.664 240.594L468.321 276.937L504.681 313.298C515.767 324.383 521.888 339.134 521.888 354.833C521.888 370.531 515.784 385.282 504.681 396.367C493.596 407.453 478.845 413.574 463.164 413.574C447.483 413.574 432.714 407.47 421.629 396.367L385.286 360.024L348.943 396.367C337.857 407.453 323.106 413.574 307.408 413.574C291.709 413.574 276.976 407.47 265.873 396.367C265.171 395.666 264.505 394.964 263.838 394.228V434.991C263.838 450.321 258.032 464.634 247.491 475.28C237.142 485.717 222.829 491.698 208.218 491.698H208.183Z" fill="#B3B3B3"/>
</g>
<path d="M220.549 471.088C204.36 471.088 188.872 463.704 178.067 451.075L108.258 367.689H81.0881C42.5525 367.689 12.366 336.942 12.366 297.318V216.423C12.366 176.59 42.5525 145.105 81.0881 145.105H109.117C109.117 145.105 138.251 111.709 149.038 97.6595C154.914 90.012 163.263 93.6604 169.35 86.6093C174.436 80.7158 177.506 63.6668 184.417 56.3C191.345 48.9331 204.342 43.3203 220.549 43.3203C251.209 43.3203 276.169 68.771 276.169 100.045V139.054C276.818 138.335 277.502 137.616 278.186 136.932C289.271 125.846 304.04 119.725 319.721 119.725C335.402 119.725 350.171 125.829 361.256 136.932L397.599 173.275L433.96 136.932C445.045 125.846 459.796 119.725 475.495 119.725C491.193 119.725 505.927 125.829 517.03 136.932C528.115 148.017 534.236 162.768 534.236 178.467C534.236 194.165 528.115 208.916 517.03 220.002L480.687 256.345L512.908 288.566C523.993 299.651 524.94 315.385 524.94 331.066C524.94 346.746 518.801 361.199 507.716 372.302C496.63 383.388 488.141 390.07 472.46 390.07C456.779 390.07 445.063 386.843 433.96 375.74L397.617 339.397L361.274 375.74C350.188 386.826 335.437 392.947 319.739 392.947C304.04 392.947 289.307 386.843 278.204 375.74C277.502 375.039 276.836 374.337 276.169 373.6V414.363C276.169 429.694 270.363 444.006 259.822 454.653C249.473 465.089 235.16 471.071 220.549 471.071V471.088Z" fill="#E6E6E6"/>
<path d="M209.394 89.9771C209.394 89.9771 192.012 110.709 183.014 121.444C180.558 124.373 175.313 139.966 168.999 147.491C165.123 152.122 160.825 147.894 156.528 153.034C142.215 170.1 127.78 187.307 127.78 187.307V327.137L209.394 424.449C218.725 435.359 234.95 428.764 234.95 414.399V100.028C234.95 85.6622 218.725 79.0671 209.394 89.9771ZM53.5852 216.424V297.319C53.5852 313.403 65.0038 326.47 81.0881 326.47H107.17V186.325H81.0881C65.0038 186.325 53.5852 200.339 53.5852 216.424ZM255.559 201.339V313.087C272.047 300.09 282.799 279.901 282.799 257.204C282.799 234.507 272.047 214.319 255.559 201.322V201.339ZM422.383 256.327L487.878 190.833C494.719 183.992 494.719 172.907 487.878 166.066C481.037 159.225 469.952 159.225 463.111 166.066L397.617 231.561L332.122 166.066C325.281 159.225 314.196 159.225 307.355 166.066C300.515 172.907 300.515 183.992 307.355 190.833L372.85 256.327L307.355 321.822C300.515 328.663 300.515 339.748 307.355 346.589C314.196 353.429 325.281 353.429 332.122 346.589L397.617 281.094L463.111 346.589C469.952 353.429 481.037 353.429 487.878 346.589C494.719 339.748 494.719 328.663 487.878 321.822L422.383 256.327Z" fill="#FF0000"/>
<g style="mix-blend-mode:multiply">
<path d="M524.94 331.066C524.94 315.367 523.993 299.634 512.908 288.566L511.873 287.531L501.787 377.933C503.717 376.196 505.663 374.355 507.716 372.32C518.819 361.217 524.94 346.764 524.94 331.083V331.066Z" fill="#E6E6E6"/>
</g>
<g style="mix-blend-mode:screen">
<path d="M184.417 56.3174C177.488 63.6842 174.419 80.7683 169.35 86.6617C169.245 86.7845 169.122 86.8898 168.999 87.0126V332.714L184.417 56.3174Z" fill="#333333"/>
</g>
<g style="mix-blend-mode:multiply">
<path d="M154.177 93.678L168.999 328.61V87.0303C164.596 91.8012 159.088 91.3802 154.177 93.678Z" fill="#E6E6E6"/>
</g>
</g>
<defs>
<clipPath id="clip0_557_3270">
<rect width="534.219" height="448.395" fill="white" transform="translate(0 43.3027)"/>
</clipPath>
</defs>
</svg>
