<svg width="16" height="16" viewBox="0 0 16 16" fill="none" xmlns="http://www.w3.org/2000/svg">
<path fill-rule="evenodd" clip-rule="evenodd" d="M13.5066 1.5C13.2409 1.5 12.986 1.60553 12.798 1.79339L13.1521 2.14769L12.7979 1.79351L12.0888 2.50256C11.8932 2.69816 11.8932 3.01528 12.0887 3.21093L12.7978 3.92029C12.8918 4.01429 13.0192 4.06709 13.1521 4.06709C13.285 4.06709 13.4124 4.01429 13.5064 3.92029L14.2155 3.21093L14.2155 3.21089C14.4034 3.0229 14.5089 2.76802 14.5089 2.50225C14.5089 2.23649 14.4034 1.98161 14.2155 1.79362L13.8612 2.14773L14.2153 1.79339C14.0273 1.60553 13.7724 1.5 13.5066 1.5ZM13.1514 2.85686L13.5062 2.50207L13.5068 2.50268L13.1521 2.85755L13.1514 2.85686ZM11.7363 3.56072C11.6423 3.46671 11.5147 3.41392 11.3818 3.414C11.2488 3.41407 11.1214 3.467 11.0274 3.56112L2.36525 12.2427C2.3284 12.2796 2.29755 12.3221 2.27381 12.3685L1.5549 13.7751C1.45602 13.9685 1.49312 14.2037 1.64675 14.3573C1.80039 14.5109 2.03554 14.548 2.22899 14.4491L3.63523 13.7302C3.68166 13.7065 3.7241 13.6756 3.76102 13.6388L12.4429 4.97659C12.537 4.88269 12.59 4.75521 12.59 4.62225C12.5901 4.4893 12.5373 4.36176 12.4433 4.26775L11.7363 3.56072Z" fill="white"/>
</svg>
