<svg width="196" height="282" viewBox="0 0 196 282" fill="none" xmlns="http://www.w3.org/2000/svg">
<path opacity="0.3" d="M195.142 276.891C195.142 279.231 151.467 281.132 97.598 281.132C43.7289 281.132 0.0537109 279.231 0.0537109 276.891C0.0537109 274.552 43.7289 272.651 97.598 272.651C151.467 272.651 195.142 274.552 195.142 276.891Z" fill="#717374"/>
<path d="M160.431 265.83L162.452 240.06H143.91C147.052 252.659 150.776 264.698 150.776 264.698C150.776 264.698 151.061 265.731 151.534 267.104C151.16 267.807 149.534 271.036 149.501 273.288H173.228C172.91 273.146 172.58 273.003 172.196 272.849C169.417 271.718 163.551 267.928 160.409 265.83H160.431Z" fill="#E9A879"/>
<path d="M165.99 267.939C165.99 267.939 167.912 263.139 165.583 262.04C163.254 260.942 161.321 262.886 160.431 265.819C160.431 265.819 156.663 270.949 155.027 270.125C153.379 269.301 151.05 266.017 151.05 266.017C151.05 266.017 149.128 269.038 149.128 270.125C149.128 270.125 147.898 273.827 148.722 275.475H177.238C177.238 275.475 177.512 272.728 173.679 271.641C169.845 270.542 166 267.939 166 267.939H165.99Z" fill="#28466D"/>
<path d="M160.432 265.831L162.453 240.061H143.911C147.052 252.66 150.776 264.699 150.776 264.699C150.776 264.699 151.062 265.732 151.534 267.105C151.161 267.808 149.535 271.037 149.502 273.289H173.229C172.91 273.147 172.581 273.004 172.196 272.85C169.417 271.719 163.551 267.929 160.41 265.831H160.432Z" fill="#E9A879"/>
<path d="M165.99 267.94C165.99 267.94 167.912 263.14 165.584 262.041C163.255 260.943 161.322 262.887 160.432 265.82C160.432 265.82 156.664 270.95 155.027 270.126C153.38 269.302 151.051 266.018 151.051 266.018C151.051 266.018 149.128 269.038 149.128 270.126C149.128 270.126 147.898 273.828 148.722 275.476H177.238C177.238 275.476 177.513 272.729 173.679 271.642C169.846 270.543 166.001 267.94 166.001 267.94H165.99Z" fill="#28466D"/>
<path d="M98.137 265.831L96.1158 240.061H114.658C111.516 252.66 107.793 264.699 107.793 264.699C107.793 264.699 107.507 265.732 107.035 267.105C107.408 267.808 109.034 271.037 109.067 273.289H85.3398C85.6584 273.147 85.9879 273.004 86.3724 272.85C89.1515 271.719 95.0174 267.929 98.159 265.831H98.137Z" fill="#E9A879"/>
<path d="M92.5788 267.94C92.5788 267.94 90.6565 263.14 92.9853 262.041C95.314 260.943 97.2473 262.887 98.1371 265.82C98.1371 265.82 101.905 270.95 103.542 270.126C105.189 269.302 107.518 266.018 107.518 266.018C107.518 266.018 109.44 269.038 109.44 270.126C109.44 270.126 110.671 273.828 109.847 275.476H81.3305C81.3305 275.476 81.0559 272.729 84.8895 271.642C88.7232 270.543 92.5678 267.94 92.5678 267.94H92.5788Z" fill="#28466D"/>
<path d="M88.7005 80.0225L80.9453 97.0378C80.429 98.1692 80.429 99.4654 80.9453 100.597C83.1972 105.562 89.6892 119.491 94.0611 124.203L97.1478 117.931L91.1831 98.8063L99.1031 84.6141L88.7225 80.0225H88.7005Z" fill="#E9A879"/>
<path d="M143.888 80.0225L151.643 97.0378C152.159 98.1692 152.159 99.4654 151.643 100.597C149.391 105.562 140.922 121.094 136.561 125.807L133.496 119.71L141.416 98.8063L133.496 84.6141L143.877 80.0225H143.888Z" fill="#E9A879"/>
<path d="M102.882 102.111C102.882 102.111 89.1289 117.248 88.4039 141.382C87.679 165.515 91.7982 244.297 91.7982 244.297L118.008 247.45C118.008 247.45 113.856 218.363 113.131 188.056C112.406 157.749 114.284 131.122 114.284 131.122L115.679 131.056C115.679 131.056 128.894 185.628 129.871 189.989C130.838 194.35 138.846 247.45 138.846 247.45L172.064 245.758L152.049 181.026C152.049 181.026 145.228 144.864 142.789 135.933C139.582 124.202 127.762 102.111 127.762 102.111H102.915H102.882Z" fill="#28466D"/>
<path d="M127.729 96.1035H102.882V102.112H127.729V96.1035Z" fill="#1C2238"/>
<path d="M116.986 131.441L109.506 130.441" stroke="#2F221D" stroke-width="0.5" stroke-miterlimit="10"/>
<path d="M95.2259 64.8955C95.2259 64.8955 89.8214 65.7413 84.1533 81.6911C84.1533 81.6911 93.04 91.819 101.114 91.6213L95.2259 64.8955Z" fill="#B2D6F0"/>
<path d="M136.309 59.0078C136.309 59.0078 140.198 58.3597 143.713 66.719C147.228 75.0784 152.193 83.976 152.193 83.976C152.193 83.976 143.361 91.4237 133.508 91.1161L130.476 77.3303L136.309 59.0188V59.0078Z" fill="#B2D6F0"/>
<path d="M102.882 61.5013L95.2261 64.8846L99.0597 92.4232C99.0597 92.4232 98.4666 95.2243 102.893 96.1031H128.949C128.949 96.1031 132.926 94.9278 133.519 91.0941C134.112 87.2604 136.32 58.9968 136.32 58.9968L128.949 58.5244L102.893 61.5013H102.882Z" fill="#B2D6F0"/>
<path d="M97.1372 77.3203L98.8838 91.1171" stroke="#2F221D" stroke-width="0.5" stroke-miterlimit="10"/>
<path d="M135.397 76.2314L133.508 91.1157" stroke="#2F221D" stroke-width="0.5" stroke-miterlimit="10"/>
<path d="M121.095 60.1632L119.711 47.7944C119.711 47.7944 118.283 49.2444 116.393 49.6069C114.504 49.9694 112.658 48.8489 112.636 48.8379C112.614 48.827 111.088 47.5527 111.088 47.5527L110.253 60.317C110.253 60.4488 110.242 60.5916 110.22 60.7124L121.128 60.5147C121.106 60.3939 121.095 60.284 121.095 60.1632Z" fill="#E9A879"/>
<path d="M127.729 31.8765C127.729 38.7309 122.391 44.3002 115.811 44.3002C109.231 44.3002 103.893 38.7419 103.893 31.8765C103.893 25.011 109.231 20.3535 115.811 20.3535C122.391 20.3535 127.729 25.022 127.729 31.8765Z" fill="#1C2238"/>
<path d="M125.664 32.5249C125.664 36.7979 125.071 40.4888 124.478 43.1141C123.895 45.6736 122.259 47.4751 119.952 48.9141L119.534 49.1777C117.085 50.7046 113.932 50.7375 111.439 49.2656C108.934 47.7826 107.177 45.8274 106.638 43.0702C105.661 38.0612 105.551 32.5249 105.551 32.5249C105.551 32.5249 104.617 21.7269 115.47 21.9356C126.323 22.1443 125.675 32.5249 125.675 32.5249H125.664Z" fill="#E9A879"/>
<path d="M105.682 34.6667C105.682 34.6667 110.021 30.0091 109.022 24.0664C109.022 24.0664 105.803 25.6921 104.968 29.8663C104.134 34.0405 105.693 34.6557 105.693 34.6557L105.682 34.6667Z" fill="#1C2238"/>
<path d="M107.231 25.8235C107.231 25.8235 111.977 34.2378 127.29 34.4245C127.29 34.4245 128.498 21.5285 117.996 20.5288C117.996 20.5288 109.802 19.9027 107.231 25.8235Z" fill="#1C2238"/>
<path d="M111.977 57.2402L102.882 61.5133C102.882 61.5133 104.442 67.2693 116.031 66.6761C127.619 66.0829 128.938 58.5364 128.938 58.5364L117.063 57.2402H111.977Z" fill="#E9A879"/>
<path d="M128.74 31.3492C127.817 24.2531 125.675 21.9353 120.93 20.0899C112.537 16.8164 107.968 22.5724 107.968 22.5724C107.968 22.5724 102.728 21.0675 101.663 33.2276C100.806 42.9491 98.0375 41.7298 97.686 52.5168H133.496C133.496 41.4661 130.41 44.3002 128.729 31.3492H128.74Z" fill="#1C2238"/>
<path d="M65.622 41.4337C62.1948 37.9845 63.9853 27.1645 63.9853 27.1645L49.6612 21.9688L35.3372 27.1645C35.3372 27.1645 37.1276 37.9845 33.7004 41.4337C30.3281 44.8279 27.2963 51.1551 33.1182 57.4933C38.9291 63.8315 49.6722 60.2724 49.6722 60.2724C49.6722 60.2724 60.4043 63.8425 66.2152 57.4933C72.0261 51.1551 68.9943 44.817 65.633 41.4337H65.622Z" fill="#1C2238"/>
<path d="M16.8722 96.5762L7.77686 143.118L12.9836 144.612L26.4399 97.5538L16.8722 96.5762Z" fill="#8E3E30"/>
<path d="M7.74414 155.455C7.74414 155.455 8.23843 161.288 8.4801 162.002C8.72176 162.716 9.63349 164.045 9.95205 164.012C10.2706 163.979 9.67743 161.881 9.67743 161.881L9.74333 154.84L7.74414 155.466V155.455Z" fill="#8E3E30"/>
<path d="M13.3788 142.58C13.3788 142.58 9.19361 140.69 7.95233 142.481C6.70008 144.271 4.79974 153.696 5.01943 155.234C5.23913 156.772 6.37055 164.659 7.13948 164.945C7.90841 165.23 8.83113 156.212 8.83113 156.212C8.83113 156.212 8.98492 154.729 10.4459 155.487C10.4459 155.487 13.4337 152.224 13.6644 150.544C13.8951 148.863 13.8182 144.546 13.3678 142.569L13.3788 142.58Z" fill="#8E3E30"/>
<path d="M9.92969 153.697C9.92969 153.697 10.9732 157.267 10.9403 158.003C10.9073 158.739 11.3248 160.353 11.863 160.112C12.4013 159.87 14.0599 151.785 13.5437 150.094C13.0274 148.402 10.5119 149.49 10.5119 149.49L9.92969 153.686V153.697Z" fill="#8E3E30"/>
<path d="M59.811 253.778L60.6239 272.068L52.2755 272.969L51.4736 253.734L59.811 253.778Z" fill="#8E3E30"/>
<path d="M66.534 269.311C66.534 269.311 68.5662 264.225 66.0946 263.06C63.6231 261.896 61.5799 263.961 60.6352 267.07C60.6352 267.07 56.6478 272.507 54.9012 271.64C53.1546 270.772 50.6831 267.279 50.6831 267.279C50.6831 267.279 48.6509 270.475 48.6509 271.64C48.6509 271.64 47.3437 275.561 48.2115 277.308H78.4524C78.4524 277.308 78.738 274.397 74.6737 273.232C70.5984 272.068 66.534 269.311 66.534 269.311Z" fill="#FF4F59"/>
<path d="M33.2396 253.778L32.4268 272.068L40.7861 272.969L41.577 253.734L33.2396 253.778Z" fill="#8E3E30"/>
<path d="M26.5277 269.311C26.5277 269.311 24.4956 264.225 26.9671 263.06C29.4387 261.896 31.4818 263.961 32.4265 267.07C32.4265 267.07 36.4139 272.507 38.1605 271.64C39.9071 270.772 42.3787 267.279 42.3787 267.279C42.3787 267.279 44.4108 270.475 44.4108 271.64C44.4108 271.64 45.718 275.561 44.8502 277.308H14.6093C14.6093 277.308 14.3237 274.397 18.388 273.232C22.4634 272.068 26.5277 269.311 26.5277 269.311Z" fill="#FF4F59"/>
<path d="M34.8435 105.627C34.8435 105.627 23.0459 113.097 25.3747 147.205C27.7035 181.312 31.3064 261.413 31.3064 261.413H43.3457L47.421 134.429L49.3983 134.341L49.3434 261.413H61.3826L70.8514 144.656C70.8514 144.656 73.6305 121.896 62.4701 105.627C62.4701 105.627 49.5521 97.1252 34.8435 105.627Z" fill="#5B7FCE"/>
<path d="M43.5981 134.198L54.2313 134.758" stroke="#2F221D" stroke-width="0.5" stroke-miterlimit="10"/>
<path d="M35.9199 114.854L29.1753 131.429" stroke="#2F221D" stroke-width="0.5" stroke-miterlimit="10"/>
<path d="M34.8438 99.695V105.627C34.8438 105.627 48.6625 104.067 62.4703 105.627V99.695L48.6296 95.6855L34.8438 99.695Z" fill="#1C2238"/>
<path d="M32.2289 85.6461L29.9331 71.333" stroke="#B82F4C" stroke-width="0.99" stroke-miterlimit="10"/>
<path d="M74.7614 15.058C74.7614 15.058 75.058 7.69825 74.7614 7.24788C74.4648 6.80849 73.4981 5.90774 72.7512 5.95168C72.0042 5.99562 70.6531 5.74297 70.6531 5.74297C70.6531 5.74297 70.0709 0.569172 69.5327 0.42637C68.9944 0.283569 68.7637 6.20433 68.7637 6.20433C68.7637 6.20433 67.9838 8.7418 68.1596 10.005C68.3353 11.2573 70.2576 15.3656 70.2576 15.3656L74.7614 15.069V15.058Z" fill="#8E3E30"/>
<path d="M71.1695 50.0226L69.9502 14.4541L74.7615 15.0583L80.2868 46.1889L71.1695 50.0226Z" fill="#8E3E30"/>
<path d="M79.7704 35.337L68.4781 34.4473L68.0937 47.7607C65.0948 49.7929 61.5138 53.2201 59.976 54.736L56.4279 53.8463C56.4279 53.8463 55.2855 52.3194 54.5276 52.1986C54.5276 52.1986 51.8692 57.7788 47.6731 57.3943C43.4879 57.0099 42.7299 52.0667 42.7299 52.0667C42.7299 52.0667 39.808 53.5936 39.5554 54.3516C39.5554 54.3516 34.8649 56.7572 31.6903 57.5261C28.5157 58.2841 23.8253 62.0958 23.5726 63.359C23.32 64.6223 14.3125 101.41 14.3125 101.41L25.9783 106.606L32.9536 86.6906C32.9536 86.6906 31.0532 97.0931 30.9214 100.52C30.9214 100.52 48.5518 104.453 66.3141 101.531C66.3141 101.531 68.9834 78.7926 69.9281 75.1127C75.6841 69.7961 80.5613 51.7043 81.0227 49.3975C81.528 46.86 79.7594 35.3151 79.7594 35.3151L79.7704 35.337Z" fill="#FFD000"/>
<path d="M33.4148 86.7552C33.4148 86.7552 30.1633 77.3852 32.1845 65.6426" stroke="#2F221D" stroke-width="0.5" stroke-miterlimit="10"/>
<path d="M60.6353 55.0879L68.8848 73.1907" stroke="#2F221D" stroke-width="0.5" stroke-miterlimit="10"/>
<path d="M55.4504 55.6701L53.9345 42.082C53.9345 42.082 52.3637 43.6858 50.2876 44.0702C48.2005 44.4547 46.1903 43.2354 46.1683 43.2244C46.1463 43.2134 44.4657 41.8184 44.4657 41.8184L43.543 55.8458C43.543 55.9996 43.532 56.1424 43.499 56.2852L55.4834 56.0655C55.4614 55.9337 55.4504 55.8129 55.4504 55.6811V55.6701Z" fill="#8E3E30"/>
<path d="M60.481 25.0224C60.481 29.614 59.8329 33.5685 59.1738 36.3806C58.5367 39.1268 56.7352 41.0491 54.1978 42.598L53.7364 42.8836C51.0452 44.5203 47.574 44.5532 44.8498 42.9824C42.0926 41.3896 40.1703 39.2916 39.5771 36.3367C38.5006 30.9651 38.3798 25.0224 38.3798 25.0224C38.3798 25.0224 37.3582 13.4445 49.2766 13.6642C61.1951 13.8839 60.492 25.0224 60.492 25.0224H60.481Z" fill="#8E3E30"/>
<path d="M39.654 36.1274C37.545 37.8739 33.1511 30.9865 35.1832 29.1081C37.2264 27.2407 38.7643 30.8987 38.7643 30.8987L39.0499 32.4475L39.654 35.3804L39.8078 36.0395L39.643 36.1164L39.654 36.1274Z" fill="#8E3E30"/>
<path d="M59.2841 36.1274C61.3932 37.8739 65.7871 30.9865 63.7549 29.1081C61.7118 27.2407 60.1739 30.8987 60.1739 30.8987L59.8883 32.4475L59.2841 35.3804L59.1304 36.0395L59.2951 36.1164L59.2841 36.1274Z" fill="#8E3E30"/>
<path d="M46.9038 17.4534C46.9038 17.4534 50.8253 25.2306 62.2714 27.3946C62.2714 27.3946 63.6006 13.2243 52.0556 12.1258C52.0556 12.1258 49.7159 10.9505 46.9038 17.4534Z" fill="#1C2238"/>
<path d="M50.8256 17.4531C50.8256 17.4531 46.904 24.5822 36.9738 27.3942C36.9738 27.3942 35.8863 15.2891 47.2555 12.6308C47.2555 12.6308 49.4305 11.3016 50.8256 17.4531Z" fill="#1C2238"/>
<path d="M49.3538 51.165L37.9077 56.3938C37.9077 56.3938 38.2592 61.3918 50.0898 61.4138C60.1627 61.4248 61.404 55.7127 61.404 55.7127L49.3538 51.165Z" fill="#8E3E30"/>
<path d="M64.0949 25.307C64.0949 33.6115 57.6359 40.3451 49.6609 40.3451C41.686 40.3451 35.2271 33.6115 35.2271 25.307C35.2271 17.0026 41.686 11.3564 49.6609 11.3564C57.6359 11.3564 64.0949 17.0026 64.0949 25.307Z" fill="#1C2238"/>
<path d="M65.622 41.4337C62.1948 37.9845 63.9853 27.1645 63.9853 27.1645L49.6612 21.9688L35.3372 27.1645C35.3372 27.1645 37.1276 37.9845 33.7004 41.4337C30.3281 44.8279 27.2963 51.1551 33.1182 57.4933C38.9291 63.8315 60.4043 63.8315 66.2152 57.4933C72.0261 51.1551 68.9943 44.817 65.633 41.4337H65.622Z" fill="#1C2238"/>
</svg>
