<svg width="106" height="260" viewBox="0 0 106 260" fill="none" xmlns="http://www.w3.org/2000/svg">
<path opacity="0.3" d="M105.332 256.183C105.332 257.775 81.9674 259.061 53.1435 259.061C24.3196 259.061 0.955078 257.775 0.955078 256.183C0.955078 254.59 24.3196 253.305 53.1435 253.305C81.9674 253.305 105.332 254.59 105.332 256.183Z" fill="#717374"/>
<path d="M14.9172 73.2969L15.2907 87.3353C15.2907 87.3353 8.97448 105.559 11.3692 114.16C13.7638 122.761 19.3331 126.628 19.3331 126.628L22.4637 113.71C20.9588 111.381 16.6857 111.798 16.6857 111.798L23.6611 89.4005C23.9137 88.4777 24.0785 87.5221 24.1224 86.5664L25.9898 73.3079H14.8952L14.9172 73.2969Z" fill="#E9A879"/>
<path d="M23.2328 111.184L18.8169 129.242" stroke="#3A5B9F" stroke-width="1.02" stroke-miterlimit="10"/>
<path d="M76.9474 66.8174L78.4193 88.9955C78.4193 88.9955 77.7712 110.767 75.3765 119.368C72.9819 127.969 67.4017 131.836 67.4017 131.836L64.271 118.918C65.7759 116.589 70.049 117.007 70.049 117.007L68.5441 91.0606C68.2914 90.1379 68.1377 89.1823 68.0827 88.2266L65.0289 68.7836L76.9583 66.8174H76.9474Z" fill="#E9A879"/>
<path d="M63.1724 114.403L67.9068 134.439" stroke="#3A5B9F" stroke-width="1.02" stroke-miterlimit="10"/>
<path d="M79.133 244.549L77.3645 233.861L65.4351 234.169C67.0059 239.639 68.1263 243.253 68.1263 243.253C68.1263 243.253 68.4558 244.429 68.9941 245.988C68.5657 246.79 66.7093 250.481 66.6763 253.052H93.7537C93.3912 252.887 93.0177 252.722 92.5783 252.546C89.4037 251.261 82.714 246.922 79.133 244.538V244.549Z" fill="#E9A879"/>
<path d="M85.4712 246.966C85.4712 246.966 87.6572 241.496 84.9989 240.244C82.3406 238.991 80.1327 241.21 79.1221 244.561C79.1221 244.561 74.8271 250.415 72.9487 249.471C71.0703 248.537 68.412 244.78 68.412 244.78C68.412 244.78 66.226 248.219 66.226 249.471C66.226 249.471 64.82 253.689 65.7537 255.567H98.2904C98.2904 255.567 98.598 252.437 94.2261 251.184C89.8432 249.932 85.4712 246.966 85.4712 246.966Z" fill="#FF4F59"/>
<path d="M31.4708 244.549L33.2393 233.861L45.1687 234.169C43.5978 239.639 42.4775 243.253 42.4775 243.253C42.4775 243.253 42.1479 244.429 41.6096 245.988C42.038 246.79 43.8945 250.481 43.9274 253.052H16.8501C17.2126 252.887 17.5861 252.722 18.0255 252.546C21.2001 251.261 27.8897 246.922 31.4708 244.538V244.549Z" fill="#E9A879"/>
<path d="M25.1329 246.966C25.1329 246.966 22.9469 241.496 25.6052 240.244C28.2635 238.991 30.4715 241.21 31.4821 244.561C31.4821 244.561 35.7771 250.415 37.6555 249.471C39.5339 248.537 42.1922 244.78 42.1922 244.78C42.1922 244.78 44.3781 248.219 44.3781 249.471C44.3781 249.471 45.7842 253.689 44.8505 255.567H12.3138C12.3138 255.567 12.0062 252.437 16.3781 251.184C20.761 249.932 25.1329 246.966 25.1329 246.966Z" fill="#FF4F59"/>
<path d="M20.9693 105.176C20.9693 105.176 12.7418 119.115 19.1239 154.607C25.495 190.099 31.8661 239.618 31.8661 239.618L46.0584 238.684L41.6425 133.264L43.7077 133.516L65.4025 237.344L78.9906 235.597L71.9384 151.564C71.9384 151.564 68.9175 120.247 65.9077 110.976L20.9693 105.176Z" fill="#5B7FCE"/>
<path d="M49.8704 134.44L38.1826 132.342" stroke="#2F221D" stroke-width="0.5" stroke-miterlimit="10"/>
<path d="M25.1436 50.1426C25.1436 50.1426 11.5226 52.021 12.2805 76.462L30.9325 79.296L25.1436 50.1426Z" fill="#FF4F59"/>
<path d="M66.4788 41.9477C66.4788 41.9477 80.1657 39.1026 78.9464 69.5083L61.4697 74.5393L66.4678 41.9477H66.4788Z" fill="#FF4F59"/>
<path d="M39.4565 43.542L25.1324 50.1438L29.1529 84.9214L20.9692 105.166C20.9692 105.166 52.6381 116.437 65.9077 110.966L64.9081 85.7672L66.4789 41.9492L39.4565 43.542Z" fill="#FF4F59"/>
<path d="M28.5051 79.3072C28.5051 79.3072 25.1108 70.7721 26.5059 59.8203" stroke="#2F221D" stroke-width="0.5" stroke-miterlimit="10"/>
<path d="M65.5456 54.8779L65.1611 73.2993" stroke="#2F221D" stroke-width="0.5" stroke-miterlimit="10"/>
<path d="M48.9253 44.2988L46.9371 30.9414C46.9371 30.9414 45.4431 32.5781 43.4109 33.0285C41.3678 33.4899 39.3356 32.3584 39.3137 32.3474C39.2917 32.3365 37.5891 31.0183 37.5891 31.0183L37.1826 44.892C37.1826 45.0348 37.1826 45.1886 37.1606 45.3314C37.1606 45.3314 38.9951 47.9787 43.6636 47.8908C48.3321 47.792 48.9802 44.6833 48.9802 44.6833C48.9582 44.5625 48.9363 44.4306 48.9363 44.2988H48.9253Z" fill="#E9A879"/>
<path d="M55.4283 13.3436C55.7029 21.0219 49.9579 27.4589 42.5982 27.7226C35.2384 27.9862 29.0321 21.9885 28.7574 14.3102C28.4828 6.63191 34.2607 1.19448 41.6205 0.930846C48.9912 0.667213 55.1537 5.66526 55.4283 13.3436Z" fill="#1C2238"/>
<path d="M52.8035 14.1562C52.9683 18.7918 52.474 22.8122 51.9357 25.6792C51.4085 28.4803 49.7058 30.4905 47.2562 32.1492L46.8059 32.4458C44.2135 34.1923 40.7862 34.3571 38.04 32.8632C35.2609 31.3583 33.2837 29.3041 32.5917 26.3383C31.3284 20.9558 30.9989 14.9471 30.9989 14.9471C30.9989 14.9471 29.5598 3.28135 41.3355 3.08363C53.1111 2.8859 52.8145 14.1562 52.8145 14.1562H52.8035Z" fill="#E9A879"/>
<path d="M44.0042 1.45834C44.0042 1.45834 36.1392 1.15077 33.0745 6.51131C29.7461 7.70864 30.1415 14.651 30.1415 14.651C30.1415 14.651 46.1573 15.2551 54.6265 15.0464C54.6265 15.0464 55.4284 2.12841 43.9933 1.45834H44.0042Z" fill="#1C2238"/>
<path d="M61.7445 35.9938C57.1748 29.8534 55.4392 13.9804 55.4392 13.9804L42.2905 10.4873L42.0599 13.3214L41.8292 10.4873L28.7354 14.0024C28.7354 14.0024 29.8339 25.4265 25.2533 31.556C17.52 41.9365 9.32539 58.5454 23.1551 63.3128C29.8339 65.6196 39.4345 62.4889 42.0489 61.8518C44.6742 62.478 48.9253 62.4999 55.604 60.1931C69.4337 55.4148 69.4557 46.3524 61.7225 35.9718L61.7445 35.9938Z" fill="#1C2238"/>
</svg>
