<svg width="215" height="276" viewBox="0 0 215 276" fill="none" xmlns="http://www.w3.org/2000/svg">
<path opacity="0.3" d="M124.92 272.355C124.92 273.981 96.9855 275.288 62.5375 275.288C28.0894 275.288 0.155273 273.97 0.155273 272.355C0.155273 270.74 28.0894 269.422 62.5375 269.422C96.9855 269.422 124.92 270.74 124.92 272.355Z" fill="#717374"/>
<path d="M37.6462 270.432H63.9876C63.3065 270.037 62.4058 269.587 61.2085 269.092C58.3634 267.928 52.3987 263.908 49.2022 261.689L52.0802 233.612L36.0425 232.799C38.9315 246.607 39.4917 261.787 39.9421 263.281C39.5137 264.105 37.5694 267.972 37.6462 270.432Z" fill="#E9A879"/>
<path d="M58.3522 262.139C58.3522 262.139 60.7908 256.042 57.8249 254.647C54.87 253.252 52.4095 255.724 51.289 259.448C51.289 259.448 46.5107 265.962 44.4236 264.918C42.3365 263.875 39.3706 259.689 39.3706 259.689C39.3706 259.689 36.932 263.523 36.932 264.918C36.932 264.918 35.3612 269.62 36.4047 271.707H72.6213C72.6213 271.707 72.9729 268.224 68.0956 266.829C63.2184 265.434 58.3412 262.128 58.3412 262.128L58.3522 262.139Z" fill="#28466D"/>
<path d="M36.8554 249.089L52.5525 249.265C53.0468 244.904 58.3854 197.68 58.3854 193.638C58.3854 189.398 56.7597 107.199 56.7597 107.199L38.8216 98.3896C38.8216 98.3896 28.7047 125.786 29.0342 139.165C29.3638 152.533 35.5592 202.448 35.5592 202.448C35.5592 202.448 32.6262 231.48 36.8663 249.089H36.8554Z" fill="#28466D"/>
<path d="M55.9465 270.474H82.2879C81.6068 270.079 80.7061 269.629 79.5088 269.134C76.6637 267.97 70.699 263.95 67.5025 261.731L70.3805 233.654L54.3428 232.841C57.2318 246.649 57.792 261.829 58.2424 263.323C57.8139 264.147 55.8696 268.014 55.9465 270.474Z" fill="#E9A879"/>
<path d="M76.6418 262.181C76.6418 262.181 79.0803 256.084 76.1145 254.689C73.1596 253.294 70.699 255.766 69.5786 259.49C69.5786 259.49 64.8002 266.004 62.7131 264.96C60.626 263.917 57.6602 259.731 57.6602 259.731C57.6602 259.731 55.2216 263.565 55.2216 264.96C55.2216 264.96 53.6507 269.662 54.6943 271.749H90.9109C90.9109 271.749 91.2624 268.266 86.3852 266.871C81.508 265.476 76.6308 262.17 76.6308 262.17L76.6418 262.181Z" fill="#28466D"/>
<path d="M54.7937 204.073C54.7937 204.073 51.2017 226.58 51.5312 231.468C51.7839 235.247 53.2009 244.661 53.838 248.758H69.667C71.128 233.676 80.5968 136.297 80.8934 133.287C81.2229 130.025 73.0613 96.752 73.0613 96.752L38.8109 98.3777C38.8109 98.3777 30.6603 115.668 30.9788 121.533C31.3084 127.399 48.9169 134.254 48.9169 134.254L54.7827 204.062L54.7937 204.073Z" fill="#28466D"/>
<path d="M37.8662 128.783L48.5324 134.517L55.3868 202.084L51.3445 230.161L54.2554 248.659" stroke="#2F221D" stroke-width="0.5" stroke-miterlimit="10"/>
<path d="M83.3537 103.08C83.3537 103.08 88.879 109.693 89.0438 114.702C89.2085 119.711 90.7354 154.577 86.0999 153.61C81.4643 152.643 74.478 122.523 73.753 117.251C73.2148 113.329 75.917 100.807 75.917 100.807L83.3537 103.069V103.08Z" fill="#E9A879"/>
<path d="M86.4184 160.442C86.4184 160.442 85.4737 165.177 85.2101 165.737C84.9464 166.297 84.0786 167.297 83.826 167.242C83.5733 167.187 84.2434 165.517 84.2434 165.517L84.8476 159.739L86.4184 160.442Z" fill="#E6965F"/>
<path d="M83.0135 149.359C83.0135 149.359 87.0888 149.195 87.9456 150.776C88.8024 152.358 88.9782 159.279 88.6486 160.52C88.3191 161.761 86.6714 168.121 86.0233 168.275C85.3642 168.44 85.4521 160.959 85.4521 160.959C85.4521 160.959 85.463 159.729 84.1998 160.212C84.1998 160.212 82.0688 157.257 82.0358 155.862C82.0029 154.467 82.4752 150.93 83.0135 149.359Z" fill="#E9A879"/>
<path d="M84.7927 158.807C84.7927 158.807 83.6063 161.63 83.5624 162.245C83.5185 162.849 83.0351 164.134 82.6177 163.893C82.2003 163.651 81.6071 156.862 82.1783 155.522C82.7605 154.182 84.7048 155.313 84.7048 155.313L84.7927 158.807Z" fill="#E9A879"/>
<path d="M49.8613 37.6982C54.2333 38.2255 58.8688 38.0717 63.1968 37.2808C63.735 37.182 64.2623 37.0721 64.7896 36.9513C63.3506 34.9521 62.3729 32.6123 62.0214 30.0858C61.9995 29.965 61.9995 29.8991 61.9995 29.8991L56.6829 30.2286L51.3113 26.1094C51.3113 26.1094 50.4765 34.26 48.3125 37.4346C48.8178 37.5335 49.3231 37.6214 49.8504 37.6873L49.8613 37.6982Z" fill="#E9A879"/>
<path d="M62.7461 33.0179C60.2965 33.677 57.2757 33.4902 54.5405 31.535C53.1455 30.5244 52.036 29.0634 51.1572 27.4816C51.1902 27.2399 51.2121 27.0312 51.2341 26.8555C51.8163 27.5914 52.4644 28.2395 53.2004 28.7668C56.1663 30.8978 59.4836 30.9198 62.0211 30.063C62.0211 30.063 62.0211 30.074 62.0211 30.096C62.1639 31.0956 62.4056 32.0842 62.7351 33.0179H62.7461Z" fill="#1C2238"/>
<path d="M89.692 115.031C89.692 115.031 77.6308 116.668 72.8964 115.031C72.8964 115.031 72.7316 111.769 73.2149 111.121C73.4676 110.78 72.9953 104.947 72.5009 99.5427H37.0862C37.0862 98.7628 37.1741 97.906 37.4927 97.5874C37.987 97.0931 38.9536 87.5913 39.393 83.0217L34.406 90.711L33.8128 91.6227L31.0446 95.8958L30.4515 96.8075L28.0458 100.52C29.8473 101.015 31.1435 106.551 31.1435 106.551C31.1435 106.551 18.7418 117.316 17.6103 117.162C16.4679 116.997 16.7865 115.042 13.6998 112.593C10.6021 110.143 10.6021 100.191 11.4149 95.7859C11.5907 94.8522 12.2059 92.6004 13.0846 89.5686C13.1835 89.2281 13.2933 88.8875 13.3922 88.525C14.4797 84.8671 15.8967 80.2535 17.3796 75.5631C17.5005 75.2225 17.5993 74.871 17.7092 74.5305C19.0383 70.3343 20.4224 66.1052 21.6637 62.4363C21.7845 62.0848 21.8944 61.7443 22.0152 61.4038C23.4212 57.2515 24.6296 53.9232 25.3436 52.3414C25.3875 52.2535 25.4095 52.1766 25.4534 52.0997C25.5742 51.8581 25.6951 51.6054 25.8598 51.3637C28.9136 46.2668 37.6904 43.29 37.6904 43.29C40.7771 41.6533 47.4778 38.7203 47.9611 36.4355C48.4554 34.1507 47.6315 30.8882 48.2796 29.7458C48.9387 28.6144 52.6845 32.0306 54.8046 32.1954C56.9136 32.3602 61 30.8992 62.7905 30.8992C64.581 30.8992 66.0639 31.2178 66.2177 32.8545C66.3825 34.4912 66.0639 37.7427 66.0639 37.7427C66.0639 37.7427 70.0733 41.5983 73.3358 42.4442C73.3577 42.4442 73.3797 42.4442 73.4017 42.4661C73.6983 42.543 74.0168 42.6419 74.3574 42.7847C75.5437 43.2351 76.9717 43.993 78.3778 44.9157C80.2452 46.0032 82.2773 47.3983 83.7932 49.035C84.0459 49.2986 84.2875 49.5732 84.4962 49.8479C85.1663 50.7047 85.6936 51.6274 85.9572 52.583C86.2977 53.8243 86.6602 56.6584 87.0118 60.4151C87.0557 60.7776 87.0777 61.1511 87.1216 61.5356C87.3852 64.5234 87.6379 68.0056 87.8795 71.6635C87.9015 72.037 87.9235 72.3995 87.9454 72.7729C88.2091 76.9142 88.4507 81.2422 88.6485 85.3505C88.6704 85.7239 88.6924 86.0864 88.7034 86.4489C88.9231 91.2822 89.0988 95.731 89.1867 99.0704C89.1867 99.4548 89.2087 99.8173 89.2197 100.169C89.2636 102.3 89.2636 103.871 89.2197 104.618C89.2197 104.618 89.3844 109.352 89.714 110.978C90.0435 112.615 89.714 115.053 89.714 115.053L89.692 115.031Z" fill="#B2D6F0"/>
<path d="M30.9782 121.556C31.0112 122.006 31.132 122.468 31.3517 122.929C31.0661 124.126 30.7915 125.313 30.5498 126.499C26.1669 122.918 21.9049 119.084 19.0488 116.393C22.0257 114.361 28.5286 108.803 30.5388 107.078C31.4176 108.286 32.4282 109.66 33.4937 111.153C32.0218 115.229 30.8464 119.26 30.9782 121.567V121.556Z" fill="#E9A879"/>
<path d="M72.5117 99.5426L72.5776 63.7764" stroke="#2F221D" stroke-width="0.5" stroke-miterlimit="10"/>
<path d="M37.8662 66.8955L39.4041 83.0211" stroke="#2F221D" stroke-width="0.5" stroke-miterlimit="10"/>
<path d="M69.666 19.7386C69.666 20.211 69.2815 20.6503 68.8202 20.7162C68.8202 20.7162 68.6225 20.7712 68.3808 20.8371C68.3588 21.0568 68.3369 21.2875 68.3149 21.5071C68.2819 21.8037 68.238 22.0784 68.1831 22.364C68.1831 22.3859 68.1831 22.4079 68.1611 22.4299C68.1611 22.4628 68.1611 22.4958 68.1391 22.5397C68.1391 22.5397 68.1391 22.5727 68.1391 22.5836C68.1391 22.6276 68.1172 22.6825 68.1062 22.7374C68.0183 23.1109 67.9195 23.4954 67.7876 23.8579C67.7876 23.9128 67.7547 23.9787 67.7437 24.0226C67.5679 24.5609 67.3373 25.0772 67.0736 25.5825C66.6232 26.4393 66.0411 27.2412 65.3051 27.9332C63.229 30.207 57.7806 31.9536 53.167 28.6472C49.4322 25.9669 47.7515 19.9583 47.1803 17.4318C45.6095 12.258 47.6526 6.74369 52.2443 4.52478C57.3851 2.03125 63.7672 4.5797 66.5244 10.2368C66.8429 10.9069 67.1066 11.588 67.2933 12.28C67.2933 12.28 67.2933 12.28 67.2933 12.3129C67.6668 13.3345 68.0403 14.7406 68.249 16.3004C68.4138 16.9046 69.1497 18.3216 69.3475 18.75C69.4793 19.0685 69.666 19.3981 69.666 19.7386Z" fill="#E9A879"/>
<path d="M67.634 20.6496C67.4692 20.6496 67.3813 20.5727 67.2824 20.5068C67.2055 20.4079 67.1177 20.32 67.1177 20.1553C67.2934 20.1553 67.3813 20.2322 67.4692 20.2981C67.5461 20.386 67.623 20.4738 67.634 20.6496Z" fill="#01124A"/>
<path d="M65.0856 19.1969C65.4435 19.1969 65.7337 18.6067 65.7337 17.8787C65.7337 17.1507 65.4435 16.5605 65.0856 16.5605C64.7277 16.5605 64.4375 17.1507 64.4375 17.8787C64.4375 18.6067 64.7277 19.1969 65.0856 19.1969Z" fill="#1C2238"/>
<path d="M65.0855 16.561C65.0855 16.561 64.1848 16.5939 63.7563 16.2314C63.7563 16.2314 63.8882 17.2311 64.6791 17.4178L65.0855 16.561Z" fill="#1C2238"/>
<path d="M65.426 19.3619C65.426 19.3619 64.3825 18.8785 63.8003 19.23L63.6025 18.9115C64.3605 18.4501 65.5249 18.9994 65.5798 19.0213L65.426 19.3509V19.3619Z" fill="#E9A879"/>
<path d="M66.5247 14.1902L62.0649 15.3436C62.0649 15.3436 62.2627 14.0914 64.0861 13.641C65.9096 13.1906 66.5138 14.1902 66.5138 14.1902H66.5247Z" fill="#1C2238"/>
<path d="M65.0962 21.6602C65.0962 21.6602 65.7223 22.7916 68.095 22.4181" stroke="#1C2238" stroke-width="0.25" stroke-linecap="round" stroke-linejoin="round"/>
<path d="M53.167 18.4192C53.167 18.4192 55.1552 16.398 56.2317 21.5828" stroke="#1C2238" stroke-width="0.25" stroke-linecap="round" stroke-linejoin="round"/>
<path d="M64.0968 5.52394C63.6574 4.96372 63.1631 4.43645 62.5699 4.06297C61.8779 3.63457 61.076 3.3929 60.2851 3.18419C57.9454 2.54708 55.4848 2.08572 53.1121 2.51413C51.3765 2.83268 49.8386 3.64555 48.5644 4.80993C48.2459 4.41448 47.8284 4.09593 47.3671 3.88722C46.5762 3.52472 45.6864 3.42586 44.8186 3.34896C43.3137 3.21715 41.7759 3.12927 40.3259 3.5357C37.8873 4.22774 35.9649 6.32582 35.2509 8.75344C35.0093 9.5773 34.8994 10.4341 34.9104 11.2799C34.9324 12.3454 35.1631 13.4329 35.7782 14.3007C36.4373 15.2234 37.4918 15.8056 38.6013 16.0802C40.0183 16.4208 41.5452 16.256 42.8633 15.6518C42.9622 16.4208 43.105 17.1787 43.3577 17.9147C44.0387 19.9579 45.3459 21.7264 46.6311 23.451C48.0481 25.3623 49.4652 27.2627 50.8822 29.163C54.0018 30.4812 54.9465 22.8798 54.9465 22.8798C50.3 22.2317 51.5193 15.8715 53.2329 16.1901C54.9465 16.5196 58.8571 20.3533 58.8571 20.3533L57.5499 17.662C60.3181 14.7291 58.2859 10.6538 58.2859 10.6538C58.2859 10.6538 64.8877 12.697 67.0078 11.3898C67.0078 11.3898 67.2055 8.09436 64.0748 5.52394H64.0968Z" fill="#1C2238"/>
<path opacity="0.3" d="M214.95 273.068C214.95 274.617 190.586 275.88 160.532 275.88C130.478 275.88 106.114 274.628 106.114 273.068C106.114 271.508 130.478 270.256 160.532 270.256C190.586 270.256 214.95 271.508 214.95 273.068Z" fill="#717374"/>
<path d="M117.351 141.131V148.919C117.351 151.138 118.054 153.313 119.351 155.114L127.062 165.791V137.517L117.34 141.12L117.351 141.131Z" fill="#E9A879"/>
<path d="M125.601 49.8047C125.601 49.8047 120.361 49.8486 118.823 65.6227C117.285 81.3857 115.132 145.427 115.132 145.427L132.565 144.317V66.9189L125.612 49.8047H125.601Z" fill="#28466D"/>
<path d="M176.833 259.522L174.899 247.867L161.872 248.208C163.596 254.172 164.815 258.127 164.815 258.127C164.815 258.127 165.178 259.412 165.76 261.115C165.299 261.994 163.267 266.014 163.234 268.815H192.783C192.387 268.639 191.981 268.453 191.497 268.266C188.037 266.86 180.732 262.136 176.822 259.533L176.833 259.522Z" fill="#E9A879"/>
<path d="M183.753 262.158C183.753 262.158 186.148 256.182 183.237 254.82C180.337 253.458 177.931 255.875 176.833 259.533C176.833 259.533 172.142 265.915 170.099 264.893C168.056 263.872 165.145 259.774 165.145 259.774C165.145 259.774 162.75 263.531 162.75 264.893C162.75 264.893 161.213 269.507 162.234 271.55H197.737C197.737 271.55 198.077 268.134 193.299 266.772C188.521 265.409 183.742 262.158 183.742 262.158H183.753Z" fill="#FF4F59"/>
<path d="M139.925 259.283L138.453 247.628H149.481C149.965 254.878 150.745 258.898 150.986 260.875C151.448 261.754 153.48 265.775 153.513 268.576H123.964C124.359 268.4 124.766 268.213 125.249 268.027C128.709 266.62 136.014 261.897 139.925 259.294V259.283Z" fill="#E9A879"/>
<path d="M133.004 261.919C133.004 261.919 130.609 255.943 133.52 254.581C136.42 253.219 138.826 255.635 139.924 259.293C139.924 259.293 144.615 265.675 146.658 264.654C148.701 263.632 151.612 259.535 151.612 259.535C151.612 259.535 154.007 263.292 154.007 264.654C154.007 264.654 155.545 269.267 154.523 271.311H119.02C119.02 271.311 118.68 267.894 123.458 266.532C128.237 265.17 133.015 261.919 133.015 261.919H133.004Z" fill="#FF4F59"/>
<path d="M170.452 110.165L177.767 251.264L160.17 251.681L148.427 137.912L170.452 110.165Z" fill="#FFD000"/>
<path d="M177.361 243.333H159.313" stroke="#2F221D" stroke-width="0.5" stroke-miterlimit="10"/>
<path d="M148.427 137.912L143.143 178.61L152.623 251.681L136.465 250.747L125.293 178.204L124.393 132.914L148.427 137.912Z" fill="#FFD000"/>
<path d="M151.448 242.586L135.213 241.806" stroke="#2F221D" stroke-width="0.5" stroke-miterlimit="10"/>
<path d="M158.566 29.2511C160.807 31.1844 165.519 23.5281 163.355 21.4629C161.191 19.3978 159.653 22.7591 159.653 22.7591L159.214 25.1758L158.555 28.4272L158.39 29.1522L158.566 29.2401V29.2511Z" fill="#E9A879"/>
<path d="M137.783 29.296C135.509 31.1854 130.928 23.4521 133.136 21.431C135.344 19.4098 136.816 22.7931 136.816 22.7931L137.212 25.2207L137.816 28.4831L137.97 29.2191L137.794 29.307L137.783 29.296Z" fill="#E9A879"/>
<path d="M142.276 41.137C142.451 37.9515 142.594 35.2602 142.594 35.2602C142.594 35.2602 145.033 36.9628 147.252 37.3803C149.471 37.7977 151.624 36.4905 151.646 36.4795C151.667 36.4685 154.227 34.9746 154.227 34.9746C154.227 34.9746 154.26 35.5348 154.315 36.4575C154.458 38.7533 154.721 43.2571 154.93 46.6843C153.282 49.0241 150.778 50.8805 146.988 51.243C146.856 51.254 146.724 51.2759 146.582 51.2869C145.681 51.3418 144.901 51.3308 144.198 51.2649C143.176 51.1661 142.363 50.9574 141.737 50.6498C141.825 49.068 142.067 44.7949 142.265 41.137H142.276Z" fill="#E9A879"/>
<path d="M136.388 17.3877C136.388 22.3967 137.08 26.7137 137.783 29.7784C138.464 32.7772 140.375 34.8753 143.088 36.567L143.583 36.8745C146.45 38.665 150.151 38.698 153.051 36.9844C155.984 35.2488 158.038 32.953 158.675 29.7345C159.829 23.8796 159.95 17.3877 159.95 17.3877C159.95 17.3877 161.048 4.74425 148.339 4.9969C135.63 5.23856 136.388 17.3877 136.388 17.3877Z" fill="#1C2238"/>
<path d="M159.544 23.3079C159.544 23.3079 156.831 14.5751 158.797 8.91797C158.797 8.91797 164.926 11.9498 159.544 23.3079Z" fill="#1C2238"/>
<path d="M136.904 23.3079C136.904 23.3079 140.321 14.5751 138.365 8.91797C138.365 8.91797 132.203 11.2577 136.904 23.3079Z" fill="#1C2238"/>
<path d="M162.85 16.0915C162.85 24.2641 156.49 30.8989 148.636 30.8989C140.782 30.8989 134.421 24.2751 134.421 16.0915C134.421 7.90788 140.782 2.34961 148.636 2.34961C156.49 2.34961 162.85 7.90788 162.85 16.0915Z" fill="#1C2238"/>
<path d="M159.994 21.9254C159.994 21.9254 157.325 13.3134 159.258 7.74414C159.258 7.74414 165.299 10.732 159.994 21.9254Z" fill="#1C2238"/>
<path d="M137.673 21.9254C137.673 21.9254 141.045 13.3134 139.112 7.74414C139.112 7.74414 133.037 10.0509 137.673 21.9254Z" fill="#1C2238"/>
<path d="M160.148 9.02888C160.148 9.02888 143.407 17.6189 136.926 10.8084C136.926 10.8084 131.609 5.45885 137.464 1.31762C143.319 -2.82362 156.72 4.45924 156.72 4.45924C156.72 4.45924 159.719 5.17325 160.148 9.02888Z" fill="#1C2238"/>
<path d="M160.148 9.02808C160.148 9.02808 163.268 3.49179 154.381 0.767578C154.381 0.767578 152.217 2.98649 155.315 5.89744C158.413 8.81937 160.148 9.02808 160.148 9.02808Z" fill="#1C2238"/>
<path d="M153.03 128.111L161.147 122.52L160.038 120.719C159.631 120.06 159.719 119.225 160.247 118.654C160.785 118.071 161.664 117.94 162.345 118.335L172.429 121.301L177.844 129.518C173.67 134.175 170.594 134.538 168.716 133.988C168.518 134.087 168.32 134.186 168.123 134.274L161.158 137.317C160.532 137.69 159.708 137.514 159.291 136.91C158.994 136.471 158.808 135.724 160.104 134.834L158.808 135.724C158.138 136.119 157.281 135.922 156.852 135.273C156.457 134.702 156.732 133.835 157.478 133.197L156.468 133.758C155.743 134.197 154.776 133.933 154.381 133.153C154.04 132.483 154.304 131.649 154.93 131.22L156.369 130.232L154.6 130.913C153.799 131.319 152.799 131 152.404 130.155C152.063 129.43 152.371 128.562 153.019 128.111H153.03Z" fill="#E9A879"/>
<path d="M197.167 78.0537L165.399 118.115L177.087 129.517L209.788 96.1565L197.167 78.0537Z" fill="#28466D"/>
<path d="M170.968 52.8545C170.968 52.8545 191.85 65.4649 208.81 80.9754C213.171 84.9628 213.633 91.6635 209.788 96.1562C206.284 100.243 200.319 97.9797 195.76 95.1347L160.412 71.5724L170.979 52.8545H170.968Z" fill="#28466D"/>
<path d="M174.955 81.0088L165.904 74.7256" stroke="#1C2238" stroke-width="1.04" stroke-miterlimit="10"/>
<path d="M188.378 89.709H196.683" stroke="#2F221D" stroke-width="0.5" stroke-miterlimit="10"/>
<path d="M175.263 106.636L166.156 118.115L168.134 120.048" stroke="#1C2238" stroke-width="1.04" stroke-miterlimit="10"/>
<path d="M126.15 111.493L121.021 139.131C121.021 139.131 146.077 155.092 177.768 144.502L172.253 111.944L126.15 111.482V111.493Z" fill="white"/>
<path d="M175.878 56.5246L170.133 51.966L157.16 49.2308L137.047 44.749L125.601 49.813C125.601 49.813 118.296 104.77 122.141 117.061C122.141 117.061 156.238 127.233 175.582 119.841L174.406 71.1014L177.57 61.4568C178.141 59.6113 177.46 57.6231 175.878 56.5137V56.5246Z" fill="#28466D"/>
<path d="M124.393 61.3037L121.724 103.848C121.416 108.802 122.778 113.712 125.601 117.798L125.821 118.117" stroke="#2F221D" stroke-width="0.5" stroke-miterlimit="10"/>
<path d="M151.173 29.3281C151.558 29.8774 164.652 27.3838 169.232 38.2477C173.791 49.0457 170.133 51.9786 170.133 51.9786L147.395 54.9335C147.395 54.9335 142.506 56.8009 138.969 50.6604C135.432 44.52 136.355 34.2383 142.254 32.305C148.153 30.3717 151.173 29.3281 151.173 29.3281Z" fill="#28466D"/>
<path d="M170.133 51.9688C170.133 51.9688 163.564 56.2528 147.395 54.9236" stroke="#2F221D" stroke-width="0.5" stroke-miterlimit="10"/>
<path d="M137.047 44.7402C137.047 44.7402 137.157 48.2444 138.97 50.65" stroke="#2F221D" stroke-width="0.5" stroke-miterlimit="10"/>
</svg>
