<svg width="285" height="318" viewBox="0 0 285 318" fill="none" xmlns="http://www.w3.org/2000/svg">
<g style="mix-blend-mode:multiply">
<path d="M271.064 38.665C271.25 78.4339 273.36 163.951 275.66 206.794C277.201 235.531 282.433 290.095 284.803 317.326C191.652 314.42 94.277 311.51 1.12551 308.604C91.104 242.195 181.086 105.071 271.064 38.665Z" fill="#EFEFEF"/>
</g>
<path d="M0.913422 38.665H271.064V308.816H0.913422V38.665Z" fill="#F9F9F9"/>
<path d="M127.254 20.7797C127.257 20.4811 127.292 20.1695 127.376 19.8837C127.588 19.1643 128.297 18.7853 129.023 18.962C129.804 19.1515 130.131 19.7071 130.118 20.8247C130.06 25.1443 129.958 32.8423 129.877 38.6617H127.122C127.183 34.2169 127.193 25.0736 127.25 20.7797H127.254Z" fill="#4AE5D6"/>
<path d="M144.448 21.1521C144.454 20.7827 144.442 20.3653 144.609 20.0602C144.792 19.723 145.122 19.3697 145.469 19.238C146.491 18.8526 147.335 19.6395 147.319 20.908C147.178 31.7085 147.04 42.5122 146.886 53.3127L144.053 50.5283C144.181 40.7362 144.313 30.9441 144.448 21.1521Z" fill="#4AE5D6"/>
<path d="M138.844 10.8721C138.847 10.5445 138.847 10.2169 138.831 9.88936C138.564 4.98851 133.41 1.75123 128.92 3.72955C126.001 5.01418 124.565 7.35544 124.524 10.5445C124.43 17.3787 124.34 24.2097 124.25 31.0439L121.415 28.2531C121.495 22.3567 121.572 16.457 121.652 10.5606C121.659 10.188 121.668 9.81227 121.697 9.43973C122.227 2.52523 129.787 -1.82001 135.995 1.26952C139.888 3.2061 141.77 6.45299 141.718 10.7886C141.606 19.7971 141.477 29.6533 141.355 38.6618H138.446C138.568 29.5409 138.728 19.9897 138.85 10.8689L138.844 10.8721Z" fill="#4AE5D6"/>
<path d="M146.224 64.0908C145.11 67.8676 142.389 70.9025 138.667 72.3766C133.808 74.3003 128.236 73.1153 124.925 69.7014C122.124 66.7211 120.936 63.5545 120.987 59.8869C121.113 50.8656 121.232 41.8411 121.35 32.8166C121.37 31.2943 121.392 29.7752 121.411 28.2529L124.247 31.0438C124.225 32.8198 124.199 34.5957 124.177 36.3717C124.071 44.2272 123.965 52.0827 123.862 59.9382C123.855 60.3108 123.868 60.6865 123.887 61.0591C124.311 68.375 132.533 72.807 138.824 69.0912C141.93 67.2574 143.549 64.5565 143.854 61.1104C143.883 60.7732 143.915 60.4393 143.921 60.086C143.963 56.8969 144.008 53.711 144.05 50.5219L146.882 53.3063C146.85 55.67 146.818 58.037 146.783 60.4007C146.763 61.6853 146.568 62.9186 146.224 64.0844V64.0908Z" fill="#4AE5D6"/>
</svg>
