<svg width="284" height="309" viewBox="0 0 284 309" fill="none" xmlns="http://www.w3.org/2000/svg">
<g style="mix-blend-mode:multiply">
<path d="M13.9655 30.2725C13.7793 70.0254 11.6702 155.509 9.37161 198.334C7.83067 227.06 2.60112 281.602 0.231934 308.822C93.3462 305.917 190.682 303.008 283.796 300.103C193.854 233.721 103.908 96.6547 13.9655 30.2725Z" fill="#EFEFEF"/>
</g>
<path d="M283.797 30.2725H13.9658V300.103H283.797V30.2725Z" fill="#F9F9F9"/>
<path d="M185.52 20.1344C185.873 19.4731 185.632 18.7059 184.99 18.3238C184.3 17.9129 183.677 18.0766 182.906 18.8824C179.269 22.6802 175.632 26.4747 171.995 30.2725H175.963C178.967 27.1361 181.972 23.9964 184.977 20.8568C185.182 20.6417 185.378 20.3977 185.516 20.1344H185.52Z" fill="#7591F9"/>
<path d="M172.476 9.07754C172.73 8.81109 173.032 8.51895 173.128 8.18829C173.234 7.82232 173.247 7.33757 173.093 7.00049C172.637 6.01172 171.484 5.97641 170.605 6.89455C163.138 14.6859 155.671 22.474 148.216 30.2718H152.184C158.951 23.2092 165.716 16.1466 172.48 9.07754H172.476Z" fill="#7591F9"/>
<path d="M183.668 5.68133C183.893 5.44698 184.124 5.21263 184.365 4.99112C187.989 1.68774 193.922 2.99433 195.736 7.54651C196.914 10.5064 196.297 13.1773 194.092 15.4791C189.37 20.4101 184.651 25.3379 179.928 30.2689H183.903C187.976 26.0153 192.05 21.7584 196.124 17.5048C196.381 17.2351 196.635 16.9591 196.875 16.6733C201.338 11.3796 199.004 2.98791 192.419 0.843437C188.291 -0.501672 184.676 0.490306 181.678 3.61391C173.158 12.4903 164.654 21.3796 156.146 30.2721H160.114C167.967 22.0762 175.816 13.8804 183.665 5.68454L183.668 5.68133Z" fill="#7591F9"/>
<path d="M141.135 38.41C139.285 41.8803 139.093 45.9477 140.714 49.6042C142.826 54.3747 147.626 57.4373 152.374 57.3249C156.457 57.1644 159.52 55.7423 162.053 53.097C168.284 46.5833 174.518 40.0761 180.753 33.5689C181.802 32.4709 182.855 31.373 183.905 30.2783H179.931C178.705 31.5592 177.478 32.8401 176.252 34.121C170.823 39.7872 165.398 45.4565 159.969 51.1227C159.712 51.3923 159.44 51.6524 159.164 51.9028C153.738 56.8145 144.778 54.2142 142.9 47.1612C141.972 43.6813 142.711 40.6218 144.907 37.9573C145.122 37.6973 145.334 37.434 145.578 37.1804C147.783 34.8819 149.982 32.5801 152.184 30.2815H148.216C146.582 31.9894 144.948 33.6941 143.318 35.4019C142.432 36.3297 141.709 37.3474 141.138 38.4164L141.135 38.41Z" fill="#7591F9"/>
</svg>
