<svg width="285" height="318" viewBox="0 0 285 318" fill="none" xmlns="http://www.w3.org/2000/svg">
<g style="mix-blend-mode:multiply">
<path d="M270.766 38.874C270.952 78.613 273.06 164.066 275.358 206.877C276.899 235.592 282.126 290.116 284.495 317.326C191.413 314.422 94.1113 311.514 1.02967 308.61C90.9407 242.251 180.855 105.23 270.766 38.874Z" fill="#EFEFEF"/>
</g>
<path d="M0.76004 38.874H270.708V308.822H0.76004V38.874Z" fill="#F9F9F9"/>
<path d="M128.687 20.0267C128.735 19.7315 128.809 19.4298 128.934 19.157C129.245 18.4767 130.002 18.2007 130.696 18.4799C131.44 18.7784 131.687 19.3753 131.514 20.476C130.846 24.741 129.534 33.1297 128.632 38.8741H125.731C126.418 34.4872 128.019 24.2692 128.687 20.0267Z" fill="#F9C138"/>
<path d="M145.641 22.8217C145.699 22.4559 145.747 22.0419 145.952 21.7627C146.18 21.4546 146.555 21.1498 146.918 21.0695C147.983 20.8321 148.709 21.7274 148.513 22.9822C146.847 33.6462 145.185 44.3135 143.507 54.9775L141.1 51.8229C142.611 42.1537 144.123 32.4877 145.641 22.8217Z" fill="#F9C138"/>
<path d="M141.552 11.8625C141.603 11.5384 141.648 11.2142 141.677 10.8901C142.107 6.00577 137.467 2.07455 132.743 3.39672C129.675 4.25678 127.923 6.3684 127.429 9.51659C126.373 16.2622 125.317 23.0111 124.261 29.7567L121.851 26.5957C122.762 20.7743 123.674 14.9497 124.585 9.12828C124.643 8.75923 124.707 8.39017 124.791 8.02433C126.292 1.25942 134.383 -1.9722 140.089 1.96223C143.664 4.42686 145.069 7.90559 144.405 12.1866C143.022 21.0824 141.629 29.9782 140.233 38.874H137.329C138.738 29.8691 140.146 20.8674 141.555 11.8625H141.552Z" fill="#F9C138"/>
<path d="M141.331 65.5517C139.694 69.1299 136.575 71.7486 132.685 72.6792C127.608 73.8955 122.262 71.9347 119.47 68.0901C117.121 64.7462 116.392 61.444 116.96 57.8272C118.36 48.9186 119.752 40.01 121.145 31.1014C121.379 29.5995 121.617 28.0976 121.851 26.5957L124.261 29.7567C123.988 31.5089 123.712 33.2611 123.44 35.0165C122.227 42.7731 121.01 50.5296 119.797 58.2861C119.74 58.6552 119.698 59.0275 119.666 59.3997C119.05 66.6941 126.556 72.2428 133.308 69.4572C136.639 68.0837 138.622 65.6383 139.412 62.2751C139.489 61.9446 139.569 61.6172 139.623 61.2707C140.114 58.1225 140.609 54.9743 141.103 51.8293L143.51 54.9839C143.144 57.3202 142.778 59.6532 142.409 61.9895C142.21 63.2571 141.841 64.4509 141.334 65.5549L141.331 65.5517Z" fill="#F9C138"/>
</svg>
