<svg width="278" height="309" viewBox="0 0 278 309" fill="none" xmlns="http://www.w3.org/2000/svg">
<g style="mix-blend-mode:multiply">
<path d="M14.211 37.21C14.0295 75.9719 11.9729 159.324 9.73166 201.082C8.22913 229.091 3.12995 282.274 0.819824 308.816C91.6128 305.983 186.522 303.147 277.315 300.314C189.615 235.587 101.911 101.934 14.211 37.21Z" fill="#EFEFEF"/>
</g>
<path d="M277.315 37.21H14.2109V300.314H277.315V37.21Z" fill="#F9F9F9"/>
<path d="M150.994 17.9305C150.609 17.3107 149.845 17.1355 149.209 17.4861C148.527 17.8648 148.358 18.4721 148.658 19.5176C150.073 24.4446 152.471 32.2828 153.886 37.2098H156.844C155.676 33.1373 152.512 22.8137 151.341 18.7413C151.26 18.4596 151.15 18.1778 150.997 17.9305H150.994Z" fill="#F4552A"/>
<path d="M135.276 23.4934C135.176 23.1491 135.079 22.7515 134.848 22.5074C134.591 22.2382 134.19 21.9877 133.83 21.9564C132.772 21.8563 132.178 22.811 132.519 24.0005C135.417 34.1144 138.313 44.2282 141.221 54.3389L143.168 50.9958C140.538 41.8273 137.909 32.6588 135.276 23.4934Z" fill="#F4552A"/>
<path d="M137.909 12.3963C137.822 12.0895 137.737 11.7827 137.671 11.4697C136.667 6.79622 140.68 2.43579 145.409 3.14323C148.48 3.60337 150.43 5.43457 151.285 8.42083C153.119 14.8191 154.957 21.2173 156.791 27.6124L158.741 24.2662C157.157 18.7444 155.573 13.2227 153.986 7.70089C153.886 7.3503 153.777 7.00282 153.654 6.65849C151.385 0.29782 143.171 -1.85265 138.128 2.64239C134.967 5.45962 134.031 8.99368 135.189 13.0505C138.485 24.5855 138.798 25.6717 142.113 37.2035H145.024C141.975 26.5669 140.958 23.0297 137.906 12.3931L137.909 12.3963Z" fill="#F4552A"/>
<path d="M144.602 64.2963C146.618 67.558 149.948 69.7148 153.824 70.1467C158.882 70.7102 163.815 68.1684 166.05 64.1116C167.919 60.5932 168.226 57.3127 167.24 53.882C164.811 45.4365 162.391 36.988 159.968 28.5394C159.561 27.1151 159.151 25.6909 158.741 24.2666L156.791 27.6129C157.267 29.275 157.746 30.9372 158.222 32.5993C160.331 39.9554 162.441 47.3084 164.551 54.6645C164.651 55.0151 164.739 55.3688 164.814 55.7256C166.288 62.7061 159.699 68.9792 152.834 67.0979C149.447 66.1713 147.234 64.0459 146.064 60.8874C145.951 60.5775 145.832 60.2708 145.738 59.9421C144.884 56.9559 144.023 53.9727 143.168 50.9865L141.221 54.3296C141.86 56.5427 142.492 58.7589 143.131 60.972C143.478 62.174 143.979 63.2821 144.602 64.2901V64.2963Z" fill="#F4552A"/>
</svg>
