<svg width="24" height="24" viewBox="0 0 24 24" fill="none" xmlns="http://www.w3.org/2000/svg">
<g clip-path="url(#clip0_569_15)">
<path d="M19.7636 2.29052C19.7636 1.02594 18.7377 0 17.4731 0H6.52489C5.26031 0 4.23438 1.02594 4.23438 2.29052V5.77673H19.7636V2.29052Z" fill="#181818"/>
<path d="M21.7095 6.69434H2.29052C1.02594 6.69434 0 7.72027 0 8.98485V17.1087C0 18.3733 1.02594 19.3992 2.29052 19.3992H3.31891V14.1982H20.6786V19.3992H21.707C22.9716 19.3992 23.9975 18.3733 23.9975 17.1087V8.98485C23.9975 7.72027 22.9716 6.69434 21.707 6.69434H21.7095ZM19.2664 10.867C18.7473 10.867 18.3266 10.4463 18.3266 9.92714C18.3266 9.40802 18.7473 8.98485 19.2664 8.98485C19.7855 8.98485 20.2063 9.40556 20.2063 9.92468C20.2063 10.4438 19.7855 10.867 19.2664 10.867Z" fill="#181818"/>
<path d="M4.23438 15.1133V23.6849H19.7636V15.1133H4.23438ZM16.1052 21.9627H7.89281V21.0475H16.1052V21.9627ZM16.1052 19.8567H7.89281V18.9415H16.1052V19.8567ZM16.1052 17.6867H7.89281V16.7715H16.1052V17.6867Z" fill="#181818"/>
</g>
<defs>
<clipPath id="clip0_569_15">
<rect width="24" height="23.6851" fill="white"/>
</clipPath>
</defs>
</svg>
