<svg width="233" height="311" viewBox="0 0 233 311" fill="none" xmlns="http://www.w3.org/2000/svg">
<g style="mix-blend-mode:multiply">
<path d="M6.53492 288.771C7.5242 287.425 9.22705 286.646 11.0921 287.003C12.8598 287.344 14.3032 288.771 14.6438 290.539C15.2114 293.441 13.0058 295.988 10.2001 295.988C9.12975 295.988 8.14047 295.615 7.36202 294.998L0.0640692 298.096V310.259H215.808C224.922 310.259 232.301 302.88 232.301 293.766V28.0879C232.301 19.2006 225.1 12 216.213 12H0.0640692V25.6228L1.50744 26.4824L6.71331 27.5365C7.05389 27.0824 8.83783 26.2715 10.1839 26.2715C12.9896 26.2715 15.1952 28.8177 14.6275 31.7207C14.287 33.4884 12.8598 34.9156 11.0921 35.2561C8.18912 35.8238 5.64295 33.6182 5.64295 30.8125C5.64295 30.6665 1.29661 30.2449 1.29661 30.2449L0.0478516 30.7963V56.9392L6.4214 57.2311C7.37824 55.8039 9.12975 54.9606 11.0272 55.3012C12.8274 55.6255 14.2708 57.0527 14.6275 58.8529C15.1952 61.7558 12.9896 64.302 10.1839 64.302C8.46482 64.302 6.9728 63.3452 6.21057 61.9504L0.0478516 62.145V90.7206L5.74025 89.6502C5.62673 89.1312 5.61051 88.5798 5.6916 88.0122C5.99974 86.0175 7.65394 84.4281 9.66493 84.2173C12.6976 83.8929 15.2114 86.5526 14.6275 89.6178C14.287 91.4179 12.8112 92.8775 11.011 93.1857C10.1839 93.3316 9.38923 93.2505 8.69187 93.0073L3.04812 93.6398L0.0640692 95.7967V113.912L6.90793 114.561C7.91342 113.49 9.42167 112.923 11.0597 113.214C12.8598 113.539 14.3032 114.982 14.66 116.766C15.2276 119.669 13.022 122.215 10.2163 122.215C8.83783 122.215 7.60529 121.599 6.77818 120.626L0.0802869 120.464V145.277L2.2048 145.082C2.56159 144.434 7.0701 143.282 7.68637 142.86C8.56213 142.277 9.6325 141.985 10.7839 142.114C12.8274 142.358 14.4978 144.044 14.7248 146.088C15.033 148.828 12.8922 151.148 10.2163 151.148C8.72431 151.148 7.39446 150.418 6.56736 149.299C6.29166 148.926 2.4805 150.272 1.9291 149.98L0.0965046 150.466V171.225L6.87549 172.523C7.88099 171.436 9.40545 170.82 11.0597 171.112C12.8598 171.436 14.3356 172.863 14.6762 174.663C15.2438 177.566 13.0382 180.112 10.2325 180.112C8.48104 180.112 6.9728 179.123 6.21057 177.68L0.0965046 177.891V199.703L7.02145 201.325C8.02695 200.32 9.51897 199.784 11.1245 200.076C12.9085 200.417 14.3356 201.844 14.6762 203.612C15.2438 206.515 13.0382 209.061 10.2325 209.061C8.57835 209.061 7.11876 208.169 6.32409 206.839L0.0965046 204.423V229.803L6.89171 230.42C7.8972 229.333 9.42167 228.733 11.0597 229.025C12.8598 229.349 14.3194 230.776 14.6762 232.577C15.2438 235.48 13.0382 238.026 10.2325 238.026C8.83783 238.026 7.57285 237.393 6.74575 236.388L0.0965046 237.426V257.114L6.66466 259.628C7.60529 258.444 9.11353 257.73 10.7839 257.925C12.8436 258.168 14.4978 259.855 14.7248 261.914C15.033 264.655 12.8922 266.974 10.2163 266.974C8.96757 266.974 7.83233 266.471 7.00523 265.644L0.0802869 266.958V289.549L6.55114 288.722L6.53492 288.771Z" fill="#DDDDDD"/>
</g>
<path d="M6.53394 288.187C7.52322 286.841 9.22608 286.063 11.0911 286.419C12.8588 286.76 14.3022 288.187 14.6428 289.955C15.2104 292.858 13.0048 295.404 10.1991 295.404C9.12877 295.404 8.13949 295.031 7.36104 294.415L0.0630927 297.512V309.676H215.807C224.921 309.676 232.3 302.297 232.3 293.182V27.5205C232.3 18.6333 225.1 11.4326 216.212 11.4326H0.0630927V25.0555L1.50647 25.915L6.71234 26.9691C7.05291 26.5151 8.83685 25.7042 10.1829 25.7042C12.9886 25.7042 15.1942 28.2503 14.6266 31.1533C14.286 32.921 12.8588 34.3482 11.0911 34.6888C8.18815 35.2564 5.64197 33.0508 5.64197 30.2451C5.64197 30.0992 1.29564 29.6775 1.29564 29.6775L0.046875 30.2289V56.3718L6.42042 56.6799C7.37726 55.2528 9.12877 54.4094 11.0262 54.75C12.8264 55.0744 14.2698 56.5015 14.6266 58.3017C15.1942 61.2047 12.9886 63.7508 10.1829 63.7508C8.46385 63.7508 6.97182 62.794 6.20959 61.3993L0.046875 61.5939V90.1694L5.73928 89.099C5.62575 88.5801 5.60954 88.0287 5.69062 87.4611C5.99876 85.4663 7.65296 83.877 9.66395 83.6661C12.6967 83.3418 15.2104 86.0015 14.6266 89.0666C14.286 90.8668 12.8102 92.3264 11.01 92.6345C10.1829 92.7805 9.38825 92.6994 8.69089 92.4561L3.04714 93.0886L0.0630927 95.2455V113.361L6.90695 114.009C7.91245 112.939 9.42069 112.371 11.0587 112.663C12.8588 112.988 14.3022 114.415 14.659 116.215C15.2266 119.118 13.021 121.664 10.2154 121.664C8.83685 121.664 7.60431 121.048 6.77721 120.075L0.0793103 119.913V144.726L2.20383 144.531C2.56061 143.882 7.06913 142.731 7.6854 142.309C8.56115 141.725 9.63152 141.433 10.783 141.563C12.8264 141.806 14.4968 143.493 14.7239 145.537C15.032 148.277 12.8913 150.596 10.2154 150.596C8.72333 150.596 7.39348 149.867 6.56638 148.748C6.29068 148.375 2.47953 149.721 1.92813 149.429L0.095528 149.915V170.674L6.87451 171.971C7.88001 170.885 9.40447 170.268 11.0587 170.56C12.8588 170.885 14.3346 172.312 14.6752 174.112C15.2428 177.015 13.0372 179.561 10.2316 179.561C8.48006 179.561 6.97182 178.572 6.20959 177.129L0.095528 177.339V199.152L7.02047 200.774C8.02597 199.768 9.518 199.233 11.1235 199.525C12.9075 199.866 14.3346 201.293 14.6752 203.061C15.2428 205.964 13.0372 208.51 10.2316 208.51C8.57737 208.51 7.11778 207.618 6.32311 206.288L0.095528 203.872V229.252L6.89073 229.868C7.89623 228.782 9.42069 228.182 11.0587 228.474C12.8588 228.798 14.3184 230.225 14.6752 232.025C15.2428 234.928 13.0372 237.475 10.2316 237.475C8.83685 237.475 7.57187 236.842 6.74477 235.837L0.095528 236.874V256.563L6.66368 259.076C7.60431 257.893 9.11255 257.179 10.783 257.39C12.8426 257.633 14.4968 259.32 14.7239 261.363C15.032 264.104 12.8913 266.423 10.2154 266.423C8.96659 266.423 7.83136 265.92 7.00426 265.093L0.0793103 266.407V288.998L6.55016 288.171L6.53394 288.187Z" fill="url(#paint0_linear_582_920)"/>
<path d="M215.807 309.741H-0.00174434V297.48H0.030691L7.36108 294.35H7.39351C8.18818 295.015 9.16124 295.356 10.1992 295.356C11.5452 295.356 12.794 294.756 13.6535 293.718C14.5131 292.68 14.8536 291.318 14.5942 289.972C14.2536 288.22 12.8427 286.809 11.0911 286.485C9.35585 286.144 7.63678 286.825 6.59885 288.22L6.58263 288.236L0.030691 289.08V266.375H0.079344L7.03673 265.045H7.05294C7.89626 265.905 9.0315 266.375 10.2154 266.375C11.4804 266.375 12.7129 265.823 13.5562 264.883C14.4158 263.926 14.805 262.677 14.659 261.38C14.432 259.353 12.794 257.698 10.7668 257.455C9.19368 257.277 7.66921 257.893 6.69615 259.126L6.66372 259.158H6.63128L0.0144733 256.612V236.826H0.0631263L6.74481 235.772V235.805C7.62056 236.826 8.86932 237.41 10.1992 237.41C11.529 237.41 12.794 236.81 13.6535 235.772C14.5131 234.734 14.8536 233.372 14.5942 232.026C14.2536 230.242 12.8102 228.831 11.0263 228.523C9.48559 228.247 7.94492 228.766 6.90698 229.901H6.89077L6.85833 229.917L0.0144733 229.301V203.775L0.0955617 203.807L6.33937 206.223C7.15025 207.602 8.62606 208.445 10.1992 208.445C11.5452 208.445 12.794 207.845 13.6535 206.807C14.5131 205.769 14.8536 204.407 14.5942 203.061C14.2536 201.31 12.8427 199.899 11.0911 199.558C9.5829 199.266 8.10709 199.72 7.03673 200.791H7.02051H6.98807L0.0144733 199.153V177.243L6.22584 177.032V177.064C7.02051 178.54 8.54497 179.464 10.2154 179.464C11.5615 179.464 12.8102 178.864 13.6698 177.826C14.5293 176.788 14.8699 175.426 14.6104 174.08C14.2698 172.296 12.8264 170.885 11.0425 170.577C9.50181 170.301 7.96113 170.82 6.9232 171.956H6.90698L6.87455 171.972L0.0469087 170.674V149.835L1.94438 149.332H1.96059C2.22008 149.478 3.32288 149.202 4.31216 148.975C5.64201 148.651 6.46911 148.456 6.63128 148.683C7.4746 149.835 8.82067 150.516 10.2478 150.516C11.5128 150.516 12.7453 149.964 13.5887 149.024C14.4482 148.067 14.8374 146.818 14.6915 145.521C14.4644 143.494 12.8264 141.839 10.7992 141.596C9.71264 141.466 8.62606 141.726 7.73408 142.326C7.49082 142.488 6.67994 142.764 5.73931 143.072C4.36081 143.526 2.47956 144.142 2.28495 144.515V144.548H2.23629L0.0469087 144.742V119.816H0.111779L6.8259 119.978H6.84211C7.70165 120.983 8.93419 121.567 10.2478 121.567C11.5615 121.567 12.8427 120.967 13.7022 119.929C14.5617 118.891 14.9023 117.529 14.6428 116.183C14.3022 114.415 12.8751 113.004 11.0911 112.68C9.56668 112.404 8.04222 112.907 6.98807 114.01H6.97185L6.93942 114.026L0.0469087 113.377V95.1811H0.0631263L3.0634 92.9917L8.72336 92.343C9.45316 92.6025 10.2316 92.6674 11.0263 92.5214C12.8264 92.197 14.2536 90.7861 14.5942 88.9859C14.8699 87.5588 14.4644 86.1316 13.4914 85.0775C12.5183 84.0233 11.1398 83.5206 9.69642 83.6665C7.71787 83.8774 6.06366 85.4667 5.77175 87.4128C5.69066 87.9642 5.70688 88.4994 5.80418 89.0346V89.0995H5.75553L-0.00174434 90.1861V61.4808L6.24206 61.2862V61.3186C7.05294 62.7457 8.54497 63.6377 10.183 63.6377C11.529 63.6377 12.7778 63.0377 13.6373 61.9997C14.4969 60.9618 14.8374 59.5995 14.5779 58.2535C14.2374 56.4857 12.8102 55.0748 11.0263 54.7504C9.22611 54.4261 7.49082 55.1559 6.46911 56.6479V56.6803H6.42045L-0.00174434 56.3722V30.132H0.030691L1.29567 29.5644C5.69066 30.0023 5.69066 30.132 5.69066 30.1969C5.69066 31.5429 6.29071 32.8079 7.32864 33.6512C8.36657 34.5108 9.72886 34.8514 11.0749 34.5919C12.8264 34.2513 14.2212 32.8404 14.5617 31.1051C14.8212 29.759 14.4806 28.3967 13.6211 27.3588C12.7616 26.3209 11.5128 25.7208 10.1667 25.7208C8.82067 25.7208 7.05294 26.5479 6.72859 26.9533V26.9858H6.66372L1.44163 25.9154L-0.0341797 25.0397V11.3682H216.164C225.067 11.3682 232.316 18.6175 232.316 27.5047V293.183C232.316 302.313 224.889 309.725 215.774 309.725L215.807 309.741ZM0.111779 309.627H215.807C224.873 309.627 232.235 302.248 232.235 293.199V27.521C232.235 18.6823 225.051 11.4979 216.212 11.4979H0.111779V25.0234L1.52272 25.8668L6.69615 26.9209C7.1016 26.4344 8.90176 25.6559 10.1992 25.6559C11.5777 25.6559 12.8751 26.2722 13.7508 27.3264C14.6266 28.3967 14.9834 29.7914 14.7077 31.1699C14.3671 32.9701 12.9237 34.4135 11.1236 34.754C9.74508 35.0297 8.35036 34.673 7.27999 33.7972C6.22584 32.9215 5.60957 31.6403 5.60957 30.278C5.35009 30.1644 2.885 29.8887 1.3281 29.7428L0.127997 30.278V56.3236L6.42045 56.6155C7.45838 55.091 9.24233 54.3612 11.0749 54.7018C12.9075 55.0261 14.3671 56.4857 14.7239 58.3021C14.9996 59.6806 14.6428 61.0753 13.7671 62.1457C12.8913 63.2161 11.5939 63.8161 10.2154 63.8161C8.54497 63.8161 7.02051 62.9079 6.20962 61.4646L0.144215 61.6592V90.1212L5.70688 89.067C5.60957 88.5481 5.59335 88.0129 5.67444 87.4615C5.98258 85.4505 7.66921 83.8287 9.69642 83.6179C11.1722 83.4557 12.5832 83.9909 13.5887 85.0613C14.5942 86.1479 14.9996 87.6074 14.7239 89.0832C14.3833 90.9158 12.9075 92.3754 11.0587 92.6998C10.2478 92.8457 9.46938 92.7809 8.72336 92.5214L3.09583 93.1539L0.144215 95.2784V113.312L6.90698 113.961C7.97735 112.842 9.53425 112.339 11.0911 112.615C12.9075 112.956 14.3833 114.399 14.7401 116.215C15.0158 117.594 14.659 118.989 13.7833 120.059C12.9075 121.129 11.6101 121.729 10.2316 121.729C8.8531 121.729 7.63678 121.146 6.76102 120.14L0.160432 119.994V144.677L2.18764 144.499C2.46334 144.094 4.18241 143.526 5.69066 143.023C6.63128 142.715 7.44217 142.439 7.653 142.293C8.56119 141.677 9.68021 141.401 10.7992 141.547C12.8751 141.807 14.5617 143.494 14.7888 145.569C14.9347 146.899 14.5293 148.18 13.6535 149.154C12.7778 150.127 11.529 150.678 10.2316 150.678C8.77202 150.678 7.39351 149.981 6.53398 148.797C6.42045 148.635 5.269 148.91 4.32837 149.137C3.25801 149.397 2.25251 149.64 1.92816 149.51L0.160432 149.981V170.642L6.87455 171.923C7.94491 170.772 9.51803 170.253 11.0911 170.528C12.9237 170.853 14.3995 172.296 14.7563 174.129C15.032 175.507 14.6752 176.902 13.7995 177.972C12.9237 179.043 11.6263 179.643 10.2478 179.643C8.54497 179.643 6.98807 178.718 6.19341 177.21L0.17665 177.421V199.136L7.02051 200.742C8.10709 199.672 9.61534 199.217 11.156 199.509C12.9562 199.85 14.3995 201.293 14.7563 203.093C15.032 204.472 14.6752 205.867 13.7995 206.937C12.9237 208.007 11.6263 208.607 10.2478 208.607C8.64227 208.607 7.13403 207.748 6.30693 206.369L0.17665 203.985V229.236L6.89077 229.836C7.96113 228.685 9.53425 228.166 11.0911 228.442C12.9237 228.766 14.3995 230.209 14.7563 232.042C15.032 233.421 14.6752 234.815 13.7995 235.886C12.9237 236.956 11.6263 237.556 10.2478 237.556C8.86932 237.556 7.62056 236.956 6.74481 235.934L0.17665 236.956V256.563L6.67994 259.044C7.68543 257.796 9.22611 257.179 10.8317 257.358C12.9075 257.601 14.5942 259.304 14.8212 261.396C14.9672 262.726 14.5617 264.007 13.686 264.98C12.8102 265.953 11.5615 266.505 10.264 266.505C9.04772 266.505 7.89626 266.034 7.03673 265.175L0.192868 266.472V288.95L6.58263 288.123C7.653 286.696 9.40451 286.014 11.1884 286.355C12.9886 286.696 14.432 288.139 14.7888 289.939C15.0645 291.318 14.7077 292.712 13.8319 293.783C12.9562 294.853 11.6588 295.453 10.2803 295.453C9.24233 295.453 8.25305 295.113 7.44217 294.464L0.209085 297.529V309.595L0.111779 309.627Z" fill="url(#paint1_linear_582_920)"/>
<path d="M214.348 32.5312H26.126V32.6448H214.348V32.5312Z" fill="#898989"/>
<path d="M214.348 44.1104H26.126V44.2239H214.348V44.1104Z" fill="#898989"/>
<path d="M214.348 55.6904H26.126V55.804H214.348V55.6904Z" fill="#898989"/>
<path d="M214.348 67.2852H26.126V67.3987H214.348V67.2852Z" fill="#898989"/>
<path d="M214.348 78.8652H26.126V78.9788H214.348V78.8652Z" fill="#898989"/>
<path d="M214.348 90.4443H26.126V90.5579H214.348V90.4443Z" fill="#898989"/>
<path d="M214.348 102.023H26.126V102.137H214.348V102.023Z" fill="#898989"/>
<path d="M214.348 113.619H26.126V113.733H214.348V113.619Z" fill="#898989"/>
<path d="M214.348 125.198H26.126V125.312H214.348V125.198Z" fill="#898989"/>
<path d="M214.348 136.779H26.126V136.893H214.348V136.779Z" fill="#898989"/>
<path d="M214.348 148.374H26.126V148.488H214.348V148.374Z" fill="#898989"/>
<path d="M214.348 159.954H26.126V160.068H214.348V159.954Z" fill="#898989"/>
<path d="M214.348 171.533H26.126V171.647H214.348V171.533Z" fill="#898989"/>
<path d="M214.348 183.111H26.126V183.225H214.348V183.111Z" fill="#898989"/>
<path d="M214.348 194.708H26.126V194.822H214.348V194.708Z" fill="#898989"/>
<path d="M214.348 206.287H26.126V206.401H214.348V206.287Z" fill="#898989"/>
<path d="M214.348 217.867H26.126V217.981H214.348V217.867Z" fill="#898989"/>
<path d="M214.348 229.462H26.126V229.575H214.348V229.462Z" fill="#898989"/>
<path d="M214.348 241.042H26.126V241.156H214.348V241.042Z" fill="#898989"/>
<path d="M214.348 252.621H26.126V252.735H214.348V252.621Z" fill="#898989"/>
<path d="M214.348 264.2H26.126V264.314H214.348V264.2Z" fill="#898989"/>
<path d="M214.348 275.796H26.126V275.909H214.348V275.796Z" fill="#898989"/>
<path d="M214.348 287.375H26.126V287.489H214.348V287.375Z" fill="#898989"/>
<g style="mix-blend-mode:screen" opacity="0.4">
<path d="M75.7676 21.5198L77.2434 18.7466L75.8 15.9572L77.2758 12.7947L75.8324 10.0053L77.3083 7.63751L75.8487 4.84807L77.3245 2.86952L75.8811 0.0800781L156.548 0.209819L154.796 3.17765L156.515 5.17243L154.764 8.52949L156.499 10.9297L154.829 13.4921L156.467 15.8923L154.894 18.8601L156.434 21.6496L75.7676 21.5198Z" fill="white"/>
</g>
<path opacity="0.8" d="M75.7988 22.5419L77.2746 19.7687L75.8313 16.9793L77.3071 13.8006L75.8637 11.0274L77.3395 8.64337L75.8799 5.85393L77.3557 3.87538L75.9124 1.08594L156.579 1.21568L154.811 4.18351L156.547 6.17829L154.795 9.55156L156.53 11.9356L154.86 14.5142L156.498 16.8982L154.925 19.866L156.466 22.6554L75.7988 22.5419Z" fill="url(#paint2_linear_582_920)"/>
<defs>
<linearGradient id="paint0_linear_582_920" x1="72.6858" y1="241.253" x2="191.367" y2="3.87517" gradientUnits="userSpaceOnUse">
<stop offset="0.64" stop-color="#F3F4F4"/>
<stop offset="1" stop-color="#EDEEEE"/>
</linearGradient>
<linearGradient id="paint1_linear_582_920" x1="-0.00174434" y1="160.555" x2="232.349" y2="160.555" gradientUnits="userSpaceOnUse">
<stop stop-color="#C1C5C6"/>
<stop offset="0.5" stop-color="#DADAD9"/>
<stop offset="1" stop-color="#EEEEEE"/>
</linearGradient>
<linearGradient id="paint2_linear_582_920" x1="-211.272" y1="550.549" x2="-126.245" y2="587.282" gradientUnits="userSpaceOnUse">
<stop stop-color="#04BED3"/>
<stop offset="0.48" stop-color="#37DFF2"/>
<stop offset="1" stop-color="#04C4D9"/>
</linearGradient>
</defs>
</svg>
