<svg width="45" height="45" viewBox="0 0 45 45" fill="none" xmlns="http://www.w3.org/2000/svg">
<path d="M38.6482 23.0354C38.6482 22.4831 38.2005 22.0354 37.6482 22.0354C37.0959 22.0354 36.6482 22.4831 36.6482 23.0354H38.6482ZM21.9276 8.46226C22.4799 8.46226 22.9276 8.01455 22.9276 7.46226C22.9276 6.90998 22.4799 6.46226 21.9276 6.46226V8.46226ZM30.7879 23.0354C30.7879 22.4831 30.3402 22.0354 29.7879 22.0354C29.2356 22.0354 28.7879 22.4831 28.7879 23.0354H30.7879ZM21.9276 16.2488C22.4799 16.2488 22.9276 15.8011 22.9276 15.2488C22.9276 14.6965 22.4799 14.2488 21.9276 14.2488V16.2488ZM29.5789 16.5495C29.9713 16.1608 29.9743 15.5277 29.5856 15.1353C29.1969 14.7429 28.5638 14.74 28.1714 15.1286L29.5789 16.5495ZM21.2238 22.011C20.8315 22.3997 20.8285 23.0329 21.2172 23.4252C21.6059 23.8176 22.239 23.8206 22.6314 23.4319L21.2238 22.011ZM39.2999 11.0215L40.0036 11.732C40.2735 11.4646 40.3686 11.0675 40.2491 10.7069C40.1296 10.3464 39.8161 10.0846 39.44 10.0314L39.2999 11.0215ZM33.047 17.2157L32.7335 18.1653C33.0906 18.2832 33.4836 18.1908 33.7508 17.9261L33.047 17.2157ZM27.489 11.7098L26.7852 10.9994C26.5142 11.2678 26.4195 11.6671 26.5412 12.0287L27.489 11.7098ZM33.7418 5.51562L34.7316 5.37289C34.6777 4.99907 34.4177 4.68752 34.0596 4.56748C33.7015 4.44744 33.3064 4.53939 33.038 4.80519L33.7418 5.51562ZM28.8785 15.8392L27.9307 16.1581C28.0311 16.4565 28.2661 16.6901 28.5649 16.7888L28.8785 15.8392ZM34.4366 10.3333L33.4468 10.476C33.5102 10.9159 33.8564 11.2612 34.2964 11.3234L34.4366 10.3333ZM36.6482 23.0354C36.6482 31.075 30.0665 37.6085 21.9276 37.6085V39.6085C31.1532 39.6085 38.6482 32.1973 38.6482 23.0354H36.6482ZM21.9276 37.6085C13.7887 37.6085 7.20703 31.075 7.20703 23.0354H5.20703C5.20703 32.1973 12.702 39.6085 21.9276 39.6085V37.6085ZM7.20703 23.0354C7.20703 14.9957 13.7887 8.46226 21.9276 8.46226V6.46226C12.702 6.46226 5.20703 13.8734 5.20703 23.0354H7.20703ZM28.7879 23.0354C28.7879 26.7746 25.7253 29.8219 21.9276 29.8219V31.8219C26.8121 31.8219 30.7879 27.8969 30.7879 23.0354H28.7879ZM21.9276 29.8219C18.1299 29.8219 15.0673 26.7746 15.0673 23.0354H13.0673C13.0673 27.8969 17.0431 31.8219 21.9276 31.8219V29.8219ZM15.0673 23.0354C15.0673 19.2961 18.1299 16.2488 21.9276 16.2488V14.2488C17.0431 14.2488 13.0673 18.1738 13.0673 23.0354H15.0673ZM28.1714 15.1286L21.2238 22.011L22.6314 23.4319L29.5789 16.5495L28.1714 15.1286ZM38.5961 10.3111L32.3433 16.5053L33.7508 17.9261L40.0036 11.732L38.5961 10.3111ZM28.1928 12.4202L34.4456 6.22606L33.038 4.80519L26.7852 10.9994L28.1928 12.4202ZM33.3606 16.2661L29.1921 14.8897L28.5649 16.7888L32.7335 18.1653L33.3606 16.2661ZM29.8263 15.5203L28.4368 11.3909L26.5412 12.0287L27.9307 16.1581L29.8263 15.5203ZM32.752 5.65836L33.4468 10.476L35.4263 10.1906L34.7316 5.37289L32.752 5.65836ZM34.2964 11.3234L39.1597 12.0117L39.44 10.0314L34.5767 9.34317L34.2964 11.3234Z" fill="#BFBFBF"/>
</svg>
