<svg width="36" height="36" viewBox="0 0 36 36" fill="none" xmlns="http://www.w3.org/2000/svg">
<path d="M31.4027 18.7931C31.4027 18.1028 30.843 17.5431 30.1527 17.5431C29.4623 17.5431 28.9027 18.1028 28.9027 18.7931H31.4027ZM17.3264 7.33726C18.0168 7.33726 18.5764 6.77761 18.5764 6.08726C18.5764 5.3969 18.0168 4.83726 17.3264 4.83726V7.33726ZM24.9896 18.7931C24.9896 18.1028 24.4299 17.5431 23.7396 17.5431C23.0492 17.5431 22.4896 18.1028 22.4896 18.7931H24.9896ZM17.3264 13.6902C18.0168 13.6902 18.5764 13.1306 18.5764 12.4402C18.5764 11.7498 18.0168 11.1902 17.3264 11.1902V13.6902ZM23.8746 13.8098C24.365 13.324 24.3688 12.5325 23.8829 12.0421C23.3971 11.5516 22.6056 11.5479 22.1152 12.0337L23.8746 13.8098ZM16.4467 17.649C15.9563 18.1349 15.9526 18.9263 16.4384 19.4168C16.9243 19.9072 17.7157 19.9109 18.2062 19.4251L16.4467 17.649ZM31.5002 8.99123L32.38 9.87927C32.7173 9.54511 32.8362 9.04867 32.6868 8.59796C32.5374 8.14725 32.1455 7.8201 31.6754 7.75356L31.5002 8.99123ZM26.3987 14.045L26.0067 15.2319C26.4531 15.3793 26.9444 15.2638 27.2784 14.933L26.3987 14.045ZM21.8639 9.55276L20.9842 8.66472C20.6454 9.00032 20.5271 9.49944 20.6792 9.95141L21.8639 9.55276ZM26.9655 4.49902L28.2027 4.32061C28.1353 3.85333 27.8104 3.46389 27.3628 3.31384C26.9152 3.16379 26.4212 3.27873 26.0858 3.61098L26.9655 4.49902ZM22.9976 12.9219L21.8129 13.3206C21.9383 13.6935 22.2321 13.9855 22.6057 14.1089L22.9976 12.9219ZM27.5323 8.42971L26.2951 8.60812C26.3744 9.15798 26.8071 9.58953 27.3572 9.66737L27.5323 8.42971ZM28.9027 18.7931C28.9027 25.109 23.7309 30.249 17.3264 30.249V32.749C25.0894 32.749 31.4027 26.5118 31.4027 18.7931H28.9027ZM17.3264 30.249C10.922 30.249 5.75024 25.109 5.75024 18.7931H3.25024C3.25024 26.5118 9.56351 32.749 17.3264 32.749V30.249ZM5.75024 18.7931C5.75024 12.4773 10.922 7.33726 17.3264 7.33726V4.83726C9.56351 4.83726 3.25024 11.0744 3.25024 18.7931H5.75024ZM22.4896 18.7931C22.4896 21.6003 20.1891 23.8961 17.3264 23.8961V26.3961C21.5475 26.3961 24.9896 23.0032 24.9896 18.7931H22.4896ZM17.3264 23.8961C14.4638 23.8961 12.1633 21.6003 12.1633 18.7931H9.66335C9.66335 23.0032 13.1054 26.3961 17.3264 26.3961V23.8961ZM12.1633 18.7931C12.1633 15.9859 14.4638 13.6902 17.3264 13.6902V11.1902C13.1054 11.1902 9.66335 14.5831 9.66335 18.7931H12.1633ZM22.1152 12.0337L16.4467 17.649L18.2062 19.4251L23.8746 13.8098L22.1152 12.0337ZM30.6205 8.10319L25.5189 13.1569L27.2784 14.933L32.38 9.87927L30.6205 8.10319ZM22.7436 10.4408L27.8452 5.38706L26.0858 3.61098L20.9842 8.66472L22.7436 10.4408ZM26.7906 12.858L23.3895 11.735L22.6057 14.1089L26.0067 15.2319L26.7906 12.858ZM24.1823 12.5233L23.0486 9.15411L20.6792 9.95141L21.8129 13.3206L24.1823 12.5233ZM25.7283 4.67744L26.2951 8.60812L28.7695 8.25129L28.2027 4.32061L25.7283 4.67744ZM27.3572 9.66737L31.3251 10.2289L31.6754 7.75356L27.7075 7.19204L27.3572 9.66737Z" fill="black"/>
</svg>
