<svg width="64" height="65" viewBox="0 0 64 65" fill="none" xmlns="http://www.w3.org/2000/svg">
<g clip-path="url(#clip0_578_197)">
<path d="M13.8942 10.7943L50.2947 63.2007C50.9829 64.1915 52.3783 64.5038 53.4209 63.9077L53.4264 63.9045C54.4689 63.3084 54.7605 62.0314 54.0723 61.0406L17.6753 8.63971C16.9907 7.65382 15.5946 7.34154 14.5492 7.93263L14.5437 7.93592C14.0227 8.23362 13.6889 8.70508 13.5731 9.21986C13.4553 9.74169 13.5519 10.302 13.8942 10.7949L13.8942 10.7943Z" fill="#224086"/>
<path d="M44.7791 51.4595C43.3336 52.2861 42.3135 51.7086 42.3135 51.7086L50.3643 63.3001C51.0129 64.2337 52.3782 64.503 53.4207 63.907L53.4262 63.9037C54.4688 63.3076 54.7905 62.0736 54.1419 61.1406L46.0905 49.5491C46.0905 49.5491 46.2215 50.6349 44.7784 51.4596L44.7791 51.4595Z" fill="#B3E2E6"/>
<g opacity="0.51">
<path d="M13.8443 10.0563C14.2405 10.6266 15.0934 10.8192 16.0564 10.2684C16.9968 9.73084 17.3755 8.83451 16.9792 8.26423C16.583 7.69396 15.4156 7.55451 14.6048 8.01769C13.794 8.48145 13.4487 9.48599 13.8449 10.0563L13.8443 10.0563Z" fill="#AC6BBD"/>
</g>
<g style="mix-blend-mode:multiply">
<path d="M13.8942 10.7951L50.2947 63.2014C50.9829 64.1922 52.3783 64.5045 53.4209 63.9085L53.4264 63.9052L14.5485 7.93286L14.543 7.93615C14.022 8.23385 13.6882 8.7053 13.5724 9.22009C13.4546 9.74192 13.5512 10.3022 13.8935 10.7951L13.8942 10.7951Z" fill="#B3E2E6"/>
</g>
<path d="M29.0976 8.18557L18.1695 0.871392C15.6303 -0.82792 12.2305 1.10092 12.417 4.135L13.2174 17.1952C13.2913 18.4007 12.7628 19.5638 11.805 20.3084L1.42096 28.3671C-0.991957 30.24 -0.193478 34.0456 2.77118 34.8094L15.5293 38.0904C16.7066 38.3932 17.6586 39.2515 18.0743 40.3857L22.5854 52.6802C23.6345 55.5368 27.5259 55.9592 29.1734 53.3958L36.2586 42.3628C36.9133 41.3443 38.0285 40.7117 39.2447 40.6692L52.4166 40.2082C55.4765 40.1022 57.0851 36.5569 55.1384 34.2095L46.7593 24.1101C45.9861 23.1785 45.7238 21.9286 46.0599 20.7674L49.689 8.1875C50.5321 5.2653 47.6335 2.64979 44.7835 3.76466L32.5188 8.55591C31.3881 8.99761 30.1098 8.85874 29.1015 8.18364L29.0976 8.18557Z" fill="#FE9C00"/>
<path d="M18.7438 34.6046C19.1479 34.9325 19.4956 35.3935 19.6685 35.895L23.183 45.4678C24.0184 47.7188 27.0549 48.039 28.3294 46.0291L33.8643 37.4226C34.3714 36.6472 35.2514 36.1496 36.184 36.1264L46.4709 35.7426C48.8508 35.6519 50.1175 32.9072 48.5905 31.0729L42.0492 23.1897C41.5907 22.6592 41.3634 21.9571 41.4197 21.2184C41.4294 21.012 41.4372 20.8037 41.511 20.5915L44.3358 10.7621C44.9789 8.49381 42.7233 6.46081 40.5086 7.323L30.9521 11.063C30.0468 11.4064 29.0637 11.2945 28.2672 10.766L19.7365 5.05468C17.7704 3.71992 15.1186 5.24949 15.274 7.60847L15.8801 17.7908C15.9442 18.7263 15.5265 19.6502 14.7961 20.225L6.69666 26.515C4.80441 27.9578 5.41444 30.9494 7.73411 31.5339L17.6927 34.1011C18.0891 34.1976 18.4271 34.3635 18.7476 34.6084L18.7438 34.6046Z" fill="#FEBA00"/>
<g opacity="0.31">
<path d="M28.3303 46.0314L33.8653 37.4249C34.3723 36.6495 35.2524 36.1519 36.1849 36.1287L46.4719 35.7449C48.8518 35.6542 50.1185 32.9095 48.5914 31.0752L42.0502 23.192C41.5917 22.6616 41.3644 21.9595 41.4207 21.2207C39.2603 23.9982 36.1169 27.1018 31.5767 30.1378C27.6504 32.7378 23.1529 34.0687 18.7447 34.6069C19.1488 34.9348 19.4966 35.3958 19.6695 35.8973L23.184 45.4701C24.0193 47.7211 27.0559 48.0413 28.3303 46.0314Z" fill="white"/>
</g>
<g opacity="0.31">
<path d="M27.5635 22.5068C32.232 23.1279 36.3351 21.2839 36.7256 18.3848C37.118 15.4858 33.6502 12.633 28.9817 12.01C24.3133 11.3889 20.2101 13.2329 19.8196 16.1319C19.4272 19.031 22.895 21.8838 27.5635 22.5068Z" fill="white"/>
</g>
</g>
<defs>
<clipPath id="clip0_578_197">
<rect width="64" height="64" fill="white" transform="translate(0 0.237305)"/>
</clipPath>
</defs>
</svg>
