<svg width="64" height="64" viewBox="0 0 64 64" fill="none" xmlns="http://www.w3.org/2000/svg">
<path d="M17.4949 6.17134L49.8357 59.5007C50.4471 60.5089 51.7705 60.8875 52.8001 60.3561L52.8055 60.3532C53.8351 59.8218 54.1777 58.583 53.5663 57.5748L21.2287 4.25099C20.6204 3.24774 19.2964 2.86915 18.2643 3.39554L18.2588 3.39849C17.7444 3.6639 17.4009 4.10954 17.2645 4.60898C17.1257 5.11523 17.1908 5.67028 17.4949 6.1719L17.4949 6.17134Z" fill="#5F2A6D"/>
<path d="M45.2522 47.8984C43.8247 48.6354 42.8745 48.0158 42.8745 48.0158L50.0274 59.8114C50.6037 60.7614 51.9002 61.0963 52.9298 60.5649L52.9352 60.5619C53.9648 60.0305 54.3343 58.8355 53.758 57.8861L46.6045 46.0905C46.6045 46.0905 46.6767 47.1632 45.2516 47.8984L45.2522 47.8984Z" fill="#B3E2E6"/>
<g opacity="0.51">
<path d="M19.4895 9.89855C19.8416 10.4789 20.6503 10.712 21.6014 10.2209C22.5301 9.74161 22.9375 8.88114 22.5855 8.30081C22.2334 7.72048 21.1203 7.52336 20.3196 7.93628C19.5189 8.34977 19.1381 9.3182 19.4902 9.89853L19.4895 9.89855Z" fill="#AC6BBD"/>
</g>
<g style="mix-blend-mode:multiply">
<path d="M17.6338 6.41677L49.9745 59.7461C50.586 60.7543 51.9094 61.1329 52.939 60.6016L52.9444 60.5986L18.4025 3.64042L18.3971 3.64338C17.8826 3.90878 17.5392 4.35443 17.4027 4.85387C17.264 5.36011 17.329 5.91517 17.6331 6.41679L17.6338 6.41677Z" fill="#B3E2E6"/>
</g>
<path d="M29.2917 7.70153L20.8793 2.07112C18.9247 0.763005 16.3075 2.24782 16.4511 4.58342L17.0673 14.6371C17.1241 15.5651 16.7173 16.4604 15.98 17.0336L7.98641 23.2371C6.12896 24.6789 6.74363 27.6084 9.0258 28.1964L18.8469 30.722C19.7532 30.9552 20.486 31.6159 20.8061 32.489L24.2787 41.9532C25.0863 44.1522 28.0818 44.4773 29.35 42.504L34.8042 34.0109C35.3082 33.2269 36.1666 32.7399 37.1028 32.7072L47.2425 32.3524C49.598 32.2707 50.8363 29.5416 49.3378 27.7346L42.8875 19.9601C42.2923 19.243 42.0904 18.2808 42.3491 17.387L45.1428 7.70301C45.7919 5.45352 43.5605 3.44012 41.3666 4.29834L31.9253 7.98661C31.0549 8.32663 30.0709 8.21973 29.2947 7.70004L29.2917 7.70153Z" fill="#FE9C00"/>
<path d="M21.3216 28.0393C21.6326 28.2918 21.9003 28.6466 22.0334 29.0327L24.7388 36.4018C25.3819 38.1346 27.7194 38.3811 28.7005 36.8339L32.9613 30.2087C33.3516 29.6118 34.0291 29.2287 34.7469 29.2109L42.6657 28.9154C44.4978 28.8456 45.4728 26.7327 44.2974 25.3207L39.2619 19.2522C38.909 18.8439 38.734 18.3034 38.7774 17.7348C38.7848 17.5759 38.7908 17.4155 38.8477 17.2522L41.0222 9.6856C41.5172 7.93946 39.7809 6.37447 38.076 7.03818L30.7195 9.91723C30.0225 10.1815 29.2658 10.0954 28.6526 9.68857L22.0858 5.29204C20.5723 4.26455 18.5309 5.44201 18.6506 7.25793L19.1172 15.0962C19.1665 15.8164 18.845 16.5276 18.2826 16.9701L12.0478 21.8121C10.5911 22.9227 11.0607 25.2256 12.8464 25.6755L20.5125 27.6518C20.8176 27.7261 21.0778 27.8537 21.3246 28.0423L21.3216 28.0393Z" fill="#FEBA00"/>
<g opacity="0.31">
<path d="M28.7005 36.8345L32.9613 30.2093C33.3516 29.6124 34.0291 29.2293 34.7469 29.2115L42.6657 28.916C44.4978 28.8462 45.4728 26.7333 44.2974 25.3213L39.2619 19.2528C38.909 18.8445 38.734 18.304 38.7774 17.7354C37.1143 19.8735 34.6946 22.2625 31.1995 24.5996C28.1771 26.6012 24.7149 27.6257 21.3216 28.0399C21.6326 28.2924 21.9003 28.6472 22.0334 29.0333L24.7388 36.4024C25.3819 38.1352 27.7194 38.3817 28.7005 36.8345Z" fill="white"/>
</g>
<g opacity="0.31">
<path d="M28.1113 18.7267C31.705 19.2048 34.8636 17.7853 35.1642 15.5537C35.4663 13.322 32.7968 11.1259 29.203 10.6464C25.6093 10.1682 22.4507 11.5877 22.1501 13.8194C21.848 16.0511 24.5175 18.2471 28.1113 18.7267Z" fill="white"/>
</g>
</svg>
