<svg width="102" height="102" viewBox="0 0 102 102" fill="none" xmlns="http://www.w3.org/2000/svg">
<circle cx="50.5438" cy="51.002" r="50.3426" fill="#E8BD30"/>
<path d="M38.58 61.3211C39.8077 65.903 44.3819 68.6584 48.7967 67.4754C53.2116 66.2925 55.7953 61.6191 54.5676 57.0372" stroke="black" stroke-width="2.87648" stroke-linecap="round"/>
<circle cx="27.7611" cy="44.3878" r="6.98182" fill="white"/>
<circle cx="28.8635" cy="42.5506" r="2.93971" fill="black"/>
<circle cx="53.4838" cy="39.9784" r="6.98182" fill="white"/>
<circle cx="56.7908" cy="38.876" r="2.93971" fill="black"/>
<path fill-rule="evenodd" clip-rule="evenodd" d="M66.1529 98.7908C86.4312 92.2891 101.11 73.28 101.11 50.8426C101.11 23.0392 78.5707 0.5 50.7672 0.5C39.5309 0.5 29.1544 4.1812 20.7778 10.4034C25.6275 8.84846 30.7974 8.00891 36.1635 8.00891C63.9669 8.00891 86.5061 30.5481 86.5061 58.3515C86.5061 74.9186 78.5034 89.6166 66.1529 98.7908Z" fill="#010201" fill-opacity="0.05"/>
</svg>
