<svg width="28" height="28" viewBox="0 0 28 28" fill="none" xmlns="http://www.w3.org/2000/svg">
<path d="M23.9223 13.6709C23.9223 8.01081 19.3302 3.4187 13.6701 3.4187C8.01008 3.4187 3.41797 8.01081 3.41797 13.6709C3.41797 19.3309 8.01008 23.923 13.6701 23.923C19.3302 23.923 23.9223 19.3309 23.9223 13.6709Z" stroke="#134388" stroke-width="1.71155" stroke-miterlimit="10"/>
<path d="M13.6706 19.2259C13.4991 19.2257 13.3316 19.174 13.1899 19.0774C11.0911 17.6526 10.1822 16.6742 9.68127 16.0649C8.61319 14.7634 8.10158 13.4267 8.11653 11.9795C8.13308 10.3207 9.46338 8.97119 11.0821 8.97119C12.1715 8.97119 12.9512 9.53888 13.4372 10.0612C13.4671 10.0928 13.5032 10.1181 13.5433 10.1353C13.5833 10.1526 13.6264 10.1615 13.67 10.1615C13.7136 10.1615 13.7568 10.1526 13.7968 10.1353C13.8368 10.1181 13.8729 10.0928 13.9029 10.0612C14.3894 9.53888 15.1686 8.97119 16.258 8.97119C17.8767 8.97119 19.207 10.3207 19.2235 11.9795C19.2385 13.4267 18.7264 14.7634 17.6588 16.0649C17.1579 16.6758 16.2489 17.6526 14.1501 19.0774C14.0088 19.1738 13.8417 19.2255 13.6706 19.2259Z" fill="#134388"/>
</svg>
