<svg width="28" height="28" viewBox="0 0 28 28" fill="none" xmlns="http://www.w3.org/2000/svg">
<path d="M9.39648 24.7725H17.9399" stroke="black" stroke-width="1.7113" stroke-linecap="round" stroke-linejoin="round"/>
<path d="M13.666 24.7737V17.939" stroke="black" stroke-width="1.7113" stroke-linecap="round" stroke-linejoin="round"/>
<path d="M20.5017 11.9585C20.5017 9.25484 20.4975 4.77071 20.4953 3.41623C20.4953 3.18968 20.4053 2.97241 20.2451 2.81221C20.0849 2.65201 19.8676 2.56201 19.6411 2.56201L7.69319 2.57589C7.4671 2.57589 7.25023 2.66552 7.09011 2.82514C6.92999 2.98476 6.83968 3.20135 6.83897 3.42745C6.83897 5.06008 6.83203 10.3237 6.83203 11.9585C6.83203 15.3903 11.2633 17.938 13.6658 17.938C16.0683 17.938 20.5017 15.3903 20.5017 11.9585Z" stroke="black" stroke-width="1.7113" stroke-linecap="round" stroke-linejoin="round"/>
<path d="M6.83422 5.125H2.5625V5.97934C2.5625 8.9279 4.35395 11.9597 6.83422 11.9597" stroke="black" stroke-width="1.7113" stroke-linecap="round" stroke-linejoin="round"/>
<path d="M20.502 5.12549H24.7737V5.97983C24.7737 8.92839 22.9822 11.9602 20.502 11.9602" stroke="black" stroke-width="1.7113" stroke-linecap="round" stroke-linejoin="round"/>
</svg>
