<svg width="24" height="25" viewBox="0 0 24 25" fill="none" xmlns="http://www.w3.org/2000/svg">
<g clip-path="url(#clip0_637_98)">
<path d="M23.4408 23.5402H22.6931V14.5702C22.6931 14.284 22.4615 14.0524 22.1752 14.0524H16.954V11.6635H18.1022C18.3239 11.6635 18.5207 11.5229 18.5919 11.3128C18.663 11.1026 18.5952 10.871 18.4198 10.7354L12.5203 6.13622V3.97395H15.9515C16.2377 3.97395 16.4693 3.74234 16.4693 3.45613V0.559323C16.4693 0.273116 16.2377 0.0415039 15.9515 0.0415039H12.0025C11.7163 0.0415039 11.4847 0.273116 11.4847 0.559323V6.13622L5.58519 10.7354C5.40982 10.871 5.34199 11.1043 5.41313 11.3128C5.48593 11.5212 5.6828 11.6635 5.90283 11.6635H7.05096V14.0524H1.82645C1.54024 14.0524 1.30863 14.284 1.30863 14.5702V23.5402H0.559201C0.272994 23.5402 0.0413818 23.7718 0.0413818 24.058C0.0413818 24.3443 0.272994 24.5759 0.559201 24.5759H23.4392C23.7254 24.5759 23.957 24.3443 23.957 24.058C23.957 23.7718 23.7254 23.5402 23.4392 23.5402H23.4408ZM15.4304 2.93831H12.5187V1.0788H15.4304V2.93831ZM11.9876 7.0577C11.9876 7.0577 11.9959 7.06101 11.9992 7.06101C12.0025 7.06101 12.0075 7.05936 12.0108 7.0577L16.5901 10.6278H7.40831L11.9876 7.0577ZM2.34427 15.0897H7.56547C7.85168 15.0897 8.08329 14.8581 8.08329 14.5719V11.6651H15.9134V14.5719C15.9134 14.8581 16.1451 15.0897 16.4313 15.0897H21.6525V23.5402H14.8265V17.6027C14.8265 17.3165 14.5949 17.0849 14.3087 17.0849H9.68803C9.40183 17.0849 9.17022 17.3165 9.17022 17.6027V23.5402H2.34427V15.0897ZM10.2075 23.5402V18.1205H13.7925V23.5402H10.2075Z" fill="black" stroke="black" stroke-width="0.5" stroke-miterlimit="10"/>
</g>
<defs>
<clipPath id="clip0_637_98">
<rect width="24" height="24.6187" fill="white"/>
</clipPath>
</defs>
</svg>
