<svg width="24" height="25" viewBox="0 0 24 25" fill="none" xmlns="http://www.w3.org/2000/svg">
<path d="M19.2004 14.3748C20.4677 15.3217 21.6004 17.7057 21.6004 19.1747C21.6004 19.6323 21.2665 20.0033 20.8546 20.0033H20.4004M15.6004 10.4935C16.4202 10.0193 16.9718 9.13286 16.9718 8.11761C16.9718 7.10237 16.4202 6.21595 15.6004 5.7417M3.14616 20.0033H16.2832C16.6951 20.0033 17.029 19.6323 17.029 19.1747C17.029 16.2981 14.6257 13.9661 9.71468 13.9661C4.80366 13.9661 2.40039 16.2981 2.40039 19.1747C2.40039 19.6323 2.73428 20.0033 3.14616 20.0033ZM12.4575 8.11761C12.4575 9.63245 11.2295 10.8605 9.71468 10.8605C8.19984 10.8605 6.97182 9.63245 6.97182 8.11761C6.97182 6.60277 8.19984 5.37476 9.71468 5.37476C11.2295 5.37476 12.4575 6.60277 12.4575 8.11761Z" stroke="black" stroke-width="2" stroke-linecap="round"/>
</svg>
