<svg width="25" height="25" viewBox="0 0 25 25" fill="none" xmlns="http://www.w3.org/2000/svg">
<path d="M19.4562 14.3748C20.7236 15.3217 21.8562 17.7057 21.8562 19.1747C21.8562 19.6323 21.5224 20.0033 21.1105 20.0033H20.6562M15.8562 10.4935C16.6761 10.0193 17.2277 9.13286 17.2277 8.11761C17.2277 7.10237 16.6761 6.21595 15.8562 5.7417M3.40202 20.0033H16.5391C16.9509 20.0033 17.2848 19.6323 17.2848 19.1747C17.2848 16.2981 14.8816 13.9661 9.97053 13.9661C5.05952 13.9661 2.65625 16.2981 2.65625 19.1747C2.65625 19.6323 2.99014 20.0033 3.40202 20.0033ZM12.7134 8.11761C12.7134 9.63245 11.4854 10.8605 9.97053 10.8605C8.4557 10.8605 7.22768 9.63245 7.22768 8.11761C7.22768 6.60277 8.4557 5.37476 9.97053 5.37476C11.4854 5.37476 12.7134 6.60277 12.7134 8.11761Z" stroke="#134388" stroke-width="2" stroke-linecap="round"/>
</svg>
